<?xml version="1.0" encoding="utf-8"?>
<!-- Generator: Adobe Illustrator 26.1.0, SVG Export Plug-In . SVG Version: 6.00 Build 0)  -->
<svg version="1.1" id="Layer_1" xmlns="http://www.w3.org/2000/svg" xmlns:xlink="http://www.w3.org/1999/xlink" x="0px" y="0px"
	 viewBox="0 0 330 200" style="enable-background:new 0 0 330 200;" xml:space="preserve">
<style type="text/css">
	.st0{fill:none;stroke:#CCCCCC;}
	.st1{display:none;fill:#212121;enable-background:new    ;}
	.st2{font-family:'Roboto-Regular';}
	.st3{font-size:12px;}
	.st4{fill:#212121;}
	.st5{clip-path:url(#SVGID_00000142896213152609706390000013236364839451333556_);}
	.st6{opacity:0.25;fill:none;stroke:#424242;enable-background:new    ;}
	.st7{fill:none;stroke:#999999;stroke-width:1.5;}
	.st8{fill:none;stroke:#0077BB;stroke-width:2;}
	.st9{fill:none;stroke:#FF7043;stroke-width:2;}
	.st10{font-family:'MyriadPro-Regular';}
	.st11{fill:none;stroke:#FF7043;stroke-width:5;}
	.st12{fill:none;stroke:#0077BB;stroke-width:5;}
	.st13{clip-path:url(#SVGID_00000005247411696992569250000016699182470679236011_);}
</style>
<g>
	<g>
		<g>
			<g>
				<g>
					<line class="st0" x1="51.6" y1="177" x2="46.6" y2="177"/>
					<line class="st0" x1="51.6" y1="151.7" x2="46.6" y2="151.7"/>
					<line class="st0" x1="51.6" y1="126.4" x2="46.6" y2="126.4"/>
					<line class="st0" x1="51.6" y1="101.1" x2="46.6" y2="101.1"/>
					<line class="st0" x1="51.6" y1="75.9" x2="46.6" y2="75.9"/>
					<line class="st0" x1="51.6" y1="50.6" x2="46.6" y2="50.6"/>
					<line class="st0" x1="51.6" y1="25.3" x2="46.6" y2="25.3"/>
					<line class="st0" x1="51.6" y1="0" x2="46.6" y2="0"/>
				</g>
				<g transform="translate(41.5625, 0)">
					<text transform="matrix(1 0 0 1 -19.9453 180.6)" class="st1 st2 st3">-0.5</text>
					<text transform="matrix(1 0 0 1 -6.7383 155.3143)" class="st4 st2 st3">0</text>
					<text transform="matrix(1 0 0 1 -16.6348 130.0286)" class="st4 st2 st3">0.5</text>
					<text transform="matrix(1 0 0 1 -6.7383 104.7429)" class="st4 st2 st3">1</text>
					<text transform="matrix(1 0 0 1 -16.6348 79.4572)" class="st4 st2 st3">1.5</text>
					<text transform="matrix(1 0 0 1 -6.7383 54.1714)" class="st4 st2 st3">2</text>
					<text transform="matrix(1 0 0 1 -16.6348 28.8857)" class="st4 st2 st3">2.5</text>
					<text transform="matrix(1 0 0 1 -6.7383 3.6)" class="st1 st2 st3">3</text>
				</g>
				<line class="st0" x1="51.6" y1="0" x2="51.6" y2="177"/>
			</g>
		</g>
		<g>
			<defs>
				<rect id="SVGID_1_" x="51" width="278" height="177"/>
			</defs>
			<clipPath id="SVGID_00000145776963940972836950000013289574442366108842_">
				<use xlink:href="#SVGID_1_"  style="overflow:visible;"/>
			</clipPath>
			<g transform="translate(51, 0)" style="clip-path:url(#SVGID_00000145776963940972836950000013289574442366108842_);">
				<g>
					<g>
						<g>
							<line class="st6" x1="0" y1="0" x2="0" y2="177"/>
							<line class="st6" x1="25.3" y1="0" x2="25.3" y2="177"/>
							<line class="st6" x1="50.6" y1="0" x2="50.6" y2="177"/>
							<line class="st6" x1="75.9" y1="0" x2="75.9" y2="177"/>
							<line class="st6" x1="101.2" y1="0" x2="101.2" y2="177"/>
							<line class="st6" x1="126.6" y1="0" x2="126.6" y2="177"/>
							<line class="st6" x1="151.9" y1="0" x2="151.9" y2="177"/>
							<line class="st6" x1="177.2" y1="0" x2="177.2" y2="177"/>
							<line class="st6" x1="202.5" y1="0" x2="202.5" y2="177"/>
							<line class="st6" x1="227.8" y1="0" x2="227.8" y2="177"/>
							<line class="st6" x1="253.1" y1="0" x2="253.1" y2="177"/>
							<line class="st6" x1="278.4" y1="0" x2="278.4" y2="177"/>
						</g>
						<g>
							<line class="st6" x1="0" y1="177" x2="278.4" y2="177"/>
							<line class="st6" x1="0" y1="151.7" x2="278.4" y2="151.7"/>
							<line class="st6" x1="0" y1="126.4" x2="278.4" y2="126.4"/>
							<line class="st6" x1="0" y1="101.1" x2="278.4" y2="101.1"/>
							<line class="st6" x1="0" y1="75.9" x2="278.4" y2="75.9"/>
							<line class="st6" x1="0" y1="50.6" x2="278.4" y2="50.6"/>
							<line class="st6" x1="0" y1="25.3" x2="278.4" y2="25.3"/>
							<line class="st6" x1="0" y1="0" x2="278.4" y2="0"/>
						</g>
					</g>
				</g>
				<g>
					<g>
						<line class="st7" x1="0" y1="151.7" x2="278.4" y2="151.7"/>
					</g>
				</g>
				<g>
					<g>
						<line class="st7" x1="25.3" y1="0" x2="25.3" y2="177"/>
					</g>
				</g>
				<g>
					<g>
						<g>
							<g>
								<g>
									<path class="st8" d="M25.3,3.2l25.3,4.2l25.3,8.2l25.3,20l25.3,43.9l25.3,36l25.3,18.4l25.3,2.5l25.3,6.3l25.3,4.8"/>
								</g>
								<g>
									<path class="st9" d="M25.3,77.3l25.3,39.2l25.3,17l25.3,7.9l25.3,4l25.3,2.3l25.3,1.2l25.3,0.1l25.3,0.4l25.3,0.6"/>
								</g>
							</g>
						</g>
					</g>
				</g>
				<text transform="matrix(1 0 0 1 162.832 35.1475)"><tspan x="0" y="0" class="st10 st3">Training</tspan><tspan x="0" y="14.4" class="st10 st3">Validation</tspan></text>
				<line class="st11" x1="225.1" y1="32.5" x2="255.7" y2="32.5"/>
				<line class="st12" x1="225.1" y1="46.1" x2="255.7" y2="46.1"/>
			</g>
		</g>
		<g>
			<defs>
				<rect id="SVGID_00000144304139893989998030000013173132563506804113_" x="51" y="177" width="278" height="23"/>
			</defs>
			<clipPath id="SVGID_00000103966377614104157650000002081389230655203242_">
				<use xlink:href="#SVGID_00000144304139893989998030000013173132563506804113_"  style="overflow:visible;"/>
			</clipPath>
			<g transform="translate(51, 177)" style="clip-path:url(#SVGID_00000103966377614104157650000002081389230655203242_);">
				<g>
					<g>
						<line class="st0" x1="0" y1="0" x2="0" y2="5"/>
						<line class="st0" x1="25.3" y1="0" x2="25.3" y2="5"/>
						<line class="st0" x1="50.6" y1="0" x2="50.6" y2="5"/>
						<line class="st0" x1="75.9" y1="0" x2="75.9" y2="5"/>
						<line class="st0" x1="101.2" y1="0" x2="101.2" y2="5"/>
						<line class="st0" x1="126.6" y1="0" x2="126.6" y2="5"/>
						<line class="st0" x1="151.9" y1="0" x2="151.9" y2="5"/>
						<line class="st0" x1="177.2" y1="0" x2="177.2" y2="5"/>
						<line class="st0" x1="202.5" y1="0" x2="202.5" y2="5"/>
						<line class="st0" x1="227.8" y1="0" x2="227.8" y2="5"/>
						<line class="st0" x1="253.1" y1="0" x2="253.1" y2="5"/>
						<line class="st0" x1="278.4" y1="0" x2="278.4" y2="5"/>
					</g>
					<g transform="translate(0, 8)">
						<text transform="matrix(1 0 0 1 -5.0244 11.4)" class="st1 st2 st3">-1</text>
						<text transform="matrix(1 0 0 1 21.9434 11.4)" class="st4 st2 st3">0</text>
						<text transform="matrix(1 0 0 1 47.2559 11.4)" class="st4 st2 st3">1</text>
						<text transform="matrix(1 0 0 1 72.5684 11.4)" class="st4 st2 st3">2</text>
						<text transform="matrix(1 0 0 1 97.8809 11.4)" class="st4 st2 st3">3</text>
						<text transform="matrix(1 0 0 1 123.1934 11.4)" class="st4 st2 st3">4</text>
						<text transform="matrix(1 0 0 1 148.5059 11.4)" class="st4 st2 st3">5</text>
						<text transform="matrix(1 0 0 1 173.8184 11.4)" class="st4 st2 st3">6</text>
						<text transform="matrix(1 0 0 1 199.1309 11.4)" class="st4 st2 st3">7</text>
						<text transform="matrix(1 0 0 1 224.4434 11.4)" class="st4 st2 st3">8</text>
						<text transform="matrix(1 0 0 1 249.7559 11.4)" class="st4 st2 st3">9</text>
						<text transform="matrix(1 0 0 1 271.6992 11.4)" class="st1 st2 st3">10</text>
					</g>
					<line class="st0" x1="0" y1="0" x2="278.4" y2="0"/>
				</g>
			</g>
		</g>
	</g>
</g>
</svg>
