<?xml version="1.0" encoding="utf-8"?>
<!-- Generator: Adobe Illustrator 26.1.0, SVG Export Plug-In . SVG Version: 6.00 Build 0)  -->
<svg version="1.1" id="Layer_1" xmlns="http://www.w3.org/2000/svg" xmlns:xlink="http://www.w3.org/1999/xlink" x="0px" y="0px"
	 viewBox="0 0 330 200" style="enable-background:new 0 0 330 200;" xml:space="preserve">
<style type="text/css">
	.st0{fill:none;stroke:#CCCCCC;}
	.st1{display:none;fill:#212121;enable-background:new    ;}
	.st2{font-family:'Roboto-Regular';}
	.st3{font-size:12px;}
	.st4{fill:#212121;}
	.st5{clip-path:url(#SVGID_00000064330666523580086410000016369204664097856413_);}
	.st6{opacity:0.25;fill:none;stroke:#424242;enable-background:new    ;}
	.st7{fill:none;stroke:#999999;stroke-width:1.5;}
	.st8{fill:none;stroke:#0077BB;stroke-width:2;}
	.st9{fill:none;stroke:#FF7043;stroke-width:2;}
	.st10{clip-path:url(#SVGID_00000154414013817997008930000000316815582698133140_);}
	.st11{font-family:'MyriadPro-Regular';}
	.st12{fill:none;stroke:#0077BB;stroke-width:5;}
	.st13{fill:none;stroke:#FF7043;stroke-width:5;}
</style>
<g>
	<g>
		<g>
			<g>
				<g>
					<line class="st0" x1="40" y1="177" x2="35" y2="177"/>
					<line class="st0" x1="40" y1="160.9" x2="35" y2="160.9"/>
					<line class="st0" x1="40" y1="144.8" x2="35" y2="144.8"/>
					<line class="st0" x1="40" y1="128.7" x2="35" y2="128.7"/>
					<line class="st0" x1="40" y1="112.6" x2="35" y2="112.6"/>
					<line class="st0" x1="40" y1="96.5" x2="35" y2="96.5"/>
					<line class="st0" x1="40" y1="80.5" x2="35" y2="80.5"/>
					<line class="st0" x1="40" y1="64.4" x2="35" y2="64.4"/>
					<line class="st0" x1="40" y1="48.3" x2="35" y2="48.3"/>
					<line class="st0" x1="40" y1="32.2" x2="35" y2="32.2"/>
					<line class="st0" x1="40" y1="16.1" x2="35" y2="16.1"/>
					<line class="st0" x1="40" y1="0" x2="35" y2="0"/>
				</g>
				<g transform="translate(30, 0)">
					<text transform="matrix(1 0 0 1 -6.7383 180.6)" class="st1 st2 st3">0</text>
					<text transform="matrix(1 0 0 1 -16.6348 164.5091)" class="st4 st2 st3">0.1</text>
					<text transform="matrix(1 0 0 1 -16.6348 148.4182)" class="st1 st2 st3">0.2</text>
					<text transform="matrix(1 0 0 1 -16.6348 132.3273)" class="st4 st2 st3">0.3</text>
					<text transform="matrix(1 0 0 1 -16.6348 116.2363)" class="st1 st2 st3">0.4</text>
					<text transform="matrix(1 0 0 1 -16.6348 100.1454)" class="st4 st2 st3">0.5</text>
					<text transform="matrix(1 0 0 1 -16.6348 84.0546)" class="st1 st2 st3">0.6</text>
					<text transform="matrix(1 0 0 1 -16.6348 67.9636)" class="st4 st2 st3">0.7</text>
					<text transform="matrix(1 0 0 1 -16.6348 51.8727)" class="st1 st2 st3">0.8</text>
					<text transform="matrix(1 0 0 1 -16.6348 35.7819)" class="st4 st2 st3">0.9</text>
					<text transform="matrix(1 0 0 1 -6.7383 19.6909)" class="st1 st2 st3">1</text>
					<text transform="matrix(1 0 0 1 -16.6348 3.6)" class="st1 st2 st3">1.1</text>
				</g>
				<line class="st0" x1="40" y1="0" x2="40" y2="177"/>
			</g>
		</g>
		<g>
			<defs>
				<rect id="SVGID_1_" x="40" width="290" height="177"/>
			</defs>
			<clipPath id="SVGID_00000100358921613628550470000005068179848296960656_">
				<use xlink:href="#SVGID_1_"  style="overflow:visible;"/>
			</clipPath>
			<g transform="translate(40, 0)" style="clip-path:url(#SVGID_00000100358921613628550470000005068179848296960656_);">
				<g>
					<g>
						<g>
							<line class="st6" x1="0" y1="0" x2="0" y2="177"/>
							<line class="st6" x1="26.4" y1="0" x2="26.4" y2="177"/>
							<line class="st6" x1="52.7" y1="0" x2="52.7" y2="177"/>
							<line class="st6" x1="79.1" y1="0" x2="79.1" y2="177"/>
							<line class="st6" x1="105.5" y1="0" x2="105.5" y2="177"/>
							<line class="st6" x1="131.8" y1="0" x2="131.8" y2="177"/>
							<line class="st6" x1="158.2" y1="0" x2="158.2" y2="177"/>
							<line class="st6" x1="184.5" y1="0" x2="184.5" y2="177"/>
							<line class="st6" x1="210.9" y1="0" x2="210.9" y2="177"/>
							<line class="st6" x1="237.3" y1="0" x2="237.3" y2="177"/>
							<line class="st6" x1="263.6" y1="0" x2="263.6" y2="177"/>
							<line class="st6" x1="290" y1="0" x2="290" y2="177"/>
						</g>
						<g>
							<line class="st6" x1="0" y1="177" x2="290" y2="177"/>
							<line class="st6" x1="0" y1="160.9" x2="290" y2="160.9"/>
							<line class="st6" x1="0" y1="144.8" x2="290" y2="144.8"/>
							<line class="st6" x1="0" y1="128.7" x2="290" y2="128.7"/>
							<line class="st6" x1="0" y1="112.6" x2="290" y2="112.6"/>
							<line class="st6" x1="0" y1="96.5" x2="290" y2="96.5"/>
							<line class="st6" x1="0" y1="80.5" x2="290" y2="80.5"/>
							<line class="st6" x1="0" y1="64.4" x2="290" y2="64.4"/>
							<line class="st6" x1="0" y1="48.3" x2="290" y2="48.3"/>
							<line class="st6" x1="0" y1="32.2" x2="290" y2="32.2"/>
							<line class="st6" x1="0" y1="16.1" x2="290" y2="16.1"/>
							<line class="st6" x1="0" y1="0" x2="290" y2="0"/>
						</g>
					</g>
				</g>
				<g>
					<g>
						<line class="st7" x1="0" y1="177" x2="290" y2="177"/>
					</g>
				</g>
				<g>
					<g>
						<line class="st7" x1="26.4" y1="0" x2="26.4" y2="177"/>
					</g>
				</g>
				<g>
					<g>
						<g>
							<g>
								<g>
									<path class="st8" d="M26.4,154l26.4,12.2l26.4,3.3l26.4-40l26.4-62.9l26.4-28.3l26.4-11.4l26.4,0.7l26.4-5.3l26.4-3.5"/>
								</g>
								<g>
									<path class="st9" d="M26.4,77.2l26.4-36.9l26.4-12.6l26.4-5.6l26.4-2.7l26.4-1.2l26.4-0.8l26.4-0.3l26.4,0l26.4-0.4"/>
								</g>
							</g>
						</g>
					</g>
				</g>
			</g>
		</g>
		<g>
			<defs>
				<rect id="SVGID_00000093172672900045823710000004091946375744381360_" x="40" y="177" width="290" height="23"/>
			</defs>
			<clipPath id="SVGID_00000003807010245699952620000014957798469412717467_">
				<use xlink:href="#SVGID_00000093172672900045823710000004091946375744381360_"  style="overflow:visible;"/>
			</clipPath>
			<g transform="translate(40, 177)" style="clip-path:url(#SVGID_00000003807010245699952620000014957798469412717467_);">
				<g>
					<g>
						<line class="st0" x1="0" y1="0" x2="0" y2="5"/>
						<line class="st0" x1="26.4" y1="0" x2="26.4" y2="5"/>
						<line class="st0" x1="52.7" y1="0" x2="52.7" y2="5"/>
						<line class="st0" x1="79.1" y1="0" x2="79.1" y2="5"/>
						<line class="st0" x1="105.5" y1="0" x2="105.5" y2="5"/>
						<line class="st0" x1="131.8" y1="0" x2="131.8" y2="5"/>
						<line class="st0" x1="158.2" y1="0" x2="158.2" y2="5"/>
						<line class="st0" x1="184.5" y1="0" x2="184.5" y2="5"/>
						<line class="st0" x1="210.9" y1="0" x2="210.9" y2="5"/>
						<line class="st0" x1="237.3" y1="0" x2="237.3" y2="5"/>
						<line class="st0" x1="263.6" y1="0" x2="263.6" y2="5"/>
						<line class="st0" x1="290" y1="0" x2="290" y2="5"/>
					</g>
					<g transform="translate(0, 8)">
						<text transform="matrix(1 0 0 1 -5.0244 11.4)" class="st1 st2 st3">-1</text>
						<text transform="matrix(1 0 0 1 22.9945 11.4)" class="st4 st2 st3">0</text>
						<text transform="matrix(1 0 0 1 49.3581 11.4)" class="st4 st2 st3">1</text>
						<text transform="matrix(1 0 0 1 75.7218 11.4)" class="st4 st2 st3">2</text>
						<text transform="matrix(1 0 0 1 102.0854 11.4)" class="st4 st2 st3">3</text>
						<text transform="matrix(1 0 0 1 128.449 11.4)" class="st4 st2 st3">4</text>
						<text transform="matrix(1 0 0 1 154.8127 11.4)" class="st4 st2 st3">5</text>
						<text transform="matrix(1 0 0 1 181.1763 11.4)" class="st4 st2 st3">6</text>
						<text transform="matrix(1 0 0 1 207.5399 11.4)" class="st4 st2 st3">7</text>
						<text transform="matrix(1 0 0 1 233.9036 11.4)" class="st4 st2 st3">8</text>
						<text transform="matrix(1 0 0 1 260.2672 11.4)" class="st4 st2 st3">9</text>
						<text transform="matrix(1 0 0 1 283.2617 11.4)" class="st1 st2 st3">10</text>
					</g>
					<line class="st0" x1="0" y1="0" x2="290" y2="0"/>
				</g>
			</g>
		</g>
	</g>
</g>
<text transform="matrix(1 0 0 1 209.0674 136.822)"><tspan x="0" y="0" class="st11 st3">Training</tspan><tspan x="0" y="14.4" class="st11 st3">Validation</tspan></text>
<line class="st12" x1="271.3" y1="147.8" x2="301.9" y2="147.8"/>
<line class="st13" x1="271.3" y1="133.2" x2="301.9" y2="133.2"/>
</svg>
