<?xml version="1.0" encoding="utf-8"?>
<!-- Generator: Adobe Illustrator 26.1.0, SVG Export Plug-In . SVG Version: 6.00 Build 0)  -->
<svg version="1.1" id="Layer_1" xmlns="http://www.w3.org/2000/svg" xmlns:xlink="http://www.w3.org/1999/xlink" x="0px" y="0px"
	 viewBox="0 0 330 200" style="enable-background:new 0 0 330 200;" xml:space="preserve">
<style type="text/css">
	.st0{fill:none;stroke:#CCCCCC;}
	.st1{fill:#212121;}
	.st2{font-family:'Roboto-Regular';}
	.st3{font-size:12px;}
	.st4{display:none;fill:#212121;enable-background:new    ;}
	.st5{clip-path:url(#SVGID_00000066500825075759259800000000723071116572535193_);}
	.st6{opacity:0.25;fill:none;stroke:#424242;enable-background:new    ;}
	.st7{fill:none;stroke:#999999;stroke-width:1.5;}
	.st8{fill:none;stroke:#33BBEE;stroke-width:2;}
	.st9{fill:none;stroke:#CC3311;stroke-width:2;}
	.st10{clip-path:url(#SVGID_00000078724744049796236710000017994320716228903311_);}
	.st11{font-family:'MyriadPro-Regular';}
	.st12{fill:none;stroke:#CC3311;stroke-width:5;}
	.st13{fill:none;stroke:#33BBEE;stroke-width:5;}
</style>
<g>
	<g>
		<g>
			<g>
				<g>
					<line class="st0" x1="50" y1="166.6" x2="45" y2="166.6"/>
					<line class="st0" x1="50" y1="145.7" x2="45" y2="145.7"/>
					<line class="st0" x1="50" y1="124.9" x2="45" y2="124.9"/>
					<line class="st0" x1="50" y1="104" x2="45" y2="104"/>
					<line class="st0" x1="50" y1="83.2" x2="45" y2="83.2"/>
					<line class="st0" x1="50" y1="62.3" x2="45" y2="62.3"/>
					<line class="st0" x1="50" y1="41.5" x2="45" y2="41.5"/>
					<line class="st0" x1="50" y1="20.6" x2="45" y2="20.6"/>
				</g>
				<g transform="translate(40, 0)">
					<text transform="matrix(1 0 0 1 -23.373 170.2007)" class="st1 st2 st3">0.65</text>
					<text transform="matrix(1 0 0 1 -16.6348 149.3478)" class="st4 st2 st3">0.7</text>
					<text transform="matrix(1 0 0 1 -23.373 128.4949)" class="st1 st2 st3">0.75</text>
					<text transform="matrix(1 0 0 1 -16.6348 107.6419)" class="st4 st2 st3">0.8</text>
					<text transform="matrix(1 0 0 1 -23.373 86.7889)" class="st1 st2 st3">0.85</text>
					<text transform="matrix(1 0 0 1 -16.6348 65.936)" class="st4 st2 st3">0.9</text>
					<text transform="matrix(1 0 0 1 -23.373 45.0831)" class="st1 st2 st3">0.95</text>
					<text transform="matrix(1 0 0 1 -6.7383 24.2301)" class="st4 st2 st3">1</text>
				</g>
				<line class="st0" x1="50" y1="0" x2="50" y2="177"/>
			</g>
		</g>
		<g>
			<defs>
				<rect id="SVGID_1_" x="50" width="280" height="177"/>
			</defs>
			<clipPath id="SVGID_00000071532988370271283520000000879424095225223573_">
				<use xlink:href="#SVGID_1_"  style="overflow:visible;"/>
			</clipPath>
			<g transform="translate(50, 0)" style="clip-path:url(#SVGID_00000071532988370271283520000000879424095225223573_);">
				<g>
					<g>
						<g>
							<line class="st6" x1="4.2" y1="0" x2="4.2" y2="177"/>
							<line class="st6" x1="37.8" y1="0" x2="37.8" y2="177"/>
							<line class="st6" x1="71.4" y1="0" x2="71.4" y2="177"/>
							<line class="st6" x1="105" y1="0" x2="105" y2="177"/>
							<line class="st6" x1="138.6" y1="0" x2="138.6" y2="177"/>
							<line class="st6" x1="172.2" y1="0" x2="172.2" y2="177"/>
							<line class="st6" x1="205.8" y1="0" x2="205.8" y2="177"/>
							<line class="st6" x1="239.3" y1="0" x2="239.3" y2="177"/>
							<line class="st6" x1="272.9" y1="0" x2="272.9" y2="177"/>
						</g>
						<g>
							<line class="st6" x1="0" y1="166.6" x2="280" y2="166.6"/>
							<line class="st6" x1="0" y1="145.7" x2="280" y2="145.7"/>
							<line class="st6" x1="0" y1="124.9" x2="280" y2="124.9"/>
							<line class="st6" x1="0" y1="104" x2="280" y2="104"/>
							<line class="st6" x1="0" y1="83.2" x2="280" y2="83.2"/>
							<line class="st6" x1="0" y1="62.3" x2="280" y2="62.3"/>
							<line class="st6" x1="0" y1="41.5" x2="280" y2="41.5"/>
							<line class="st6" x1="0" y1="20.6" x2="280" y2="20.6"/>
						</g>
					</g>
				</g>
				<g>
					<g>
						<line class="st7" x1="0" y1="437.7" x2="280" y2="437.7"/>
					</g>
				</g>
				<g>
					<g>
						<line class="st7" x1="37.8" y1="0" x2="37.8" y2="177"/>
					</g>
				</g>
				<g>
					<g>
						<g>
							<g>
								<g>
									<path class="st8" d="M37.8,175.8l16.8-50l16.8-15l16.8-10.5L105,82.3l16.8,13.3l16.8,10.3l16.8-14.6l16.8-26.7L189,44"/>
								</g>
								<g>
									<path class="st9" d="M37.8,115.7l16.8-77.1l16.8-9.7l16.8-3.3l16.8-0.5l16.8-1l16.8,0.7l16.8-1.7l16.8-2.1l16.8-0.3"/>
								</g>
							</g>
						</g>
					</g>
				</g>
			</g>
		</g>
		<g>
			<defs>
				<rect id="SVGID_00000039826330400843563190000017907008471571189164_" x="50" y="177" width="280" height="23"/>
			</defs>
			<clipPath id="SVGID_00000165227060031671286900000012174324404664417424_">
				<use xlink:href="#SVGID_00000039826330400843563190000017907008471571189164_"  style="overflow:visible;"/>
			</clipPath>
			<g transform="translate(50, 177)" style="clip-path:url(#SVGID_00000165227060031671286900000012174324404664417424_);">
				<g>
					<g>
						<line class="st0" x1="4.2" y1="0" x2="4.2" y2="5"/>
						<line class="st0" x1="37.8" y1="0" x2="37.8" y2="5"/>
						<line class="st0" x1="71.4" y1="0" x2="71.4" y2="5"/>
						<line class="st0" x1="105" y1="0" x2="105" y2="5"/>
						<line class="st0" x1="138.6" y1="0" x2="138.6" y2="5"/>
						<line class="st0" x1="172.2" y1="0" x2="172.2" y2="5"/>
						<line class="st0" x1="205.8" y1="0" x2="205.8" y2="5"/>
						<line class="st0" x1="239.3" y1="0" x2="239.3" y2="5"/>
						<line class="st0" x1="272.9" y1="0" x2="272.9" y2="5"/>
					</g>
					<g transform="translate(0, 8)">
						<text transform="matrix(1 0 0 1 -0.7961 11.4)" class="st1 st2 st3">-2</text>
						<text transform="matrix(1 0 0 1 34.4467 11.4)" class="st1 st2 st3">0</text>
						<text transform="matrix(1 0 0 1 68.0341 11.4)" class="st1 st2 st3">2</text>
						<text transform="matrix(1 0 0 1 101.6216 11.4)" class="st1 st2 st3">4</text>
						<text transform="matrix(1 0 0 1 135.209 11.4)" class="st1 st2 st3">6</text>
						<text transform="matrix(1 0 0 1 168.7965 11.4)" class="st1 st2 st3">8</text>
						<text transform="matrix(1 0 0 1 199.0149 11.4)" class="st1 st2 st3">10</text>
						<text transform="matrix(1 0 0 1 232.6024 11.4)" class="st1 st2 st3">12</text>
						<text transform="matrix(1 0 0 1 266.1898 11.4)" class="st1 st2 st3">14</text>
					</g>
					<line class="st0" x1="0" y1="0" x2="280" y2="0"/>
				</g>
			</g>
		</g>
	</g>
</g>
<text transform="matrix(1 0 0 1 229.0916 138.8218)" class="st11 st3">Training</text>
<text transform="matrix(1 0 0 1 229.0916 153.2218)" class="st11 st3">Validation</text>
<line class="st12" x1="291.3" y1="136.2" x2="321.9" y2="136.2"/>
<line class="st13" x1="291.3" y1="149.8" x2="321.9" y2="149.8"/>
</svg>
