<?xml version="1.0" encoding="utf-8"?>
<!-- Generator: Adobe Illustrator 26.1.0, SVG Export Plug-In . SVG Version: 6.00 Build 0)  -->
<svg version="1.1" id="Layer_1" xmlns="http://www.w3.org/2000/svg" xmlns:xlink="http://www.w3.org/1999/xlink" x="0px" y="0px"
	 viewBox="0 0 330 200" style="enable-background:new 0 0 330 200;" xml:space="preserve">
<style type="text/css">
	.st0{fill:none;stroke:#CCCCCC;}
	.st1{display:none;fill:#212121;enable-background:new    ;}
	.st2{font-family:'Roboto-Regular';}
	.st3{font-size:12px;}
	.st4{fill:#212121;}
	.st5{clip-path:url(#SVGID_00000104700850761610645600000010937919213289120391_);}
	.st6{opacity:0.25;fill:none;stroke:#424242;enable-background:new    ;}
	.st7{fill:none;stroke:#999999;stroke-width:1.5;}
	.st8{fill:none;stroke:#33BBEE;stroke-width:2;}
	.st9{fill:none;stroke:#CC3311;stroke-width:2;}
	.st10{clip-path:url(#SVGID_00000001639699183236747560000016058946582037735592_);}
	.st11{font-family:'MyriadPro-Regular';}
	.st12{fill:none;stroke:#CC3311;stroke-width:5;}
	.st13{fill:none;stroke:#33BBEE;stroke-width:5;}
</style>
<g>
	<g>
		<g>
			<g>
				<g>
					<line class="st0" x1="50" y1="177" x2="45" y2="177"/>
					<line class="st0" x1="50" y1="160.9" x2="45" y2="160.9"/>
					<line class="st0" x1="50" y1="144.8" x2="45" y2="144.8"/>
					<line class="st0" x1="50" y1="128.7" x2="45" y2="128.7"/>
					<line class="st0" x1="50" y1="112.6" x2="45" y2="112.6"/>
					<line class="st0" x1="50" y1="96.5" x2="45" y2="96.5"/>
					<line class="st0" x1="50" y1="80.5" x2="45" y2="80.5"/>
					<line class="st0" x1="50" y1="64.4" x2="45" y2="64.4"/>
					<line class="st0" x1="50" y1="48.3" x2="45" y2="48.3"/>
					<line class="st0" x1="50" y1="32.2" x2="45" y2="32.2"/>
					<line class="st0" x1="50" y1="16.1" x2="45" y2="16.1"/>
					<line class="st0" x1="50" y1="0" x2="45" y2="0"/>
				</g>
				<g transform="translate(40, 0)">
					<text transform="matrix(1 0 0 1 -19.9453 180.6)" class="st1 st2 st3">-0.2</text>
					<text transform="matrix(1 0 0 1 -6.7383 164.5091)" class="st4 st2 st3">0</text>
					<text transform="matrix(1 0 0 1 -16.6348 148.4182)" class="st1 st2 st3">0.2</text>
					<text transform="matrix(1 0 0 1 -16.6348 132.3273)" class="st4 st2 st3">0.4</text>
					<text transform="matrix(1 0 0 1 -16.6348 116.2363)" class="st1 st2 st3">0.6</text>
					<text transform="matrix(1 0 0 1 -16.6348 100.1454)" class="st4 st2 st3">0.8</text>
					<text transform="matrix(1 0 0 1 -6.7383 84.0546)" class="st1 st2 st3">1</text>
					<text transform="matrix(1 0 0 1 -16.6348 67.9636)" class="st4 st2 st3">1.2</text>
					<text transform="matrix(1 0 0 1 -16.6348 51.8727)" class="st1 st2 st3">1.4</text>
					<text transform="matrix(1 0 0 1 -16.6348 35.7819)" class="st4 st2 st3">1.6</text>
					<text transform="matrix(1 0 0 1 -16.6348 19.6909)" class="st1 st2 st3">1.8</text>
					<text transform="matrix(1 0 0 1 -6.7383 3.6)" class="st1 st2 st3">2</text>
				</g>
				<line class="st0" x1="50" y1="0" x2="50" y2="177"/>
			</g>
		</g>
		<g>
			<defs>
				<rect id="SVGID_1_" x="50" width="280" height="177"/>
			</defs>
			<clipPath id="SVGID_00000121987211038529704540000012432483905399676592_">
				<use xlink:href="#SVGID_1_"  style="overflow:visible;"/>
			</clipPath>
			<g transform="translate(50, 0)" style="clip-path:url(#SVGID_00000121987211038529704540000012432483905399676592_);">
				<g>
					<g>
						<g>
							<line class="st6" x1="0" y1="0" x2="0" y2="177"/>
							<line class="st6" x1="25.5" y1="0" x2="25.5" y2="177"/>
							<line class="st6" x1="50.9" y1="0" x2="50.9" y2="177"/>
							<line class="st6" x1="76.4" y1="0" x2="76.4" y2="177"/>
							<line class="st6" x1="101.8" y1="0" x2="101.8" y2="177"/>
							<line class="st6" x1="127.3" y1="0" x2="127.3" y2="177"/>
							<line class="st6" x1="152.7" y1="0" x2="152.7" y2="177"/>
							<line class="st6" x1="178.2" y1="0" x2="178.2" y2="177"/>
							<line class="st6" x1="203.6" y1="0" x2="203.6" y2="177"/>
							<line class="st6" x1="229.1" y1="0" x2="229.1" y2="177"/>
							<line class="st6" x1="254.5" y1="0" x2="254.5" y2="177"/>
							<line class="st6" x1="280" y1="0" x2="280" y2="177"/>
						</g>
						<g>
							<line class="st6" x1="0" y1="177" x2="280" y2="177"/>
							<line class="st6" x1="0" y1="160.9" x2="280" y2="160.9"/>
							<line class="st6" x1="0" y1="144.8" x2="280" y2="144.8"/>
							<line class="st6" x1="0" y1="128.7" x2="280" y2="128.7"/>
							<line class="st6" x1="0" y1="112.6" x2="280" y2="112.6"/>
							<line class="st6" x1="0" y1="96.5" x2="280" y2="96.5"/>
							<line class="st6" x1="0" y1="80.5" x2="280" y2="80.5"/>
							<line class="st6" x1="0" y1="64.4" x2="280" y2="64.4"/>
							<line class="st6" x1="0" y1="48.3" x2="280" y2="48.3"/>
							<line class="st6" x1="0" y1="32.2" x2="280" y2="32.2"/>
							<line class="st6" x1="0" y1="16.1" x2="280" y2="16.1"/>
							<line class="st6" x1="0" y1="0" x2="280" y2="0"/>
						</g>
					</g>
				</g>
				<g>
					<g>
						<line class="st7" x1="0" y1="160.9" x2="280" y2="160.9"/>
					</g>
				</g>
				<g>
					<g>
						<line class="st7" x1="25.5" y1="0" x2="25.5" y2="177"/>
					</g>
				</g>
				<g>
					<g>
						<g>
							<g>
								<g>
									<path class="st8" d="M25.5,20.4l25.5,2.1L76.4,25l25.5,2.7l25.5,2.9l25.5,3.3l25.5,5l25.5,6.6l25.5,7.7l25.5,9.7"/>
								</g>
								<g>
									<path class="st9" d="M25.5,101l25.5,45.8l25.5,7l25.5,1l25.5,1.3l25.5-0.5l25.5,1.6l25.5,0.2l25.5,1.8l25.5,0.2"/>
								</g>
							</g>
						</g>
					</g>
				</g>
			</g>
		</g>
		<g>
			<defs>
				<rect id="SVGID_00000113336276354146564020000003441847429861804692_" x="50" y="177" width="280" height="23"/>
			</defs>
			<clipPath id="SVGID_00000164510550026049763030000000848917140642015910_">
				<use xlink:href="#SVGID_00000113336276354146564020000003441847429861804692_"  style="overflow:visible;"/>
			</clipPath>
			<g transform="translate(50, 177)" style="clip-path:url(#SVGID_00000164510550026049763030000000848917140642015910_);">
				<g>
					<g>
						<line class="st0" x1="0" y1="0" x2="0" y2="5"/>
						<line class="st0" x1="25.5" y1="0" x2="25.5" y2="5"/>
						<line class="st0" x1="50.9" y1="0" x2="50.9" y2="5"/>
						<line class="st0" x1="76.4" y1="0" x2="76.4" y2="5"/>
						<line class="st0" x1="101.8" y1="0" x2="101.8" y2="5"/>
						<line class="st0" x1="127.3" y1="0" x2="127.3" y2="5"/>
						<line class="st0" x1="152.7" y1="0" x2="152.7" y2="5"/>
						<line class="st0" x1="178.2" y1="0" x2="178.2" y2="5"/>
						<line class="st0" x1="203.6" y1="0" x2="203.6" y2="5"/>
						<line class="st0" x1="229.1" y1="0" x2="229.1" y2="5"/>
						<line class="st0" x1="254.5" y1="0" x2="254.5" y2="5"/>
						<line class="st0" x1="280" y1="0" x2="280" y2="5"/>
					</g>
					<g transform="translate(0, 8)">
						<text transform="matrix(1 0 0 1 -5.0244 11.4)" class="st1 st2 st3">-1</text>
						<text transform="matrix(1 0 0 1 22.0854 11.4)" class="st4 st2 st3">0</text>
						<text transform="matrix(1 0 0 1 47.5399 11.4)" class="st4 st2 st3">1</text>
						<text transform="matrix(1 0 0 1 72.9945 11.4)" class="st4 st2 st3">2</text>
						<text transform="matrix(1 0 0 1 98.449 11.4)" class="st4 st2 st3">3</text>
						<text transform="matrix(1 0 0 1 123.9036 11.4)" class="st4 st2 st3">4</text>
						<text transform="matrix(1 0 0 1 149.3582 11.4)" class="st4 st2 st3">5</text>
						<text transform="matrix(1 0 0 1 174.8127 11.4)" class="st4 st2 st3">6</text>
						<text transform="matrix(1 0 0 1 200.2672 11.4)" class="st4 st2 st3">7</text>
						<text transform="matrix(1 0 0 1 225.7218 11.4)" class="st4 st2 st3">8</text>
						<text transform="matrix(1 0 0 1 251.1763 11.4)" class="st4 st2 st3">9</text>
						<text transform="matrix(1 0 0 1 273.2617 11.4)" class="st1 st2 st3">10</text>
					</g>
					<line class="st0" x1="0" y1="0" x2="280" y2="0"/>
				</g>
			</g>
		</g>
	</g>
</g>
<text transform="matrix(1 0 0 1 209.0719 14.322)" class="st11 st3">Training</text>
<text transform="matrix(1 0 0 1 209.0719 28.722)" class="st11 st3">Validation</text>
<line class="st12" x1="271.3" y1="11.7" x2="301.9" y2="11.7"/>
<line class="st13" x1="271.3" y1="25.3" x2="301.9" y2="25.3"/>
</svg>
