<svg viewBox="0 0 330 200" xmlns="http://www.w3.org/2000/svg"><g><g><g><g><g><line x1="50" y1="177" x2="45" y2="177" style="visibility: inherit;" fill="rgb(0, 0, 0)" stroke="rgb(204, 204, 204)" stroke-width="1px"></line><line x1="50" y1="164.35714285714283" x2="45" y2="164.35714285714283" style="visibility: inherit;" fill="rgb(0, 0, 0)" stroke="rgb(204, 204, 204)" stroke-width="1px"></line><line x1="50" y1="151.7142857142857" x2="45" y2="151.7142857142857" style="visibility: inherit;" fill="rgb(0, 0, 0)" stroke="rgb(204, 204, 204)" stroke-width="1px"></line><line x1="50" y1="139.07142857142856" x2="45" y2="139.07142857142856" style="visibility: inherit;" fill="rgb(0, 0, 0)" stroke="rgb(204, 204, 204)" stroke-width="1px"></line><line x1="50" y1="126.42857142857142" x2="45" y2="126.42857142857142" style="visibility: inherit;" fill="rgb(0, 0, 0)" stroke="rgb(204, 204, 204)" stroke-width="1px"></line><line x1="50" y1="113.78571428571429" x2="45" y2="113.78571428571429" style="visibility: inherit;" fill="rgb(0, 0, 0)" stroke="rgb(204, 204, 204)" stroke-width="1px"></line><line x1="50" y1="101.14285714285714" x2="45" y2="101.14285714285714" style="visibility: inherit;" fill="rgb(0, 0, 0)" stroke="rgb(204, 204, 204)" stroke-width="1px"></line><line x1="50" y1="88.5" x2="45" y2="88.5" style="visibility: inherit;" fill="rgb(0, 0, 0)" stroke="rgb(204, 204, 204)" stroke-width="1px"></line><line x1="50" y1="75.85714285714286" x2="45" y2="75.85714285714286" style="visibility: inherit;" fill="rgb(0, 0, 0)" stroke="rgb(204, 204, 204)" stroke-width="1px"></line><line x1="50" y1="63.21428571428571" x2="45" y2="63.21428571428571" style="visibility: inherit;" fill="rgb(0, 0, 0)" stroke="rgb(204, 204, 204)" stroke-width="1px"></line><line x1="50" y1="50.57142857142859" x2="45" y2="50.57142857142859" style="visibility: inherit;" fill="rgb(0, 0, 0)" stroke="rgb(204, 204, 204)" stroke-width="1px"></line><line x1="50" y1="37.92857142857143" x2="45" y2="37.92857142857143" style="visibility: inherit;" fill="rgb(0, 0, 0)" stroke="rgb(204, 204, 204)" stroke-width="1px"></line><line x1="50" y1="25.285714285714313" x2="45" y2="25.285714285714313" style="visibility: inherit;" fill="rgb(0, 0, 0)" stroke="rgb(204, 204, 204)" stroke-width="1px"></line><line x1="50" y1="12.642857142857157" x2="45" y2="12.642857142857157" style="visibility: inherit;" fill="rgb(0, 0, 0)" stroke="rgb(204, 204, 204)" stroke-width="1px"></line><line x1="50" y1="0" x2="45" y2="0" style="visibility: inherit;" fill="rgb(0, 0, 0)" stroke="rgb(204, 204, 204)" stroke-width="1px"></line></g><g transform="translate(40, 0)"><text x="0" y="177" dx="0em" dy="0.3em" style="text-anchor: end; visibility: hidden; font-family: Roboto, sans-serif; font-size: 12px; font-weight: 200;" fill="rgb(33, 33, 33)" stroke="none" stroke-width="1px">0.35</text><text x="0" y="164.35714285714283" dx="0em" dy="0.3em" style="text-anchor: end; visibility: inherit; font-family: Roboto, sans-serif; font-size: 12px; font-weight: 200;" fill="rgb(33, 33, 33)" stroke="none" stroke-width="1px">0.4</text><text x="0" y="151.7142857142857" dx="0em" dy="0.3em" style="text-anchor: end; visibility: hidden; font-family: Roboto, sans-serif; font-size: 12px; font-weight: 200;" fill="rgb(33, 33, 33)" stroke="none" stroke-width="1px">0.45</text><text x="0" y="139.07142857142856" dx="0em" dy="0.3em" style="text-anchor: end; visibility: inherit; font-family: Roboto, sans-serif; font-size: 12px; font-weight: 200;" fill="rgb(33, 33, 33)" stroke="none" stroke-width="1px">0.5</text><text x="0" y="126.42857142857142" dx="0em" dy="0.3em" style="text-anchor: end; visibility: hidden; font-family: Roboto, sans-serif; font-size: 12px; font-weight: 200;" fill="rgb(33, 33, 33)" stroke="none" stroke-width="1px">0.55</text><text x="0" y="113.78571428571429" dx="0em" dy="0.3em" style="text-anchor: end; visibility: inherit; font-family: Roboto, sans-serif; font-size: 12px; font-weight: 200;" fill="rgb(33, 33, 33)" stroke="none" stroke-width="1px">0.6</text><text x="0" y="101.14285714285714" dx="0em" dy="0.3em" style="text-anchor: end; visibility: hidden; font-family: Roboto, sans-serif; font-size: 12px; font-weight: 200;" fill="rgb(33, 33, 33)" stroke="none" stroke-width="1px">0.65</text><text x="0" y="88.5" dx="0em" dy="0.3em" style="text-anchor: end; visibility: inherit; font-family: Roboto, sans-serif; font-size: 12px; font-weight: 200;" fill="rgb(33, 33, 33)" stroke="none" stroke-width="1px">0.7</text><text x="0" y="75.85714285714286" dx="0em" dy="0.3em" style="text-anchor: end; visibility: hidden; font-family: Roboto, sans-serif; font-size: 12px; font-weight: 200;" fill="rgb(33, 33, 33)" stroke="none" stroke-width="1px">0.75</text><text x="0" y="63.21428571428571" dx="0em" dy="0.3em" style="text-anchor: end; visibility: inherit; font-family: Roboto, sans-serif; font-size: 12px; font-weight: 200;" fill="rgb(33, 33, 33)" stroke="none" stroke-width="1px">0.8</text><text x="0" y="50.57142857142859" dx="0em" dy="0.3em" style="text-anchor: end; visibility: hidden; font-family: Roboto, sans-serif; font-size: 12px; font-weight: 200;" fill="rgb(33, 33, 33)" stroke="none" stroke-width="1px">0.85</text><text x="0" y="37.92857142857143" dx="0em" dy="0.3em" style="text-anchor: end; visibility: inherit; font-family: Roboto, sans-serif; font-size: 12px; font-weight: 200;" fill="rgb(33, 33, 33)" stroke="none" stroke-width="1px">0.9</text><text x="0" y="25.285714285714313" dx="0em" dy="0.3em" style="text-anchor: end; visibility: hidden; font-family: Roboto, sans-serif; font-size: 12px; font-weight: 200;" fill="rgb(33, 33, 33)" stroke="none" stroke-width="1px">0.95</text><text x="0" y="12.642857142857157" dx="0em" dy="0.3em" style="text-anchor: end; visibility: inherit; font-family: Roboto, sans-serif; font-size: 12px; font-weight: 200;" fill="rgb(33, 33, 33)" stroke="none" stroke-width="1px">1</text><text x="0" y="0" dx="0em" dy="0.3em" style="text-anchor: end; visibility: hidden; font-family: Roboto, sans-serif; font-size: 12px; font-weight: 200;" fill="rgb(33, 33, 33)" stroke="none" stroke-width="1px">1.05</text></g><line x1="50" y1="0" x2="50" y2="177" fill="rgb(0, 0, 0)" stroke="rgb(204, 204, 204)" stroke-width="1px"></line></g></g><g transform="translate(50, 0)" clip-path="url(#clip_0)"><clipPath id="clip_0"><rect width="280" height="177"></rect></clipPath><g><g><g><line x1="0" y1="0" x2="0" y2="177" fill="rgb(0, 0, 0)" stroke="rgb(66, 66, 66)" stroke-width="1px" opacity="0.25"></line><line x1="23.333333333333332" y1="0" x2="23.333333333333332" y2="177" fill="rgb(0, 0, 0)" stroke="rgb(66, 66, 66)" stroke-width="1px" opacity="0.25"></line><line x1="46.666666666666664" y1="0" x2="46.666666666666664" y2="177" fill="rgb(0, 0, 0)" stroke="rgb(66, 66, 66)" stroke-width="1px" opacity="0.25"></line><line x1="70" y1="0" x2="70" y2="177" fill="rgb(0, 0, 0)" stroke="rgb(66, 66, 66)" stroke-width="1px" opacity="0.25"></line><line x1="93.33333333333333" y1="0" x2="93.33333333333333" y2="177" fill="rgb(0, 0, 0)" stroke="rgb(66, 66, 66)" stroke-width="1px" opacity="0.25"></line><line x1="116.66666666666667" y1="0" x2="116.66666666666667" y2="177" fill="rgb(0, 0, 0)" stroke="rgb(66, 66, 66)" stroke-width="1px" opacity="0.25"></line><line x1="140" y1="0" x2="140" y2="177" fill="rgb(0, 0, 0)" stroke="rgb(66, 66, 66)" stroke-width="1px" opacity="0.25"></line><line x1="163.33333333333334" y1="0" x2="163.33333333333334" y2="177" fill="rgb(0, 0, 0)" stroke="rgb(66, 66, 66)" stroke-width="1px" opacity="0.25"></line><line x1="186.66666666666666" y1="0" x2="186.66666666666666" y2="177" fill="rgb(0, 0, 0)" stroke="rgb(66, 66, 66)" stroke-width="1px" opacity="0.25"></line><line x1="210" y1="0" x2="210" y2="177" fill="rgb(0, 0, 0)" stroke="rgb(66, 66, 66)" stroke-width="1px" opacity="0.25"></line><line x1="233.33333333333334" y1="0" x2="233.33333333333334" y2="177" fill="rgb(0, 0, 0)" stroke="rgb(66, 66, 66)" stroke-width="1px" opacity="0.25"></line><line x1="256.66666666666663" y1="0" x2="256.66666666666663" y2="177" fill="rgb(0, 0, 0)" stroke="rgb(66, 66, 66)" stroke-width="1px" opacity="0.25"></line><line x1="280" y1="0" x2="280" y2="177" fill="rgb(0, 0, 0)" stroke="rgb(66, 66, 66)" stroke-width="1px" opacity="0.25"></line></g><g><line x1="0" y1="177" x2="280" y2="177" fill="rgb(0, 0, 0)" stroke="rgb(66, 66, 66)" stroke-width="1px" opacity="0.25"></line><line x1="0" y1="164.35714285714283" x2="280" y2="164.35714285714283" fill="rgb(0, 0, 0)" stroke="rgb(66, 66, 66)" stroke-width="1px" opacity="0.25"></line><line x1="0" y1="151.7142857142857" x2="280" y2="151.7142857142857" fill="rgb(0, 0, 0)" stroke="rgb(66, 66, 66)" stroke-width="1px" opacity="0.25"></line><line x1="0" y1="139.07142857142856" x2="280" y2="139.07142857142856" fill="rgb(0, 0, 0)" stroke="rgb(66, 66, 66)" stroke-width="1px" opacity="0.25"></line><line x1="0" y1="126.42857142857142" x2="280" y2="126.42857142857142" fill="rgb(0, 0, 0)" stroke="rgb(66, 66, 66)" stroke-width="1px" opacity="0.25"></line><line x1="0" y1="113.78571428571429" x2="280" y2="113.78571428571429" fill="rgb(0, 0, 0)" stroke="rgb(66, 66, 66)" stroke-width="1px" opacity="0.25"></line><line x1="0" y1="101.14285714285714" x2="280" y2="101.14285714285714" fill="rgb(0, 0, 0)" stroke="rgb(66, 66, 66)" stroke-width="1px" opacity="0.25"></line><line x1="0" y1="88.5" x2="280" y2="88.5" fill="rgb(0, 0, 0)" stroke="rgb(66, 66, 66)" stroke-width="1px" opacity="0.25"></line><line x1="0" y1="75.85714285714286" x2="280" y2="75.85714285714286" fill="rgb(0, 0, 0)" stroke="rgb(66, 66, 66)" stroke-width="1px" opacity="0.25"></line><line x1="0" y1="63.21428571428571" x2="280" y2="63.21428571428571" fill="rgb(0, 0, 0)" stroke="rgb(66, 66, 66)" stroke-width="1px" opacity="0.25"></line><line x1="0" y1="50.57142857142859" x2="280" y2="50.57142857142859" fill="rgb(0, 0, 0)" stroke="rgb(66, 66, 66)" stroke-width="1px" opacity="0.25"></line><line x1="0" y1="37.92857142857143" x2="280" y2="37.92857142857143" fill="rgb(0, 0, 0)" stroke="rgb(66, 66, 66)" stroke-width="1px" opacity="0.25"></line><line x1="0" y1="25.285714285714313" x2="280" y2="25.285714285714313" fill="rgb(0, 0, 0)" stroke="rgb(66, 66, 66)" stroke-width="1px" opacity="0.25"></line><line x1="0" y1="12.642857142857157" x2="280" y2="12.642857142857157" fill="rgb(0, 0, 0)" stroke="rgb(66, 66, 66)" stroke-width="1px" opacity="0.25"></line><line x1="0" y1="0" x2="280" y2="0" fill="rgb(0, 0, 0)" stroke="rgb(66, 66, 66)" stroke-width="1px" opacity="0.25"></line></g></g></g><g><g><line x1="0" y1="265.5" x2="280" y2="265.5" fill="rgb(0, 0, 0)" stroke="rgb(153, 153, 153)" stroke-width="1.5px"></line></g></g><g><g><line x1="23.333333333333332" y1="0" x2="23.333333333333332" y2="177" fill="rgb(0, 0, 0)" stroke="rgb(153, 153, 153)" stroke-width="1.5px"></line></g></g><g><g><g><g><g><path stroke="rgb(187, 187, 187)" stroke-width="2px" d="M23.333333333333332,158.45099028519223L24.5,158.45099028519223L25.666666666666664,158.45099028519223L26.833333333333336,158.45099028519223L28,158.45099028519223L29.166666666666668,158.45099028519223L30.333333333333336,158.45099028519223L31.5,158.45099028519223L32.666666666666664,156.6053166644914L33.833333333333336,156.6053166644914L35,156.6053166644914L36.16666666666667,156.6053166644914L37.333333333333336,151.06830333811897L38.5,141.83993523461479L39.666666666666664,132.61157466684068L40.833333333333336,116.00051961626326L42,132.61157466684068L43.16666666666667,139.99426161391395L44.33333333333333,139.99426161391395L45.5,128.920227425439L46.666666666666664,125.22888018403734L47.833333333333336,123.3832140990666L49,134.45724075181144L50.166666666666664,136.30292190824235L51.33333333333333,134.45724075181144L52.5,138.1485879932131L53.66666666666667,136.30292190824235L54.833333333333336,132.61157466684068L56,130.76590858186995L57.166666666666664,132.61157466684068L58.333333333333336,128.920227425439L59.5,127.07456134046828L60.66666666666667,125.22888018403734L61.83333333333333,125.22888018403734L63,125.22888018403734L64.16666666666666,125.22888018403734L65.33333333333333,121.53753294263566L66.5,123.3832140990666L67.66666666666667,121.53753294263566L68.83333333333333,114.1548535312925L70,108.61782513345992L71.16666666666666,108.61782513345992L72.33333333333334,106.77215904848916L73.5,101.23514572211674L74.66666666666667,99.38946456568581L75.83333333333333,97.54379848071507L77,97.54379848071507L78.16666666666667,97.54379848071507L79.33333333333333,97.54379848071507L80.5,95.69811732428414L81.66666666666667,99.38946456568581L82.83333333333333,101.23514572211674L84,101.23514572211674L85.16666666666666,101.23514572211674L86.33333333333334,92.00678515434265L87.5,86.46975675651005L88.66666666666666,84.6240906715393L89.83333333333334,84.6240906715393L91,86.46975675651005L92.16666666666667,86.46975675651005L93.33333333333333,88.31543791294098L94.5,88.31543791294098L95.66666666666667,92.00678515434265L96.83333333333333,88.31543791294098L98,90.16110399791174L99.16666666666667,92.00678515434265L100.33333333333333,92.00678515434265L101.5,93.85245123931341L102.66666666666666,93.85245123931341L103.83333333333334,95.69811732428414L105,92.00678515434265L106.16666666666666,86.46975675651005L107.33333333333334,84.6240906715393L108.5,84.6240906715393L109.66666666666667,84.6240906715393L110.83333333333333,82.77840951510838L112,82.77840951510838L113.16666666666667,79.08707734516689L114.33333333333333,79.08707734516689L115.5,82.77840951510838L116.66666666666667,82.77840951510838L117.83333333333333,82.77840951510838L119,82.77840951510838L120.16666666666666,84.6240906715393L121.33333333333334,84.6240906715393L122.5,80.93274343013763L123.66666666666666,80.93274343013763L124.83333333333334,80.93274343013763L126,80.93274343013763L127.16666666666667,80.93274343013763L128.33333333333331,80.93274343013763L129.5,80.93274343013763L130.66666666666666,80.93274343013763L131.83333333333334,82.77840951510838L133,79.08707734516689L134.16666666666669,79.08707734516689L135.33333333333334,77.24139618873596L136.5,79.08707734516689L137.66666666666666,77.24139618873596L138.83333333333334,80.93274343013763L140,80.93274343013763L141.16666666666666,84.6240906715393L142.33333333333331,80.93274343013763L143.5,82.77840951510838L144.66666666666669,82.77840951510838L145.83333333333334,80.93274343013763L147,82.77840951510838L148.16666666666666,84.6240906715393L149.33333333333334,79.08707734516689L150.5,77.24139618873596L151.66666666666666,77.24139618873596L152.83333333333331,79.08707734516689L154,79.08707734516689L155.16666666666669,80.93274343013763L156.33333333333334,80.93274343013763L157.5,80.93274343013763L158.66666666666666,77.24139618873596L159.83333333333331,75.39573010376522L161,73.55004894733429L162.16666666666669,73.55004894733429L163.33333333333334,73.55004894733429L164.5,75.39573010376522L165.66666666666666,77.24139618873596L166.83333333333334,79.08707734516689L168,79.08707734516689L169.16666666666666,79.08707734516689L170.33333333333331,80.93274343013763L171.5,79.08707734516689L172.66666666666669,79.08707734516689L173.83333333333334,80.93274343013763L175,79.08707734516689L176.16666666666666,75.39573010376522L177.33333333333331,73.55004894733429L178.5,75.39573010376522L179.66666666666669,73.55004894733429L180.83333333333334,75.39573010376522L182,79.08707734516689L183.16666666666666,79.08707734516689L184.33333333333334,79.08707734516689L185.5,80.93274343013763L186.66666666666666,80.93274343013763L187.83333333333331,80.93274343013763L189,79.08707734516689L190.16666666666669,79.08707734516689L191.33333333333334,79.08707734516689L192.5,82.77840951510838L193.66666666666666,77.24139618873596L194.83333333333331,79.08707734516689L196,77.24139618873596L197.16666666666669,75.39573010376522L198.33333333333334,75.39573010376522L199.5,73.55004894733429L200.66666666666666,73.55004894733429L201.83333333333334,73.55004894733429L203,73.55004894733429L204.16666666666666,75.39573010376522L205.33333333333331,77.24139618873596L206.5,77.24139618873596L207.66666666666669,77.24139618873596L208.83333333333334,75.39573010376522L210,71.70438286236354L211.16666666666666,71.70438286236354L212.33333333333331,77.24139618873596L213.5,75.39573010376522L214.66666666666669,77.24139618873596L215.83333333333334,79.08707734516689L217,79.08707734516689L218.16666666666666,80.93274343013763L219.33333333333334,84.6240906715393L220.5,84.6240906715393L221.66666666666666,79.08707734516689L222.83333333333331,79.08707734516689L224,79.08707734516689L225.16666666666669,79.08707734516689L226.33333333333334,80.93274343013763L227.5,80.93274343013763L228.66666666666666,84.6240906715393L229.83333333333331,82.77840951510838L231,82.77840951510838L232.16666666666669,77.24139618873596L233.33333333333334,77.24139618873596L234.5,77.24139618873596L235.66666666666666,75.39573010376522L236.83333333333334,77.24139618873596L238,75.39573010376522L239.16666666666666,73.55004894733429L240.33333333333331,75.39573010376522L241.5,79.08707734516689L242.66666666666669,79.08707734516689L243.83333333333334,79.08707734516689L245,80.93274343013763L246.16666666666666,82.77840951510838L247.33333333333331,80.93274343013763L248.5,80.93274343013763L249.66666666666669,79.08707734516689L250.83333333333334,77.24139618873596L252,77.24139618873596L253.16666666666666,79.08707734516689L254.33333333333334,77.24139618873596L255.5,77.24139618873596" style="fill: none;" fill="none"></path></g><g><path stroke="rgb(0, 153, 136)" stroke-width="2px" d="M23.333333333333332,123.6146514415741L24.5,107.76152505193437L25.666666666666664,82.39655900001526L26.833333333333336,70.50671420778548L28,69.71406090259552L29.166666666666668,60.99484440258571L30.333333333333336,49.89766798700606L31.5,57.031577876635964L32.666666666666664,39.59314487661635L33.833333333333336,40.385798181806294L35,44.349079779216225L36.16666666666667,37.21518496104651L37.333333333333336,38.00783826623645L38.5,41.17846655845642L39.666666666666664,34.044556668826516L40.833333333333336,30.081275071416584L42,25.325340168816712L43.16666666666667,26.118008545466836L44.33333333333333,30.87394344806671L45.5,24.53268686362677L46.666666666666664,22.947380253246866L47.833333333333336,25.325340168816712L49,22.154726948056904L50.166666666666664,25.325340168816712L51.33333333333333,25.325340168816712L52.5,18.984098655836934L53.66666666666667,19.776751961026875L54.833333333333336,20.569420337677002L56,23.740033558436807L57.166666666666664,20.569420337677002L58.333333333333336,32.459250058446614L59.5,19.776751961026875L60.66666666666667,18.191445350646973L61.83333333333333,19.776751961026875L63,15.813485435077128L64.16666666666666,19.776751961026875L65.33333333333333,18.191445350646973L66.5,21.362073642866964L67.66666666666667,17.398792045457032L68.83333333333333,17.398792045457032L70,17.398792045457032L71.16666666666666,18.984098655836934L72.33333333333334,18.984098655836934L73.5,17.398792045457032L74.66666666666667,17.398792045457032L75.83333333333333,16.606138740267088L77,13.435510448047099L78.16666666666667,16.606138740267088L79.33333333333333,17.398792045457032L80.5,15.813485435077128L81.66666666666667,15.813485435077128L82.83333333333333,17.398792045457032L84,17.398792045457032L85.16666666666666,20.569420337677002L86.33333333333334,15.813485435077128L87.5,15.020817058427001L88.66666666666666,17.398792045457032L89.83333333333334,16.606138740267088L91,13.435510448047099L92.16666666666667,17.398792045457032L93.33333333333333,19.776751961026875L94.5,14.22816375323706L95.66666666666667,18.191445350646973L96.83333333333333,17.398792045457032L98,15.020817058427001L99.16666666666667,18.191445350646973L100.33333333333333,17.398792045457032L101.5,14.22816375323706L102.66666666666666,17.398792045457032L103.83333333333334,13.435510448047099L105,16.606138740267088L106.16666666666666,15.020817058427001L107.33333333333334,18.191445350646973L108.5,14.22816375323706L109.66666666666667,15.813485435077128L110.83333333333333,15.020817058427001L112,15.813485435077128L113.16666666666667,16.606138740267088L114.33333333333333,14.22816375323706L115.5,13.435510448047099L116.66666666666667,17.398792045457032L117.83333333333333,16.606138740267088L119,13.435510448047099L120.16666666666666,15.020817058427001L121.33333333333334,15.813485435077128L122.5,15.813485435077128L123.66666666666666,14.22816375323706L124.83333333333334,16.606138740267088L126,15.020817058427001L127.16666666666667,15.020817058427001L128.33333333333331,15.813485435077128L129.5,15.020817058427001L130.66666666666666,13.435510448047099L131.83333333333334,13.435510448047099L133,15.020817058427001L134.16666666666669,15.020817058427001L135.33333333333334,15.020817058427001L136.5,15.020817058427001L137.66666666666666,13.435510448047099L138.83333333333334,13.435510448047099L140,16.606138740267088L141.16666666666666,13.435510448047099L142.33333333333331,14.22816375323706L143.5,14.22816375323706L144.66666666666669,12.642857142857157L145.83333333333334,16.606138740267088L147,13.435510448047099L148.16666666666666,13.435510448047099L149.33333333333334,13.435510448047099L150.5,15.813485435077128L151.66666666666666,14.22816375323706L152.83333333333331,13.435510448047099L154,15.020817058427001L155.16666666666669,13.435510448047099L156.33333333333334,13.435510448047099L157.5,13.435510448047099L158.66666666666666,14.22816375323706L159.83333333333331,13.435510448047099L161,15.020817058427001L162.16666666666669,13.435510448047099L163.33333333333334,13.435510448047099L164.5,12.642857142857157L165.66666666666666,13.435510448047099L166.83333333333334,14.22816375323706L168,14.22816375323706L169.16666666666666,14.22816375323706L170.33333333333331,15.813485435077128L171.5,15.020817058427001L172.66666666666669,14.22816375323706L173.83333333333334,15.020817058427001L175,13.435510448047099L176.16666666666666,15.813485435077128L177.33333333333331,14.22816375323706L178.5,13.435510448047099L179.66666666666669,13.435510448047099L180.83333333333334,12.642857142857157L182,13.435510448047099L183.16666666666666,13.435510448047099L184.33333333333334,12.642857142857157L185.5,13.435510448047099L186.66666666666666,13.435510448047099L187.83333333333331,15.813485435077128L189,13.435510448047099L190.16666666666669,13.435510448047099L191.33333333333334,15.020817058427001L192.5,15.020817058427001L193.66666666666666,14.22816375323706L194.83333333333331,13.435510448047099L196,13.435510448047099L197.16666666666669,14.22816375323706L198.33333333333334,13.435510448047099L199.5,14.22816375323706L200.66666666666666,14.22816375323706L201.83333333333334,14.22816375323706L203,16.606138740267088L204.16666666666666,14.22816375323706L205.33333333333331,15.020817058427001L206.5,13.435510448047099L207.66666666666669,14.22816375323706L208.83333333333334,15.813485435077128L210,14.22816375323706L211.16666666666666,13.435510448047099L212.33333333333331,13.435510448047099L213.5,13.435510448047099L214.66666666666669,14.22816375323706L215.83333333333334,12.642857142857157L217,14.22816375323706L218.16666666666666,15.813485435077128L219.33333333333334,12.642857142857157L220.5,14.22816375323706L221.66666666666666,15.020817058427001L222.83333333333331,12.642857142857157L224,14.22816375323706L225.16666666666669,13.435510448047099L226.33333333333334,15.020817058427001L227.5,13.435510448047099L228.66666666666666,14.22816375323706L229.83333333333331,14.22816375323706L231,13.435510448047099L232.16666666666669,14.22816375323706L233.33333333333334,13.435510448047099L234.5,14.22816375323706L235.66666666666666,15.020817058427001L236.83333333333334,13.435510448047099L238,13.435510448047099L239.16666666666666,13.435510448047099L240.33333333333331,13.435510448047099L241.5,13.435510448047099L242.66666666666669,12.642857142857157L243.83333333333334,14.22816375323706L245,14.22816375323706L246.16666666666666,13.435510448047099L247.33333333333331,14.22816375323706L248.5,13.435510448047099L249.66666666666669,13.435510448047099L250.83333333333334,13.435510448047099L252,14.22816375323706L253.16666666666666,13.435510448047099L254.33333333333334,12.642857142857157L255.5,13.435510448047099" style="fill: none;" fill="none"></path></g></g></g></g></g></g><g transform="translate(50, 177)" clip-path="url(#clip_1)"><clipPath id="clip_1"><rect width="280" height="23"></rect></clipPath><g><g><line x1="0" y1="0" x2="0" y2="5" style="visibility: inherit;" fill="rgb(0, 0, 0)" stroke="rgb(204, 204, 204)" stroke-width="1px"></line><line x1="23.333333333333332" y1="0" x2="23.333333333333332" y2="5" style="visibility: inherit;" fill="rgb(0, 0, 0)" stroke="rgb(204, 204, 204)" stroke-width="1px"></line><line x1="46.666666666666664" y1="0" x2="46.666666666666664" y2="5" style="visibility: inherit;" fill="rgb(0, 0, 0)" stroke="rgb(204, 204, 204)" stroke-width="1px"></line><line x1="70" y1="0" x2="70" y2="5" style="visibility: inherit;" fill="rgb(0, 0, 0)" stroke="rgb(204, 204, 204)" stroke-width="1px"></line><line x1="93.33333333333333" y1="0" x2="93.33333333333333" y2="5" style="visibility: inherit;" fill="rgb(0, 0, 0)" stroke="rgb(204, 204, 204)" stroke-width="1px"></line><line x1="116.66666666666667" y1="0" x2="116.66666666666667" y2="5" style="visibility: inherit;" fill="rgb(0, 0, 0)" stroke="rgb(204, 204, 204)" stroke-width="1px"></line><line x1="140" y1="0" x2="140" y2="5" style="visibility: inherit;" fill="rgb(0, 0, 0)" stroke="rgb(204, 204, 204)" stroke-width="1px"></line><line x1="163.33333333333334" y1="0" x2="163.33333333333334" y2="5" style="visibility: inherit;" fill="rgb(0, 0, 0)" stroke="rgb(204, 204, 204)" stroke-width="1px"></line><line x1="186.66666666666666" y1="0" x2="186.66666666666666" y2="5" style="visibility: inherit;" fill="rgb(0, 0, 0)" stroke="rgb(204, 204, 204)" stroke-width="1px"></line><line x1="210" y1="0" x2="210" y2="5" style="visibility: inherit;" fill="rgb(0, 0, 0)" stroke="rgb(204, 204, 204)" stroke-width="1px"></line><line x1="233.33333333333334" y1="0" x2="233.33333333333334" y2="5" style="visibility: inherit;" fill="rgb(0, 0, 0)" stroke="rgb(204, 204, 204)" stroke-width="1px"></line><line x1="256.66666666666663" y1="0" x2="256.66666666666663" y2="5" style="visibility: inherit;" fill="rgb(0, 0, 0)" stroke="rgb(204, 204, 204)" stroke-width="1px"></line><line x1="280" y1="0" x2="280" y2="5" style="visibility: inherit;" fill="rgb(0, 0, 0)" stroke="rgb(204, 204, 204)" stroke-width="1px"></line></g><g transform="translate(0, 8)"><text x="0" y="0" dx="0em" dy="0.95em" style="text-anchor: middle; visibility: hidden; font-family: Roboto, sans-serif; font-size: 12px; font-weight: 200;" fill="rgb(33, 33, 33)" stroke="none" stroke-width="1px">-20</text><text x="23.333333333333332" y="0" dx="0em" dy="0.95em" style="text-anchor: middle; visibility: inherit; font-family: Roboto, sans-serif; font-size: 12px; font-weight: 200;" fill="rgb(33, 33, 33)" stroke="none" stroke-width="1px">0</text><text x="46.666666666666664" y="0" dx="0em" dy="0.95em" style="text-anchor: middle; visibility: hidden; font-family: Roboto, sans-serif; font-size: 12px; font-weight: 200;" fill="rgb(33, 33, 33)" stroke="none" stroke-width="1px">20</text><text x="70" y="0" dx="0em" dy="0.95em" style="text-anchor: middle; visibility: inherit; font-family: Roboto, sans-serif; font-size: 12px; font-weight: 200;" fill="rgb(33, 33, 33)" stroke="none" stroke-width="1px">40</text><text x="93.33333333333333" y="0" dx="0em" dy="0.95em" style="text-anchor: middle; visibility: hidden; font-family: Roboto, sans-serif; font-size: 12px; font-weight: 200;" fill="rgb(33, 33, 33)" stroke="none" stroke-width="1px">60</text><text x="116.66666666666667" y="0" dx="0em" dy="0.95em" style="text-anchor: middle; visibility: inherit; font-family: Roboto, sans-serif; font-size: 12px; font-weight: 200;" fill="rgb(33, 33, 33)" stroke="none" stroke-width="1px">80</text><text x="140" y="0" dx="0em" dy="0.95em" style="text-anchor: middle; visibility: hidden; font-family: Roboto, sans-serif; font-size: 12px; font-weight: 200;" fill="rgb(33, 33, 33)" stroke="none" stroke-width="1px">100</text><text x="163.33333333333334" y="0" dx="0em" dy="0.95em" style="text-anchor: middle; visibility: inherit; font-family: Roboto, sans-serif; font-size: 12px; font-weight: 200;" fill="rgb(33, 33, 33)" stroke="none" stroke-width="1px">120</text><text x="186.66666666666666" y="0" dx="0em" dy="0.95em" style="text-anchor: middle; visibility: hidden; font-family: Roboto, sans-serif; font-size: 12px; font-weight: 200;" fill="rgb(33, 33, 33)" stroke="none" stroke-width="1px">140</text><text x="210" y="0" dx="0em" dy="0.95em" style="text-anchor: middle; visibility: inherit; font-family: Roboto, sans-serif; font-size: 12px; font-weight: 200;" fill="rgb(33, 33, 33)" stroke="none" stroke-width="1px">160</text><text x="233.33333333333334" y="0" dx="0em" dy="0.95em" style="text-anchor: middle; visibility: hidden; font-family: Roboto, sans-serif; font-size: 12px; font-weight: 200;" fill="rgb(33, 33, 33)" stroke="none" stroke-width="1px">180</text><text x="256.66666666666663" y="0" dx="0em" dy="0.95em" style="text-anchor: middle; visibility: inherit; font-family: Roboto, sans-serif; font-size: 12px; font-weight: 200;" fill="rgb(33, 33, 33)" stroke="none" stroke-width="1px">200</text><text x="280" y="0" dx="0em" dy="0.95em" style="text-anchor: middle; visibility: hidden; font-family: Roboto, sans-serif; font-size: 12px; font-weight: 200;" fill="rgb(33, 33, 33)" stroke="none" stroke-width="1px">220</text></g><line x1="0" y1="0" x2="280" y2="0" fill="rgb(0, 0, 0)" stroke="rgb(204, 204, 204)" stroke-width="1px"></line></g></g></g></g></svg>