<svg viewBox="0 0 330 200" xmlns="http://www.w3.org/2000/svg"><g><g><g><g><g><line x1="30" y1="177" x2="25" y2="177" style="visibility: inherit;" fill="rgb(0, 0, 0)" stroke="rgb(204, 204, 204)" stroke-width="1px"></line><line x1="30" y1="162.25" x2="25" y2="162.25" style="visibility: inherit;" fill="rgb(0, 0, 0)" stroke="rgb(204, 204, 204)" stroke-width="1px"></line><line x1="30" y1="147.5" x2="25" y2="147.5" style="visibility: inherit;" fill="rgb(0, 0, 0)" stroke="rgb(204, 204, 204)" stroke-width="1px"></line><line x1="30" y1="132.75" x2="25" y2="132.75" style="visibility: inherit;" fill="rgb(0, 0, 0)" stroke="rgb(204, 204, 204)" stroke-width="1px"></line><line x1="30" y1="118.00000000000001" x2="25" y2="118.00000000000001" style="visibility: inherit;" fill="rgb(0, 0, 0)" stroke="rgb(204, 204, 204)" stroke-width="1px"></line><line x1="30" y1="103.24999999999999" x2="25" y2="103.24999999999999" style="visibility: inherit;" fill="rgb(0, 0, 0)" stroke="rgb(204, 204, 204)" stroke-width="1px"></line><line x1="30" y1="88.5" x2="25" y2="88.5" style="visibility: inherit;" fill="rgb(0, 0, 0)" stroke="rgb(204, 204, 204)" stroke-width="1px"></line><line x1="30" y1="73.75" x2="25" y2="73.75" style="visibility: inherit;" fill="rgb(0, 0, 0)" stroke="rgb(204, 204, 204)" stroke-width="1px"></line><line x1="30" y1="59.00000000000001" x2="25" y2="59.00000000000001" style="visibility: inherit;" fill="rgb(0, 0, 0)" stroke="rgb(204, 204, 204)" stroke-width="1px"></line><line x1="30" y1="44.25" x2="25" y2="44.25" style="visibility: inherit;" fill="rgb(0, 0, 0)" stroke="rgb(204, 204, 204)" stroke-width="1px"></line><line x1="30" y1="29.499999999999993" x2="25" y2="29.499999999999993" style="visibility: inherit;" fill="rgb(0, 0, 0)" stroke="rgb(204, 204, 204)" stroke-width="1px"></line><line x1="30" y1="14.750000000000007" x2="25" y2="14.750000000000007" style="visibility: inherit;" fill="rgb(0, 0, 0)" stroke="rgb(204, 204, 204)" stroke-width="1px"></line><line x1="30" y1="0" x2="25" y2="0" style="visibility: inherit;" fill="rgb(0, 0, 0)" stroke="rgb(204, 204, 204)" stroke-width="1px"></line></g><g transform="translate(20, 0)"><text x="0" y="177" dx="0em" dy="0.3em" style="text-anchor: end; visibility: hidden; font-family: Roboto, sans-serif; font-size: 12px; font-weight: 200;" fill="rgb(33, 33, 33)" stroke="none" stroke-width="1px">-1</text><text x="0" y="162.25" dx="0em" dy="0.3em" style="text-anchor: end; visibility: inherit; font-family: Roboto, sans-serif; font-size: 12px; font-weight: 200;" fill="rgb(33, 33, 33)" stroke="none" stroke-width="1px">0</text><text x="0" y="147.5" dx="0em" dy="0.3em" style="text-anchor: end; visibility: hidden; font-family: Roboto, sans-serif; font-size: 12px; font-weight: 200;" fill="rgb(33, 33, 33)" stroke="none" stroke-width="1px">1</text><text x="0" y="132.75" dx="0em" dy="0.3em" style="text-anchor: end; visibility: inherit; font-family: Roboto, sans-serif; font-size: 12px; font-weight: 200;" fill="rgb(33, 33, 33)" stroke="none" stroke-width="1px">2</text><text x="0" y="118.00000000000001" dx="0em" dy="0.3em" style="text-anchor: end; visibility: hidden; font-family: Roboto, sans-serif; font-size: 12px; font-weight: 200;" fill="rgb(33, 33, 33)" stroke="none" stroke-width="1px">3</text><text x="0" y="103.24999999999999" dx="0em" dy="0.3em" style="text-anchor: end; visibility: inherit; font-family: Roboto, sans-serif; font-size: 12px; font-weight: 200;" fill="rgb(33, 33, 33)" stroke="none" stroke-width="1px">4</text><text x="0" y="88.5" dx="0em" dy="0.3em" style="text-anchor: end; visibility: hidden; font-family: Roboto, sans-serif; font-size: 12px; font-weight: 200;" fill="rgb(33, 33, 33)" stroke="none" stroke-width="1px">5</text><text x="0" y="73.75" dx="0em" dy="0.3em" style="text-anchor: end; visibility: inherit; font-family: Roboto, sans-serif; font-size: 12px; font-weight: 200;" fill="rgb(33, 33, 33)" stroke="none" stroke-width="1px">6</text><text x="0" y="59.00000000000001" dx="0em" dy="0.3em" style="text-anchor: end; visibility: hidden; font-family: Roboto, sans-serif; font-size: 12px; font-weight: 200;" fill="rgb(33, 33, 33)" stroke="none" stroke-width="1px">7</text><text x="0" y="44.25" dx="0em" dy="0.3em" style="text-anchor: end; visibility: inherit; font-family: Roboto, sans-serif; font-size: 12px; font-weight: 200;" fill="rgb(33, 33, 33)" stroke="none" stroke-width="1px">8</text><text x="0" y="29.499999999999993" dx="0em" dy="0.3em" style="text-anchor: end; visibility: hidden; font-family: Roboto, sans-serif; font-size: 12px; font-weight: 200;" fill="rgb(33, 33, 33)" stroke="none" stroke-width="1px">9</text><text x="0" y="14.750000000000007" dx="0em" dy="0.3em" style="text-anchor: end; visibility: inherit; font-family: Roboto, sans-serif; font-size: 12px; font-weight: 200;" fill="rgb(33, 33, 33)" stroke="none" stroke-width="1px">10</text><text x="0" y="0" dx="0em" dy="0.3em" style="text-anchor: end; visibility: hidden; font-family: Roboto, sans-serif; font-size: 12px; font-weight: 200;" fill="rgb(33, 33, 33)" stroke="none" stroke-width="1px">11</text></g><line x1="30" y1="0" x2="30" y2="177" fill="rgb(0, 0, 0)" stroke="rgb(204, 204, 204)" stroke-width="1px"></line></g></g><g transform="translate(30, 0)" clip-path="url(#clip_0)"><clipPath id="clip_0"><rect width="300" height="177"></rect></clipPath><g><g><g><line x1="0" y1="0" x2="0" y2="177" fill="rgb(0, 0, 0)" stroke="rgb(66, 66, 66)" stroke-width="1px" opacity="0.25"></line><line x1="33.33333333333333" y1="0" x2="33.33333333333333" y2="177" fill="rgb(0, 0, 0)" stroke="rgb(66, 66, 66)" stroke-width="1px" opacity="0.25"></line><line x1="66.66666666666666" y1="0" x2="66.66666666666666" y2="177" fill="rgb(0, 0, 0)" stroke="rgb(66, 66, 66)" stroke-width="1px" opacity="0.25"></line><line x1="100" y1="0" x2="100" y2="177" fill="rgb(0, 0, 0)" stroke="rgb(66, 66, 66)" stroke-width="1px" opacity="0.25"></line><line x1="133.33333333333331" y1="0" x2="133.33333333333331" y2="177" fill="rgb(0, 0, 0)" stroke="rgb(66, 66, 66)" stroke-width="1px" opacity="0.25"></line><line x1="166.66666666666669" y1="0" x2="166.66666666666669" y2="177" fill="rgb(0, 0, 0)" stroke="rgb(66, 66, 66)" stroke-width="1px" opacity="0.25"></line><line x1="200" y1="0" x2="200" y2="177" fill="rgb(0, 0, 0)" stroke="rgb(66, 66, 66)" stroke-width="1px" opacity="0.25"></line><line x1="233.33333333333334" y1="0" x2="233.33333333333334" y2="177" fill="rgb(0, 0, 0)" stroke="rgb(66, 66, 66)" stroke-width="1px" opacity="0.25"></line><line x1="266.66666666666663" y1="0" x2="266.66666666666663" y2="177" fill="rgb(0, 0, 0)" stroke="rgb(66, 66, 66)" stroke-width="1px" opacity="0.25"></line><line x1="300" y1="0" x2="300" y2="177" fill="rgb(0, 0, 0)" stroke="rgb(66, 66, 66)" stroke-width="1px" opacity="0.25"></line></g><g><line x1="0" y1="177" x2="300" y2="177" fill="rgb(0, 0, 0)" stroke="rgb(66, 66, 66)" stroke-width="1px" opacity="0.25"></line><line x1="0" y1="162.25" x2="300" y2="162.25" fill="rgb(0, 0, 0)" stroke="rgb(66, 66, 66)" stroke-width="1px" opacity="0.25"></line><line x1="0" y1="147.5" x2="300" y2="147.5" fill="rgb(0, 0, 0)" stroke="rgb(66, 66, 66)" stroke-width="1px" opacity="0.25"></line><line x1="0" y1="132.75" x2="300" y2="132.75" fill="rgb(0, 0, 0)" stroke="rgb(66, 66, 66)" stroke-width="1px" opacity="0.25"></line><line x1="0" y1="118.00000000000001" x2="300" y2="118.00000000000001" fill="rgb(0, 0, 0)" stroke="rgb(66, 66, 66)" stroke-width="1px" opacity="0.25"></line><line x1="0" y1="103.24999999999999" x2="300" y2="103.24999999999999" fill="rgb(0, 0, 0)" stroke="rgb(66, 66, 66)" stroke-width="1px" opacity="0.25"></line><line x1="0" y1="88.5" x2="300" y2="88.5" fill="rgb(0, 0, 0)" stroke="rgb(66, 66, 66)" stroke-width="1px" opacity="0.25"></line><line x1="0" y1="73.75" x2="300" y2="73.75" fill="rgb(0, 0, 0)" stroke="rgb(66, 66, 66)" stroke-width="1px" opacity="0.25"></line><line x1="0" y1="59.00000000000001" x2="300" y2="59.00000000000001" fill="rgb(0, 0, 0)" stroke="rgb(66, 66, 66)" stroke-width="1px" opacity="0.25"></line><line x1="0" y1="44.25" x2="300" y2="44.25" fill="rgb(0, 0, 0)" stroke="rgb(66, 66, 66)" stroke-width="1px" opacity="0.25"></line><line x1="0" y1="29.499999999999993" x2="300" y2="29.499999999999993" fill="rgb(0, 0, 0)" stroke="rgb(66, 66, 66)" stroke-width="1px" opacity="0.25"></line><line x1="0" y1="14.750000000000007" x2="300" y2="14.750000000000007" fill="rgb(0, 0, 0)" stroke="rgb(66, 66, 66)" stroke-width="1px" opacity="0.25"></line><line x1="0" y1="0" x2="300" y2="0" fill="rgb(0, 0, 0)" stroke="rgb(66, 66, 66)" stroke-width="1px" opacity="0.25"></line></g></g></g><g><g><line x1="0" y1="162.25" x2="300" y2="162.25" fill="rgb(0, 0, 0)" stroke="rgb(153, 153, 153)" stroke-width="1.5px"></line></g></g><g><g><line x1="33.33333333333333" y1="0" x2="33.33333333333333" y2="177" fill="rgb(0, 0, 0)" stroke="rgb(153, 153, 153)" stroke-width="1.5px"></line></g></g><g><g><g><g><g><path stroke="rgb(51, 187, 238)" stroke-width="2px" d="M33.33333333333333,19.48959040641784L35,50.772340178489685L36.666666666666664,90.90408277511598L38.33333333333333,108.82047498226164L40,121.95696866512299L41.66666666666667,124.55578023195265L43.33333333333333,129.26677656173706L45,131.91704058647156L46.666666666666664,135.77003526687622L48.333333333333336,138.24084517359734L50,138.7234190106392L51.666666666666664,140.084818482399L53.333333333333336,141.50635132193565L54.99999999999999,141.8289692401886L56.666666666666664,142.34456464648247L58.333333333333336,143.33553701639175L60,143.28658491373062L61.666666666666664,143.27332705259323L63.333333333333336,143.19962811470032L65,144.31150022149086L66.66666666666666,144.5444499850273L68.33333333333333,144.38024592399597L70,144.11414447426796L71.66666666666667,143.8727441430092L73.33333333333333,144.38350236415863L75,144.59270402789116L76.66666666666666,145.01087525486946L78.33333333333334,145.87141770124435L80,145.90147119760513L81.66666666666666,145.65418043732643L83.33333333333334,146.05591824650764L85,145.9485401213169L86.66666666666666,146.08942511677742L88.33333333333334,146.5062969326973L90,146.54942014813423L91.66666666666667,146.86092537641525L93.33333333333333,146.5809137225151L95,147.1845455467701L96.66666666666667,147.46047434210777L98.33333333333333,147.78103148937225L100,147.8032392859459L101.66666666666667,147.66626131534576L103.33333333333333,147.4973290860653L105,147.2156452536583L106.66666666666667,147.74304701387882L108.33333333333333,148.22451661527157L109.99999999999999,148.21886444091797L111.66666666666667,148.41680043935776L113.33333333333333,148.59894129633904L115.00000000000001,148.47764153778553L116.66666666666667,148.4495380371809L118.33333333333333,148.4097776412964L120,148.88205641508102L121.66666666666667,148.80045990645885L123.33333333333333,148.42114880681038L125,148.64756107330322L126.66666666666667,148.6657624989748L128.33333333333331,148.60987463593483L130,148.56660723686218L131.66666666666666,148.7919891178608L133.33333333333331,148.94472266733646L135,149.10784359276295L136.66666666666666,149.2494574189186L138.33333333333334,149.13078197836876L140,149.52863386273384L141.66666666666666,149.39660912752151L143.33333333333334,149.16179816424847L145,149.53344994783401L146.66666666666666,150.17760089039803L148.33333333333334,148.79197856783867L150,148.24101069569588L151.66666666666666,147.95448879897594L153.33333333333331,147.3814142346382L155.00000000000003,147.34945118427277L156.66666666666669,146.93689081072807L158.33333333333334,147.88359001278877L160,144.55704495310783L161.66666666666666,144.41243228316307L163.33333333333331,147.5235098451376L165,144.79516246914864L166.66666666666669,146.09811833500862L168.33333333333334,147.38626021146774L170,146.45215246081352L171.66666666666666,144.35291257500648L173.33333333333331,145.52708080410957L175,148.16557452082634L176.66666666666669,148.57727946341038L178.33333333333334,148.87133319675922L180,149.0553686618805L181.66666666666666,147.69937871396542L183.33333333333334,147.71596598625183L185,147.29436072707176L186.66666666666666,146.64793449640274L188.33333333333334,147.23891508579254L190,148.4911156743765L191.66666666666666,146.63951030373573L193.33333333333334,146.4461354315281L195,147.24881979823112L196.66666666666666,147.35255816578865L198.33333333333331,148.23354655504227L200,147.9455212801695L201.66666666666669,148.08076640963554L203.33333333333334,148.43111066520214L205,148.3260060697794L206.66666666666666,148.32964934408665L208.33333333333331,148.5039541721344L210,148.65541556477547L211.66666666666669,148.67989425361156L213.33333333333334,147.98560872673988L215,147.55519244074821L216.66666666666666,148.22498521208763L218.33333333333331,147.39813601970673L219.99999999999997,147.9895860850811L221.66666666666669,147.3508349955082L223.33333333333334,147.55437217652798L225,146.06700280308723L226.66666666666666,148.76985692977905L228.33333333333331,149.90214420855045L230.00000000000003,149.69711156189442L231.66666666666669,147.79682399332523L233.33333333333334,148.50499686598778L235,148.08069959282875L236.66666666666666,148.8073719292879L238.33333333333331,148.33896061778069L240,148.48089182376862L241.66666666666669,148.59631258249283L243.33333333333334,148.03536175191402L245,149.1887226998806L246.66666666666666,149.00660733878613L248.33333333333331,148.2304905653L250,149.02886524796486L251.66666666666669,149.0197034329176L253.33333333333334,149.4676098972559L255,148.64872860908508L256.66666666666663,149.0034115612507L258.33333333333337,149.67724235355854L260,149.7303757816553L261.6666666666667,149.68465726077557L263.3333333333333,149.25659450888634L265,148.25236955285072L266.66666666666663,148.87720955908298L268.33333333333337,148.4836023002863L270,148.24199096858501L271.6666666666667,148.03694689273834L273.3333333333333,149.16380794346333L275,148.95543621480465L276.6666666666667,148.96570314466953L278.33333333333337,149.1204069107771L280,149.53405833244324L281.6666666666667,149.63814397156239" style="fill: none;" fill="none"></path></g><g><path stroke="rgb(204, 51, 17)" stroke-width="2px" d="M33.33333333333333,127.56648224592207L35,133.81022799015045L36.666666666666664,138.01692447066307L38.33333333333333,139.85220807790756L40,141.880891174078L41.66666666666667,143.11424678564072L43.33333333333333,143.7774915099144L45,144.92199483513832L46.666666666666664,145.24882221221924L48.333333333333336,146.136560857296L50,146.48445838689804L51.666666666666664,146.9104102551937L53.333333333333336,147.39193612337112L54.99999999999999,147.86866964399815L56.666666666666664,148.4509622901678L58.333333333333336,148.76699084043503L60,149.0883401185274L61.666666666666664,149.298642501235L63.333333333333336,149.6958877593279L65,149.81434428691864L66.66666666666666,150.2582470178604L68.33333333333333,150.56718507409096L70,150.90164275467396L71.66666666666667,151.0108407586813L73.33333333333333,151.35888247191906L75,151.75793090462685L76.66666666666666,151.86349354684353L78.33333333333334,151.9839229285717L80,152.2559526115656L81.66666666666666,152.4818145185709L83.33333333333334,152.5094019472599L85,152.85186885297298L86.66666666666666,153.02207235991955L88.33333333333334,153.25541247427464L90,153.39116927981377L91.66666666666667,153.44475108385086L93.33333333333333,153.8199327290058L95,154.0434094518423L96.66666666666667,154.2251555621624L98.33333333333333,154.23728281259537L100,154.48658686876297L101.66666666666667,154.49318151175976L103.33333333333333,154.63853092491627L105,154.93114414066076L106.66666666666667,154.9733829125762L108.33333333333333,155.01852294057608L109.99999999999999,155.3068383410573L111.66666666666667,155.29771169275045L113.33333333333333,155.64569889754057L115.00000000000001,155.70420756191015L116.66666666666667,155.81043529510498L118.33333333333333,155.92650136351585L120,155.92542570084333L121.66666666666667,155.8827864676714L123.33333333333333,156.07234486937523L125,156.1183231845498L126.66666666666667,156.3095379397273L128.33333333333331,156.4418769776821L130,156.4644808396697L131.66666666666666,156.51669070124626L133.33333333333331,156.47040072083473L135,156.64174934476614L136.66666666666666,156.62163968384266L138.33333333333334,156.73288263380527L140,156.78709172457457L141.66666666666666,156.904298953712L143.33333333333334,156.8566932976246L145,156.96432242542505L146.66666666666666,156.9615244716406L148.33333333333334,156.86291429400444L150,156.8911263719201L151.66666666666666,156.8763972222805L153.33333333333331,156.9523011147976L155.00000000000003,157.00752740353346L156.66666666666669,157.01064317673445L158.33333333333334,157.06894963234663L160,157.10801900178194L161.66666666666666,157.03389190882444L163.33333333333331,157.02481845021248L165,156.91369814425707L166.66666666666669,156.84298837929964L168.33333333333334,156.82610526680946L170,156.80036628991365L171.66666666666666,156.75307713449L173.33333333333331,156.93063400685787L175,156.9731721356511L176.66666666666669,157.04163914173841L178.33333333333334,156.92135526239872L180,156.88359629362822L181.66666666666666,156.92598364502192L183.33333333333334,156.92189067602158L185,156.93142569810152L186.66666666666666,156.95282861590385L188.33333333333334,156.9284378439188L190,156.8100406602025L191.66666666666666,156.95335875451565L193.33333333333334,156.97521620243788L195,157.07679928839207L196.66666666666666,157.13041362166405L198.33333333333331,157.29590698331594L200,157.46722131967545L201.66666666666669,157.51480763405561L203.33333333333334,157.6631668806076L205,157.68896564096212L206.66666666666666,157.73478746414185L208.33333333333331,157.79939843714237L210,157.77090238779783L211.66666666666669,157.7663724720478L213.33333333333334,157.81890235096216L215,157.69843780249357L216.66666666666666,157.74158431589603L218.33333333333331,157.7477354183793L219.99999999999997,157.56701969355345L221.66666666666669,157.62858962267637L223.33333333333334,157.66575031727552L225,157.573216073215L226.66666666666666,157.7324928343296L228.33333333333331,157.77357506006956L230.00000000000003,157.87951926141977L231.66666666666669,157.55050407350063L233.33333333333334,157.74708615243435L235,157.75332649052143L236.66666666666666,157.42412096261978L238.33333333333331,157.3148732855916L240,157.36645981669426L241.66666666666669,157.47093756496906L243.33333333333334,157.50145702064037L245,157.43392764776945L246.66666666666666,157.4899618923664L248.33333333333331,157.61324505507946L250,157.4882558658719L251.66666666666669,157.5336323902011L253.33333333333334,157.7622487321496L255,157.73546090722084L256.66666666666663,157.83710949122906L258.33333333333337,157.91538318246603L260,157.76110537350178L261.6666666666667,158.02229710668325L263.3333333333333,157.78766065835953L265,157.74250084906816L266.66666666666663,157.6473343744874L268.33333333333337,157.55464056134224L270,157.63277754187584L271.6666666666667,157.5552230104804L273.3333333333333,157.5430293828249L275,157.40687783062458L276.6666666666667,157.49377572536469L278.33333333333337,157.10018473118544L280,157.4365853741765L281.6666666666667,157.555778644979" style="fill: none;" fill="none"></path></g></g></g></g></g></g><g transform="translate(30, 177)" clip-path="url(#clip_1)"><clipPath id="clip_1"><rect width="300" height="23"></rect></clipPath><g><g><line x1="0" y1="0" x2="0" y2="5" style="visibility: inherit;" fill="rgb(0, 0, 0)" stroke="rgb(204, 204, 204)" stroke-width="1px"></line><line x1="33.33333333333333" y1="0" x2="33.33333333333333" y2="5" style="visibility: inherit;" fill="rgb(0, 0, 0)" stroke="rgb(204, 204, 204)" stroke-width="1px"></line><line x1="66.66666666666666" y1="0" x2="66.66666666666666" y2="5" style="visibility: inherit;" fill="rgb(0, 0, 0)" stroke="rgb(204, 204, 204)" stroke-width="1px"></line><line x1="100" y1="0" x2="100" y2="5" style="visibility: inherit;" fill="rgb(0, 0, 0)" stroke="rgb(204, 204, 204)" stroke-width="1px"></line><line x1="133.33333333333331" y1="0" x2="133.33333333333331" y2="5" style="visibility: inherit;" fill="rgb(0, 0, 0)" stroke="rgb(204, 204, 204)" stroke-width="1px"></line><line x1="166.66666666666669" y1="0" x2="166.66666666666669" y2="5" style="visibility: inherit;" fill="rgb(0, 0, 0)" stroke="rgb(204, 204, 204)" stroke-width="1px"></line><line x1="200" y1="0" x2="200" y2="5" style="visibility: inherit;" fill="rgb(0, 0, 0)" stroke="rgb(204, 204, 204)" stroke-width="1px"></line><line x1="233.33333333333334" y1="0" x2="233.33333333333334" y2="5" style="visibility: inherit;" fill="rgb(0, 0, 0)" stroke="rgb(204, 204, 204)" stroke-width="1px"></line><line x1="266.66666666666663" y1="0" x2="266.66666666666663" y2="5" style="visibility: inherit;" fill="rgb(0, 0, 0)" stroke="rgb(204, 204, 204)" stroke-width="1px"></line><line x1="300" y1="0" x2="300" y2="5" style="visibility: inherit;" fill="rgb(0, 0, 0)" stroke="rgb(204, 204, 204)" stroke-width="1px"></line></g><g transform="translate(0, 8)"><text x="0" y="0" dx="0em" dy="0.95em" style="text-anchor: middle; visibility: hidden; font-family: Roboto, sans-serif; font-size: 12px; font-weight: 200;" fill="rgb(33, 33, 33)" stroke="none" stroke-width="1px">-20</text><text x="33.33333333333333" y="0" dx="0em" dy="0.95em" style="text-anchor: middle; visibility: inherit; font-family: Roboto, sans-serif; font-size: 12px; font-weight: 200;" fill="rgb(33, 33, 33)" stroke="none" stroke-width="1px">0</text><text x="66.66666666666666" y="0" dx="0em" dy="0.95em" style="text-anchor: middle; visibility: inherit; font-family: Roboto, sans-serif; font-size: 12px; font-weight: 200;" fill="rgb(33, 33, 33)" stroke="none" stroke-width="1px">20</text><text x="100" y="0" dx="0em" dy="0.95em" style="text-anchor: middle; visibility: inherit; font-family: Roboto, sans-serif; font-size: 12px; font-weight: 200;" fill="rgb(33, 33, 33)" stroke="none" stroke-width="1px">40</text><text x="133.33333333333331" y="0" dx="0em" dy="0.95em" style="text-anchor: middle; visibility: inherit; font-family: Roboto, sans-serif; font-size: 12px; font-weight: 200;" fill="rgb(33, 33, 33)" stroke="none" stroke-width="1px">60</text><text x="166.66666666666669" y="0" dx="0em" dy="0.95em" style="text-anchor: middle; visibility: inherit; font-family: Roboto, sans-serif; font-size: 12px; font-weight: 200;" fill="rgb(33, 33, 33)" stroke="none" stroke-width="1px">80</text><text x="200" y="0" dx="0em" dy="0.95em" style="text-anchor: middle; visibility: inherit; font-family: Roboto, sans-serif; font-size: 12px; font-weight: 200;" fill="rgb(33, 33, 33)" stroke="none" stroke-width="1px">100</text><text x="233.33333333333334" y="0" dx="0em" dy="0.95em" style="text-anchor: middle; visibility: inherit; font-family: Roboto, sans-serif; font-size: 12px; font-weight: 200;" fill="rgb(33, 33, 33)" stroke="none" stroke-width="1px">120</text><text x="266.66666666666663" y="0" dx="0em" dy="0.95em" style="text-anchor: middle; visibility: inherit; font-family: Roboto, sans-serif; font-size: 12px; font-weight: 200;" fill="rgb(33, 33, 33)" stroke="none" stroke-width="1px">140</text><text x="300" y="0" dx="0em" dy="0.95em" style="text-anchor: middle; visibility: hidden; font-family: Roboto, sans-serif; font-size: 12px; font-weight: 200;" fill="rgb(33, 33, 33)" stroke="none" stroke-width="1px">160</text></g><line x1="0" y1="0" x2="300" y2="0" fill="rgb(0, 0, 0)" stroke="rgb(204, 204, 204)" stroke-width="1px"></line></g></g></g></g></svg>