<svg viewBox="0 0 330 200" xmlns="http://www.w3.org/2000/svg"><g><g><g><g><g><line x1="50" y1="177" x2="45" y2="177" style="visibility: inherit;" fill="rgb(0, 0, 0)" stroke="rgb(204, 204, 204)" stroke-width="1px"></line><line x1="50" y1="162.25" x2="45" y2="162.25" style="visibility: inherit;" fill="rgb(0, 0, 0)" stroke="rgb(204, 204, 204)" stroke-width="1px"></line><line x1="50" y1="147.5" x2="45" y2="147.5" style="visibility: inherit;" fill="rgb(0, 0, 0)" stroke="rgb(204, 204, 204)" stroke-width="1px"></line><line x1="50" y1="132.75000000000003" x2="45" y2="132.75000000000003" style="visibility: inherit;" fill="rgb(0, 0, 0)" stroke="rgb(204, 204, 204)" stroke-width="1px"></line><line x1="50" y1="118.00000000000001" x2="45" y2="118.00000000000001" style="visibility: inherit;" fill="rgb(0, 0, 0)" stroke="rgb(204, 204, 204)" stroke-width="1px"></line><line x1="50" y1="103.25000000000003" x2="45" y2="103.25000000000003" style="visibility: inherit;" fill="rgb(0, 0, 0)" stroke="rgb(204, 204, 204)" stroke-width="1px"></line><line x1="50" y1="88.50000000000001" x2="45" y2="88.50000000000001" style="visibility: inherit;" fill="rgb(0, 0, 0)" stroke="rgb(204, 204, 204)" stroke-width="1px"></line><line x1="50" y1="73.75000000000001" x2="45" y2="73.75000000000001" style="visibility: inherit;" fill="rgb(0, 0, 0)" stroke="rgb(204, 204, 204)" stroke-width="1px"></line><line x1="50" y1="59.00000000000003" x2="45" y2="59.00000000000003" style="visibility: inherit;" fill="rgb(0, 0, 0)" stroke="rgb(204, 204, 204)" stroke-width="1px"></line><line x1="50" y1="44.25000000000002" x2="45" y2="44.25000000000002" style="visibility: inherit;" fill="rgb(0, 0, 0)" stroke="rgb(204, 204, 204)" stroke-width="1px"></line><line x1="50" y1="29.500000000000032" x2="45" y2="29.500000000000032" style="visibility: inherit;" fill="rgb(0, 0, 0)" stroke="rgb(204, 204, 204)" stroke-width="1px"></line><line x1="50" y1="14.750000000000007" x2="45" y2="14.750000000000007" style="visibility: inherit;" fill="rgb(0, 0, 0)" stroke="rgb(204, 204, 204)" stroke-width="1px"></line><line x1="50" y1="0" x2="45" y2="0" style="visibility: inherit;" fill="rgb(0, 0, 0)" stroke="rgb(204, 204, 204)" stroke-width="1px"></line></g><g transform="translate(40, 0)"><text x="0" y="177" dx="0em" dy="0.3em" style="text-anchor: end; visibility: hidden; font-family: Roboto, sans-serif; font-size: 12px; font-weight: 200;" fill="rgb(33, 33, 33)" stroke="none" stroke-width="1px">0.45</text><text x="0" y="162.25" dx="0em" dy="0.3em" style="text-anchor: end; visibility: inherit; font-family: Roboto, sans-serif; font-size: 12px; font-weight: 200;" fill="rgb(33, 33, 33)" stroke="none" stroke-width="1px">0.5</text><text x="0" y="147.5" dx="0em" dy="0.3em" style="text-anchor: end; visibility: hidden; font-family: Roboto, sans-serif; font-size: 12px; font-weight: 200;" fill="rgb(33, 33, 33)" stroke="none" stroke-width="1px">0.55</text><text x="0" y="132.75000000000003" dx="0em" dy="0.3em" style="text-anchor: end; visibility: inherit; font-family: Roboto, sans-serif; font-size: 12px; font-weight: 200;" fill="rgb(33, 33, 33)" stroke="none" stroke-width="1px">0.6</text><text x="0" y="118.00000000000001" dx="0em" dy="0.3em" style="text-anchor: end; visibility: hidden; font-family: Roboto, sans-serif; font-size: 12px; font-weight: 200;" fill="rgb(33, 33, 33)" stroke="none" stroke-width="1px">0.65</text><text x="0" y="103.25000000000003" dx="0em" dy="0.3em" style="text-anchor: end; visibility: inherit; font-family: Roboto, sans-serif; font-size: 12px; font-weight: 200;" fill="rgb(33, 33, 33)" stroke="none" stroke-width="1px">0.7</text><text x="0" y="88.50000000000001" dx="0em" dy="0.3em" style="text-anchor: end; visibility: hidden; font-family: Roboto, sans-serif; font-size: 12px; font-weight: 200;" fill="rgb(33, 33, 33)" stroke="none" stroke-width="1px">0.75</text><text x="0" y="73.75000000000001" dx="0em" dy="0.3em" style="text-anchor: end; visibility: inherit; font-family: Roboto, sans-serif; font-size: 12px; font-weight: 200;" fill="rgb(33, 33, 33)" stroke="none" stroke-width="1px">0.8</text><text x="0" y="59.00000000000003" dx="0em" dy="0.3em" style="text-anchor: end; visibility: hidden; font-family: Roboto, sans-serif; font-size: 12px; font-weight: 200;" fill="rgb(33, 33, 33)" stroke="none" stroke-width="1px">0.85</text><text x="0" y="44.25000000000002" dx="0em" dy="0.3em" style="text-anchor: end; visibility: inherit; font-family: Roboto, sans-serif; font-size: 12px; font-weight: 200;" fill="rgb(33, 33, 33)" stroke="none" stroke-width="1px">0.9</text><text x="0" y="29.500000000000032" dx="0em" dy="0.3em" style="text-anchor: end; visibility: hidden; font-family: Roboto, sans-serif; font-size: 12px; font-weight: 200;" fill="rgb(33, 33, 33)" stroke="none" stroke-width="1px">0.95</text><text x="0" y="14.750000000000007" dx="0em" dy="0.3em" style="text-anchor: end; visibility: inherit; font-family: Roboto, sans-serif; font-size: 12px; font-weight: 200;" fill="rgb(33, 33, 33)" stroke="none" stroke-width="1px">1</text><text x="0" y="0" dx="0em" dy="0.3em" style="text-anchor: end; visibility: hidden; font-family: Roboto, sans-serif; font-size: 12px; font-weight: 200;" fill="rgb(33, 33, 33)" stroke="none" stroke-width="1px">1.05</text></g><line x1="50" y1="0" x2="50" y2="177" fill="rgb(0, 0, 0)" stroke="rgb(204, 204, 204)" stroke-width="1px"></line></g></g><g transform="translate(50, 0)" clip-path="url(#clip_0)"><clipPath id="clip_0"><rect width="280" height="177"></rect></clipPath><g><g><g><line x1="0" y1="0" x2="0" y2="177" fill="rgb(0, 0, 0)" stroke="rgb(66, 66, 66)" stroke-width="1px" opacity="0.25"></line><line x1="23.333333333333332" y1="0" x2="23.333333333333332" y2="177" fill="rgb(0, 0, 0)" stroke="rgb(66, 66, 66)" stroke-width="1px" opacity="0.25"></line><line x1="46.666666666666664" y1="0" x2="46.666666666666664" y2="177" fill="rgb(0, 0, 0)" stroke="rgb(66, 66, 66)" stroke-width="1px" opacity="0.25"></line><line x1="70" y1="0" x2="70" y2="177" fill="rgb(0, 0, 0)" stroke="rgb(66, 66, 66)" stroke-width="1px" opacity="0.25"></line><line x1="93.33333333333333" y1="0" x2="93.33333333333333" y2="177" fill="rgb(0, 0, 0)" stroke="rgb(66, 66, 66)" stroke-width="1px" opacity="0.25"></line><line x1="116.66666666666667" y1="0" x2="116.66666666666667" y2="177" fill="rgb(0, 0, 0)" stroke="rgb(66, 66, 66)" stroke-width="1px" opacity="0.25"></line><line x1="140" y1="0" x2="140" y2="177" fill="rgb(0, 0, 0)" stroke="rgb(66, 66, 66)" stroke-width="1px" opacity="0.25"></line><line x1="163.33333333333334" y1="0" x2="163.33333333333334" y2="177" fill="rgb(0, 0, 0)" stroke="rgb(66, 66, 66)" stroke-width="1px" opacity="0.25"></line><line x1="186.66666666666666" y1="0" x2="186.66666666666666" y2="177" fill="rgb(0, 0, 0)" stroke="rgb(66, 66, 66)" stroke-width="1px" opacity="0.25"></line><line x1="210" y1="0" x2="210" y2="177" fill="rgb(0, 0, 0)" stroke="rgb(66, 66, 66)" stroke-width="1px" opacity="0.25"></line><line x1="233.33333333333334" y1="0" x2="233.33333333333334" y2="177" fill="rgb(0, 0, 0)" stroke="rgb(66, 66, 66)" stroke-width="1px" opacity="0.25"></line><line x1="256.66666666666663" y1="0" x2="256.66666666666663" y2="177" fill="rgb(0, 0, 0)" stroke="rgb(66, 66, 66)" stroke-width="1px" opacity="0.25"></line><line x1="280" y1="0" x2="280" y2="177" fill="rgb(0, 0, 0)" stroke="rgb(66, 66, 66)" stroke-width="1px" opacity="0.25"></line></g><g><line x1="0" y1="177" x2="280" y2="177" fill="rgb(0, 0, 0)" stroke="rgb(66, 66, 66)" stroke-width="1px" opacity="0.25"></line><line x1="0" y1="162.25" x2="280" y2="162.25" fill="rgb(0, 0, 0)" stroke="rgb(66, 66, 66)" stroke-width="1px" opacity="0.25"></line><line x1="0" y1="147.5" x2="280" y2="147.5" fill="rgb(0, 0, 0)" stroke="rgb(66, 66, 66)" stroke-width="1px" opacity="0.25"></line><line x1="0" y1="132.75000000000003" x2="280" y2="132.75000000000003" fill="rgb(0, 0, 0)" stroke="rgb(66, 66, 66)" stroke-width="1px" opacity="0.25"></line><line x1="0" y1="118.00000000000001" x2="280" y2="118.00000000000001" fill="rgb(0, 0, 0)" stroke="rgb(66, 66, 66)" stroke-width="1px" opacity="0.25"></line><line x1="0" y1="103.25000000000003" x2="280" y2="103.25000000000003" fill="rgb(0, 0, 0)" stroke="rgb(66, 66, 66)" stroke-width="1px" opacity="0.25"></line><line x1="0" y1="88.50000000000001" x2="280" y2="88.50000000000001" fill="rgb(0, 0, 0)" stroke="rgb(66, 66, 66)" stroke-width="1px" opacity="0.25"></line><line x1="0" y1="73.75000000000001" x2="280" y2="73.75000000000001" fill="rgb(0, 0, 0)" stroke="rgb(66, 66, 66)" stroke-width="1px" opacity="0.25"></line><line x1="0" y1="59.00000000000003" x2="280" y2="59.00000000000003" fill="rgb(0, 0, 0)" stroke="rgb(66, 66, 66)" stroke-width="1px" opacity="0.25"></line><line x1="0" y1="44.25000000000002" x2="280" y2="44.25000000000002" fill="rgb(0, 0, 0)" stroke="rgb(66, 66, 66)" stroke-width="1px" opacity="0.25"></line><line x1="0" y1="29.500000000000032" x2="280" y2="29.500000000000032" fill="rgb(0, 0, 0)" stroke="rgb(66, 66, 66)" stroke-width="1px" opacity="0.25"></line><line x1="0" y1="14.750000000000007" x2="280" y2="14.750000000000007" fill="rgb(0, 0, 0)" stroke="rgb(66, 66, 66)" stroke-width="1px" opacity="0.25"></line><line x1="0" y1="0" x2="280" y2="0" fill="rgb(0, 0, 0)" stroke="rgb(66, 66, 66)" stroke-width="1px" opacity="0.25"></line></g></g></g><g><g><line x1="0" y1="309.75" x2="280" y2="309.75" fill="rgb(0, 0, 0)" stroke="rgb(153, 153, 153)" stroke-width="1.5px"></line></g></g><g><g><line x1="23.333333333333332" y1="0" x2="23.333333333333332" y2="177" fill="rgb(0, 0, 0)" stroke="rgb(153, 153, 153)" stroke-width="1.5px"></line></g></g><g><g><g><g><g><path stroke="rgb(0, 119, 187)" stroke-width="2px" d="M23.333333333333332,164.40328589081764L24.5,164.40328589081764L25.666666666666664,164.40328589081764L26.833333333333336,164.40328589081764L28,164.40328589081764L29.166666666666668,164.40328589081764L30.333333333333336,164.40328589081764L31.5,164.40328589081764L32.666666666666664,164.40328589081764L33.833333333333336,164.40328589081764L35,165.4799244403839L36.16666666666667,165.4799244403839L37.333333333333336,165.4799244403839L38.5,161.17335265874863L39.666666666666664,160.09672290086746L40.833333333333336,159.0200755596161L42,151.4835793375969L43.16666666666667,141.79378843307495L44.33333333333333,141.79378843307495L45.5,147.1770075559616L46.666666666666664,140.7171586751938L47.833333333333336,128.8740906715393L49,118.10767000913623L50.166666666666664,112.72445088624956L51.33333333333333,119.1842997670174L52.5,111.64780354499817L53.66666666666667,111.64780354499817L54.833333333333336,101.95803022384644L56,101.95803022384644L57.166666666666664,100.88138288259509L58.333333333333336,97.65145844221117L59.5,95.49818134307864L60.66666666666667,103.03467756509782L61.83333333333333,99.80475312471393L63,94.42153400182725L64.16666666666666,101.95803022384644L65.33333333333333,97.65145844221117L66.5,95.49818134307864L67.66666666666667,96.5748111009598L68.83333333333333,98.72810578346254L70,94.42153400182725L71.16666666666666,91.19160956144336L72.33333333333334,95.49818134307864L73.5,98.72810578346254L74.66666666666667,97.65145844221117L75.83333333333333,97.65145844221117L77,96.5748111009598L78.16666666666667,94.42153400182725L79.33333333333333,95.49818134307864L80.5,98.72810578346254L81.66666666666667,95.49818134307864L82.83333333333333,95.49818134307864L84,92.26825690269472L85.16666666666666,96.5748111009598L86.33333333333334,92.26825690269472L87.5,95.49818134307864L88.66666666666666,96.5748111009598L89.83333333333334,95.49818134307864L91,97.65145844221117L92.16666666666667,96.5748111009598L93.33333333333333,90.11496222019197L94.5,89.0383148789406L95.66666666666667,91.19160956144336L96.83333333333333,93.34488666057588L98,95.49818134307864L99.16666666666667,93.34488666057588L100.33333333333333,94.42153400182725L101.5,92.26825690269472L102.66666666666666,96.5748111009598L103.83333333333334,97.65145844221117L105,105.18795466423038L106.16666666666666,99.80475312471393L107.33333333333334,97.65145844221117L108.5,105.18795466423038L109.66666666666667,100.88138288259509L110.83333333333333,101.95803022384644L112,95.49818134307864L113.16666666666667,108.41787910461427L114.33333333333333,108.41787910461427L115.5,111.64780354499817L116.66666666666667,105.18795466423038L117.83333333333333,105.18795466423038L119,104.11130732297899L120.16666666666666,104.11130732297899L121.33333333333334,98.72810578346254L122.5,94.42153400182725L123.66666666666666,94.42153400182725L124.83333333333334,94.42153400182725L126,96.5748111009598L127.16666666666667,99.80475312471393L128.33333333333331,101.95803022384644L129.5,100.88138288259509L130.66666666666666,96.5748111009598L131.83333333333334,96.5748111009598L133,93.34488666057588L134.16666666666669,100.88138288259509L135.33333333333334,100.88138288259509L136.5,101.95803022384644L137.66666666666666,101.95803022384644L138.83333333333334,107.34124934673311L140,103.03467756509782L141.16666666666666,107.34124934673311L142.33333333333331,98.72810578346254L143.5,98.72810578346254L144.66666666666669,107.34124934673311L145.83333333333334,94.42153400182725L147,95.49818134307864L148.16666666666666,94.42153400182725L149.33333333333334,113.80109822750094L150.5,114.87774556875229L151.66666666666666,108.41787910461427L152.83333333333331,97.65145844221117L154,90.11496222019197L155.16666666666669,92.26825690269472L156.33333333333334,93.34488666057588L157.5,97.65145844221117L158.66666666666666,103.03467756509782L159.83333333333331,101.95803022384644L161,106.26460200548172L162.16666666666669,103.03467756509782L163.33333333333334,100.88138288259509L164.5,104.11130732297899L165.66666666666666,93.34488666057588L166.83333333333334,104.11130732297899L168,101.95803022384644L169.16666666666666,100.88138288259509L170.33333333333331,101.95803022384644L171.5,96.5748111009598L172.66666666666669,99.80475312471393L173.83333333333334,103.03467756509782L175,97.65145844221117L176.16666666666666,97.65145844221117L177.33333333333331,96.5748111009598L178.5,99.80475312471393L179.66666666666669,89.0383148789406L180.83333333333334,90.11496222019197L182,90.11496222019197L183.16666666666666,110.571173787117L184.33333333333334,112.72445088624956L185.5,103.03467756509782L186.66666666666666,97.65145844221117L187.83333333333331,86.88503777980807L189,90.11496222019197L190.16666666666669,94.42153400182725L191.33333333333334,103.03467756509782L192.5,94.42153400182725L193.66666666666666,98.72810578346254L194.83333333333331,107.34124934673311L196,100.88138288259509L197.16666666666669,100.88138288259509L198.33333333333334,107.34124934673311L199.5,103.03467756509782L200.66666666666666,98.72810578346254L201.83333333333334,95.49818134307864L203,94.42153400182725L204.16666666666666,92.26825690269472L205.33333333333331,95.49818134307864L206.5,96.5748111009598L207.66666666666669,95.49818134307864L208.83333333333334,93.34488666057588L210,93.34488666057588L211.16666666666666,96.5748111009598L212.33333333333331,94.42153400182725L213.5,93.34488666057588L214.66666666666669,96.5748111009598L215.83333333333334,93.34488666057588L217,91.19160956144336L218.16666666666666,93.34488666057588L219.33333333333334,90.11496222019197L220.5,87.96168512105943L221.66666666666666,95.49818134307864L222.83333333333331,92.26825690269472L224,97.65145844221117L225.16666666666669,95.49818134307864L226.33333333333334,94.42153400182725L227.5,95.49818134307864L228.66666666666666,100.88138288259509L229.83333333333331,96.5748111009598L231,97.65145844221117L232.16666666666669,95.49818134307864L233.33333333333334,100.88138288259509L234.5,99.80475312471393L235.66666666666666,96.5748111009598L236.83333333333334,98.72810578346254L238,96.5748111009598L239.16666666666666,91.19160956144336L240.33333333333331,99.80475312471393L241.5,99.80475312471393L242.66666666666669,97.65145844221117L243.83333333333334,110.571173787117L245,111.64780354499817L246.16666666666666,92.26825690269472L247.33333333333331,93.34488666057588L248.5,93.34488666057588L249.66666666666669,92.26825690269472L250.83333333333334,92.26825690269472L252,93.34488666057588L253.16666666666666,100.88138288259509L254.33333333333334,97.65145844221117L255.5,93.34488666057588" style="fill: none;" fill="none"></path></g><g><path stroke="rgb(255, 112, 67)" stroke-width="2px" d="M23.333333333333332,126.64655900001526L24.5,85.95689958333972L25.666666666666664,61.45062243938449L26.833333333333336,43.41771578788761L28,42.030563712120085L29.166666666666668,33.24529653787616L30.333333333333336,24.46002936363221L31.5,25.847181439399733L32.666666666666664,18.44906634092333L33.833333333333336,20.760963022708907L35,19.836200833320632L36.16666666666667,17.98667645454408L37.333333333333336,18.44906634092333L38.5,17.061914265155806L39.666666666666664,17.98667645454408L40.833333333333336,17.524286568164833L42,18.911438643932357L43.16666666666667,15.674762189388282L44.33333333333333,18.911438643932357L45.5,16.599524378776557L46.666666666666664,16.599524378776557L47.833333333333336,16.599524378776557L49,17.061914265155806L50.166666666666664,17.061914265155806L51.33333333333333,15.674762189388282L52.5,16.599524378776557L53.66666666666667,15.212389886379254L54.833333333333336,16.13715207576753L56,15.212389886379254L57.166666666666664,15.674762189388282L58.333333333333336,16.13715207576753L59.5,15.212389886379254L60.66666666666667,15.212389886379254L61.83333333333333,15.674762189388282L63,15.212389886379254L64.16666666666666,16.13715207576753L65.33333333333333,15.212389886379254L66.5,16.13715207576753L67.66666666666667,15.212389886379254L68.83333333333333,15.212389886379254L70,15.674762189388282L71.16666666666666,15.674762189388282L72.33333333333334,15.212389886379254L73.5,16.599524378776557L74.66666666666667,16.599524378776557L75.83333333333333,15.674762189388282L77,15.212389886379254L78.16666666666667,15.674762189388282L79.33333333333333,15.212389886379254L80.5,15.674762189388282L81.66666666666667,15.674762189388282L82.83333333333333,15.674762189388282L84,15.212389886379254L85.16666666666666,16.13715207576753L86.33333333333334,15.212389886379254L87.5,16.13715207576753L88.66666666666666,16.13715207576753L89.83333333333334,15.212389886379254L91,14.750000000000007L92.16666666666667,15.212389886379254L93.33333333333333,15.674762189388282L94.5,16.13715207576753L95.66666666666667,15.674762189388282L96.83333333333333,15.674762189388282L98,15.674762189388282L99.16666666666667,15.674762189388282L100.33333333333333,17.061914265155806L101.5,15.674762189388282L102.66666666666666,16.13715207576753L103.83333333333334,17.061914265155806L105,16.599524378776557L106.16666666666666,16.599524378776557L107.33333333333334,17.98667645454408L108.5,17.524286568164833L109.66666666666667,17.061914265155806L110.83333333333333,17.98667645454408L112,17.061914265155806L113.16666666666667,17.061914265155806L114.33333333333333,16.13715207576753L115.5,17.061914265155806L116.66666666666667,16.13715207576753L117.83333333333333,15.674762189388282L119,16.599524378776557L120.16666666666666,15.674762189388282L121.33333333333334,16.13715207576753L122.5,16.13715207576753L123.66666666666666,17.061914265155806L124.83333333333334,16.13715207576753L126,16.13715207576753L127.16666666666667,15.674762189388282L128.33333333333331,15.212389886379254L129.5,16.13715207576753L130.66666666666666,16.13715207576753L131.83333333333334,16.13715207576753L133,14.750000000000007L134.16666666666669,16.599524378776557L135.33333333333334,15.212389886379254L136.5,17.061914265155806L137.66666666666666,16.13715207576753L138.83333333333334,17.524286568164833L140,15.674762189388282L141.16666666666666,15.674762189388282L142.33333333333331,17.061914265155806L143.5,16.13715207576753L144.66666666666669,15.212389886379254L145.83333333333334,17.061914265155806L147,16.13715207576753L148.16666666666666,17.524286568164833L149.33333333333334,16.13715207576753L150.5,17.061914265155806L151.66666666666666,15.212389886379254L152.83333333333331,16.13715207576753L154,15.674762189388282L155.16666666666669,16.13715207576753L156.33333333333334,15.674762189388282L157.5,16.13715207576753L158.66666666666666,16.13715207576753L159.83333333333331,16.13715207576753L161,17.524286568164833L162.16666666666669,16.599524378776557L163.33333333333334,17.524286568164833L164.5,15.674762189388282L165.66666666666666,15.212389886379254L166.83333333333334,17.061914265155806L168,15.674762189388282L169.16666666666666,17.061914265155806L170.33333333333331,15.674762189388282L171.5,15.212389886379254L172.66666666666669,14.750000000000007L173.83333333333334,15.674762189388282L175,16.13715207576753L176.16666666666666,16.13715207576753L177.33333333333331,16.13715207576753L178.5,17.524286568164833L179.66666666666669,17.061914265155806L180.83333333333334,16.599524378776557L182,15.674762189388282L183.16666666666666,16.599524378776557L184.33333333333334,15.674762189388282L185.5,16.599524378776557L186.66666666666666,15.674762189388282L187.83333333333331,18.44906634092333L189,16.13715207576753L190.16666666666669,15.674762189388282L191.33333333333334,17.061914265155806L192.5,16.599524378776557L193.66666666666666,16.599524378776557L194.83333333333331,17.524286568164833L196,17.98667645454408L197.16666666666669,17.061914265155806L198.33333333333334,18.44906634092333L199.5,15.674762189388282L200.66666666666666,16.13715207576753L201.83333333333334,15.674762189388282L203,15.674762189388282L204.16666666666666,16.13715207576753L205.33333333333331,17.524286568164833L206.5,16.599524378776557L207.66666666666669,17.524286568164833L208.83333333333334,16.599524378776557L210,17.061914265155806L211.16666666666666,15.674762189388282L212.33333333333331,17.98667645454408L213.5,16.599524378776557L214.66666666666669,16.13715207576753L215.83333333333334,15.674762189388282L217,15.674762189388282L218.16666666666666,16.13715207576753L219.33333333333334,16.13715207576753L220.5,16.13715207576753L221.66666666666666,15.212389886379254L222.83333333333331,15.212389886379254L224,16.13715207576753L225.16666666666669,17.524286568164833L226.33333333333334,15.674762189388282L227.5,16.13715207576753L228.66666666666666,16.13715207576753L229.83333333333331,15.674762189388282L231,15.674762189388282L232.16666666666669,15.674762189388282L233.33333333333334,14.750000000000007L234.5,15.212389886379254L235.66666666666666,16.13715207576753L236.83333333333334,17.524286568164833L238,14.750000000000007L239.16666666666666,16.13715207576753L240.33333333333331,15.212389886379254L241.5,15.674762189388282L242.66666666666669,16.599524378776557L243.83333333333334,15.674762189388282L245,15.674762189388282L246.16666666666666,16.13715207576753L247.33333333333331,15.674762189388282L248.5,15.212389886379254L249.66666666666669,15.674762189388282L250.83333333333334,15.674762189388282L252,17.061914265155806L253.16666666666666,16.599524378776557L254.33333333333334,15.212389886379254L255.5,16.13715207576753" style="fill: none;" fill="none"></path></g></g></g></g></g></g><g transform="translate(50, 177)" clip-path="url(#clip_1)"><clipPath id="clip_1"><rect width="280" height="23"></rect></clipPath><g><g><line x1="0" y1="0" x2="0" y2="5" style="visibility: inherit;" fill="rgb(0, 0, 0)" stroke="rgb(204, 204, 204)" stroke-width="1px"></line><line x1="23.333333333333332" y1="0" x2="23.333333333333332" y2="5" style="visibility: inherit;" fill="rgb(0, 0, 0)" stroke="rgb(204, 204, 204)" stroke-width="1px"></line><line x1="46.666666666666664" y1="0" x2="46.666666666666664" y2="5" style="visibility: inherit;" fill="rgb(0, 0, 0)" stroke="rgb(204, 204, 204)" stroke-width="1px"></line><line x1="70" y1="0" x2="70" y2="5" style="visibility: inherit;" fill="rgb(0, 0, 0)" stroke="rgb(204, 204, 204)" stroke-width="1px"></line><line x1="93.33333333333333" y1="0" x2="93.33333333333333" y2="5" style="visibility: inherit;" fill="rgb(0, 0, 0)" stroke="rgb(204, 204, 204)" stroke-width="1px"></line><line x1="116.66666666666667" y1="0" x2="116.66666666666667" y2="5" style="visibility: inherit;" fill="rgb(0, 0, 0)" stroke="rgb(204, 204, 204)" stroke-width="1px"></line><line x1="140" y1="0" x2="140" y2="5" style="visibility: inherit;" fill="rgb(0, 0, 0)" stroke="rgb(204, 204, 204)" stroke-width="1px"></line><line x1="163.33333333333334" y1="0" x2="163.33333333333334" y2="5" style="visibility: inherit;" fill="rgb(0, 0, 0)" stroke="rgb(204, 204, 204)" stroke-width="1px"></line><line x1="186.66666666666666" y1="0" x2="186.66666666666666" y2="5" style="visibility: inherit;" fill="rgb(0, 0, 0)" stroke="rgb(204, 204, 204)" stroke-width="1px"></line><line x1="210" y1="0" x2="210" y2="5" style="visibility: inherit;" fill="rgb(0, 0, 0)" stroke="rgb(204, 204, 204)" stroke-width="1px"></line><line x1="233.33333333333334" y1="0" x2="233.33333333333334" y2="5" style="visibility: inherit;" fill="rgb(0, 0, 0)" stroke="rgb(204, 204, 204)" stroke-width="1px"></line><line x1="256.66666666666663" y1="0" x2="256.66666666666663" y2="5" style="visibility: inherit;" fill="rgb(0, 0, 0)" stroke="rgb(204, 204, 204)" stroke-width="1px"></line><line x1="280" y1="0" x2="280" y2="5" style="visibility: inherit;" fill="rgb(0, 0, 0)" stroke="rgb(204, 204, 204)" stroke-width="1px"></line></g><g transform="translate(0, 8)"><text x="0" y="0" dx="0em" dy="0.95em" style="text-anchor: middle; visibility: hidden; font-family: Roboto, sans-serif; font-size: 12px; font-weight: 200;" fill="rgb(33, 33, 33)" stroke="none" stroke-width="1px">-20</text><text x="23.333333333333332" y="0" dx="0em" dy="0.95em" style="text-anchor: middle; visibility: inherit; font-family: Roboto, sans-serif; font-size: 12px; font-weight: 200;" fill="rgb(33, 33, 33)" stroke="none" stroke-width="1px">0</text><text x="46.666666666666664" y="0" dx="0em" dy="0.95em" style="text-anchor: middle; visibility: hidden; font-family: Roboto, sans-serif; font-size: 12px; font-weight: 200;" fill="rgb(33, 33, 33)" stroke="none" stroke-width="1px">20</text><text x="70" y="0" dx="0em" dy="0.95em" style="text-anchor: middle; visibility: inherit; font-family: Roboto, sans-serif; font-size: 12px; font-weight: 200;" fill="rgb(33, 33, 33)" stroke="none" stroke-width="1px">40</text><text x="93.33333333333333" y="0" dx="0em" dy="0.95em" style="text-anchor: middle; visibility: hidden; font-family: Roboto, sans-serif; font-size: 12px; font-weight: 200;" fill="rgb(33, 33, 33)" stroke="none" stroke-width="1px">60</text><text x="116.66666666666667" y="0" dx="0em" dy="0.95em" style="text-anchor: middle; visibility: inherit; font-family: Roboto, sans-serif; font-size: 12px; font-weight: 200;" fill="rgb(33, 33, 33)" stroke="none" stroke-width="1px">80</text><text x="140" y="0" dx="0em" dy="0.95em" style="text-anchor: middle; visibility: hidden; font-family: Roboto, sans-serif; font-size: 12px; font-weight: 200;" fill="rgb(33, 33, 33)" stroke="none" stroke-width="1px">100</text><text x="163.33333333333334" y="0" dx="0em" dy="0.95em" style="text-anchor: middle; visibility: inherit; font-family: Roboto, sans-serif; font-size: 12px; font-weight: 200;" fill="rgb(33, 33, 33)" stroke="none" stroke-width="1px">120</text><text x="186.66666666666666" y="0" dx="0em" dy="0.95em" style="text-anchor: middle; visibility: hidden; font-family: Roboto, sans-serif; font-size: 12px; font-weight: 200;" fill="rgb(33, 33, 33)" stroke="none" stroke-width="1px">140</text><text x="210" y="0" dx="0em" dy="0.95em" style="text-anchor: middle; visibility: inherit; font-family: Roboto, sans-serif; font-size: 12px; font-weight: 200;" fill="rgb(33, 33, 33)" stroke="none" stroke-width="1px">160</text><text x="233.33333333333334" y="0" dx="0em" dy="0.95em" style="text-anchor: middle; visibility: hidden; font-family: Roboto, sans-serif; font-size: 12px; font-weight: 200;" fill="rgb(33, 33, 33)" stroke="none" stroke-width="1px">180</text><text x="256.66666666666663" y="0" dx="0em" dy="0.95em" style="text-anchor: middle; visibility: inherit; font-family: Roboto, sans-serif; font-size: 12px; font-weight: 200;" fill="rgb(33, 33, 33)" stroke="none" stroke-width="1px">200</text><text x="280" y="0" dx="0em" dy="0.95em" style="text-anchor: middle; visibility: hidden; font-family: Roboto, sans-serif; font-size: 12px; font-weight: 200;" fill="rgb(33, 33, 33)" stroke="none" stroke-width="1px">220</text></g><line x1="0" y1="0" x2="280" y2="0" fill="rgb(0, 0, 0)" stroke="rgb(204, 204, 204)" stroke-width="1px"></line></g></g></g></g></svg>