<svg viewBox="0 0 330 200" xmlns="http://www.w3.org/2000/svg"><g><g><g><g><g><line x1="30" y1="177" x2="25" y2="177" style="visibility: inherit;" fill="rgb(0, 0, 0)" stroke="rgb(204, 204, 204)" stroke-width="1px"></line><line x1="30" y1="162.25" x2="25" y2="162.25" style="visibility: inherit;" fill="rgb(0, 0, 0)" stroke="rgb(204, 204, 204)" stroke-width="1px"></line><line x1="30" y1="147.5" x2="25" y2="147.5" style="visibility: inherit;" fill="rgb(0, 0, 0)" stroke="rgb(204, 204, 204)" stroke-width="1px"></line><line x1="30" y1="132.75" x2="25" y2="132.75" style="visibility: inherit;" fill="rgb(0, 0, 0)" stroke="rgb(204, 204, 204)" stroke-width="1px"></line><line x1="30" y1="118.00000000000001" x2="25" y2="118.00000000000001" style="visibility: inherit;" fill="rgb(0, 0, 0)" stroke="rgb(204, 204, 204)" stroke-width="1px"></line><line x1="30" y1="103.24999999999999" x2="25" y2="103.24999999999999" style="visibility: inherit;" fill="rgb(0, 0, 0)" stroke="rgb(204, 204, 204)" stroke-width="1px"></line><line x1="30" y1="88.5" x2="25" y2="88.5" style="visibility: inherit;" fill="rgb(0, 0, 0)" stroke="rgb(204, 204, 204)" stroke-width="1px"></line><line x1="30" y1="73.75" x2="25" y2="73.75" style="visibility: inherit;" fill="rgb(0, 0, 0)" stroke="rgb(204, 204, 204)" stroke-width="1px"></line><line x1="30" y1="59.00000000000001" x2="25" y2="59.00000000000001" style="visibility: inherit;" fill="rgb(0, 0, 0)" stroke="rgb(204, 204, 204)" stroke-width="1px"></line><line x1="30" y1="44.25" x2="25" y2="44.25" style="visibility: inherit;" fill="rgb(0, 0, 0)" stroke="rgb(204, 204, 204)" stroke-width="1px"></line><line x1="30" y1="29.499999999999993" x2="25" y2="29.499999999999993" style="visibility: inherit;" fill="rgb(0, 0, 0)" stroke="rgb(204, 204, 204)" stroke-width="1px"></line><line x1="30" y1="14.750000000000007" x2="25" y2="14.750000000000007" style="visibility: inherit;" fill="rgb(0, 0, 0)" stroke="rgb(204, 204, 204)" stroke-width="1px"></line><line x1="30" y1="0" x2="25" y2="0" style="visibility: inherit;" fill="rgb(0, 0, 0)" stroke="rgb(204, 204, 204)" stroke-width="1px"></line></g><g transform="translate(20, 0)"><text x="0" y="177" dx="0em" dy="0.3em" style="text-anchor: end; visibility: hidden; font-family: Roboto, sans-serif; font-size: 12px; font-weight: 200;" fill="rgb(33, 33, 33)" stroke="none" stroke-width="1px">-5</text><text x="0" y="162.25" dx="0em" dy="0.3em" style="text-anchor: end; visibility: inherit; font-family: Roboto, sans-serif; font-size: 12px; font-weight: 200;" fill="rgb(33, 33, 33)" stroke="none" stroke-width="1px">0</text><text x="0" y="147.5" dx="0em" dy="0.3em" style="text-anchor: end; visibility: hidden; font-family: Roboto, sans-serif; font-size: 12px; font-weight: 200;" fill="rgb(33, 33, 33)" stroke="none" stroke-width="1px">5</text><text x="0" y="132.75" dx="0em" dy="0.3em" style="text-anchor: end; visibility: inherit; font-family: Roboto, sans-serif; font-size: 12px; font-weight: 200;" fill="rgb(33, 33, 33)" stroke="none" stroke-width="1px">10</text><text x="0" y="118.00000000000001" dx="0em" dy="0.3em" style="text-anchor: end; visibility: hidden; font-family: Roboto, sans-serif; font-size: 12px; font-weight: 200;" fill="rgb(33, 33, 33)" stroke="none" stroke-width="1px">15</text><text x="0" y="103.24999999999999" dx="0em" dy="0.3em" style="text-anchor: end; visibility: inherit; font-family: Roboto, sans-serif; font-size: 12px; font-weight: 200;" fill="rgb(33, 33, 33)" stroke="none" stroke-width="1px">20</text><text x="0" y="88.5" dx="0em" dy="0.3em" style="text-anchor: end; visibility: hidden; font-family: Roboto, sans-serif; font-size: 12px; font-weight: 200;" fill="rgb(33, 33, 33)" stroke="none" stroke-width="1px">25</text><text x="0" y="73.75" dx="0em" dy="0.3em" style="text-anchor: end; visibility: inherit; font-family: Roboto, sans-serif; font-size: 12px; font-weight: 200;" fill="rgb(33, 33, 33)" stroke="none" stroke-width="1px">30</text><text x="0" y="59.00000000000001" dx="0em" dy="0.3em" style="text-anchor: end; visibility: hidden; font-family: Roboto, sans-serif; font-size: 12px; font-weight: 200;" fill="rgb(33, 33, 33)" stroke="none" stroke-width="1px">35</text><text x="0" y="44.25" dx="0em" dy="0.3em" style="text-anchor: end; visibility: inherit; font-family: Roboto, sans-serif; font-size: 12px; font-weight: 200;" fill="rgb(33, 33, 33)" stroke="none" stroke-width="1px">40</text><text x="0" y="29.499999999999993" dx="0em" dy="0.3em" style="text-anchor: end; visibility: hidden; font-family: Roboto, sans-serif; font-size: 12px; font-weight: 200;" fill="rgb(33, 33, 33)" stroke="none" stroke-width="1px">45</text><text x="0" y="14.750000000000007" dx="0em" dy="0.3em" style="text-anchor: end; visibility: inherit; font-family: Roboto, sans-serif; font-size: 12px; font-weight: 200;" fill="rgb(33, 33, 33)" stroke="none" stroke-width="1px">50</text><text x="0" y="0" dx="0em" dy="0.3em" style="text-anchor: end; visibility: hidden; font-family: Roboto, sans-serif; font-size: 12px; font-weight: 200;" fill="rgb(33, 33, 33)" stroke="none" stroke-width="1px">55</text></g><line x1="30" y1="0" x2="30" y2="177" fill="rgb(0, 0, 0)" stroke="rgb(204, 204, 204)" stroke-width="1px"></line></g></g><g transform="translate(30, 0)" clip-path="url(#clip_0)"><clipPath id="clip_0"><rect width="300" height="177"></rect></clipPath><g><g><g><line x1="0" y1="0" x2="0" y2="177" fill="rgb(0, 0, 0)" stroke="rgb(66, 66, 66)" stroke-width="1px" opacity="0.25"></line><line x1="33.33333333333333" y1="0" x2="33.33333333333333" y2="177" fill="rgb(0, 0, 0)" stroke="rgb(66, 66, 66)" stroke-width="1px" opacity="0.25"></line><line x1="66.66666666666666" y1="0" x2="66.66666666666666" y2="177" fill="rgb(0, 0, 0)" stroke="rgb(66, 66, 66)" stroke-width="1px" opacity="0.25"></line><line x1="100" y1="0" x2="100" y2="177" fill="rgb(0, 0, 0)" stroke="rgb(66, 66, 66)" stroke-width="1px" opacity="0.25"></line><line x1="133.33333333333331" y1="0" x2="133.33333333333331" y2="177" fill="rgb(0, 0, 0)" stroke="rgb(66, 66, 66)" stroke-width="1px" opacity="0.25"></line><line x1="166.66666666666669" y1="0" x2="166.66666666666669" y2="177" fill="rgb(0, 0, 0)" stroke="rgb(66, 66, 66)" stroke-width="1px" opacity="0.25"></line><line x1="200" y1="0" x2="200" y2="177" fill="rgb(0, 0, 0)" stroke="rgb(66, 66, 66)" stroke-width="1px" opacity="0.25"></line><line x1="233.33333333333334" y1="0" x2="233.33333333333334" y2="177" fill="rgb(0, 0, 0)" stroke="rgb(66, 66, 66)" stroke-width="1px" opacity="0.25"></line><line x1="266.66666666666663" y1="0" x2="266.66666666666663" y2="177" fill="rgb(0, 0, 0)" stroke="rgb(66, 66, 66)" stroke-width="1px" opacity="0.25"></line><line x1="300" y1="0" x2="300" y2="177" fill="rgb(0, 0, 0)" stroke="rgb(66, 66, 66)" stroke-width="1px" opacity="0.25"></line></g><g><line x1="0" y1="177" x2="300" y2="177" fill="rgb(0, 0, 0)" stroke="rgb(66, 66, 66)" stroke-width="1px" opacity="0.25"></line><line x1="0" y1="162.25" x2="300" y2="162.25" fill="rgb(0, 0, 0)" stroke="rgb(66, 66, 66)" stroke-width="1px" opacity="0.25"></line><line x1="0" y1="147.5" x2="300" y2="147.5" fill="rgb(0, 0, 0)" stroke="rgb(66, 66, 66)" stroke-width="1px" opacity="0.25"></line><line x1="0" y1="132.75" x2="300" y2="132.75" fill="rgb(0, 0, 0)" stroke="rgb(66, 66, 66)" stroke-width="1px" opacity="0.25"></line><line x1="0" y1="118.00000000000001" x2="300" y2="118.00000000000001" fill="rgb(0, 0, 0)" stroke="rgb(66, 66, 66)" stroke-width="1px" opacity="0.25"></line><line x1="0" y1="103.24999999999999" x2="300" y2="103.24999999999999" fill="rgb(0, 0, 0)" stroke="rgb(66, 66, 66)" stroke-width="1px" opacity="0.25"></line><line x1="0" y1="88.5" x2="300" y2="88.5" fill="rgb(0, 0, 0)" stroke="rgb(66, 66, 66)" stroke-width="1px" opacity="0.25"></line><line x1="0" y1="73.75" x2="300" y2="73.75" fill="rgb(0, 0, 0)" stroke="rgb(66, 66, 66)" stroke-width="1px" opacity="0.25"></line><line x1="0" y1="59.00000000000001" x2="300" y2="59.00000000000001" fill="rgb(0, 0, 0)" stroke="rgb(66, 66, 66)" stroke-width="1px" opacity="0.25"></line><line x1="0" y1="44.25" x2="300" y2="44.25" fill="rgb(0, 0, 0)" stroke="rgb(66, 66, 66)" stroke-width="1px" opacity="0.25"></line><line x1="0" y1="29.499999999999993" x2="300" y2="29.499999999999993" fill="rgb(0, 0, 0)" stroke="rgb(66, 66, 66)" stroke-width="1px" opacity="0.25"></line><line x1="0" y1="14.750000000000007" x2="300" y2="14.750000000000007" fill="rgb(0, 0, 0)" stroke="rgb(66, 66, 66)" stroke-width="1px" opacity="0.25"></line><line x1="0" y1="0" x2="300" y2="0" fill="rgb(0, 0, 0)" stroke="rgb(66, 66, 66)" stroke-width="1px" opacity="0.25"></line></g></g></g><g><g><line x1="0" y1="162.25" x2="300" y2="162.25" fill="rgb(0, 0, 0)" stroke="rgb(153, 153, 153)" stroke-width="1.5px"></line></g></g><g><g><line x1="33.33333333333333" y1="0" x2="33.33333333333333" y2="177" fill="rgb(0, 0, 0)" stroke="rgb(153, 153, 153)" stroke-width="1.5px"></line></g></g><g><g><g><g><g><path stroke="rgb(0, 153, 136)" stroke-width="2px" d="M33.33333333333333,15.05362682342529L35,83.5724250793457L36.666666666666664,112.21962318420411L38.33333333333333,137.90355639457704L40,146.35113775730133L41.66666666666667,148.4628470659256L43.33333333333333,149.04893033504487L45,148.04893312454223L46.666666666666664,145.64366734027863L48.333333333333336,143.76453959941864L50,143.05232167243958L51.666666666666664,144.70298516750336L53.333333333333336,147.4991503715515L54.99999999999999,148.72230446338654L56.666666666666664,149.4184483766556L58.333333333333336,149.78957283496857L60,149.4921072244644L61.666666666666664,149.44801938533783L63.333333333333336,149.87088396549225L65,149.6094037771225L66.66666666666666,149.43651423454284L68.33333333333333,148.84392793178557L70,148.47785201072693L71.66666666666667,148.55867784023286L73.33333333333333,149.01004295349122L75,149.54350833892823L76.66666666666666,150.18018248081208L78.33333333333334,150.42164154052733L80,150.85619695186614L81.66666666666666,151.36118290424346L83.33333333333334,151.91535305976868L85,152.67797828912734L86.66666666666666,153.2276717185974L88.33333333333334,153.80661613941191L90,154.18359163999557L91.66666666666667,154.37338020801545L93.33333333333333,154.492366874218L95,154.65335388183593L96.66666666666667,154.665034866333L98.33333333333333,154.89646015167236L100,155.05052704811095L101.66666666666667,155.2414669752121L103.33333333333333,155.47260389328002L105,155.7287879705429L106.66666666666667,156.1946516275406L108.33333333333333,156.53074649572372L109.99999999999999,156.67462242245674L111.66666666666667,156.64407694339752L113.33333333333333,156.90758625268936L115.00000000000001,157.13511928319932L116.66666666666667,157.3379153251648L118.33333333333333,157.53442179560662L120,157.62745646238326L121.66666666666667,157.7324917793274L123.33333333333333,157.76076091527938L125,157.90198878645896L126.66666666666667,158.19141176342964L128.33333333333331,158.38617959022523L130,158.55841854810714L131.66666666666666,158.68247485160828L133.33333333333331,158.76435990333556L135,158.80979322195054L136.66666666666666,158.8274982690811L138.33333333333334,158.82915321588516L140,158.87075300812722L141.66666666666666,158.95358439683915L143.33333333333334,158.9285625576973L145,158.83401290774344L146.66666666666666,158.78400861620904L148.33333333333334,158.85213362574578L150,158.8800356209278L151.66666666666666,158.98868502378463L153.33333333333331,159.03171082735062L155.00000000000003,159.16910271048545L156.66666666666669,159.3263335585594L158.33333333333334,159.42885990440845L160,159.44996012449263L161.66666666666666,159.41042127907275L163.33333333333331,159.3696721702814L165,159.36913411915302L166.66666666666669,159.3753248721361L168.33333333333334,159.36424506306648L170,159.38861262500285L171.66666666666666,159.42817661464215L173.33333333333331,159.54089938104153L175,159.61037936508654L176.66666666666669,159.5299143463373L178.33333333333334,159.41543447375298L180,159.34531340003014L181.66666666666666,159.38344117999077L183.33333333333334,159.51184303760527L185,159.6034754306078L186.66666666666666,159.650606071949L188.33333333333334,159.69534045159816L190,159.73717814683914L191.66666666666666,159.74074651598931L193.33333333333334,159.71332595348358L195,159.73238017261028L196.66666666666666,159.8019259184599L198.33333333333331,159.84181309044362L200,159.87269634604453L201.66666666666669,159.88801181316376L203.33333333333334,159.87343906760216L205,159.844130051136L206.66666666666666,159.82134059667587L208.33333333333331,159.82124511897564L210,159.83430991470814L211.66666666666669,159.78021379709244L213.33333333333334,159.76502141356468L215,159.70843742489814L216.66666666666666,159.56098820567132L218.33333333333331,159.4379441767931L219.99999999999997,159.4084688216448L221.66666666666669,159.43509356081486L223.33333333333334,159.50472388267517L225,159.56811773478984L226.66666666666666,159.6052037000656L228.33333333333331,159.63041702210904L230.00000000000003,159.63954630792142L231.66666666666669,159.67990911006927L233.33333333333334,159.71554040312768L235,159.75205543637276L236.66666666666666,159.75380093753338L238.33333333333331,159.67861567735673L240,159.61014990210532L241.66666666666669,159.62653373479844L243.33333333333334,159.64045290648937L245,159.64369211494923L246.66666666666666,159.60225039720535L248.33333333333331,159.59131758511066L250,159.6772388994694L251.66666666666669,159.73442336022853L253.33333333333334,159.81228656768798L255,159.86022041738033L256.66666666666663,159.8281743735075L258.33333333333337,159.70730663836002L260,159.58814958930014L261.6666666666667,159.59079623818397L263.3333333333333,159.66428997814654L265,159.73449070453643L266.66666666666663,159.75506940186023L268.33333333333337,159.75100342333317L270,159.73374886214734L271.6666666666667,159.73654409050943L273.3333333333333,159.68517796695232L275,159.63992804288864L276.6666666666667,159.71101796031L278.33333333333337,159.75174315571786L280,159.6021538645029L281.6666666666667,159.39673227369786" style="fill: none;" fill="none"></path></g><g><path stroke="rgb(238, 51, 119)" stroke-width="2px" d="M33.33333333333333,158.36677634119988L35,159.43142672479152L36.666666666666664,159.79470231831073L38.33333333333333,160.2410041242838L40,160.43570355176925L41.66666666666667,160.6864427626133L43.33333333333333,160.70877698361875L45,160.82625974416732L46.666666666666664,160.97296193391085L48.333333333333336,161.092623449862L50,161.13192826062442L51.666666666666664,161.1527542680502L53.333333333333336,161.21157635599374L54.99999999999999,161.22491896897554L56.666666666666664,161.2962445035577L58.333333333333336,161.3101832807064L60,161.32319699674844L61.666666666666664,161.41930303871632L63.333333333333336,161.41235435456036L65,161.41142234802246L66.66666666666666,161.4723908379674L68.33333333333333,161.4595600768924L70,161.5056695640087L71.66666666666667,161.49438024908304L73.33333333333333,161.53755230233074L75,161.49482378959655L76.66666666666666,161.58200948014854L78.33333333333334,161.6070852123201L80,161.5905642732978L81.66666666666666,161.6305278889835L83.33333333333334,161.57122546732427L85,161.61124090999365L86.66666666666666,161.58894616365433L88.33333333333334,161.65208211168647L90,161.67060421407223L91.66666666666667,161.65471425428987L93.33333333333333,161.64300619140266L95,161.69693742096425L96.66666666666667,161.67238914594054L98.33333333333333,161.70214148312806L100,161.6893400862813L101.66666666666667,161.70213748291135L103.33333333333333,161.72958345338702L105,161.69297373369335L106.66666666666667,161.68558621257543L108.33333333333333,161.74214641973376L109.99999999999999,161.7571043729782L111.66666666666667,161.7233840405941L113.33333333333333,161.74196267351508L115.00000000000001,161.7780974663794L116.66666666666667,161.77026600912214L118.33333333333333,161.78861465156078L120,161.78886385187508L121.66666666666667,161.77987338677048L123.33333333333333,161.77177092581988L125,161.80900863558054L126.66666666666667,161.80736239254475L128.33333333333331,161.80460918843747L130,161.81435059532524L131.66666666666666,161.81236217990516L133.33333333333331,161.81816394478082L135,161.82475282922388L136.66666666666666,161.82171899452806L138.33333333333334,161.83972704708577L140,161.832860301435L141.66666666666666,161.8088302962482L143.33333333333334,161.8485257215798L145,161.85434370711445L146.66666666666666,161.87516250535845L148.33333333333334,161.86303956285118L150,161.86569509133696L151.66666666666666,161.8708149291575L153.33333333333331,161.85125145167112L155.00000000000003,161.83874787315727L156.66666666666669,161.87575581222774L158.33333333333334,161.84464058801532L160,161.86075688973068L161.66666666666666,161.8886069919914L163.33333333333331,161.8828569881618L165,161.90750645548104L166.66666666666669,161.87433063611388L168.33333333333334,161.89763853624464L170,161.90359699092807L171.66666666666666,161.89313833639025L173.33333333333331,161.8961391143501L175,161.91092477254568L176.66666666666669,161.90027065686883L178.33333333333334,161.92165377140046L180,161.89692724496126L181.66666666666666,161.917183419317L183.33333333333334,161.8967648625374L185,161.92088315822184L186.66666666666666,161.92459476590156L188.33333333333334,161.92203146219254L190,161.9346857741475L191.66666666666666,161.93852802626787L193.33333333333334,161.9267176501453L195,161.90240112394093L196.66666666666666,161.94500552006065L198.33333333333331,161.9528713747859L200,161.9330463666469L201.66666666666669,161.93325488343834L203.33333333333334,161.9203886039555L205,161.92110574170948L206.66666666666666,161.96066854447128L208.33333333333331,161.94433256052434L210,161.9500287812203L211.66666666666669,161.9516095701605L213.33333333333334,161.9493768338114L215,161.9405101776123L216.66666666666666,161.96155707612633L218.33333333333331,161.94426339194177L219.99999999999997,161.94518922232092L221.66666666666669,161.9382190424949L223.33333333333334,161.94529041461647L225,161.95794182531534L226.66666666666666,161.96196971386672L228.33333333333331,161.96586702391505L230.00000000000003,161.93197466023267L231.66666666666669,161.97267284318804L233.33333333333334,161.97503046542406L235,161.97220314741134L236.66666666666666,161.97938872352242L238.33333333333331,161.9858803719282L240,161.97255518846214L241.66666666666669,161.9789496667683L243.33333333333334,161.99305814541876L245,161.98151833340526L246.66666666666666,161.98105604462324L248.33333333333331,162.00139822363855L250,161.99232524856924L251.66666666666669,161.99391779638827L253.33333333333334,161.97317100204526L255,162.00543969534337L256.66666666666663,162.00250377804042L258.33333333333337,162.0046212553978L260,162.0044958859682L261.6666666666667,161.99383693486453L263.3333333333333,162.00876339189708L265,162.01362376511096L266.66666666666663,162.01763741113245L268.33333333333337,162.01438325680792L270,161.9884134542197L271.6666666666667,162.0115037381649L273.3333333333333,162.0056529596448L275,162.00053156130016L276.6666666666667,162.00265466533602L278.33333333333337,162.00697995461525L280,161.97650225944818L281.6666666666667,161.99014869108797" style="fill: none;" fill="none"></path></g></g></g></g></g></g><g transform="translate(30, 177)" clip-path="url(#clip_1)"><clipPath id="clip_1"><rect width="300" height="23"></rect></clipPath><g><g><line x1="0" y1="0" x2="0" y2="5" style="visibility: inherit;" fill="rgb(0, 0, 0)" stroke="rgb(204, 204, 204)" stroke-width="1px"></line><line x1="33.33333333333333" y1="0" x2="33.33333333333333" y2="5" style="visibility: inherit;" fill="rgb(0, 0, 0)" stroke="rgb(204, 204, 204)" stroke-width="1px"></line><line x1="66.66666666666666" y1="0" x2="66.66666666666666" y2="5" style="visibility: inherit;" fill="rgb(0, 0, 0)" stroke="rgb(204, 204, 204)" stroke-width="1px"></line><line x1="100" y1="0" x2="100" y2="5" style="visibility: inherit;" fill="rgb(0, 0, 0)" stroke="rgb(204, 204, 204)" stroke-width="1px"></line><line x1="133.33333333333331" y1="0" x2="133.33333333333331" y2="5" style="visibility: inherit;" fill="rgb(0, 0, 0)" stroke="rgb(204, 204, 204)" stroke-width="1px"></line><line x1="166.66666666666669" y1="0" x2="166.66666666666669" y2="5" style="visibility: inherit;" fill="rgb(0, 0, 0)" stroke="rgb(204, 204, 204)" stroke-width="1px"></line><line x1="200" y1="0" x2="200" y2="5" style="visibility: inherit;" fill="rgb(0, 0, 0)" stroke="rgb(204, 204, 204)" stroke-width="1px"></line><line x1="233.33333333333334" y1="0" x2="233.33333333333334" y2="5" style="visibility: inherit;" fill="rgb(0, 0, 0)" stroke="rgb(204, 204, 204)" stroke-width="1px"></line><line x1="266.66666666666663" y1="0" x2="266.66666666666663" y2="5" style="visibility: inherit;" fill="rgb(0, 0, 0)" stroke="rgb(204, 204, 204)" stroke-width="1px"></line><line x1="300" y1="0" x2="300" y2="5" style="visibility: inherit;" fill="rgb(0, 0, 0)" stroke="rgb(204, 204, 204)" stroke-width="1px"></line></g><g transform="translate(0, 8)"><text x="0" y="0" dx="0em" dy="0.95em" style="text-anchor: middle; visibility: hidden; font-family: Roboto, sans-serif; font-size: 12px; font-weight: 200;" fill="rgb(33, 33, 33)" stroke="none" stroke-width="1px">-20</text><text x="33.33333333333333" y="0" dx="0em" dy="0.95em" style="text-anchor: middle; visibility: inherit; font-family: Roboto, sans-serif; font-size: 12px; font-weight: 200;" fill="rgb(33, 33, 33)" stroke="none" stroke-width="1px">0</text><text x="66.66666666666666" y="0" dx="0em" dy="0.95em" style="text-anchor: middle; visibility: inherit; font-family: Roboto, sans-serif; font-size: 12px; font-weight: 200;" fill="rgb(33, 33, 33)" stroke="none" stroke-width="1px">20</text><text x="100" y="0" dx="0em" dy="0.95em" style="text-anchor: middle; visibility: inherit; font-family: Roboto, sans-serif; font-size: 12px; font-weight: 200;" fill="rgb(33, 33, 33)" stroke="none" stroke-width="1px">40</text><text x="133.33333333333331" y="0" dx="0em" dy="0.95em" style="text-anchor: middle; visibility: inherit; font-family: Roboto, sans-serif; font-size: 12px; font-weight: 200;" fill="rgb(33, 33, 33)" stroke="none" stroke-width="1px">60</text><text x="166.66666666666669" y="0" dx="0em" dy="0.95em" style="text-anchor: middle; visibility: inherit; font-family: Roboto, sans-serif; font-size: 12px; font-weight: 200;" fill="rgb(33, 33, 33)" stroke="none" stroke-width="1px">80</text><text x="200" y="0" dx="0em" dy="0.95em" style="text-anchor: middle; visibility: inherit; font-family: Roboto, sans-serif; font-size: 12px; font-weight: 200;" fill="rgb(33, 33, 33)" stroke="none" stroke-width="1px">100</text><text x="233.33333333333334" y="0" dx="0em" dy="0.95em" style="text-anchor: middle; visibility: inherit; font-family: Roboto, sans-serif; font-size: 12px; font-weight: 200;" fill="rgb(33, 33, 33)" stroke="none" stroke-width="1px">120</text><text x="266.66666666666663" y="0" dx="0em" dy="0.95em" style="text-anchor: middle; visibility: inherit; font-family: Roboto, sans-serif; font-size: 12px; font-weight: 200;" fill="rgb(33, 33, 33)" stroke="none" stroke-width="1px">140</text><text x="300" y="0" dx="0em" dy="0.95em" style="text-anchor: middle; visibility: hidden; font-family: Roboto, sans-serif; font-size: 12px; font-weight: 200;" fill="rgb(33, 33, 33)" stroke="none" stroke-width="1px">160</text></g><line x1="0" y1="0" x2="300" y2="0" fill="rgb(0, 0, 0)" stroke="rgb(204, 204, 204)" stroke-width="1px"></line></g></g></g></g></svg>