<svg viewBox="0 0 330 200" xmlns="http://www.w3.org/2000/svg"><g><g><g><g><g><line x1="50" y1="177" x2="45" y2="177" style="visibility: inherit;" fill="rgb(0, 0, 0)" stroke="rgb(204, 204, 204)" stroke-width="1px"></line><line x1="50" y1="162.25" x2="45" y2="162.25" style="visibility: inherit;" fill="rgb(0, 0, 0)" stroke="rgb(204, 204, 204)" stroke-width="1px"></line><line x1="50" y1="147.5" x2="45" y2="147.5" style="visibility: inherit;" fill="rgb(0, 0, 0)" stroke="rgb(204, 204, 204)" stroke-width="1px"></line><line x1="50" y1="132.75000000000003" x2="45" y2="132.75000000000003" style="visibility: inherit;" fill="rgb(0, 0, 0)" stroke="rgb(204, 204, 204)" stroke-width="1px"></line><line x1="50" y1="118.00000000000001" x2="45" y2="118.00000000000001" style="visibility: inherit;" fill="rgb(0, 0, 0)" stroke="rgb(204, 204, 204)" stroke-width="1px"></line><line x1="50" y1="103.25000000000003" x2="45" y2="103.25000000000003" style="visibility: inherit;" fill="rgb(0, 0, 0)" stroke="rgb(204, 204, 204)" stroke-width="1px"></line><line x1="50" y1="88.50000000000001" x2="45" y2="88.50000000000001" style="visibility: inherit;" fill="rgb(0, 0, 0)" stroke="rgb(204, 204, 204)" stroke-width="1px"></line><line x1="50" y1="73.75000000000001" x2="45" y2="73.75000000000001" style="visibility: inherit;" fill="rgb(0, 0, 0)" stroke="rgb(204, 204, 204)" stroke-width="1px"></line><line x1="50" y1="59.00000000000003" x2="45" y2="59.00000000000003" style="visibility: inherit;" fill="rgb(0, 0, 0)" stroke="rgb(204, 204, 204)" stroke-width="1px"></line><line x1="50" y1="44.25000000000002" x2="45" y2="44.25000000000002" style="visibility: inherit;" fill="rgb(0, 0, 0)" stroke="rgb(204, 204, 204)" stroke-width="1px"></line><line x1="50" y1="29.500000000000032" x2="45" y2="29.500000000000032" style="visibility: inherit;" fill="rgb(0, 0, 0)" stroke="rgb(204, 204, 204)" stroke-width="1px"></line><line x1="50" y1="14.750000000000007" x2="45" y2="14.750000000000007" style="visibility: inherit;" fill="rgb(0, 0, 0)" stroke="rgb(204, 204, 204)" stroke-width="1px"></line><line x1="50" y1="0" x2="45" y2="0" style="visibility: inherit;" fill="rgb(0, 0, 0)" stroke="rgb(204, 204, 204)" stroke-width="1px"></line></g><g transform="translate(40, 0)"><text x="0" y="177" dx="0em" dy="0.3em" style="text-anchor: end; visibility: hidden; font-family: Roboto, sans-serif; font-size: 12px; font-weight: 200;" fill="rgb(33, 33, 33)" stroke="none" stroke-width="1px">0.45</text><text x="0" y="162.25" dx="0em" dy="0.3em" style="text-anchor: end; visibility: inherit; font-family: Roboto, sans-serif; font-size: 12px; font-weight: 200;" fill="rgb(33, 33, 33)" stroke="none" stroke-width="1px">0.5</text><text x="0" y="147.5" dx="0em" dy="0.3em" style="text-anchor: end; visibility: hidden; font-family: Roboto, sans-serif; font-size: 12px; font-weight: 200;" fill="rgb(33, 33, 33)" stroke="none" stroke-width="1px">0.55</text><text x="0" y="132.75000000000003" dx="0em" dy="0.3em" style="text-anchor: end; visibility: inherit; font-family: Roboto, sans-serif; font-size: 12px; font-weight: 200;" fill="rgb(33, 33, 33)" stroke="none" stroke-width="1px">0.6</text><text x="0" y="118.00000000000001" dx="0em" dy="0.3em" style="text-anchor: end; visibility: hidden; font-family: Roboto, sans-serif; font-size: 12px; font-weight: 200;" fill="rgb(33, 33, 33)" stroke="none" stroke-width="1px">0.65</text><text x="0" y="103.25000000000003" dx="0em" dy="0.3em" style="text-anchor: end; visibility: inherit; font-family: Roboto, sans-serif; font-size: 12px; font-weight: 200;" fill="rgb(33, 33, 33)" stroke="none" stroke-width="1px">0.7</text><text x="0" y="88.50000000000001" dx="0em" dy="0.3em" style="text-anchor: end; visibility: hidden; font-family: Roboto, sans-serif; font-size: 12px; font-weight: 200;" fill="rgb(33, 33, 33)" stroke="none" stroke-width="1px">0.75</text><text x="0" y="73.75000000000001" dx="0em" dy="0.3em" style="text-anchor: end; visibility: inherit; font-family: Roboto, sans-serif; font-size: 12px; font-weight: 200;" fill="rgb(33, 33, 33)" stroke="none" stroke-width="1px">0.8</text><text x="0" y="59.00000000000003" dx="0em" dy="0.3em" style="text-anchor: end; visibility: hidden; font-family: Roboto, sans-serif; font-size: 12px; font-weight: 200;" fill="rgb(33, 33, 33)" stroke="none" stroke-width="1px">0.85</text><text x="0" y="44.25000000000002" dx="0em" dy="0.3em" style="text-anchor: end; visibility: inherit; font-family: Roboto, sans-serif; font-size: 12px; font-weight: 200;" fill="rgb(33, 33, 33)" stroke="none" stroke-width="1px">0.9</text><text x="0" y="29.500000000000032" dx="0em" dy="0.3em" style="text-anchor: end; visibility: hidden; font-family: Roboto, sans-serif; font-size: 12px; font-weight: 200;" fill="rgb(33, 33, 33)" stroke="none" stroke-width="1px">0.95</text><text x="0" y="14.750000000000007" dx="0em" dy="0.3em" style="text-anchor: end; visibility: inherit; font-family: Roboto, sans-serif; font-size: 12px; font-weight: 200;" fill="rgb(33, 33, 33)" stroke="none" stroke-width="1px">1</text><text x="0" y="0" dx="0em" dy="0.3em" style="text-anchor: end; visibility: hidden; font-family: Roboto, sans-serif; font-size: 12px; font-weight: 200;" fill="rgb(33, 33, 33)" stroke="none" stroke-width="1px">1.05</text></g><line x1="50" y1="0" x2="50" y2="177" fill="rgb(0, 0, 0)" stroke="rgb(204, 204, 204)" stroke-width="1px"></line></g></g><g transform="translate(50, 0)" clip-path="url(#clip_0)"><clipPath id="clip_0"><rect width="280" height="177"></rect></clipPath><g><g><g><line x1="0" y1="0" x2="0" y2="177" fill="rgb(0, 0, 0)" stroke="rgb(66, 66, 66)" stroke-width="1px" opacity="0.25"></line><line x1="31.11111111111111" y1="0" x2="31.11111111111111" y2="177" fill="rgb(0, 0, 0)" stroke="rgb(66, 66, 66)" stroke-width="1px" opacity="0.25"></line><line x1="62.22222222222222" y1="0" x2="62.22222222222222" y2="177" fill="rgb(0, 0, 0)" stroke="rgb(66, 66, 66)" stroke-width="1px" opacity="0.25"></line><line x1="93.33333333333333" y1="0" x2="93.33333333333333" y2="177" fill="rgb(0, 0, 0)" stroke="rgb(66, 66, 66)" stroke-width="1px" opacity="0.25"></line><line x1="124.44444444444444" y1="0" x2="124.44444444444444" y2="177" fill="rgb(0, 0, 0)" stroke="rgb(66, 66, 66)" stroke-width="1px" opacity="0.25"></line><line x1="155.55555555555557" y1="0" x2="155.55555555555557" y2="177" fill="rgb(0, 0, 0)" stroke="rgb(66, 66, 66)" stroke-width="1px" opacity="0.25"></line><line x1="186.66666666666666" y1="0" x2="186.66666666666666" y2="177" fill="rgb(0, 0, 0)" stroke="rgb(66, 66, 66)" stroke-width="1px" opacity="0.25"></line><line x1="217.77777777777777" y1="0" x2="217.77777777777777" y2="177" fill="rgb(0, 0, 0)" stroke="rgb(66, 66, 66)" stroke-width="1px" opacity="0.25"></line><line x1="248.88888888888889" y1="0" x2="248.88888888888889" y2="177" fill="rgb(0, 0, 0)" stroke="rgb(66, 66, 66)" stroke-width="1px" opacity="0.25"></line><line x1="280" y1="0" x2="280" y2="177" fill="rgb(0, 0, 0)" stroke="rgb(66, 66, 66)" stroke-width="1px" opacity="0.25"></line></g><g><line x1="0" y1="177" x2="280" y2="177" fill="rgb(0, 0, 0)" stroke="rgb(66, 66, 66)" stroke-width="1px" opacity="0.25"></line><line x1="0" y1="162.25" x2="280" y2="162.25" fill="rgb(0, 0, 0)" stroke="rgb(66, 66, 66)" stroke-width="1px" opacity="0.25"></line><line x1="0" y1="147.5" x2="280" y2="147.5" fill="rgb(0, 0, 0)" stroke="rgb(66, 66, 66)" stroke-width="1px" opacity="0.25"></line><line x1="0" y1="132.75000000000003" x2="280" y2="132.75000000000003" fill="rgb(0, 0, 0)" stroke="rgb(66, 66, 66)" stroke-width="1px" opacity="0.25"></line><line x1="0" y1="118.00000000000001" x2="280" y2="118.00000000000001" fill="rgb(0, 0, 0)" stroke="rgb(66, 66, 66)" stroke-width="1px" opacity="0.25"></line><line x1="0" y1="103.25000000000003" x2="280" y2="103.25000000000003" fill="rgb(0, 0, 0)" stroke="rgb(66, 66, 66)" stroke-width="1px" opacity="0.25"></line><line x1="0" y1="88.50000000000001" x2="280" y2="88.50000000000001" fill="rgb(0, 0, 0)" stroke="rgb(66, 66, 66)" stroke-width="1px" opacity="0.25"></line><line x1="0" y1="73.75000000000001" x2="280" y2="73.75000000000001" fill="rgb(0, 0, 0)" stroke="rgb(66, 66, 66)" stroke-width="1px" opacity="0.25"></line><line x1="0" y1="59.00000000000003" x2="280" y2="59.00000000000003" fill="rgb(0, 0, 0)" stroke="rgb(66, 66, 66)" stroke-width="1px" opacity="0.25"></line><line x1="0" y1="44.25000000000002" x2="280" y2="44.25000000000002" fill="rgb(0, 0, 0)" stroke="rgb(66, 66, 66)" stroke-width="1px" opacity="0.25"></line><line x1="0" y1="29.500000000000032" x2="280" y2="29.500000000000032" fill="rgb(0, 0, 0)" stroke="rgb(66, 66, 66)" stroke-width="1px" opacity="0.25"></line><line x1="0" y1="14.750000000000007" x2="280" y2="14.750000000000007" fill="rgb(0, 0, 0)" stroke="rgb(66, 66, 66)" stroke-width="1px" opacity="0.25"></line><line x1="0" y1="0" x2="280" y2="0" fill="rgb(0, 0, 0)" stroke="rgb(66, 66, 66)" stroke-width="1px" opacity="0.25"></line></g></g></g><g><g><line x1="0" y1="309.75" x2="280" y2="309.75" fill="rgb(0, 0, 0)" stroke="rgb(153, 153, 153)" stroke-width="1.5px"></line></g></g><g><g><line x1="31.11111111111111" y1="0" x2="31.11111111111111" y2="177" fill="rgb(0, 0, 0)" stroke="rgb(153, 153, 153)" stroke-width="1.5px"></line></g></g><g><g><g><g><g><path stroke="rgb(255, 112, 67)" stroke-width="2px" d="M31.11111111111111,155.3979188799858L32.666666666666664,155.3979188799858L34.22222222222222,155.3979188799858L35.77777777777777,155.3979188799858L37.333333333333336,153.95537918806076L38.88888888888889,151.7915696501732L40.44444444444444,137.36613756418228L42,137.36613756418228L43.55555555555556,143.13631391525269L45.111111111111114,124.38324517011642L46.666666666666664,105.63019400835039L48.22222222222222,78.94315695762636L49.77777777777778,80.38569664955142L51.33333333333333,75.33679014444353L52.888888888888886,63.79645502567293L54.44444444444444,58.02627867460252L56,57.305008828640005L57.55555555555555,59.46881836652758L59.111111111111114,54.419929444789915L60.66666666666667,56.58373898267749L62.22222222222222,52.97738975286486L63.77777777777778,53.698659598827376L65.33333333333333,52.97738975286486L66.88888888888889,52.97738975286486L68.44444444444444,54.419929444789915L70,54.419929444789915L71.55555555555554,51.5348324775696L73.11111111111111,52.97738975286486L74.66666666666667,50.813562631607084L76.22222222222221,52.25611990690234L77.77777777777779,52.25611990690234L79.33333333333333,50.813562631607084L80.88888888888889,47.92848324775697L82.44444444444444,48.64975309371951L84,49.37102293968203L85.55555555555556,47.207213401794455L87.11111111111111,47.92848324775697L88.66666666666666,47.92848324775697L90.22222222222223,45.7646737098694L91.77777777777777,42.15830689668659L93.33333333333333,50.092292785644545L94.8888888888889,50.092292785644545L96.44444444444444,48.64975309371951L98,48.64975309371951L99.55555555555556,45.7646737098694L101.11111111111111,44.322134017944364L102.66666666666666,43.60086417198185L104.22222222222223,46.48594355583194L105.77777777777777,47.207213401794455L107.33333333333334,45.7646737098694L108.88888888888889,53.698659598827376L110.44444444444444,49.37102293968203L112,50.813562631607084L113.55555555555556,50.813562631607084L115.1111111111111,50.092292785644545L116.66666666666667,51.5348324775696L118.22222222222223,52.25611990690234L119.77777777777777,51.5348324775696L121.33333333333334,47.92848324775697L122.88888888888889,50.092292785644545L124.44444444444444,47.207213401794455L126,48.64975309371951L127.55555555555556,47.92848324775697L129.11111111111111,46.48594355583194L130.66666666666666,44.322134017944364L132.22222222222223,50.092292785644545L133.77777777777777,50.092292785644545L135.33333333333334,49.37102293968203L136.88888888888889,53.698659598827376L138.44444444444446,50.813562631607084L140,50.092292785644545L141.55555555555554,47.92848324775697L143.1111111111111,50.813562631607084L144.66666666666669,52.25611990690234L146.22222222222223,50.813562631607084L147.77777777777777,50.813562631607084L149.33333333333334,49.37102293968203L150.88888888888889,50.813562631607084L152.44444444444443,53.698659598827376L154,49.37102293968203L155.55555555555557,51.5348324775696L157.11111111111111,55.86246913671495L158.66666666666666,50.813562631607084L160.2222222222222,47.207213401794455L161.77777777777777,54.419929444789915L163.33333333333334,52.97738975286486L164.88888888888889,46.48594355583194L166.44444444444446,50.813562631607084L168,48.64975309371951L169.55555555555554,50.092292785644545L171.11111111111111,47.92848324775697L172.66666666666669,50.813562631607084L174.22222222222223,45.7646737098694L175.77777777777777,45.04340386390688L177.33333333333331,50.092292785644545L178.88888888888889,47.92848324775697L180.44444444444446,51.5348324775696L182,50.813562631607084L183.55555555555554,52.25611990690234L185.11111111111111,52.97738975286486L186.66666666666666,53.698659598827376L188.22222222222223,52.25611990690234L189.7777777777778,50.092292785644545L191.33333333333334,47.92848324775697L192.88888888888889,51.5348324775696L194.44444444444443,52.97738975286486L196,53.698659598827376L197.55555555555557,52.97738975286486L199.11111111111111,52.97738975286486L200.66666666666666,58.02627867460252L202.22222222222223,52.25611990690234L203.77777777777777,51.5348324775696L205.33333333333331,52.25611990690234L206.8888888888889,50.813562631607084L208.44444444444446,48.64975309371951L210,50.813562631607084L211.55555555555554,48.64975309371951L213.1111111111111,47.92848324775697L214.66666666666669,50.092292785644545L216.22222222222223,51.5348324775696L217.77777777777777,48.64975309371951L219.33333333333334,47.92848324775697L220.88888888888889,47.92848324775697L222.44444444444443,49.37102293968203L224,51.5348324775696L225.55555555555557,47.92848324775697L227.11111111111111,50.813562631607084L228.66666666666666,48.64975309371951L230.2222222222222,47.92848324775697L231.77777777777777,49.37102293968203L233.33333333333334,48.64975309371951L234.88888888888889,52.97738975286486L236.44444444444446,49.37102293968203L238,50.813562631607084L239.55555555555554,47.207213401794455L241.11111111111111,47.207213401794455L242.66666666666669,45.7646737098694L244.22222222222223,52.97738975286486L245.77777777777777,47.92848324775697L247.33333333333331,52.97738975286486L248.88888888888889,50.813562631607084L250.44444444444446,51.5348324775696L252,50.813562631607084L253.55555555555554,54.419929444789915L255.11111111111111,51.5348324775696L256.66666666666663,49.37102293968203L258.22222222222223,55.86246913671495L259.77777777777777,55.14119929075243L261.3333333333333,50.813562631607084L262.8888888888889,49.37102293968203" style="fill: none;" fill="none"></path></g><g><path stroke="rgb(187, 187, 187)" stroke-width="2px" d="M31.11111111111111,123.09208071231842L32.666666666666664,81.92209637165072L34.22222222222222,69.2305955886841L35.77777777777777,53.75315046310426L37.333333333333336,47.87172412872316L38.88888888888889,38.89479821920397L40.44444444444444,33.94201999902728L42,29.917889893054983L43.55555555555556,25.274666905403137L45.111111111111114,24.655556440353408L46.666666666666664,24.965111672878272L48.22222222222222,21.86962968111039L49.77777777777778,22.179167330265052L51.33333333333333,22.179167330265052L52.888888888888886,19.393240571022055L54.44444444444444,19.702778220176718L56,18.46459245681764L57.55555555555555,20.012333452701583L59.111111111111114,17.226389110088363L60.66666666666667,18.774130105972304L62.22222222222222,17.84548199176789L63.77777777777778,16.916833877563498L65.33333333333333,17.535944342613227L66.88888888888889,15.67864811420442L68.44444444444444,16.916833877563498L70,15.67864811420442L71.55555555555554,17.84548199176789L73.11111111111111,15.059555232524891L74.66666666666667,16.607296228408835L76.22222222222221,15.988203346729286L77.77777777777779,15.988203346729286L79.33333333333333,15.988203346729286L80.88888888888889,15.67864811420442L82.44444444444444,15.059555232524891L84,15.059555232524891L85.55555555555556,15.67864811420442L87.11111111111111,15.988203346729286L88.66666666666666,15.369092881679554L90.22222222222223,15.67864811420442L91.77777777777777,16.607296228408835L93.33333333333333,15.67864811420442L94.8888888888889,15.988203346729286L96.44444444444444,15.67864811420442L98,15.059555232524891L99.55555555555556,14.750000000000007L101.11111111111111,15.059555232524891L102.66666666666666,15.67864811420442L104.22222222222223,15.988203346729286L105.77777777777777,15.059555232524891L107.33333333333334,15.059555232524891L108.88888888888889,16.607296228408835L110.44444444444444,16.29774099588395L112,16.607296228408835L113.55555555555556,16.916833877563498L115.1111111111111,15.059555232524891L116.66666666666667,15.67864811420442L118.22222222222223,16.29774099588395L119.77777777777777,16.29774099588395L121.33333333333334,15.059555232524891L122.88888888888889,15.059555232524891L124.44444444444444,15.988203346729286L126,14.750000000000007L127.55555555555556,15.988203346729286L129.11111111111111,15.059555232524891L130.66666666666666,15.369092881679554L132.22222222222223,14.750000000000007L133.77777777777777,15.369092881679554L135.33333333333334,15.059555232524891L136.88888888888889,14.750000000000007L138.44444444444446,15.369092881679554L140,15.369092881679554L141.55555555555554,15.988203346729286L143.1111111111111,15.67864811420442L144.66666666666669,15.988203346729286L146.22222222222223,15.369092881679554L147.77777777777777,15.059555232524891L149.33333333333334,15.369092881679554L150.88888888888889,15.67864811420442L152.44444444444443,14.750000000000007L154,16.29774099588395L155.55555555555557,15.369092881679554L157.11111111111111,16.916833877563498L158.66666666666666,16.916833877563498L160.2222222222222,15.988203346729286L161.77777777777777,15.67864811420442L163.33333333333334,16.29774099588395L164.88888888888889,15.059555232524891L166.44444444444446,16.29774099588395L168,15.369092881679554L169.55555555555554,15.67864811420442L171.11111111111111,15.369092881679554L172.66666666666669,15.059555232524891L174.22222222222223,15.988203346729286L175.77777777777777,15.369092881679554L177.33333333333331,15.059555232524891L178.88888888888889,15.369092881679554L180.44444444444446,15.988203346729286L182,15.059555232524891L183.55555555555554,16.29774099588395L185.11111111111111,16.916833877563498L186.66666666666666,16.29774099588395L188.22222222222223,15.67864811420442L189.7777777777778,15.67864811420442L191.33333333333334,15.67864811420442L192.88888888888889,15.67864811420442L194.44444444444443,15.369092881679554L196,16.29774099588395L197.55555555555557,15.988203346729286L199.11111111111111,15.988203346729286L200.66666666666666,17.535944342613227L202.22222222222223,17.84548199176789L203.77777777777777,16.916833877563498L205.33333333333331,15.988203346729286L206.8888888888889,15.988203346729286L208.44444444444446,15.988203346729286L210,15.988203346729286L211.55555555555554,15.988203346729286L213.1111111111111,16.607296228408835L214.66666666666669,15.059555232524891L216.22222222222223,15.369092881679554L217.77777777777777,16.29774099588395L219.33333333333334,15.059555232524891L220.88888888888889,15.059555232524891L222.44444444444443,15.988203346729286L224,15.988203346729286L225.55555555555557,15.988203346729286L227.11111111111111,15.67864811420442L228.66666666666666,15.67864811420442L230.2222222222222,16.29774099588395L231.77777777777777,15.67864811420442L233.33333333333334,17.226389110088363L234.88888888888889,15.059555232524891L236.44444444444446,15.988203346729286L238,15.988203346729286L239.55555555555554,15.059555232524891L241.11111111111111,15.67864811420442L242.66666666666669,15.988203346729286L244.22222222222223,15.988203346729286L245.77777777777777,16.29774099588395L247.33333333333331,16.29774099588395L248.88888888888889,15.67864811420442L250.44444444444446,16.29774099588395L252,16.607296228408835L253.55555555555554,16.29774099588395L255.11111111111111,15.67864811420442L256.66666666666663,16.916833877563498L258.22222222222223,17.84548199176789L259.77777777777777,17.84548199176789L261.3333333333333,15.988203346729286L262.8888888888889,16.607296228408835" style="fill: none;" fill="none"></path></g></g></g></g></g></g><g transform="translate(50, 177)" clip-path="url(#clip_1)"><clipPath id="clip_1"><rect width="280" height="23"></rect></clipPath><g><g><line x1="0" y1="0" x2="0" y2="5" style="visibility: inherit;" fill="rgb(0, 0, 0)" stroke="rgb(204, 204, 204)" stroke-width="1px"></line><line x1="31.11111111111111" y1="0" x2="31.11111111111111" y2="5" style="visibility: inherit;" fill="rgb(0, 0, 0)" stroke="rgb(204, 204, 204)" stroke-width="1px"></line><line x1="62.22222222222222" y1="0" x2="62.22222222222222" y2="5" style="visibility: inherit;" fill="rgb(0, 0, 0)" stroke="rgb(204, 204, 204)" stroke-width="1px"></line><line x1="93.33333333333333" y1="0" x2="93.33333333333333" y2="5" style="visibility: inherit;" fill="rgb(0, 0, 0)" stroke="rgb(204, 204, 204)" stroke-width="1px"></line><line x1="124.44444444444444" y1="0" x2="124.44444444444444" y2="5" style="visibility: inherit;" fill="rgb(0, 0, 0)" stroke="rgb(204, 204, 204)" stroke-width="1px"></line><line x1="155.55555555555557" y1="0" x2="155.55555555555557" y2="5" style="visibility: inherit;" fill="rgb(0, 0, 0)" stroke="rgb(204, 204, 204)" stroke-width="1px"></line><line x1="186.66666666666666" y1="0" x2="186.66666666666666" y2="5" style="visibility: inherit;" fill="rgb(0, 0, 0)" stroke="rgb(204, 204, 204)" stroke-width="1px"></line><line x1="217.77777777777777" y1="0" x2="217.77777777777777" y2="5" style="visibility: inherit;" fill="rgb(0, 0, 0)" stroke="rgb(204, 204, 204)" stroke-width="1px"></line><line x1="248.88888888888889" y1="0" x2="248.88888888888889" y2="5" style="visibility: inherit;" fill="rgb(0, 0, 0)" stroke="rgb(204, 204, 204)" stroke-width="1px"></line><line x1="280" y1="0" x2="280" y2="5" style="visibility: inherit;" fill="rgb(0, 0, 0)" stroke="rgb(204, 204, 204)" stroke-width="1px"></line></g><g transform="translate(0, 8)"><text x="0" y="0" dx="0em" dy="0.95em" style="text-anchor: middle; visibility: hidden; font-family: Roboto, sans-serif; font-size: 12px; font-weight: 200;" fill="rgb(33, 33, 33)" stroke="none" stroke-width="1px">-20</text><text x="31.11111111111111" y="0" dx="0em" dy="0.95em" style="text-anchor: middle; visibility: inherit; font-family: Roboto, sans-serif; font-size: 12px; font-weight: 200;" fill="rgb(33, 33, 33)" stroke="none" stroke-width="1px">0</text><text x="62.22222222222222" y="0" dx="0em" dy="0.95em" style="text-anchor: middle; visibility: inherit; font-family: Roboto, sans-serif; font-size: 12px; font-weight: 200;" fill="rgb(33, 33, 33)" stroke="none" stroke-width="1px">20</text><text x="93.33333333333333" y="0" dx="0em" dy="0.95em" style="text-anchor: middle; visibility: inherit; font-family: Roboto, sans-serif; font-size: 12px; font-weight: 200;" fill="rgb(33, 33, 33)" stroke="none" stroke-width="1px">40</text><text x="124.44444444444444" y="0" dx="0em" dy="0.95em" style="text-anchor: middle; visibility: inherit; font-family: Roboto, sans-serif; font-size: 12px; font-weight: 200;" fill="rgb(33, 33, 33)" stroke="none" stroke-width="1px">60</text><text x="155.55555555555557" y="0" dx="0em" dy="0.95em" style="text-anchor: middle; visibility: inherit; font-family: Roboto, sans-serif; font-size: 12px; font-weight: 200;" fill="rgb(33, 33, 33)" stroke="none" stroke-width="1px">80</text><text x="186.66666666666666" y="0" dx="0em" dy="0.95em" style="text-anchor: middle; visibility: inherit; font-family: Roboto, sans-serif; font-size: 12px; font-weight: 200;" fill="rgb(33, 33, 33)" stroke="none" stroke-width="1px">100</text><text x="217.77777777777777" y="0" dx="0em" dy="0.95em" style="text-anchor: middle; visibility: inherit; font-family: Roboto, sans-serif; font-size: 12px; font-weight: 200;" fill="rgb(33, 33, 33)" stroke="none" stroke-width="1px">120</text><text x="248.88888888888889" y="0" dx="0em" dy="0.95em" style="text-anchor: middle; visibility: inherit; font-family: Roboto, sans-serif; font-size: 12px; font-weight: 200;" fill="rgb(33, 33, 33)" stroke="none" stroke-width="1px">140</text><text x="280" y="0" dx="0em" dy="0.95em" style="text-anchor: middle; visibility: hidden; font-family: Roboto, sans-serif; font-size: 12px; font-weight: 200;" fill="rgb(33, 33, 33)" stroke="none" stroke-width="1px">160</text></g><line x1="0" y1="0" x2="280" y2="0" fill="rgb(0, 0, 0)" stroke="rgb(204, 204, 204)" stroke-width="1px"></line></g></g></g></g></svg>