<svg viewBox="0 0 330 200" xmlns="http://www.w3.org/2000/svg"><g><g><g><g><g><line x1="30" y1="177" x2="25" y2="177" style="visibility: inherit;" fill="rgb(0, 0, 0)" stroke="rgb(204, 204, 204)" stroke-width="1px"></line><line x1="30" y1="162.25" x2="25" y2="162.25" style="visibility: inherit;" fill="rgb(0, 0, 0)" stroke="rgb(204, 204, 204)" stroke-width="1px"></line><line x1="30" y1="147.5" x2="25" y2="147.5" style="visibility: inherit;" fill="rgb(0, 0, 0)" stroke="rgb(204, 204, 204)" stroke-width="1px"></line><line x1="30" y1="132.75" x2="25" y2="132.75" style="visibility: inherit;" fill="rgb(0, 0, 0)" stroke="rgb(204, 204, 204)" stroke-width="1px"></line><line x1="30" y1="118.00000000000001" x2="25" y2="118.00000000000001" style="visibility: inherit;" fill="rgb(0, 0, 0)" stroke="rgb(204, 204, 204)" stroke-width="1px"></line><line x1="30" y1="103.24999999999999" x2="25" y2="103.24999999999999" style="visibility: inherit;" fill="rgb(0, 0, 0)" stroke="rgb(204, 204, 204)" stroke-width="1px"></line><line x1="30" y1="88.5" x2="25" y2="88.5" style="visibility: inherit;" fill="rgb(0, 0, 0)" stroke="rgb(204, 204, 204)" stroke-width="1px"></line><line x1="30" y1="73.75" x2="25" y2="73.75" style="visibility: inherit;" fill="rgb(0, 0, 0)" stroke="rgb(204, 204, 204)" stroke-width="1px"></line><line x1="30" y1="59.00000000000001" x2="25" y2="59.00000000000001" style="visibility: inherit;" fill="rgb(0, 0, 0)" stroke="rgb(204, 204, 204)" stroke-width="1px"></line><line x1="30" y1="44.25" x2="25" y2="44.25" style="visibility: inherit;" fill="rgb(0, 0, 0)" stroke="rgb(204, 204, 204)" stroke-width="1px"></line><line x1="30" y1="29.499999999999993" x2="25" y2="29.499999999999993" style="visibility: inherit;" fill="rgb(0, 0, 0)" stroke="rgb(204, 204, 204)" stroke-width="1px"></line><line x1="30" y1="14.750000000000007" x2="25" y2="14.750000000000007" style="visibility: inherit;" fill="rgb(0, 0, 0)" stroke="rgb(204, 204, 204)" stroke-width="1px"></line><line x1="30" y1="0" x2="25" y2="0" style="visibility: inherit;" fill="rgb(0, 0, 0)" stroke="rgb(204, 204, 204)" stroke-width="1px"></line></g><g transform="translate(20, 0)"><text x="0" y="177" dx="0em" dy="0.3em" style="text-anchor: end; visibility: hidden; font-family: Roboto, sans-serif; font-size: 12px; font-weight: 200;" fill="rgb(33, 33, 33)" stroke="none" stroke-width="1px">-2</text><text x="0" y="162.25" dx="0em" dy="0.3em" style="text-anchor: end; visibility: inherit; font-family: Roboto, sans-serif; font-size: 12px; font-weight: 200;" fill="rgb(33, 33, 33)" stroke="none" stroke-width="1px">0</text><text x="0" y="147.5" dx="0em" dy="0.3em" style="text-anchor: end; visibility: hidden; font-family: Roboto, sans-serif; font-size: 12px; font-weight: 200;" fill="rgb(33, 33, 33)" stroke="none" stroke-width="1px">2</text><text x="0" y="132.75" dx="0em" dy="0.3em" style="text-anchor: end; visibility: inherit; font-family: Roboto, sans-serif; font-size: 12px; font-weight: 200;" fill="rgb(33, 33, 33)" stroke="none" stroke-width="1px">4</text><text x="0" y="118.00000000000001" dx="0em" dy="0.3em" style="text-anchor: end; visibility: hidden; font-family: Roboto, sans-serif; font-size: 12px; font-weight: 200;" fill="rgb(33, 33, 33)" stroke="none" stroke-width="1px">6</text><text x="0" y="103.24999999999999" dx="0em" dy="0.3em" style="text-anchor: end; visibility: inherit; font-family: Roboto, sans-serif; font-size: 12px; font-weight: 200;" fill="rgb(33, 33, 33)" stroke="none" stroke-width="1px">8</text><text x="0" y="88.5" dx="0em" dy="0.3em" style="text-anchor: end; visibility: hidden; font-family: Roboto, sans-serif; font-size: 12px; font-weight: 200;" fill="rgb(33, 33, 33)" stroke="none" stroke-width="1px">10</text><text x="0" y="73.75" dx="0em" dy="0.3em" style="text-anchor: end; visibility: inherit; font-family: Roboto, sans-serif; font-size: 12px; font-weight: 200;" fill="rgb(33, 33, 33)" stroke="none" stroke-width="1px">12</text><text x="0" y="59.00000000000001" dx="0em" dy="0.3em" style="text-anchor: end; visibility: hidden; font-family: Roboto, sans-serif; font-size: 12px; font-weight: 200;" fill="rgb(33, 33, 33)" stroke="none" stroke-width="1px">14</text><text x="0" y="44.25" dx="0em" dy="0.3em" style="text-anchor: end; visibility: inherit; font-family: Roboto, sans-serif; font-size: 12px; font-weight: 200;" fill="rgb(33, 33, 33)" stroke="none" stroke-width="1px">16</text><text x="0" y="29.499999999999993" dx="0em" dy="0.3em" style="text-anchor: end; visibility: hidden; font-family: Roboto, sans-serif; font-size: 12px; font-weight: 200;" fill="rgb(33, 33, 33)" stroke="none" stroke-width="1px">18</text><text x="0" y="14.750000000000007" dx="0em" dy="0.3em" style="text-anchor: end; visibility: inherit; font-family: Roboto, sans-serif; font-size: 12px; font-weight: 200;" fill="rgb(33, 33, 33)" stroke="none" stroke-width="1px">20</text><text x="0" y="0" dx="0em" dy="0.3em" style="text-anchor: end; visibility: hidden; font-family: Roboto, sans-serif; font-size: 12px; font-weight: 200;" fill="rgb(33, 33, 33)" stroke="none" stroke-width="1px">22</text></g><line x1="30" y1="0" x2="30" y2="177" fill="rgb(0, 0, 0)" stroke="rgb(204, 204, 204)" stroke-width="1px"></line></g></g><g transform="translate(30, 0)" clip-path="url(#clip_0)"><clipPath id="clip_0"><rect width="300" height="177"></rect></clipPath><g><g><g><line x1="0" y1="0" x2="0" y2="177" fill="rgb(0, 0, 0)" stroke="rgb(66, 66, 66)" stroke-width="1px" opacity="0.25"></line><line x1="33.33333333333333" y1="0" x2="33.33333333333333" y2="177" fill="rgb(0, 0, 0)" stroke="rgb(66, 66, 66)" stroke-width="1px" opacity="0.25"></line><line x1="66.66666666666666" y1="0" x2="66.66666666666666" y2="177" fill="rgb(0, 0, 0)" stroke="rgb(66, 66, 66)" stroke-width="1px" opacity="0.25"></line><line x1="100" y1="0" x2="100" y2="177" fill="rgb(0, 0, 0)" stroke="rgb(66, 66, 66)" stroke-width="1px" opacity="0.25"></line><line x1="133.33333333333331" y1="0" x2="133.33333333333331" y2="177" fill="rgb(0, 0, 0)" stroke="rgb(66, 66, 66)" stroke-width="1px" opacity="0.25"></line><line x1="166.66666666666669" y1="0" x2="166.66666666666669" y2="177" fill="rgb(0, 0, 0)" stroke="rgb(66, 66, 66)" stroke-width="1px" opacity="0.25"></line><line x1="200" y1="0" x2="200" y2="177" fill="rgb(0, 0, 0)" stroke="rgb(66, 66, 66)" stroke-width="1px" opacity="0.25"></line><line x1="233.33333333333334" y1="0" x2="233.33333333333334" y2="177" fill="rgb(0, 0, 0)" stroke="rgb(66, 66, 66)" stroke-width="1px" opacity="0.25"></line><line x1="266.66666666666663" y1="0" x2="266.66666666666663" y2="177" fill="rgb(0, 0, 0)" stroke="rgb(66, 66, 66)" stroke-width="1px" opacity="0.25"></line><line x1="300" y1="0" x2="300" y2="177" fill="rgb(0, 0, 0)" stroke="rgb(66, 66, 66)" stroke-width="1px" opacity="0.25"></line></g><g><line x1="0" y1="177" x2="300" y2="177" fill="rgb(0, 0, 0)" stroke="rgb(66, 66, 66)" stroke-width="1px" opacity="0.25"></line><line x1="0" y1="162.25" x2="300" y2="162.25" fill="rgb(0, 0, 0)" stroke="rgb(66, 66, 66)" stroke-width="1px" opacity="0.25"></line><line x1="0" y1="147.5" x2="300" y2="147.5" fill="rgb(0, 0, 0)" stroke="rgb(66, 66, 66)" stroke-width="1px" opacity="0.25"></line><line x1="0" y1="132.75" x2="300" y2="132.75" fill="rgb(0, 0, 0)" stroke="rgb(66, 66, 66)" stroke-width="1px" opacity="0.25"></line><line x1="0" y1="118.00000000000001" x2="300" y2="118.00000000000001" fill="rgb(0, 0, 0)" stroke="rgb(66, 66, 66)" stroke-width="1px" opacity="0.25"></line><line x1="0" y1="103.24999999999999" x2="300" y2="103.24999999999999" fill="rgb(0, 0, 0)" stroke="rgb(66, 66, 66)" stroke-width="1px" opacity="0.25"></line><line x1="0" y1="88.5" x2="300" y2="88.5" fill="rgb(0, 0, 0)" stroke="rgb(66, 66, 66)" stroke-width="1px" opacity="0.25"></line><line x1="0" y1="73.75" x2="300" y2="73.75" fill="rgb(0, 0, 0)" stroke="rgb(66, 66, 66)" stroke-width="1px" opacity="0.25"></line><line x1="0" y1="59.00000000000001" x2="300" y2="59.00000000000001" fill="rgb(0, 0, 0)" stroke="rgb(66, 66, 66)" stroke-width="1px" opacity="0.25"></line><line x1="0" y1="44.25" x2="300" y2="44.25" fill="rgb(0, 0, 0)" stroke="rgb(66, 66, 66)" stroke-width="1px" opacity="0.25"></line><line x1="0" y1="29.499999999999993" x2="300" y2="29.499999999999993" fill="rgb(0, 0, 0)" stroke="rgb(66, 66, 66)" stroke-width="1px" opacity="0.25"></line><line x1="0" y1="14.750000000000007" x2="300" y2="14.750000000000007" fill="rgb(0, 0, 0)" stroke="rgb(66, 66, 66)" stroke-width="1px" opacity="0.25"></line><line x1="0" y1="0" x2="300" y2="0" fill="rgb(0, 0, 0)" stroke="rgb(66, 66, 66)" stroke-width="1px" opacity="0.25"></line></g></g></g><g><g><line x1="0" y1="162.25" x2="300" y2="162.25" fill="rgb(0, 0, 0)" stroke="rgb(153, 153, 153)" stroke-width="1.5px"></line></g></g><g><g><line x1="33.33333333333333" y1="0" x2="33.33333333333333" y2="177" fill="rgb(0, 0, 0)" stroke="rgb(153, 153, 153)" stroke-width="1.5px"></line></g></g><g><g><g><g><g><path stroke="rgb(255, 112, 67)" stroke-width="2px" d="M33.33333333333333,16.93856692314148L35,70.98865127563477L36.666666666666664,84.96188127994537L38.33333333333333,101.47872161865234L40,116.08644753694536L41.66666666666667,126.31133556365965L43.33333333333333,130.86353999376297L45,133.45136898756027L46.666666666666664,133.82857447862625L48.333333333333336,136.33173075318336L50,137.63990184664726L51.666666666666664,139.13126704096794L53.333333333333336,139.71650490164757L54.99999999999999,140.53657042980194L56.666666666666664,141.42896163463593L58.333333333333336,142.19375032186508L60,142.67374643683434L61.666666666666664,143.08963710069656L63.333333333333336,143.57864820957184L65,144.00209268927574L66.66666666666666,144.4504422545433L68.33333333333333,144.88636565208435L70,145.36567601561546L71.66666666666667,145.73079469799995L73.33333333333333,146.064034730196L75,146.42567014694214L76.66666666666666,146.7907606959343L78.33333333333334,147.08988371491432L80,147.53171952068806L81.66666666666666,147.7900561541319L83.33333333333334,147.9912969470024L85,148.41002820432186L86.66666666666666,148.6558824032545L88.33333333333334,148.9891848564148L90,149.349478662014L91.66666666666667,149.65468288958073L93.33333333333333,149.83640614151955L95,150.03749132156372L96.66666666666667,150.33638487756252L98.33333333333333,150.59277679026127L100,150.73865370452404L101.66666666666667,150.85597874224186L103.33333333333333,151.22579042613506L105,151.4338562041521L106.66666666666667,151.6943547129631L108.33333333333333,151.83852955698967L109.99999999999999,152.09501466155052L111.66666666666667,152.22151558101177L113.33333333333333,152.40348851680756L115.00000000000001,152.6809479445219L116.66666666666667,152.5875222235918L118.33333333333333,152.77546559274197L120,152.6193542778492L121.66666666666667,152.78460279107094L123.33333333333333,153.07921040058136L125,153.27120937407017L126.66666666666667,153.44897724688053L128.33333333333331,153.71050789952278L130,153.94483180344105L131.66666666666666,154.08014111220837L133.33333333333331,154.272126019001L135,154.50614309310913L136.66666666666666,154.59865359961987L138.33333333333334,154.72422523796558L140,154.7623011469841L141.66666666666666,154.81999745965004L143.33333333333334,154.8456946760416L145,155.124086022377L146.66666666666666,155.1031138971448L148.33333333333334,155.31230281293392L150,155.28650844842196L151.66666666666666,155.14218502491713L153.33333333333331,155.35910051316023L155.00000000000003,155.21886830031872L156.66666666666669,155.42012843489647L158.33333333333334,155.52561283111572L160,155.76069677621126L161.66666666666666,155.89021060615778L163.33333333333331,155.95084773749113L165,156.0579181537032L166.66666666666669,156.27875077724457L168.33333333333334,155.6434319615364L170,155.81860364973545L171.66666666666666,155.9186706095934L173.33333333333331,155.95752765983343L175,156.03637017309666L176.66666666666669,156.2849119901657L178.33333333333334,156.2986459210515L180,156.50337613373995L181.66666666666666,156.3836092054844L183.33333333333334,156.43051724135876L185,156.61981189250946L186.66666666666666,156.8112706169486L188.33333333333334,156.84515113383532L190,156.7614907771349L191.66666666666666,156.89901163429022L193.33333333333334,156.63034257292747L195,156.63551867753267L196.66666666666666,156.75921988487244L198.33333333333331,156.61809311807156L200,156.85472527891397L201.66666666666669,156.9117375984788L203.33333333333334,157.11474508047104L205,157.0816413089633L206.66666666666666,156.6552793085575L208.33333333333331,156.8675558641553L210,156.95828473567963L211.66666666666669,156.8680917173624L213.33333333333334,156.6052040681243L215,156.28922607004642L216.66666666666666,156.5848658233881L218.33333333333331,157.21556021273136L219.99999999999997,156.7492949515581L221.66666666666669,157.01185379177332L223.33333333333334,157.388676404953L225,157.16860646009445L226.66666666666666,157.16594829410315L228.33333333333331,157.10394933074713L230.00000000000003,157.36809902638197L231.66666666666669,157.26140401512384L233.33333333333334,157.40259408205748L235,157.509913302958L236.66666666666666,157.3823657333851L238.33333333333331,157.57047218829393L240,157.07391957193613L241.66666666666669,157.041645295918L243.33333333333334,157.03253886848688L245,157.3384539037943L246.66666666666666,157.50211683660746L248.33333333333331,156.99258505553007L250,157.17294207960367L251.66666666666669,156.8577777519822L253.33333333333334,157.05402618646622L255,157.3289281129837L256.66666666666663,157.16578345000744L258.33333333333337,157.54244693368673L260,157.58977037668228L261.6666666666667,157.52630408108234L263.3333333333333,157.1690183505416L265,157.49492128193378L266.66666666666663,157.69356632977724L268.33333333333337,157.38548853993416L270,157.28456439077854L271.6666666666667,157.11729203164577L273.3333333333333,157.43401732295752L275,157.55053528398275L276.6666666666667,157.37057212740183L278.33333333333337,156.79903303086758L280,156.7169125378132L281.6666666666667,157.12281364947557" style="fill: none;" fill="none"></path></g><g><path stroke="rgb(187, 187, 187)" stroke-width="2px" d="M33.33333333333333,111.31642031669615L35,118.26298391819L36.666666666666664,123.22012984752656L38.33333333333333,127.43231409788132L40,130.97866535186768L41.66666666666667,133.88479202985764L43.33333333333333,136.29789859056473L45,138.1794756948948L46.666666666666664,139.5191087126732L48.333333333333336,140.4236834347248L50,141.12511572241783L51.666666666666664,141.84192818403244L53.333333333333336,142.40009117126465L54.99999999999999,142.90241289138794L56.666666666666664,143.5360472202301L58.333333333333336,143.96875461935997L60,144.5200548171997L61.666666666666664,144.86372882127762L63.333333333333336,145.37151017785072L65,145.77153360843658L66.66666666666666,146.2249841094017L68.33333333333333,146.65473222732544L70,147.02973276376724L71.66666666666667,147.43892240524292L73.33333333333333,147.7467096298933L75,148.16270227730274L76.66666666666666,148.43052953481674L78.33333333333334,148.81942796707153L80,149.1657684892416L81.66666666666666,149.47452895343304L83.33333333333334,149.77226640284061L85,150.08595196902752L86.66666666666666,150.31876458227634L88.33333333333334,150.69633492827415L90,150.9900018274784L91.66666666666667,151.25227977335453L93.33333333333333,151.50822858512402L95,151.7554094493389L96.66666666666667,151.98881989717484L98.33333333333333,152.17786398530006L100,152.43994763493538L101.66666666666667,152.69392710924149L103.33333333333333,152.9387175142765L105,153.18562495708466L106.66666666666667,153.42323079705238L108.33333333333333,153.62252159416676L109.99999999999999,153.8275964409113L111.66666666666667,153.9999336898327L113.33333333333333,154.2444278150797L115.00000000000001,154.4125292301178L116.66666666666667,154.50671543180943L118.33333333333333,154.5709008872509L120,154.58839194476604L121.66666666666667,154.72878812253475L123.33333333333333,154.93196484446526L125,155.11087959259748L126.66666666666667,155.30521935224533L128.33333333333331,155.52063849568367L130,155.75499492883682L131.66666666666666,155.9424982741475L133.33333333333331,156.0492328479886L135,156.26351918280125L136.66666666666666,156.37746733427048L138.33333333333334,156.50948899239302L140,156.5844279974699L141.66666666666666,156.74635193496943L143.33333333333334,156.850579559803L145,157.01146563887596L146.66666666666666,157.13624558597803L148.33333333333334,157.23335326462984L150,157.3731814995408L151.66666666666666,157.44688791036606L153.33333333333331,157.46571134775877L155.00000000000003,157.42230899631977L156.66666666666669,157.46797740459442L158.33333333333334,157.5703970193863L160,157.6559590175748L161.66666666666666,157.78416508436203L163.33333333333331,157.9166105017066L165,157.98559929430485L166.66666666666669,158.05824894458055L168.33333333333334,158.04528956115246L170,157.9680748283863L171.66666666666666,158.02216655015945L173.33333333333331,158.09996417164803L175,158.16486483067274L176.66666666666669,158.23605506122112L178.33333333333334,158.2949936389923L180,158.36833299696445L181.66666666666666,158.42163434624672L183.33333333333334,158.48288689553738L185,158.62141352146864L186.66666666666666,158.7036124803126L188.33333333333334,158.79238344356418L190,158.8636895045638L191.66666666666666,158.9328864403069L193.33333333333334,158.96934599801898L195,159.00978247448802L196.66666666666666,158.9954911507666L198.33333333333331,158.937738571316L200,158.95144195109606L201.66666666666669,159.0147809870541L203.33333333333334,159.03907439112663L205,159.06559253111482L206.66666666666666,159.0782668441534L208.33333333333331,159.153866764158L210,159.16095132380724L211.66666666666669,159.15962531790137L213.33333333333334,159.13254736736417L215,159.12533247098327L216.66666666666666,158.96772349253297L218.33333333333331,158.97297520563006L219.99999999999997,159.03308879211545L221.66666666666669,159.1386934146285L223.33333333333334,159.13715025410056L225,159.1949254721403L226.66666666666666,159.17030479758978L228.33333333333331,159.2097269333899L230.00000000000003,159.29531025141478L231.66666666666669,159.38549469783902L233.33333333333334,159.411459621042L235,159.4633910059929L236.66666666666666,159.55500036478043L238.33333333333331,159.5611945465207L240,159.5510014668107L241.66666666666669,159.5010106265545L243.33333333333334,159.5396533794701L245,159.6015646457672L246.66666666666666,159.60598158836365L248.33333333333331,159.6241438910365L250,159.58528815954924L251.66666666666669,159.59041019529104L253.33333333333334,159.57235009595752L255,159.5748146250844L256.66666666666663,159.6778147108853L258.33333333333337,159.71089452505112L260,159.8173343576491L261.6666666666667,159.82108818739653L263.3333333333333,159.79510480165482L265,159.79274577274919L266.66666666666663,159.83796074986458L268.33333333333337,159.8381455950439L270,159.74111088737845L271.6666666666667,159.69073585048318L273.3333333333333,159.62862127646804L275,159.62485997378826L276.6666666666667,159.5938712619245L278.33333333333337,159.4562383107841L280,159.4061320796609L281.6666666666667,159.47074590995908" style="fill: none;" fill="none"></path></g></g></g></g></g></g><g transform="translate(30, 177)" clip-path="url(#clip_1)"><clipPath id="clip_1"><rect width="300" height="23"></rect></clipPath><g><g><line x1="0" y1="0" x2="0" y2="5" style="visibility: inherit;" fill="rgb(0, 0, 0)" stroke="rgb(204, 204, 204)" stroke-width="1px"></line><line x1="33.33333333333333" y1="0" x2="33.33333333333333" y2="5" style="visibility: inherit;" fill="rgb(0, 0, 0)" stroke="rgb(204, 204, 204)" stroke-width="1px"></line><line x1="66.66666666666666" y1="0" x2="66.66666666666666" y2="5" style="visibility: inherit;" fill="rgb(0, 0, 0)" stroke="rgb(204, 204, 204)" stroke-width="1px"></line><line x1="100" y1="0" x2="100" y2="5" style="visibility: inherit;" fill="rgb(0, 0, 0)" stroke="rgb(204, 204, 204)" stroke-width="1px"></line><line x1="133.33333333333331" y1="0" x2="133.33333333333331" y2="5" style="visibility: inherit;" fill="rgb(0, 0, 0)" stroke="rgb(204, 204, 204)" stroke-width="1px"></line><line x1="166.66666666666669" y1="0" x2="166.66666666666669" y2="5" style="visibility: inherit;" fill="rgb(0, 0, 0)" stroke="rgb(204, 204, 204)" stroke-width="1px"></line><line x1="200" y1="0" x2="200" y2="5" style="visibility: inherit;" fill="rgb(0, 0, 0)" stroke="rgb(204, 204, 204)" stroke-width="1px"></line><line x1="233.33333333333334" y1="0" x2="233.33333333333334" y2="5" style="visibility: inherit;" fill="rgb(0, 0, 0)" stroke="rgb(204, 204, 204)" stroke-width="1px"></line><line x1="266.66666666666663" y1="0" x2="266.66666666666663" y2="5" style="visibility: inherit;" fill="rgb(0, 0, 0)" stroke="rgb(204, 204, 204)" stroke-width="1px"></line><line x1="300" y1="0" x2="300" y2="5" style="visibility: inherit;" fill="rgb(0, 0, 0)" stroke="rgb(204, 204, 204)" stroke-width="1px"></line></g><g transform="translate(0, 8)"><text x="0" y="0" dx="0em" dy="0.95em" style="text-anchor: middle; visibility: hidden; font-family: Roboto, sans-serif; font-size: 12px; font-weight: 200;" fill="rgb(33, 33, 33)" stroke="none" stroke-width="1px">-20</text><text x="33.33333333333333" y="0" dx="0em" dy="0.95em" style="text-anchor: middle; visibility: inherit; font-family: Roboto, sans-serif; font-size: 12px; font-weight: 200;" fill="rgb(33, 33, 33)" stroke="none" stroke-width="1px">0</text><text x="66.66666666666666" y="0" dx="0em" dy="0.95em" style="text-anchor: middle; visibility: inherit; font-family: Roboto, sans-serif; font-size: 12px; font-weight: 200;" fill="rgb(33, 33, 33)" stroke="none" stroke-width="1px">20</text><text x="100" y="0" dx="0em" dy="0.95em" style="text-anchor: middle; visibility: inherit; font-family: Roboto, sans-serif; font-size: 12px; font-weight: 200;" fill="rgb(33, 33, 33)" stroke="none" stroke-width="1px">40</text><text x="133.33333333333331" y="0" dx="0em" dy="0.95em" style="text-anchor: middle; visibility: inherit; font-family: Roboto, sans-serif; font-size: 12px; font-weight: 200;" fill="rgb(33, 33, 33)" stroke="none" stroke-width="1px">60</text><text x="166.66666666666669" y="0" dx="0em" dy="0.95em" style="text-anchor: middle; visibility: inherit; font-family: Roboto, sans-serif; font-size: 12px; font-weight: 200;" fill="rgb(33, 33, 33)" stroke="none" stroke-width="1px">80</text><text x="200" y="0" dx="0em" dy="0.95em" style="text-anchor: middle; visibility: inherit; font-family: Roboto, sans-serif; font-size: 12px; font-weight: 200;" fill="rgb(33, 33, 33)" stroke="none" stroke-width="1px">100</text><text x="233.33333333333334" y="0" dx="0em" dy="0.95em" style="text-anchor: middle; visibility: inherit; font-family: Roboto, sans-serif; font-size: 12px; font-weight: 200;" fill="rgb(33, 33, 33)" stroke="none" stroke-width="1px">120</text><text x="266.66666666666663" y="0" dx="0em" dy="0.95em" style="text-anchor: middle; visibility: inherit; font-family: Roboto, sans-serif; font-size: 12px; font-weight: 200;" fill="rgb(33, 33, 33)" stroke="none" stroke-width="1px">140</text><text x="300" y="0" dx="0em" dy="0.95em" style="text-anchor: middle; visibility: hidden; font-family: Roboto, sans-serif; font-size: 12px; font-weight: 200;" fill="rgb(33, 33, 33)" stroke="none" stroke-width="1px">160</text></g><line x1="0" y1="0" x2="300" y2="0" fill="rgb(0, 0, 0)" stroke="rgb(204, 204, 204)" stroke-width="1px"></line></g></g></g></g></svg>