<svg viewBox="0 0 330 200" xmlns="http://www.w3.org/2000/svg"><g><g><g><g><g><line x1="30" y1="177" x2="25" y2="177" style="visibility: inherit;" fill="rgb(0, 0, 0)" stroke="rgb(204, 204, 204)" stroke-width="1px"></line><line x1="30" y1="159.3" x2="25" y2="159.3" style="visibility: inherit;" fill="rgb(0, 0, 0)" stroke="rgb(204, 204, 204)" stroke-width="1px"></line><line x1="30" y1="141.6" x2="25" y2="141.6" style="visibility: inherit;" fill="rgb(0, 0, 0)" stroke="rgb(204, 204, 204)" stroke-width="1px"></line><line x1="30" y1="123.89999999999999" x2="25" y2="123.89999999999999" style="visibility: inherit;" fill="rgb(0, 0, 0)" stroke="rgb(204, 204, 204)" stroke-width="1px"></line><line x1="30" y1="106.2" x2="25" y2="106.2" style="visibility: inherit;" fill="rgb(0, 0, 0)" stroke="rgb(204, 204, 204)" stroke-width="1px"></line><line x1="30" y1="88.5" x2="25" y2="88.5" style="visibility: inherit;" fill="rgb(0, 0, 0)" stroke="rgb(204, 204, 204)" stroke-width="1px"></line><line x1="30" y1="70.8" x2="25" y2="70.8" style="visibility: inherit;" fill="rgb(0, 0, 0)" stroke="rgb(204, 204, 204)" stroke-width="1px"></line><line x1="30" y1="53.10000000000001" x2="25" y2="53.10000000000001" style="visibility: inherit;" fill="rgb(0, 0, 0)" stroke="rgb(204, 204, 204)" stroke-width="1px"></line><line x1="30" y1="35.39999999999999" x2="25" y2="35.39999999999999" style="visibility: inherit;" fill="rgb(0, 0, 0)" stroke="rgb(204, 204, 204)" stroke-width="1px"></line><line x1="30" y1="17.699999999999996" x2="25" y2="17.699999999999996" style="visibility: inherit;" fill="rgb(0, 0, 0)" stroke="rgb(204, 204, 204)" stroke-width="1px"></line><line x1="30" y1="0" x2="25" y2="0" style="visibility: inherit;" fill="rgb(0, 0, 0)" stroke="rgb(204, 204, 204)" stroke-width="1px"></line></g><g transform="translate(20, 0)"><text x="0" y="177" dx="0em" dy="0.3em" style="text-anchor: end; visibility: hidden; font-family: Roboto, sans-serif; font-size: 12px; font-weight: 200;" fill="rgb(33, 33, 33)" stroke="none" stroke-width="1px">-5</text><text x="0" y="159.3" dx="0em" dy="0.3em" style="text-anchor: end; visibility: inherit; font-family: Roboto, sans-serif; font-size: 12px; font-weight: 200;" fill="rgb(33, 33, 33)" stroke="none" stroke-width="1px">0</text><text x="0" y="141.6" dx="0em" dy="0.3em" style="text-anchor: end; visibility: hidden; font-family: Roboto, sans-serif; font-size: 12px; font-weight: 200;" fill="rgb(33, 33, 33)" stroke="none" stroke-width="1px">5</text><text x="0" y="123.89999999999999" dx="0em" dy="0.3em" style="text-anchor: end; visibility: inherit; font-family: Roboto, sans-serif; font-size: 12px; font-weight: 200;" fill="rgb(33, 33, 33)" stroke="none" stroke-width="1px">10</text><text x="0" y="106.2" dx="0em" dy="0.3em" style="text-anchor: end; visibility: hidden; font-family: Roboto, sans-serif; font-size: 12px; font-weight: 200;" fill="rgb(33, 33, 33)" stroke="none" stroke-width="1px">15</text><text x="0" y="88.5" dx="0em" dy="0.3em" style="text-anchor: end; visibility: inherit; font-family: Roboto, sans-serif; font-size: 12px; font-weight: 200;" fill="rgb(33, 33, 33)" stroke="none" stroke-width="1px">20</text><text x="0" y="70.8" dx="0em" dy="0.3em" style="text-anchor: end; visibility: hidden; font-family: Roboto, sans-serif; font-size: 12px; font-weight: 200;" fill="rgb(33, 33, 33)" stroke="none" stroke-width="1px">25</text><text x="0" y="53.10000000000001" dx="0em" dy="0.3em" style="text-anchor: end; visibility: inherit; font-family: Roboto, sans-serif; font-size: 12px; font-weight: 200;" fill="rgb(33, 33, 33)" stroke="none" stroke-width="1px">30</text><text x="0" y="35.39999999999999" dx="0em" dy="0.3em" style="text-anchor: end; visibility: hidden; font-family: Roboto, sans-serif; font-size: 12px; font-weight: 200;" fill="rgb(33, 33, 33)" stroke="none" stroke-width="1px">35</text><text x="0" y="17.699999999999996" dx="0em" dy="0.3em" style="text-anchor: end; visibility: inherit; font-family: Roboto, sans-serif; font-size: 12px; font-weight: 200;" fill="rgb(33, 33, 33)" stroke="none" stroke-width="1px">40</text><text x="0" y="0" dx="0em" dy="0.3em" style="text-anchor: end; visibility: hidden; font-family: Roboto, sans-serif; font-size: 12px; font-weight: 200;" fill="rgb(33, 33, 33)" stroke="none" stroke-width="1px">45</text></g><line x1="30" y1="0" x2="30" y2="177" fill="rgb(0, 0, 0)" stroke="rgb(204, 204, 204)" stroke-width="1px"></line></g></g><g transform="translate(30, 0)" clip-path="url(#clip_0)"><clipPath id="clip_0"><rect width="300" height="177"></rect></clipPath><g><g><g><line x1="0" y1="0" x2="0" y2="177" fill="rgb(0, 0, 0)" stroke="rgb(66, 66, 66)" stroke-width="1px" opacity="0.25"></line><line x1="25" y1="0" x2="25" y2="177" fill="rgb(0, 0, 0)" stroke="rgb(66, 66, 66)" stroke-width="1px" opacity="0.25"></line><line x1="50" y1="0" x2="50" y2="177" fill="rgb(0, 0, 0)" stroke="rgb(66, 66, 66)" stroke-width="1px" opacity="0.25"></line><line x1="75" y1="0" x2="75" y2="177" fill="rgb(0, 0, 0)" stroke="rgb(66, 66, 66)" stroke-width="1px" opacity="0.25"></line><line x1="100" y1="0" x2="100" y2="177" fill="rgb(0, 0, 0)" stroke="rgb(66, 66, 66)" stroke-width="1px" opacity="0.25"></line><line x1="125" y1="0" x2="125" y2="177" fill="rgb(0, 0, 0)" stroke="rgb(66, 66, 66)" stroke-width="1px" opacity="0.25"></line><line x1="150" y1="0" x2="150" y2="177" fill="rgb(0, 0, 0)" stroke="rgb(66, 66, 66)" stroke-width="1px" opacity="0.25"></line><line x1="175" y1="0" x2="175" y2="177" fill="rgb(0, 0, 0)" stroke="rgb(66, 66, 66)" stroke-width="1px" opacity="0.25"></line><line x1="200" y1="0" x2="200" y2="177" fill="rgb(0, 0, 0)" stroke="rgb(66, 66, 66)" stroke-width="1px" opacity="0.25"></line><line x1="225" y1="0" x2="225" y2="177" fill="rgb(0, 0, 0)" stroke="rgb(66, 66, 66)" stroke-width="1px" opacity="0.25"></line><line x1="250" y1="0" x2="250" y2="177" fill="rgb(0, 0, 0)" stroke="rgb(66, 66, 66)" stroke-width="1px" opacity="0.25"></line><line x1="275" y1="0" x2="275" y2="177" fill="rgb(0, 0, 0)" stroke="rgb(66, 66, 66)" stroke-width="1px" opacity="0.25"></line><line x1="300" y1="0" x2="300" y2="177" fill="rgb(0, 0, 0)" stroke="rgb(66, 66, 66)" stroke-width="1px" opacity="0.25"></line></g><g><line x1="0" y1="177" x2="300" y2="177" fill="rgb(0, 0, 0)" stroke="rgb(66, 66, 66)" stroke-width="1px" opacity="0.25"></line><line x1="0" y1="159.3" x2="300" y2="159.3" fill="rgb(0, 0, 0)" stroke="rgb(66, 66, 66)" stroke-width="1px" opacity="0.25"></line><line x1="0" y1="141.6" x2="300" y2="141.6" fill="rgb(0, 0, 0)" stroke="rgb(66, 66, 66)" stroke-width="1px" opacity="0.25"></line><line x1="0" y1="123.89999999999999" x2="300" y2="123.89999999999999" fill="rgb(0, 0, 0)" stroke="rgb(66, 66, 66)" stroke-width="1px" opacity="0.25"></line><line x1="0" y1="106.2" x2="300" y2="106.2" fill="rgb(0, 0, 0)" stroke="rgb(66, 66, 66)" stroke-width="1px" opacity="0.25"></line><line x1="0" y1="88.5" x2="300" y2="88.5" fill="rgb(0, 0, 0)" stroke="rgb(66, 66, 66)" stroke-width="1px" opacity="0.25"></line><line x1="0" y1="70.8" x2="300" y2="70.8" fill="rgb(0, 0, 0)" stroke="rgb(66, 66, 66)" stroke-width="1px" opacity="0.25"></line><line x1="0" y1="53.10000000000001" x2="300" y2="53.10000000000001" fill="rgb(0, 0, 0)" stroke="rgb(66, 66, 66)" stroke-width="1px" opacity="0.25"></line><line x1="0" y1="35.39999999999999" x2="300" y2="35.39999999999999" fill="rgb(0, 0, 0)" stroke="rgb(66, 66, 66)" stroke-width="1px" opacity="0.25"></line><line x1="0" y1="17.699999999999996" x2="300" y2="17.699999999999996" fill="rgb(0, 0, 0)" stroke="rgb(66, 66, 66)" stroke-width="1px" opacity="0.25"></line><line x1="0" y1="0" x2="300" y2="0" fill="rgb(0, 0, 0)" stroke="rgb(66, 66, 66)" stroke-width="1px" opacity="0.25"></line></g></g></g><g><g><line x1="0" y1="159.3" x2="300" y2="159.3" fill="rgb(0, 0, 0)" stroke="rgb(153, 153, 153)" stroke-width="1.5px"></line></g></g><g><g><line x1="25" y1="0" x2="25" y2="177" fill="rgb(0, 0, 0)" stroke="rgb(153, 153, 153)" stroke-width="1.5px"></line></g></g><g><g><g><g><g><path stroke="rgb(187, 187, 187)" stroke-width="2px" d="M25,42.810065460205074L26.25,23.457861099243157L27.499999999999996,58.60883331298828L28.750000000000004,72.93890979766846L30,81.92737335205078L31.25,88.68104850769043L32.5,96.60371337890624L33.75,106.22416208267212L35,117.20177576065063L36.25,124.49173976898193L37.5,129.73366933822632L38.75000000000001,136.415168838501L40,142.4819177055359L41.25,146.7219462776184L42.5,149.5286952638626L43.75,150.66122157096862L45,150.32432813644408L46.25,150.14055772304536L47.5,151.09230813503265L48.75,151.96264782428742L50,152.48353617668153L51.25,152.687763504982L52.5,152.3541878414154L53.75,152.13865764141082L54.99999999999999,152.55915662527084L56.25,152.96505480051042L57.50000000000001,153.07090275049208L58.75,153.34457876443864L60,153.44228800535203L61.25,153.25514580488206L62.5,153.31854806184768L63.75,153.4746575832367L65,153.41452076911926L66.25,153.45683353185655L67.5,153.45947736740112L68.75,153.46851620435714L70,153.61911903619767L71.25,153.72881816625596L72.5,153.83351109981535L73.75,154.0172338271141L75,154.19179660320282L76.25,154.35751846075058L77.50000000000001,154.44244191884994L78.75,154.65062592744826L80,154.77387508392334L81.25,154.82476206064226L82.5,154.83000035762788L83.75,154.8681142115593L85,154.82778822898865L86.25,154.77646448135377L87.5,154.75401656627656L88.75,154.6763017272949L90,154.6657563471794L91.24999999999999,154.69067845344543L92.5,154.7630803012848L93.75,154.8069882273674L95,154.83173900127412L96.25000000000001,154.88387974262238L97.5,154.92529701948166L98.75,155.00461968183518L100,154.99922946453094L101.25,155.0580673599243L102.5,155.05641860246658L103.75,155.061789829731L105,155.0174615907669L106.25,154.97935322284698L107.5,154.92685673475265L108.75,154.9208592581749L109.99999999999999,154.91962237358092L111.25,154.95813290834425L112.5,154.9891128373146L113.75,155.04634670734404L115.00000000000001,155.11938577651978L116.25,155.16599071025848L117.5,155.20704759836198L118.75,155.23031841516496L120,155.26899057626724L121.25,155.32330631017686L122.5,155.3656055688858L123.75,155.3480051779747L125,155.30923300266267L126.25,155.28031665802L127.5,155.25663692235946L128.75,155.261255300045L130,155.28508526802062L131.25,155.32391441345214L132.5,155.31982438087462L133.75,155.3391916894913L135,155.3669374036789L136.25,155.36903939008712L137.5,155.35113642454147L138.75,155.37214362859726L140,155.38145085811615L141.25,155.41623850107194L142.5,155.43090514183044L143.75,155.48727559804917L145,155.5097817492485L146.25,155.49531851291655L147.5,155.4985970377922L148.75,155.4948028278351L150,155.49620091676712L151.25,155.4862049818039L152.5,155.4928882098198L153.75,155.4995516037941L155.00000000000003,155.50749703645707L156.25,155.5419816827774L157.5,155.55181894540786L158.75,155.57423436641693L160,155.6023252773285L161.25,155.6545179247856L162.5,155.6807786178589L163.74999999999997,155.70052235126496L165,155.70833991765977L166.25,155.72077501773833L167.5,155.7288137125969L168.75,155.74815274715425L170,155.78026237249375L171.25,155.80893585562706L172.5,155.8161936378479L173.75000000000003,155.80650702953338L175,155.80293521404266L176.25,155.80609473466873L177.5,155.79936086654664L178.75,155.78504132151605L180,155.78387828707696L181.25,155.76371803879738L182.49999999999997,155.75647460460664L183.75,155.75492501735687L185,155.7435027194023L186.25,155.758308198452L187.5,155.78843209862708L188.75,155.81746681451799L190,155.82380653381347L191.25,155.83171968340875L192.50000000000003,155.85235299468042L193.75,155.876850990057L195,155.87797034740447L196.25,155.8697016620636L197.5,155.83848224759103L198.75,155.82203771710397L200,155.83346043705941L201.24999999999997,155.8505088508129L202.5,155.8656023454666L203.75,155.87005255579948L205,155.8780433535576L206.25,155.89934574723245L207.5,155.91660811543466L208.75,155.90597791314124L210,155.91164264202118L211.25000000000003,155.9361760854721L212.5,155.96026136398316L213.75,155.99534060955048L215,156.02209609866142L216.25,156.01671938538553L217.5,155.9877247595787L218.75,155.93295410871505L219.99999999999997,155.87114785909654L221.25,155.82849243164063L222.5,155.83981682538987L223.75,155.87259405612946L225,155.89652045130728L226.25,155.928451359272L227.5,155.9646330821514L228.75,155.98157536268235L230.00000000000003,155.96906366944313L231.25,155.96295436263085L232.5,155.9767312145233L233.75,155.9740981400013L235,155.99342324852944L236.25,155.98903064131736L237.5,156.01352526068686L238.74999999999997,156.01909883737565L240,156.0244445335865L241.25,156.00454993486406L242.5,155.96767064452172L243.75,155.94300701379777L245,155.96217197299003L246.25,156.00068187475205L247.5,156.02472326517105L248.75000000000003,156.047260222435L250,156.04573848724365L251.25,156.049759311676L252.5,156.09276478886605L253.75,156.13566856384278L255,156.16646766543388L256.25,156.17194987893103L257.5,156.15021303534508L258.75,156.10563687086105L260,156.06230054497718L261.25,156.04403128266335L262.5,156.01993650913238L263.75,156.01342735648154L265,156.05248100638389L266.25,156.10184308290482L267.5,156.1413754928112L268.75,156.14515303373338L270,156.1341329026222L271.25,156.08524853110313L272.5,156.03184368610383L273.75,155.97242532849313" style="fill: none;" fill="none"></path></g><g><path stroke="rgb(0, 153, 136)" stroke-width="2px" d="M25,152.59244489908218L26.25,153.3929835319519L27.499999999999996,153.7941481232643L28.750000000000004,154.2999676680565L30,154.5335194158554L31.25,154.87477591753006L32.5,155.21068693399428L33.75,155.34110757350922L35,155.69209119558334L36.25,155.8584751725197L37.5,155.90084385037423L38.75000000000001,156.09335094809532L40,156.29678027272226L41.25,156.33553134799004L42.5,156.51596816539765L43.75,156.5978376030922L45,156.70330828428268L46.25,156.7753476333618L47.5,156.77002177119255L48.75,156.8836448764801L50,156.9293258392811L51.25,156.99649487614633L52.5,156.99998524546623L53.75,157.00468696832658L54.99999999999999,157.04769139051436L56.25,157.12575459122658L57.50000000000001,157.16920084834098L58.75,157.16757044792175L60,157.17087809085845L61.25,157.22235607981682L62.5,157.0692334806919L63.75,157.2634785890579L65,157.3091914129257L66.25,157.28833169817923L67.5,157.32935883522035L68.75,157.27670261979102L70,157.37286965847017L71.25,157.30793659329416L72.5,157.39066627979278L73.75,157.41592282176018L75,157.352784948349L76.25,157.38187600135802L77.50000000000001,157.40892372608184L78.75,157.43837791085244L80,157.4644463825226L81.25,157.48374216198923L82.5,157.5559455639124L83.75,157.47475734114647L85,157.51359133958817L86.25,157.57323304116727L87.5,157.56600131750108L88.75,157.54834764897822L90,157.58092928230764L91.24999999999999,157.53924656689168L92.5,157.65477163016797L93.75,157.61110888659954L95,157.58906904637814L96.25000000000001,157.6201652365923L97.5,157.6796139782667L98.75,157.64065295755864L100,157.6486444938183L101.25,157.72565195381642L102.5,157.71183427333833L103.75,157.68150855123997L105,157.70947476089L106.25,157.7139534562826L107.5,157.71270074665546L108.75,157.7455556255579L109.99999999999999,157.75507396101952L111.25,157.76415309906005L112.5,157.7657398223877L113.75,157.78341933846474L115.00000000000001,157.73990714371203L116.25,157.82502335071564L117.5,157.84439139783382L118.75,157.8650868487358L120,157.8301600509882L121.25,157.8566552710533L122.5,157.85680581986904L123.75,157.8887543463707L125,157.80896547853948L126.25,157.86021917402743L127.5,157.92645063042642L128.75,157.86532053172587L130,157.90313233852387L131.25,157.9426098883152L132.5,157.91655977368356L133.75,157.92338289499284L135,157.93580660104752L136.25,157.9549289381504L137.5,157.97300218105315L138.75,157.9755857759714L140,158.00735189259052L141.25,158.03411307871343L142.5,157.98081373393535L143.75,157.98911016583443L145,158.00478127419947L146.25,157.9865545284748L147.5,158.08301285326482L148.75,158.05820700824262L150,158.00212910413742L151.25,158.0762540870905L152.5,158.07414007365705L153.75,158.0822205466032L155.00000000000003,158.1136759650707L156.25,158.09188056886197L157.5,158.11063038468362L158.75,158.1126810979843L160,158.16081947743893L161.25,158.09615026831628L162.5,158.15188076019288L163.74999999999997,158.16928998470306L165,158.0881602090597L166.25,158.17349248051644L167.5,158.1842923271656L168.75,158.20451999008657L170,158.18871215343475L171.25,158.20227705538272L172.5,158.21049077510833L173.75000000000003,158.20459299623965L175,158.22938691973687L176.25,158.24991462528706L177.5,158.2470420652628L178.75,158.25006591260433L180,158.2147984546423L181.25,158.24168423652648L182.49999999999997,158.23431831657885L183.75,158.24799758076668L185,158.26113636732103L186.25,158.264098919034L187.5,158.28878533780576L188.75,158.25591885387897L190,158.25423696935178L191.25,158.30285590231418L192.50000000000003,158.31509572148323L193.75,158.3153824710846L195,158.34313957929612L196.25,158.33027118980885L197.5,158.37015122294426L198.75,158.34607670545577L200,158.3467552828789L201.24999999999997,158.3223754477501L202.5,158.36671539723872L203.75,158.3769760322571L205,158.37592925906182L206.25,158.35221829533577L207.5,158.3604653531313L208.75,158.41400777041912L210,158.37777540743352L211.25000000000003,158.38826793193817L212.5,158.41216067254544L213.75,158.42854907691478L215,158.4360162243247L216.25,158.400796610713L217.5,158.3756129693985L218.75,158.4125259143114L219.99999999999997,158.43671199828387L221.25,158.4150263223052L222.5,158.42537431150674L223.75,158.39387822270393L225,158.4236326611042L226.25,158.4647312217951L227.5,158.48299172759056L228.75,158.46560022711753L230.00000000000003,158.45630149036646L231.25,158.47013984888792L232.5,158.48846249431372L233.75,158.44507294356822L235,158.507059545815L236.25,158.46932079792023L237.5,158.4393496093154L238.74999999999997,158.48127571374178L240,158.50711625218392L241.25,158.4981807526946L242.5,158.5115363422036L243.75,158.50234627068042L245,158.49806517720222L246.25,158.50526124179365L247.5,158.54232958853245L248.75000000000003,158.51836922228335L250,158.5332846853137L251.25,158.4925007790327L252.5,158.53962472110987L253.75,158.56269445449115L255,158.53401079058648L256.25,158.57433286964894L257.5,158.57104279249907L258.75,158.52711097061635L260,158.58647209435702L261.25,158.58599264860155L262.5,158.57993160814047L263.75,158.60169983804226L265,158.55846711337566L266.25,158.59443957656623L267.5,158.59583407849073L268.75,158.62029863029719L270,158.59563853383065L271.25,158.61675714612008L272.5,158.6106170332432L273.75,158.6164490327239" style="fill: none;" fill="none"></path></g></g></g></g></g></g><g transform="translate(30, 177)" clip-path="url(#clip_1)"><clipPath id="clip_1"><rect width="300" height="23"></rect></clipPath><g><g><line x1="0" y1="0" x2="0" y2="5" style="visibility: inherit;" fill="rgb(0, 0, 0)" stroke="rgb(204, 204, 204)" stroke-width="1px"></line><line x1="25" y1="0" x2="25" y2="5" style="visibility: inherit;" fill="rgb(0, 0, 0)" stroke="rgb(204, 204, 204)" stroke-width="1px"></line><line x1="50" y1="0" x2="50" y2="5" style="visibility: inherit;" fill="rgb(0, 0, 0)" stroke="rgb(204, 204, 204)" stroke-width="1px"></line><line x1="75" y1="0" x2="75" y2="5" style="visibility: inherit;" fill="rgb(0, 0, 0)" stroke="rgb(204, 204, 204)" stroke-width="1px"></line><line x1="100" y1="0" x2="100" y2="5" style="visibility: inherit;" fill="rgb(0, 0, 0)" stroke="rgb(204, 204, 204)" stroke-width="1px"></line><line x1="125" y1="0" x2="125" y2="5" style="visibility: inherit;" fill="rgb(0, 0, 0)" stroke="rgb(204, 204, 204)" stroke-width="1px"></line><line x1="150" y1="0" x2="150" y2="5" style="visibility: inherit;" fill="rgb(0, 0, 0)" stroke="rgb(204, 204, 204)" stroke-width="1px"></line><line x1="175" y1="0" x2="175" y2="5" style="visibility: inherit;" fill="rgb(0, 0, 0)" stroke="rgb(204, 204, 204)" stroke-width="1px"></line><line x1="200" y1="0" x2="200" y2="5" style="visibility: inherit;" fill="rgb(0, 0, 0)" stroke="rgb(204, 204, 204)" stroke-width="1px"></line><line x1="225" y1="0" x2="225" y2="5" style="visibility: inherit;" fill="rgb(0, 0, 0)" stroke="rgb(204, 204, 204)" stroke-width="1px"></line><line x1="250" y1="0" x2="250" y2="5" style="visibility: inherit;" fill="rgb(0, 0, 0)" stroke="rgb(204, 204, 204)" stroke-width="1px"></line><line x1="275" y1="0" x2="275" y2="5" style="visibility: inherit;" fill="rgb(0, 0, 0)" stroke="rgb(204, 204, 204)" stroke-width="1px"></line><line x1="300" y1="0" x2="300" y2="5" style="visibility: inherit;" fill="rgb(0, 0, 0)" stroke="rgb(204, 204, 204)" stroke-width="1px"></line></g><g transform="translate(0, 8)"><text x="0" y="0" dx="0em" dy="0.95em" style="text-anchor: middle; visibility: hidden; font-family: Roboto, sans-serif; font-size: 12px; font-weight: 200;" fill="rgb(33, 33, 33)" stroke="none" stroke-width="1px">-20</text><text x="25" y="0" dx="0em" dy="0.95em" style="text-anchor: middle; visibility: inherit; font-family: Roboto, sans-serif; font-size: 12px; font-weight: 200;" fill="rgb(33, 33, 33)" stroke="none" stroke-width="1px">0</text><text x="50" y="0" dx="0em" dy="0.95em" style="text-anchor: middle; visibility: hidden; font-family: Roboto, sans-serif; font-size: 12px; font-weight: 200;" fill="rgb(33, 33, 33)" stroke="none" stroke-width="1px">20</text><text x="75" y="0" dx="0em" dy="0.95em" style="text-anchor: middle; visibility: inherit; font-family: Roboto, sans-serif; font-size: 12px; font-weight: 200;" fill="rgb(33, 33, 33)" stroke="none" stroke-width="1px">40</text><text x="100" y="0" dx="0em" dy="0.95em" style="text-anchor: middle; visibility: hidden; font-family: Roboto, sans-serif; font-size: 12px; font-weight: 200;" fill="rgb(33, 33, 33)" stroke="none" stroke-width="1px">60</text><text x="125" y="0" dx="0em" dy="0.95em" style="text-anchor: middle; visibility: inherit; font-family: Roboto, sans-serif; font-size: 12px; font-weight: 200;" fill="rgb(33, 33, 33)" stroke="none" stroke-width="1px">80</text><text x="150" y="0" dx="0em" dy="0.95em" style="text-anchor: middle; visibility: hidden; font-family: Roboto, sans-serif; font-size: 12px; font-weight: 200;" fill="rgb(33, 33, 33)" stroke="none" stroke-width="1px">100</text><text x="175" y="0" dx="0em" dy="0.95em" style="text-anchor: middle; visibility: inherit; font-family: Roboto, sans-serif; font-size: 12px; font-weight: 200;" fill="rgb(33, 33, 33)" stroke="none" stroke-width="1px">120</text><text x="200" y="0" dx="0em" dy="0.95em" style="text-anchor: middle; visibility: hidden; font-family: Roboto, sans-serif; font-size: 12px; font-weight: 200;" fill="rgb(33, 33, 33)" stroke="none" stroke-width="1px">140</text><text x="225" y="0" dx="0em" dy="0.95em" style="text-anchor: middle; visibility: inherit; font-family: Roboto, sans-serif; font-size: 12px; font-weight: 200;" fill="rgb(33, 33, 33)" stroke="none" stroke-width="1px">160</text><text x="250" y="0" dx="0em" dy="0.95em" style="text-anchor: middle; visibility: hidden; font-family: Roboto, sans-serif; font-size: 12px; font-weight: 200;" fill="rgb(33, 33, 33)" stroke="none" stroke-width="1px">180</text><text x="275" y="0" dx="0em" dy="0.95em" style="text-anchor: middle; visibility: inherit; font-family: Roboto, sans-serif; font-size: 12px; font-weight: 200;" fill="rgb(33, 33, 33)" stroke="none" stroke-width="1px">200</text><text x="300" y="0" dx="0em" dy="0.95em" style="text-anchor: middle; visibility: hidden; font-family: Roboto, sans-serif; font-size: 12px; font-weight: 200;" fill="rgb(33, 33, 33)" stroke="none" stroke-width="1px">220</text></g><line x1="0" y1="0" x2="300" y2="0" fill="rgb(0, 0, 0)" stroke="rgb(204, 204, 204)" stroke-width="1px"></line></g></g></g></g></svg>