<svg viewBox="0 0 330 200" xmlns="http://www.w3.org/2000/svg"><g><g><g><g><g><line x1="50" y1="177" x2="45" y2="177" style="visibility: inherit;" fill="rgb(0, 0, 0)" stroke="rgb(204, 204, 204)" stroke-width="1px"></line><line x1="50" y1="164.35714285714283" x2="45" y2="164.35714285714283" style="visibility: inherit;" fill="rgb(0, 0, 0)" stroke="rgb(204, 204, 204)" stroke-width="1px"></line><line x1="50" y1="151.7142857142857" x2="45" y2="151.7142857142857" style="visibility: inherit;" fill="rgb(0, 0, 0)" stroke="rgb(204, 204, 204)" stroke-width="1px"></line><line x1="50" y1="139.07142857142856" x2="45" y2="139.07142857142856" style="visibility: inherit;" fill="rgb(0, 0, 0)" stroke="rgb(204, 204, 204)" stroke-width="1px"></line><line x1="50" y1="126.42857142857142" x2="45" y2="126.42857142857142" style="visibility: inherit;" fill="rgb(0, 0, 0)" stroke="rgb(204, 204, 204)" stroke-width="1px"></line><line x1="50" y1="113.78571428571429" x2="45" y2="113.78571428571429" style="visibility: inherit;" fill="rgb(0, 0, 0)" stroke="rgb(204, 204, 204)" stroke-width="1px"></line><line x1="50" y1="101.14285714285714" x2="45" y2="101.14285714285714" style="visibility: inherit;" fill="rgb(0, 0, 0)" stroke="rgb(204, 204, 204)" stroke-width="1px"></line><line x1="50" y1="88.5" x2="45" y2="88.5" style="visibility: inherit;" fill="rgb(0, 0, 0)" stroke="rgb(204, 204, 204)" stroke-width="1px"></line><line x1="50" y1="75.85714285714286" x2="45" y2="75.85714285714286" style="visibility: inherit;" fill="rgb(0, 0, 0)" stroke="rgb(204, 204, 204)" stroke-width="1px"></line><line x1="50" y1="63.21428571428571" x2="45" y2="63.21428571428571" style="visibility: inherit;" fill="rgb(0, 0, 0)" stroke="rgb(204, 204, 204)" stroke-width="1px"></line><line x1="50" y1="50.57142857142859" x2="45" y2="50.57142857142859" style="visibility: inherit;" fill="rgb(0, 0, 0)" stroke="rgb(204, 204, 204)" stroke-width="1px"></line><line x1="50" y1="37.92857142857143" x2="45" y2="37.92857142857143" style="visibility: inherit;" fill="rgb(0, 0, 0)" stroke="rgb(204, 204, 204)" stroke-width="1px"></line><line x1="50" y1="25.285714285714313" x2="45" y2="25.285714285714313" style="visibility: inherit;" fill="rgb(0, 0, 0)" stroke="rgb(204, 204, 204)" stroke-width="1px"></line><line x1="50" y1="12.642857142857157" x2="45" y2="12.642857142857157" style="visibility: inherit;" fill="rgb(0, 0, 0)" stroke="rgb(204, 204, 204)" stroke-width="1px"></line><line x1="50" y1="0" x2="45" y2="0" style="visibility: inherit;" fill="rgb(0, 0, 0)" stroke="rgb(204, 204, 204)" stroke-width="1px"></line></g><g transform="translate(40, 0)"><text x="0" y="177" dx="0em" dy="0.3em" style="text-anchor: end; visibility: hidden; font-family: Roboto, sans-serif; font-size: 12px; font-weight: 200;" fill="rgb(33, 33, 33)" stroke="none" stroke-width="1px">0.35</text><text x="0" y="164.35714285714283" dx="0em" dy="0.3em" style="text-anchor: end; visibility: inherit; font-family: Roboto, sans-serif; font-size: 12px; font-weight: 200;" fill="rgb(33, 33, 33)" stroke="none" stroke-width="1px">0.4</text><text x="0" y="151.7142857142857" dx="0em" dy="0.3em" style="text-anchor: end; visibility: hidden; font-family: Roboto, sans-serif; font-size: 12px; font-weight: 200;" fill="rgb(33, 33, 33)" stroke="none" stroke-width="1px">0.45</text><text x="0" y="139.07142857142856" dx="0em" dy="0.3em" style="text-anchor: end; visibility: inherit; font-family: Roboto, sans-serif; font-size: 12px; font-weight: 200;" fill="rgb(33, 33, 33)" stroke="none" stroke-width="1px">0.5</text><text x="0" y="126.42857142857142" dx="0em" dy="0.3em" style="text-anchor: end; visibility: hidden; font-family: Roboto, sans-serif; font-size: 12px; font-weight: 200;" fill="rgb(33, 33, 33)" stroke="none" stroke-width="1px">0.55</text><text x="0" y="113.78571428571429" dx="0em" dy="0.3em" style="text-anchor: end; visibility: inherit; font-family: Roboto, sans-serif; font-size: 12px; font-weight: 200;" fill="rgb(33, 33, 33)" stroke="none" stroke-width="1px">0.6</text><text x="0" y="101.14285714285714" dx="0em" dy="0.3em" style="text-anchor: end; visibility: hidden; font-family: Roboto, sans-serif; font-size: 12px; font-weight: 200;" fill="rgb(33, 33, 33)" stroke="none" stroke-width="1px">0.65</text><text x="0" y="88.5" dx="0em" dy="0.3em" style="text-anchor: end; visibility: inherit; font-family: Roboto, sans-serif; font-size: 12px; font-weight: 200;" fill="rgb(33, 33, 33)" stroke="none" stroke-width="1px">0.7</text><text x="0" y="75.85714285714286" dx="0em" dy="0.3em" style="text-anchor: end; visibility: hidden; font-family: Roboto, sans-serif; font-size: 12px; font-weight: 200;" fill="rgb(33, 33, 33)" stroke="none" stroke-width="1px">0.75</text><text x="0" y="63.21428571428571" dx="0em" dy="0.3em" style="text-anchor: end; visibility: inherit; font-family: Roboto, sans-serif; font-size: 12px; font-weight: 200;" fill="rgb(33, 33, 33)" stroke="none" stroke-width="1px">0.8</text><text x="0" y="50.57142857142859" dx="0em" dy="0.3em" style="text-anchor: end; visibility: hidden; font-family: Roboto, sans-serif; font-size: 12px; font-weight: 200;" fill="rgb(33, 33, 33)" stroke="none" stroke-width="1px">0.85</text><text x="0" y="37.92857142857143" dx="0em" dy="0.3em" style="text-anchor: end; visibility: inherit; font-family: Roboto, sans-serif; font-size: 12px; font-weight: 200;" fill="rgb(33, 33, 33)" stroke="none" stroke-width="1px">0.9</text><text x="0" y="25.285714285714313" dx="0em" dy="0.3em" style="text-anchor: end; visibility: hidden; font-family: Roboto, sans-serif; font-size: 12px; font-weight: 200;" fill="rgb(33, 33, 33)" stroke="none" stroke-width="1px">0.95</text><text x="0" y="12.642857142857157" dx="0em" dy="0.3em" style="text-anchor: end; visibility: inherit; font-family: Roboto, sans-serif; font-size: 12px; font-weight: 200;" fill="rgb(33, 33, 33)" stroke="none" stroke-width="1px">1</text><text x="0" y="0" dx="0em" dy="0.3em" style="text-anchor: end; visibility: hidden; font-family: Roboto, sans-serif; font-size: 12px; font-weight: 200;" fill="rgb(33, 33, 33)" stroke="none" stroke-width="1px">1.05</text></g><line x1="50" y1="0" x2="50" y2="177" fill="rgb(0, 0, 0)" stroke="rgb(204, 204, 204)" stroke-width="1px"></line></g></g><g transform="translate(50, 0)" clip-path="url(#clip_0)"><clipPath id="clip_0"><rect width="280" height="177"></rect></clipPath><g><g><g><line x1="0" y1="0" x2="0" y2="177" fill="rgb(0, 0, 0)" stroke="rgb(66, 66, 66)" stroke-width="1px" opacity="0.25"></line><line x1="23.333333333333332" y1="0" x2="23.333333333333332" y2="177" fill="rgb(0, 0, 0)" stroke="rgb(66, 66, 66)" stroke-width="1px" opacity="0.25"></line><line x1="46.666666666666664" y1="0" x2="46.666666666666664" y2="177" fill="rgb(0, 0, 0)" stroke="rgb(66, 66, 66)" stroke-width="1px" opacity="0.25"></line><line x1="70" y1="0" x2="70" y2="177" fill="rgb(0, 0, 0)" stroke="rgb(66, 66, 66)" stroke-width="1px" opacity="0.25"></line><line x1="93.33333333333333" y1="0" x2="93.33333333333333" y2="177" fill="rgb(0, 0, 0)" stroke="rgb(66, 66, 66)" stroke-width="1px" opacity="0.25"></line><line x1="116.66666666666667" y1="0" x2="116.66666666666667" y2="177" fill="rgb(0, 0, 0)" stroke="rgb(66, 66, 66)" stroke-width="1px" opacity="0.25"></line><line x1="140" y1="0" x2="140" y2="177" fill="rgb(0, 0, 0)" stroke="rgb(66, 66, 66)" stroke-width="1px" opacity="0.25"></line><line x1="163.33333333333334" y1="0" x2="163.33333333333334" y2="177" fill="rgb(0, 0, 0)" stroke="rgb(66, 66, 66)" stroke-width="1px" opacity="0.25"></line><line x1="186.66666666666666" y1="0" x2="186.66666666666666" y2="177" fill="rgb(0, 0, 0)" stroke="rgb(66, 66, 66)" stroke-width="1px" opacity="0.25"></line><line x1="210" y1="0" x2="210" y2="177" fill="rgb(0, 0, 0)" stroke="rgb(66, 66, 66)" stroke-width="1px" opacity="0.25"></line><line x1="233.33333333333334" y1="0" x2="233.33333333333334" y2="177" fill="rgb(0, 0, 0)" stroke="rgb(66, 66, 66)" stroke-width="1px" opacity="0.25"></line><line x1="256.66666666666663" y1="0" x2="256.66666666666663" y2="177" fill="rgb(0, 0, 0)" stroke="rgb(66, 66, 66)" stroke-width="1px" opacity="0.25"></line><line x1="280" y1="0" x2="280" y2="177" fill="rgb(0, 0, 0)" stroke="rgb(66, 66, 66)" stroke-width="1px" opacity="0.25"></line></g><g><line x1="0" y1="177" x2="280" y2="177" fill="rgb(0, 0, 0)" stroke="rgb(66, 66, 66)" stroke-width="1px" opacity="0.25"></line><line x1="0" y1="164.35714285714283" x2="280" y2="164.35714285714283" fill="rgb(0, 0, 0)" stroke="rgb(66, 66, 66)" stroke-width="1px" opacity="0.25"></line><line x1="0" y1="151.7142857142857" x2="280" y2="151.7142857142857" fill="rgb(0, 0, 0)" stroke="rgb(66, 66, 66)" stroke-width="1px" opacity="0.25"></line><line x1="0" y1="139.07142857142856" x2="280" y2="139.07142857142856" fill="rgb(0, 0, 0)" stroke="rgb(66, 66, 66)" stroke-width="1px" opacity="0.25"></line><line x1="0" y1="126.42857142857142" x2="280" y2="126.42857142857142" fill="rgb(0, 0, 0)" stroke="rgb(66, 66, 66)" stroke-width="1px" opacity="0.25"></line><line x1="0" y1="113.78571428571429" x2="280" y2="113.78571428571429" fill="rgb(0, 0, 0)" stroke="rgb(66, 66, 66)" stroke-width="1px" opacity="0.25"></line><line x1="0" y1="101.14285714285714" x2="280" y2="101.14285714285714" fill="rgb(0, 0, 0)" stroke="rgb(66, 66, 66)" stroke-width="1px" opacity="0.25"></line><line x1="0" y1="88.5" x2="280" y2="88.5" fill="rgb(0, 0, 0)" stroke="rgb(66, 66, 66)" stroke-width="1px" opacity="0.25"></line><line x1="0" y1="75.85714285714286" x2="280" y2="75.85714285714286" fill="rgb(0, 0, 0)" stroke="rgb(66, 66, 66)" stroke-width="1px" opacity="0.25"></line><line x1="0" y1="63.21428571428571" x2="280" y2="63.21428571428571" fill="rgb(0, 0, 0)" stroke="rgb(66, 66, 66)" stroke-width="1px" opacity="0.25"></line><line x1="0" y1="50.57142857142859" x2="280" y2="50.57142857142859" fill="rgb(0, 0, 0)" stroke="rgb(66, 66, 66)" stroke-width="1px" opacity="0.25"></line><line x1="0" y1="37.92857142857143" x2="280" y2="37.92857142857143" fill="rgb(0, 0, 0)" stroke="rgb(66, 66, 66)" stroke-width="1px" opacity="0.25"></line><line x1="0" y1="25.285714285714313" x2="280" y2="25.285714285714313" fill="rgb(0, 0, 0)" stroke="rgb(66, 66, 66)" stroke-width="1px" opacity="0.25"></line><line x1="0" y1="12.642857142857157" x2="280" y2="12.642857142857157" fill="rgb(0, 0, 0)" stroke="rgb(66, 66, 66)" stroke-width="1px" opacity="0.25"></line><line x1="0" y1="0" x2="280" y2="0" fill="rgb(0, 0, 0)" stroke="rgb(66, 66, 66)" stroke-width="1px" opacity="0.25"></line></g></g></g><g><g><line x1="0" y1="265.5" x2="280" y2="265.5" fill="rgb(0, 0, 0)" stroke="rgb(153, 153, 153)" stroke-width="1.5px"></line></g></g><g><g><line x1="23.333333333333332" y1="0" x2="23.333333333333332" y2="177" fill="rgb(0, 0, 0)" stroke="rgb(153, 153, 153)" stroke-width="1.5px"></line></g></g><g><g><g><g><g><path stroke="rgb(187, 187, 187)" stroke-width="2px" d="M23.333333333333332,161.38235161134173L24.5,161.38235161134173L25.666666666666664,159.25750179801668L26.833333333333336,142.25870329141617L28,116.7604979957853L29.166666666666668,106.13624892915999L30.333333333333336,106.13624892915999L31.5,114.63564818246024L32.666666666666664,104.01139911583492L33.833333333333336,112.51079836913517L35,108.26109874248505L36.16666666666667,116.7604979957853L37.333333333333336,110.3859485558101L38.5,112.51079836913517L39.666666666666664,106.13624892915999L40.833333333333336,112.51079836913517L42,108.26109874248505L43.16666666666667,101.88654930250985L44.33333333333333,101.88654930250985L45.5,101.88654930250985L46.666666666666664,101.88654930250985L47.833333333333336,104.01139911583492L49,99.76169948918479L50.166666666666664,97.63684967585972L51.33333333333333,104.01139911583492L52.5,101.88654930250985L53.66666666666667,106.13624892915999L54.833333333333336,106.13624892915999L56,108.26109874248505L57.166666666666664,108.26109874248505L58.333333333333336,110.3859485558101L59.5,110.3859485558101L60.66666666666667,110.3859485558101L61.83333333333333,110.3859485558101L63,108.26109874248505L64.16666666666666,110.3859485558101L65.33333333333333,108.26109874248505L66.5,104.01139911583492L67.66666666666667,106.13624892915999L68.83333333333333,104.01139911583492L70,104.01139911583492L71.16666666666666,101.88654930250985L72.33333333333334,101.88654930250985L73.5,104.01139911583492L74.66666666666667,101.88654930250985L75.83333333333333,97.63684967585972L77,97.63684967585972L78.16666666666667,99.76169948918479L79.33333333333333,95.51199986253465L80.5,91.26230023588454L81.66666666666667,89.13745042255947L82.83333333333333,82.76290098258427L84,78.51320135593414L85.16666666666666,78.51320135593414L86.33333333333334,74.26350172928402L87.5,72.13865191595896L88.66666666666666,74.26350172928402L89.83333333333334,74.26350172928402L91,74.26350172928402L92.16666666666667,74.26350172928402L93.33333333333333,78.51320135593414L94.5,76.38835154260909L95.66666666666667,76.38835154260909L96.83333333333333,78.51320135593414L98,76.38835154260909L99.16666666666667,76.38835154260909L100.33333333333333,76.38835154260909L101.5,74.26350172928402L102.66666666666666,74.26350172928402L103.83333333333334,76.38835154260909L105,80.63805116925921L106.16666666666666,82.76290098258427L107.33333333333334,80.63805116925921L108.5,80.63805116925921L109.66666666666667,80.63805116925921L110.83333333333333,82.76290098258427L112,80.63805116925921L113.16666666666667,78.51320135593414L114.33333333333333,76.38835154260909L115.5,72.13865191595896L116.66666666666667,72.13865191595896L117.83333333333333,70.01380210263389L119,70.01380210263389L120.16666666666666,67.88895228930882L121.33333333333334,72.13865191595896L122.5,74.26350172928402L123.66666666666666,72.13865191595896L124.83333333333334,72.13865191595896L126,74.26350172928402L127.16666666666667,76.38835154260909L128.33333333333331,76.38835154260909L129.5,76.38835154260909L130.66666666666666,72.13865191595896L131.83333333333334,65.76410247598376L133,61.514402849333635L134.16666666666669,63.63925266265869L135.33333333333334,61.514402849333635L136.5,61.514402849333635L137.66666666666666,65.76410247598376L138.83333333333334,65.76410247598376L140,63.63925266265869L141.16666666666666,63.63925266265869L142.33333333333331,65.76410247598376L143.5,65.76410247598376L144.66666666666669,67.88895228930882L145.83333333333334,67.88895228930882L147,65.76410247598376L148.16666666666666,63.63925266265869L149.33333333333334,61.514402849333635L150.5,63.63925266265869L151.66666666666666,61.514402849333635L152.83333333333331,61.514402849333635L154,61.514402849333635L155.16666666666669,59.389553036008564L156.33333333333334,57.264703222683515L157.5,57.264703222683515L158.66666666666666,59.389553036008564L159.83333333333331,59.389553036008564L161,61.514402849333635L162.16666666666669,57.264703222683515L163.33333333333334,61.514402849333635L164.5,59.389553036008564L165.66666666666666,59.389553036008564L166.83333333333334,61.514402849333635L168,59.389553036008564L169.16666666666666,59.389553036008564L170.33333333333331,59.389553036008564L171.5,61.514402849333635L172.66666666666669,61.514402849333635L173.83333333333334,61.514402849333635L175,59.389553036008564L176.16666666666666,61.514402849333635L177.33333333333331,63.63925266265869L178.5,63.63925266265869L179.66666666666669,63.63925266265869L180.83333333333334,61.514402849333635L182,61.514402849333635L183.16666666666666,63.63925266265869L184.33333333333334,63.63925266265869L185.5,63.63925266265869L186.66666666666666,63.63925266265869L187.83333333333331,61.514402849333635L189,59.389553036008564L190.16666666666669,63.63925266265869L191.33333333333334,63.63925266265869L192.5,65.76410247598376L193.66666666666666,65.76410247598376L194.83333333333331,65.76410247598376L196,63.63925266265869L197.16666666666669,61.514402849333635L198.33333333333334,61.514402849333635L199.5,61.514402849333635L200.66666666666666,61.514402849333635L201.83333333333334,61.514402849333635L203,61.514402849333635L204.16666666666666,63.63925266265869L205.33333333333331,63.63925266265869L206.5,63.63925266265869L207.66666666666669,63.63925266265869L208.83333333333334,63.63925266265869L210,65.76410247598376L211.16666666666666,65.76410247598376L212.33333333333331,65.76410247598376L213.5,65.76410247598376L214.66666666666669,65.76410247598376L215.83333333333334,63.63925266265869L217,63.63925266265869L218.16666666666666,61.514402849333635L219.33333333333334,61.514402849333635L220.5,61.514402849333635L221.66666666666666,61.514402849333635L222.83333333333331,63.63925266265869L224,67.88895228930882L225.16666666666669,67.88895228930882L226.33333333333334,67.88895228930882L227.5,65.76410247598376L228.66666666666666,65.76410247598376L229.83333333333331,65.76410247598376L231,65.76410247598376L232.16666666666669,63.63925266265869L233.33333333333334,61.514402849333635L234.5,61.514402849333635L235.66666666666666,61.514402849333635L236.83333333333334,61.514402849333635L238,61.514402849333635L239.16666666666666,61.514402849333635L240.33333333333331,61.514402849333635L241.5,63.63925266265869L242.66666666666669,67.88895228930882L243.83333333333334,65.76410247598376L245,63.63925266265869L246.16666666666666,61.514402849333635L247.33333333333331,59.389553036008564L248.5,59.389553036008564L249.66666666666669,59.389553036008564L250.83333333333334,61.514402849333635L252,63.63925266265869L253.16666666666666,61.514402849333635L254.33333333333334,63.63925266265869L255.5,65.76410247598376" style="fill: none;" fill="none"></path></g><g><path stroke="rgb(0, 153, 136)" stroke-width="2px" d="M23.333333333333332,127.66090142726898L24.5,107.57839173930032L25.666666666666664,92.97292603765214L26.833333333333336,73.80324947834015L28,87.49586697987148L29.166666666666668,74.71609767845699L30.333333333333336,77.45461213588715L31.5,66.50050909178599L32.666666666666664,71.06471994944981L33.833333333333336,64.67482776301249L35,59.197783776692L36.16666666666667,71.06471994944981L37.333333333333336,65.58767596312931L38.5,50.069362061364316L39.666666666666664,56.45925424780165L40.833333333333336,44.59231807504382L42,42.76663674627032L43.16666666666667,40.94095541749682L44.33333333333333,47.33084760393416L45.5,38.202425888606484L46.666666666666664,39.11525901726314L47.833333333333336,40.94095541749682L49,37.28957768848964L50.166666666666664,36.376744559832986L51.33333333333333,39.11525901726314L52.5,40.94095541749682L53.66666666666667,36.376744559832986L54.833333333333336,34.55106323105949L56,29.07400417327881L57.166666666666664,35.463896359716145L58.333333333333336,29.07400417327881L59.5,29.98685237339565L60.66666666666667,29.07400417327881L61.83333333333333,20.85843065806799L63,28.16117104462215L64.16666666666666,28.16117104462215L65.33333333333333,26.335489715848652L66.5,33.638215030942646L67.66666666666667,29.07400417327881L68.83333333333333,32.725366830825806L70,25.42264151573181L71.16666666666666,22.68411198684149L72.33333333333334,30.899685502052307L73.5,27.24832284450531L74.66666666666667,23.596960186958313L75.83333333333333,34.55106323105949L77,20.85843065806799L78.16666666666667,19.945597529411316L79.33333333333333,29.98685237339565L80.5,21.771278858184814L81.66666666666667,24.50979331561499L82.83333333333333,21.771278858184814L84,21.771278858184814L85.16666666666666,19.032749329294493L86.33333333333334,22.68411198684149L87.5,22.68411198684149L88.66666666666666,23.596960186958313L89.83333333333334,20.85843065806799L91,21.771278858184814L92.16666666666667,17.207068000520994L93.33333333333333,19.945597529411316L94.5,23.596960186958313L95.66666666666667,19.032749329294493L96.83333333333333,17.207068000520994L98,19.032749329294493L99.16666666666667,19.032749329294493L100.33333333333333,16.294219800404154L101.5,20.85843065806799L102.66666666666666,19.032749329294493L103.83333333333334,19.032749329294493L105,19.032749329294493L106.16666666666666,20.85843065806799L107.33333333333334,19.032749329294493L108.5,17.207068000520994L109.66666666666667,20.85843065806799L110.83333333333333,16.294219800404154L112,19.945597529411316L113.16666666666667,14.468538471630655L114.33333333333333,18.119901129177652L115.5,16.294219800404154L116.66666666666667,19.945597529411316L117.83333333333333,20.85843065806799L119,16.294219800404154L120.16666666666666,16.294219800404154L121.33333333333334,14.468538471630655L122.5,13.555705342973999L123.66666666666666,14.468538471630655L124.83333333333334,19.945597529411316L126,12.642857142857157L127.16666666666667,13.555705342973999L128.33333333333331,16.294219800404154L129.5,12.642857142857157L130.66666666666666,14.468538471630655L131.83333333333334,15.381386671747498L133,15.381386671747498L134.16666666666669,17.207068000520994L135.33333333333334,19.945597529411316L136.5,16.294219800404154L137.66666666666666,21.771278858184814L138.83333333333334,15.381386671747498L140,13.555705342973999L141.16666666666666,14.468538471630655L142.33333333333331,16.294219800404154L143.5,16.294219800404154L144.66666666666669,12.642857142857157L145.83333333333334,15.381386671747498L147,13.555705342973999L148.16666666666666,17.207068000520994L149.33333333333334,15.381386671747498L150.5,16.294219800404154L151.66666666666666,15.381386671747498L152.83333333333331,14.468538471630655L154,14.468538471630655L155.16666666666669,13.555705342973999L156.33333333333334,16.294219800404154L157.5,15.381386671747498L158.66666666666666,13.555705342973999L159.83333333333331,15.381386671747498L161,17.207068000520994L162.16666666666669,14.468538471630655L163.33333333333334,15.381386671747498L164.5,15.381386671747498L165.66666666666666,16.294219800404154L166.83333333333334,13.555705342973999L168,14.468538471630655L169.16666666666666,14.468538471630655L170.33333333333331,14.468538471630655L171.5,18.119901129177652L172.66666666666669,12.642857142857157L173.83333333333334,15.381386671747498L175,15.381386671747498L176.16666666666666,12.642857142857157L177.33333333333331,16.294219800404154L178.5,14.468538471630655L179.66666666666669,15.381386671747498L180.83333333333334,13.555705342973999L182,14.468538471630655L183.16666666666666,14.468538471630655L184.33333333333334,15.381386671747498L185.5,13.555705342973999L186.66666666666666,17.207068000520994L187.83333333333331,13.555705342973999L189,13.555705342973999L190.16666666666669,13.555705342973999L191.33333333333334,13.555705342973999L192.5,13.555705342973999L193.66666666666666,14.468538471630655L194.83333333333331,13.555705342973999L196,16.294219800404154L197.16666666666669,16.294219800404154L198.33333333333334,12.642857142857157L199.5,13.555705342973999L200.66666666666666,13.555705342973999L201.83333333333334,14.468538471630655L203,12.642857142857157L204.16666666666666,13.555705342973999L205.33333333333331,13.555705342973999L206.5,13.555705342973999L207.66666666666669,14.468538471630655L208.83333333333334,13.555705342973999L210,14.468538471630655L211.16666666666666,12.642857142857157L212.33333333333331,14.468538471630655L213.5,16.294219800404154L214.66666666666669,15.381386671747498L215.83333333333334,13.555705342973999L217,13.555705342973999L218.16666666666666,13.555705342973999L219.33333333333334,14.468538471630655L220.5,13.555705342973999L221.66666666666666,13.555705342973999L222.83333333333331,13.555705342973999L224,13.555705342973999L225.16666666666669,15.381386671747498L226.33333333333334,13.555705342973999L227.5,13.555705342973999L228.66666666666666,12.642857142857157L229.83333333333331,14.468538471630655L231,16.294219800404154L232.16666666666669,13.555705342973999L233.33333333333334,15.381386671747498L234.5,16.294219800404154L235.66666666666666,14.468538471630655L236.83333333333334,14.468538471630655L238,15.381386671747498L239.16666666666666,13.555705342973999L240.33333333333331,13.555705342973999L241.5,15.381386671747498L242.66666666666669,14.468538471630655L243.83333333333334,12.642857142857157L245,14.468538471630655L246.16666666666666,15.381386671747498L247.33333333333331,15.381386671747498L248.5,15.381386671747498L249.66666666666669,15.381386671747498L250.83333333333334,14.468538471630655L252,15.381386671747498L253.16666666666666,13.555705342973999L254.33333333333334,13.555705342973999L255.5,12.642857142857157" style="fill: none;" fill="none"></path></g></g></g></g></g></g><g transform="translate(50, 177)" clip-path="url(#clip_1)"><clipPath id="clip_1"><rect width="280" height="23"></rect></clipPath><g><g><line x1="0" y1="0" x2="0" y2="5" style="visibility: inherit;" fill="rgb(0, 0, 0)" stroke="rgb(204, 204, 204)" stroke-width="1px"></line><line x1="23.333333333333332" y1="0" x2="23.333333333333332" y2="5" style="visibility: inherit;" fill="rgb(0, 0, 0)" stroke="rgb(204, 204, 204)" stroke-width="1px"></line><line x1="46.666666666666664" y1="0" x2="46.666666666666664" y2="5" style="visibility: inherit;" fill="rgb(0, 0, 0)" stroke="rgb(204, 204, 204)" stroke-width="1px"></line><line x1="70" y1="0" x2="70" y2="5" style="visibility: inherit;" fill="rgb(0, 0, 0)" stroke="rgb(204, 204, 204)" stroke-width="1px"></line><line x1="93.33333333333333" y1="0" x2="93.33333333333333" y2="5" style="visibility: inherit;" fill="rgb(0, 0, 0)" stroke="rgb(204, 204, 204)" stroke-width="1px"></line><line x1="116.66666666666667" y1="0" x2="116.66666666666667" y2="5" style="visibility: inherit;" fill="rgb(0, 0, 0)" stroke="rgb(204, 204, 204)" stroke-width="1px"></line><line x1="140" y1="0" x2="140" y2="5" style="visibility: inherit;" fill="rgb(0, 0, 0)" stroke="rgb(204, 204, 204)" stroke-width="1px"></line><line x1="163.33333333333334" y1="0" x2="163.33333333333334" y2="5" style="visibility: inherit;" fill="rgb(0, 0, 0)" stroke="rgb(204, 204, 204)" stroke-width="1px"></line><line x1="186.66666666666666" y1="0" x2="186.66666666666666" y2="5" style="visibility: inherit;" fill="rgb(0, 0, 0)" stroke="rgb(204, 204, 204)" stroke-width="1px"></line><line x1="210" y1="0" x2="210" y2="5" style="visibility: inherit;" fill="rgb(0, 0, 0)" stroke="rgb(204, 204, 204)" stroke-width="1px"></line><line x1="233.33333333333334" y1="0" x2="233.33333333333334" y2="5" style="visibility: inherit;" fill="rgb(0, 0, 0)" stroke="rgb(204, 204, 204)" stroke-width="1px"></line><line x1="256.66666666666663" y1="0" x2="256.66666666666663" y2="5" style="visibility: inherit;" fill="rgb(0, 0, 0)" stroke="rgb(204, 204, 204)" stroke-width="1px"></line><line x1="280" y1="0" x2="280" y2="5" style="visibility: inherit;" fill="rgb(0, 0, 0)" stroke="rgb(204, 204, 204)" stroke-width="1px"></line></g><g transform="translate(0, 8)"><text x="0" y="0" dx="0em" dy="0.95em" style="text-anchor: middle; visibility: hidden; font-family: Roboto, sans-serif; font-size: 12px; font-weight: 200;" fill="rgb(33, 33, 33)" stroke="none" stroke-width="1px">-20</text><text x="23.333333333333332" y="0" dx="0em" dy="0.95em" style="text-anchor: middle; visibility: inherit; font-family: Roboto, sans-serif; font-size: 12px; font-weight: 200;" fill="rgb(33, 33, 33)" stroke="none" stroke-width="1px">0</text><text x="46.666666666666664" y="0" dx="0em" dy="0.95em" style="text-anchor: middle; visibility: hidden; font-family: Roboto, sans-serif; font-size: 12px; font-weight: 200;" fill="rgb(33, 33, 33)" stroke="none" stroke-width="1px">20</text><text x="70" y="0" dx="0em" dy="0.95em" style="text-anchor: middle; visibility: inherit; font-family: Roboto, sans-serif; font-size: 12px; font-weight: 200;" fill="rgb(33, 33, 33)" stroke="none" stroke-width="1px">40</text><text x="93.33333333333333" y="0" dx="0em" dy="0.95em" style="text-anchor: middle; visibility: hidden; font-family: Roboto, sans-serif; font-size: 12px; font-weight: 200;" fill="rgb(33, 33, 33)" stroke="none" stroke-width="1px">60</text><text x="116.66666666666667" y="0" dx="0em" dy="0.95em" style="text-anchor: middle; visibility: inherit; font-family: Roboto, sans-serif; font-size: 12px; font-weight: 200;" fill="rgb(33, 33, 33)" stroke="none" stroke-width="1px">80</text><text x="140" y="0" dx="0em" dy="0.95em" style="text-anchor: middle; visibility: hidden; font-family: Roboto, sans-serif; font-size: 12px; font-weight: 200;" fill="rgb(33, 33, 33)" stroke="none" stroke-width="1px">100</text><text x="163.33333333333334" y="0" dx="0em" dy="0.95em" style="text-anchor: middle; visibility: inherit; font-family: Roboto, sans-serif; font-size: 12px; font-weight: 200;" fill="rgb(33, 33, 33)" stroke="none" stroke-width="1px">120</text><text x="186.66666666666666" y="0" dx="0em" dy="0.95em" style="text-anchor: middle; visibility: hidden; font-family: Roboto, sans-serif; font-size: 12px; font-weight: 200;" fill="rgb(33, 33, 33)" stroke="none" stroke-width="1px">140</text><text x="210" y="0" dx="0em" dy="0.95em" style="text-anchor: middle; visibility: inherit; font-family: Roboto, sans-serif; font-size: 12px; font-weight: 200;" fill="rgb(33, 33, 33)" stroke="none" stroke-width="1px">160</text><text x="233.33333333333334" y="0" dx="0em" dy="0.95em" style="text-anchor: middle; visibility: hidden; font-family: Roboto, sans-serif; font-size: 12px; font-weight: 200;" fill="rgb(33, 33, 33)" stroke="none" stroke-width="1px">180</text><text x="256.66666666666663" y="0" dx="0em" dy="0.95em" style="text-anchor: middle; visibility: inherit; font-family: Roboto, sans-serif; font-size: 12px; font-weight: 200;" fill="rgb(33, 33, 33)" stroke="none" stroke-width="1px">200</text><text x="280" y="0" dx="0em" dy="0.95em" style="text-anchor: middle; visibility: hidden; font-family: Roboto, sans-serif; font-size: 12px; font-weight: 200;" fill="rgb(33, 33, 33)" stroke="none" stroke-width="1px">220</text></g><line x1="0" y1="0" x2="280" y2="0" fill="rgb(0, 0, 0)" stroke="rgb(204, 204, 204)" stroke-width="1px"></line></g></g></g></g></svg>