<svg viewBox="0 0 330 200" xmlns="http://www.w3.org/2000/svg"><g><g><g><g><g><line x1="50" y1="177" x2="45" y2="177" style="visibility: inherit;" fill="rgb(0, 0, 0)" stroke="rgb(204, 204, 204)" stroke-width="1px"></line><line x1="50" y1="162.25" x2="45" y2="162.25" style="visibility: inherit;" fill="rgb(0, 0, 0)" stroke="rgb(204, 204, 204)" stroke-width="1px"></line><line x1="50" y1="147.5" x2="45" y2="147.5" style="visibility: inherit;" fill="rgb(0, 0, 0)" stroke="rgb(204, 204, 204)" stroke-width="1px"></line><line x1="50" y1="132.75000000000003" x2="45" y2="132.75000000000003" style="visibility: inherit;" fill="rgb(0, 0, 0)" stroke="rgb(204, 204, 204)" stroke-width="1px"></line><line x1="50" y1="118.00000000000001" x2="45" y2="118.00000000000001" style="visibility: inherit;" fill="rgb(0, 0, 0)" stroke="rgb(204, 204, 204)" stroke-width="1px"></line><line x1="50" y1="103.25000000000003" x2="45" y2="103.25000000000003" style="visibility: inherit;" fill="rgb(0, 0, 0)" stroke="rgb(204, 204, 204)" stroke-width="1px"></line><line x1="50" y1="88.50000000000001" x2="45" y2="88.50000000000001" style="visibility: inherit;" fill="rgb(0, 0, 0)" stroke="rgb(204, 204, 204)" stroke-width="1px"></line><line x1="50" y1="73.75000000000001" x2="45" y2="73.75000000000001" style="visibility: inherit;" fill="rgb(0, 0, 0)" stroke="rgb(204, 204, 204)" stroke-width="1px"></line><line x1="50" y1="59.00000000000003" x2="45" y2="59.00000000000003" style="visibility: inherit;" fill="rgb(0, 0, 0)" stroke="rgb(204, 204, 204)" stroke-width="1px"></line><line x1="50" y1="44.25000000000002" x2="45" y2="44.25000000000002" style="visibility: inherit;" fill="rgb(0, 0, 0)" stroke="rgb(204, 204, 204)" stroke-width="1px"></line><line x1="50" y1="29.500000000000032" x2="45" y2="29.500000000000032" style="visibility: inherit;" fill="rgb(0, 0, 0)" stroke="rgb(204, 204, 204)" stroke-width="1px"></line><line x1="50" y1="14.750000000000007" x2="45" y2="14.750000000000007" style="visibility: inherit;" fill="rgb(0, 0, 0)" stroke="rgb(204, 204, 204)" stroke-width="1px"></line><line x1="50" y1="0" x2="45" y2="0" style="visibility: inherit;" fill="rgb(0, 0, 0)" stroke="rgb(204, 204, 204)" stroke-width="1px"></line></g><g transform="translate(40, 0)"><text x="0" y="177" dx="0em" dy="0.3em" style="text-anchor: end; visibility: hidden; font-family: Roboto, sans-serif; font-size: 12px; font-weight: 200;" fill="rgb(33, 33, 33)" stroke="none" stroke-width="1px">0.45</text><text x="0" y="162.25" dx="0em" dy="0.3em" style="text-anchor: end; visibility: inherit; font-family: Roboto, sans-serif; font-size: 12px; font-weight: 200;" fill="rgb(33, 33, 33)" stroke="none" stroke-width="1px">0.5</text><text x="0" y="147.5" dx="0em" dy="0.3em" style="text-anchor: end; visibility: hidden; font-family: Roboto, sans-serif; font-size: 12px; font-weight: 200;" fill="rgb(33, 33, 33)" stroke="none" stroke-width="1px">0.55</text><text x="0" y="132.75000000000003" dx="0em" dy="0.3em" style="text-anchor: end; visibility: inherit; font-family: Roboto, sans-serif; font-size: 12px; font-weight: 200;" fill="rgb(33, 33, 33)" stroke="none" stroke-width="1px">0.6</text><text x="0" y="118.00000000000001" dx="0em" dy="0.3em" style="text-anchor: end; visibility: hidden; font-family: Roboto, sans-serif; font-size: 12px; font-weight: 200;" fill="rgb(33, 33, 33)" stroke="none" stroke-width="1px">0.65</text><text x="0" y="103.25000000000003" dx="0em" dy="0.3em" style="text-anchor: end; visibility: inherit; font-family: Roboto, sans-serif; font-size: 12px; font-weight: 200;" fill="rgb(33, 33, 33)" stroke="none" stroke-width="1px">0.7</text><text x="0" y="88.50000000000001" dx="0em" dy="0.3em" style="text-anchor: end; visibility: hidden; font-family: Roboto, sans-serif; font-size: 12px; font-weight: 200;" fill="rgb(33, 33, 33)" stroke="none" stroke-width="1px">0.75</text><text x="0" y="73.75000000000001" dx="0em" dy="0.3em" style="text-anchor: end; visibility: inherit; font-family: Roboto, sans-serif; font-size: 12px; font-weight: 200;" fill="rgb(33, 33, 33)" stroke="none" stroke-width="1px">0.8</text><text x="0" y="59.00000000000003" dx="0em" dy="0.3em" style="text-anchor: end; visibility: hidden; font-family: Roboto, sans-serif; font-size: 12px; font-weight: 200;" fill="rgb(33, 33, 33)" stroke="none" stroke-width="1px">0.85</text><text x="0" y="44.25000000000002" dx="0em" dy="0.3em" style="text-anchor: end; visibility: inherit; font-family: Roboto, sans-serif; font-size: 12px; font-weight: 200;" fill="rgb(33, 33, 33)" stroke="none" stroke-width="1px">0.9</text><text x="0" y="29.500000000000032" dx="0em" dy="0.3em" style="text-anchor: end; visibility: hidden; font-family: Roboto, sans-serif; font-size: 12px; font-weight: 200;" fill="rgb(33, 33, 33)" stroke="none" stroke-width="1px">0.95</text><text x="0" y="14.750000000000007" dx="0em" dy="0.3em" style="text-anchor: end; visibility: inherit; font-family: Roboto, sans-serif; font-size: 12px; font-weight: 200;" fill="rgb(33, 33, 33)" stroke="none" stroke-width="1px">1</text><text x="0" y="0" dx="0em" dy="0.3em" style="text-anchor: end; visibility: hidden; font-family: Roboto, sans-serif; font-size: 12px; font-weight: 200;" fill="rgb(33, 33, 33)" stroke="none" stroke-width="1px">1.05</text></g><line x1="50" y1="0" x2="50" y2="177" fill="rgb(0, 0, 0)" stroke="rgb(204, 204, 204)" stroke-width="1px"></line></g></g><g transform="translate(50, 0)" clip-path="url(#clip_0)"><clipPath id="clip_0"><rect width="280" height="177"></rect></clipPath><g><g><g><line x1="0" y1="0" x2="0" y2="177" fill="rgb(0, 0, 0)" stroke="rgb(66, 66, 66)" stroke-width="1px" opacity="0.25"></line><line x1="23.333333333333332" y1="0" x2="23.333333333333332" y2="177" fill="rgb(0, 0, 0)" stroke="rgb(66, 66, 66)" stroke-width="1px" opacity="0.25"></line><line x1="46.666666666666664" y1="0" x2="46.666666666666664" y2="177" fill="rgb(0, 0, 0)" stroke="rgb(66, 66, 66)" stroke-width="1px" opacity="0.25"></line><line x1="70" y1="0" x2="70" y2="177" fill="rgb(0, 0, 0)" stroke="rgb(66, 66, 66)" stroke-width="1px" opacity="0.25"></line><line x1="93.33333333333333" y1="0" x2="93.33333333333333" y2="177" fill="rgb(0, 0, 0)" stroke="rgb(66, 66, 66)" stroke-width="1px" opacity="0.25"></line><line x1="116.66666666666667" y1="0" x2="116.66666666666667" y2="177" fill="rgb(0, 0, 0)" stroke="rgb(66, 66, 66)" stroke-width="1px" opacity="0.25"></line><line x1="140" y1="0" x2="140" y2="177" fill="rgb(0, 0, 0)" stroke="rgb(66, 66, 66)" stroke-width="1px" opacity="0.25"></line><line x1="163.33333333333334" y1="0" x2="163.33333333333334" y2="177" fill="rgb(0, 0, 0)" stroke="rgb(66, 66, 66)" stroke-width="1px" opacity="0.25"></line><line x1="186.66666666666666" y1="0" x2="186.66666666666666" y2="177" fill="rgb(0, 0, 0)" stroke="rgb(66, 66, 66)" stroke-width="1px" opacity="0.25"></line><line x1="210" y1="0" x2="210" y2="177" fill="rgb(0, 0, 0)" stroke="rgb(66, 66, 66)" stroke-width="1px" opacity="0.25"></line><line x1="233.33333333333334" y1="0" x2="233.33333333333334" y2="177" fill="rgb(0, 0, 0)" stroke="rgb(66, 66, 66)" stroke-width="1px" opacity="0.25"></line><line x1="256.66666666666663" y1="0" x2="256.66666666666663" y2="177" fill="rgb(0, 0, 0)" stroke="rgb(66, 66, 66)" stroke-width="1px" opacity="0.25"></line><line x1="280" y1="0" x2="280" y2="177" fill="rgb(0, 0, 0)" stroke="rgb(66, 66, 66)" stroke-width="1px" opacity="0.25"></line></g><g><line x1="0" y1="177" x2="280" y2="177" fill="rgb(0, 0, 0)" stroke="rgb(66, 66, 66)" stroke-width="1px" opacity="0.25"></line><line x1="0" y1="162.25" x2="280" y2="162.25" fill="rgb(0, 0, 0)" stroke="rgb(66, 66, 66)" stroke-width="1px" opacity="0.25"></line><line x1="0" y1="147.5" x2="280" y2="147.5" fill="rgb(0, 0, 0)" stroke="rgb(66, 66, 66)" stroke-width="1px" opacity="0.25"></line><line x1="0" y1="132.75000000000003" x2="280" y2="132.75000000000003" fill="rgb(0, 0, 0)" stroke="rgb(66, 66, 66)" stroke-width="1px" opacity="0.25"></line><line x1="0" y1="118.00000000000001" x2="280" y2="118.00000000000001" fill="rgb(0, 0, 0)" stroke="rgb(66, 66, 66)" stroke-width="1px" opacity="0.25"></line><line x1="0" y1="103.25000000000003" x2="280" y2="103.25000000000003" fill="rgb(0, 0, 0)" stroke="rgb(66, 66, 66)" stroke-width="1px" opacity="0.25"></line><line x1="0" y1="88.50000000000001" x2="280" y2="88.50000000000001" fill="rgb(0, 0, 0)" stroke="rgb(66, 66, 66)" stroke-width="1px" opacity="0.25"></line><line x1="0" y1="73.75000000000001" x2="280" y2="73.75000000000001" fill="rgb(0, 0, 0)" stroke="rgb(66, 66, 66)" stroke-width="1px" opacity="0.25"></line><line x1="0" y1="59.00000000000003" x2="280" y2="59.00000000000003" fill="rgb(0, 0, 0)" stroke="rgb(66, 66, 66)" stroke-width="1px" opacity="0.25"></line><line x1="0" y1="44.25000000000002" x2="280" y2="44.25000000000002" fill="rgb(0, 0, 0)" stroke="rgb(66, 66, 66)" stroke-width="1px" opacity="0.25"></line><line x1="0" y1="29.500000000000032" x2="280" y2="29.500000000000032" fill="rgb(0, 0, 0)" stroke="rgb(66, 66, 66)" stroke-width="1px" opacity="0.25"></line><line x1="0" y1="14.750000000000007" x2="280" y2="14.750000000000007" fill="rgb(0, 0, 0)" stroke="rgb(66, 66, 66)" stroke-width="1px" opacity="0.25"></line><line x1="0" y1="0" x2="280" y2="0" fill="rgb(0, 0, 0)" stroke="rgb(66, 66, 66)" stroke-width="1px" opacity="0.25"></line></g></g></g><g><g><line x1="0" y1="309.75" x2="280" y2="309.75" fill="rgb(0, 0, 0)" stroke="rgb(153, 153, 153)" stroke-width="1.5px"></line></g></g><g><g><line x1="23.333333333333332" y1="0" x2="23.333333333333332" y2="177" fill="rgb(0, 0, 0)" stroke="rgb(153, 153, 153)" stroke-width="1.5px"></line></g></g><g><g><g><g><g><path stroke="rgb(0, 119, 187)" stroke-width="2px" d="M23.333333333333332,133.7415895462036L24.5,134.98109406232834L25.666666666666664,133.7415895462036L26.833333333333336,131.26259809732437L28,138.6995724439621L29.166666666666668,149.8550427556038L30.333333333333336,161.01049548387527L31.5,167.20798289775848L32.666666666666664,167.20798289775848L33.833333333333336,167.20798289775848L35,167.20798289775848L36.16666666666667,164.72899144887924L37.333333333333336,164.72899144887924L38.5,164.72899144887924L39.666666666666664,164.72899144887924L40.833333333333336,162.25L42,162.25L43.16666666666667,159.77100855112076L44.33333333333333,158.53150403499603L45.5,158.53150403499603L46.666666666666664,157.29201710224152L47.833333333333336,154.81302565336227L49,154.81302565336227L50.166666666666664,143.65755534172058L51.33333333333333,139.93907696008682L52.5,141.17856389284134L53.66666666666667,139.93907696008682L54.833333333333336,137.46008551120758L56,121.34663230180743L57.166666666666664,99.03570926189425L58.333333333333336,86.64075201749804L59.5,77.96429073810579L60.66666666666667,75.48529928922655L61.83333333333333,75.48529928922655L63,74.24579477310184L64.16666666666666,70.52731639146806L65.33333333333333,68.04832494258882L66.5,63.09034204483034L67.66666666666667,64.32982897758487L68.83333333333333,60.611350595951095L70,64.32982897758487L71.16666666666666,64.32982897758487L72.33333333333334,65.56933349370958L73.5,66.80882042646411L74.66666666666667,68.04832494258882L75.83333333333333,64.32982897758487L77,65.56933349370958L78.16666666666667,68.04832494258882L79.33333333333333,65.56933349370958L80.5,68.04832494258882L81.66666666666667,65.56933349370958L82.83333333333333,66.80882042646411L84,65.56933349370958L85.16666666666666,64.32982897758487L86.33333333333334,64.32982897758487L87.5,63.09034204483034L88.66666666666666,61.850837528705625L89.83333333333334,61.850837528705625L91,60.611350595951095L92.16666666666667,61.850837528705625L93.33333333333333,61.850837528705625L94.5,61.850837528705625L95.66666666666667,63.09034204483034L96.83333333333333,63.09034204483034L98,63.09034204483034L99.16666666666667,61.850837528705625L100.33333333333333,61.850837528705625L101.5,61.850837528705625L102.66666666666666,64.32982897758487L103.83333333333334,59.37184607982638L105,60.611350595951095L106.16666666666666,61.850837528705625L107.33333333333334,61.850837528705625L108.5,60.611350595951095L109.66666666666667,60.611350595951095L110.83333333333333,61.850837528705625L112,60.611350595951095L113.16666666666667,64.32982897758487L114.33333333333333,60.611350595951095L115.5,63.09034204483034L116.66666666666667,61.850837528705625L117.83333333333333,60.611350595951095L119,63.09034204483034L120.16666666666666,61.850837528705625L121.33333333333334,61.850837528705625L122.5,61.850837528705625L123.66666666666666,63.09034204483034L124.83333333333334,60.611350595951095L126,60.611350595951095L127.16666666666667,60.611350595951095L128.33333333333331,59.37184607982638L129.5,60.611350595951095L130.66666666666666,60.611350595951095L131.83333333333334,60.611350595951095L133,61.850837528705625L134.16666666666669,61.850837528705625L135.33333333333334,60.611350595951095L136.5,61.850837528705625L137.66666666666666,60.611350595951095L138.83333333333334,60.611350595951095L140,60.611350595951095L141.16666666666666,61.850837528705625L142.33333333333331,60.611350595951095L143.5,61.850837528705625L144.66666666666669,61.850837528705625L145.83333333333334,61.850837528705625L147,61.850837528705625L148.16666666666666,63.09034204483034L149.33333333333334,61.850837528705625L150.5,63.09034204483034L151.66666666666666,63.09034204483034L152.83333333333331,61.850837528705625L154,59.37184607982638L155.16666666666669,61.850837528705625L156.33333333333334,63.09034204483034L157.5,63.09034204483034L158.66666666666666,64.32982897758487L159.83333333333331,63.09034204483034L161,59.37184607982638L162.16666666666669,59.37184607982638L163.33333333333334,60.611350595951095L164.5,64.32982897758487L165.66666666666666,64.32982897758487L166.83333333333334,63.09034204483034L168,63.09034204483034L169.16666666666666,60.611350595951095L170.33333333333331,60.611350595951095L171.5,60.611350595951095L172.66666666666669,61.850837528705625L173.83333333333334,60.611350595951095L175,61.850837528705625L176.16666666666666,63.09034204483034L177.33333333333331,63.09034204483034L178.5,63.09034204483034L179.66666666666669,63.09034204483034L180.83333333333334,61.850837528705625L182,63.09034204483034L183.16666666666666,61.850837528705625L184.33333333333334,61.850837528705625L185.5,63.09034204483034L186.66666666666666,63.09034204483034L187.83333333333331,64.32982897758487L189,64.32982897758487L190.16666666666669,60.611350595951095L191.33333333333334,60.611350595951095L192.5,60.611350595951095L193.66666666666666,60.611350595951095L194.83333333333331,61.850837528705625L196,65.56933349370958L197.16666666666669,65.56933349370958L198.33333333333334,65.56933349370958L199.5,65.56933349370958L200.66666666666666,66.80882042646411L201.83333333333334,64.32982897758487L203,64.32982897758487L204.16666666666666,64.32982897758487L205.33333333333331,64.32982897758487L206.5,58.13235914707185L207.66666666666669,60.611350595951095L208.83333333333334,60.611350595951095L210,60.611350595951095L211.16666666666666,60.611350595951095L212.33333333333331,59.37184607982638L213.5,59.37184607982638L214.66666666666669,61.850837528705625L215.83333333333334,60.611350595951095L217,61.850837528705625L218.16666666666666,60.611350595951095L219.33333333333334,63.09034204483034L220.5,61.850837528705625L221.66666666666666,64.32982897758487L222.83333333333331,63.09034204483034L224,63.09034204483034L225.16666666666669,59.37184607982638L226.33333333333334,63.09034204483034L227.5,68.04832494258882L228.66666666666666,63.09034204483034L229.83333333333331,63.09034204483034L231,61.850837528705625L232.16666666666669,59.37184607982638L233.33333333333334,60.611350595951095L234.5,61.850837528705625L235.66666666666666,61.850837528705625L236.83333333333334,64.32982897758487L238,61.850837528705625L239.16666666666666,63.09034204483034L240.33333333333331,63.09034204483034L241.5,64.32982897758487L242.66666666666669,63.09034204483034L243.83333333333334,63.09034204483034L245,63.09034204483034L246.16666666666666,63.09034204483034L247.33333333333331,64.32982897758487L248.5,65.56933349370958L249.66666666666669,64.32982897758487L250.83333333333334,61.850837528705625L252,64.32982897758487L253.16666666666666,66.80882042646411L254.33333333333334,61.850837528705625L255.5,61.850837528705625" style="fill: none;" fill="none"></path></g><g><path stroke="rgb(255, 112, 67)" stroke-width="2px" d="M23.333333333333332,148.40524113178253L24.5,116.4557827115059L25.666666666666664,105.27346259355548L26.833333333333336,104.20849061012271L28,87.70125782489778L29.166666666666668,81.84386795759204L30.333333333333336,79.1814116239548L31.5,77.05145007371904L32.666666666666664,60.011740088462844L33.833333333333336,70.66154783964159L35,61.076712071895614L36.16666666666667,60.54421728849414L37.333333333333336,53.0893430709839L38.5,54.68682742118837L39.666666666666664,40.842050969600706L40.833333333333336,40.30957376956943L42,43.50450730323794L43.16666666666667,41.90704053640368L44.33333333333333,34.98466110229496L45.5,40.842050969600706L46.666666666666664,43.50450730323794L47.833333333333336,39.24458420276644L49,34.98466110229496L50.166666666666664,37.647117435932195L51.33333333333333,36.5821278691292L52.5,32.32220476865772L53.66666666666667,29.65974843502048L54.833333333333336,26.997292101383223L56,27.5297868847847L57.166666666666664,29.65974843502048L58.333333333333336,28.062281668186195L59.5,28.062281668186195L60.66666666666667,28.59475886821747L61.83333333333333,25.93230253458023L63,26.464797317981727L64.16666666666666,26.997292101383223L65.33333333333333,22.73736900091172L66.5,22.73736900091172L67.66666666666667,22.73736900091172L68.83333333333333,20.60740745067598L70,25.399825334548957L71.16666666666666,22.73736900091172L72.33333333333334,22.204874217510223L73.5,23.80234098434449L74.66666666666667,22.73736900091172L75.83333333333333,21.139884650707252L77,23.269863784313216L78.16666666666667,23.269863784313216L79.33333333333333,21.67237943410875L80.5,19.00992310047151L81.66666666666667,21.67237943410875L82.83333333333333,22.73736900091172L84,22.204874217510223L85.16666666666666,19.00992310047151L86.33333333333334,18.477428317070014L87.5,19.542417883873007L88.66666666666666,17.412456333637245L89.83333333333334,19.00992310047151L91,16.87996155023577L92.16666666666667,19.542417883873007L93.33333333333333,20.074912667274482L94.5,21.139884650707252L95.66666666666667,18.477428317070014L96.83333333333333,20.60740745067598L98,17.412456333637245L99.16666666666667,17.94495111703874L100.33333333333333,20.074912667274482L101.5,17.412456333637245L102.66666666666666,19.542417883873007L103.83333333333334,19.00992310047151L105,19.00992310047151L106.16666666666666,16.347466766834273L107.33333333333334,17.94495111703874L108.5,17.94495111703874L109.66666666666667,16.87996155023577L110.83333333333333,16.347466766834273L112,17.94495111703874L113.16666666666667,18.477428317070014L114.33333333333333,17.412456333637245L115.5,15.814989566802998L116.66666666666667,14.750000000000007L117.83333333333333,17.94495111703874L119,16.87996155023577L120.16666666666666,15.814989566802998L121.33333333333334,15.282494783401502L122.5,17.94495111703874L123.66666666666666,15.814989566802998L124.83333333333334,14.750000000000007L126,18.477428317070014L127.16666666666667,17.412456333637245L128.33333333333331,16.87996155023577L129.5,16.347466766834273L130.66666666666666,15.814989566802998L131.83333333333334,15.814989566802998L133,17.412456333637245L134.16666666666669,15.814989566802998L135.33333333333334,16.87996155023577L136.5,17.412456333637245L137.66666666666666,16.347466766834273L138.83333333333334,16.87996155023577L140,14.750000000000007L141.16666666666666,16.87996155023577L142.33333333333331,15.814989566802998L143.5,15.814989566802998L144.66666666666669,17.412456333637245L145.83333333333334,15.814989566802998L147,15.814989566802998L148.16666666666666,16.347466766834273L149.33333333333334,17.94495111703874L150.5,16.347466766834273L151.66666666666666,16.87996155023577L152.83333333333331,14.750000000000007L154,17.412456333637245L155.16666666666669,15.814989566802998L156.33333333333334,16.347466766834273L157.5,14.750000000000007L158.66666666666666,15.814989566802998L159.83333333333331,14.750000000000007L161,16.347466766834273L162.16666666666669,14.750000000000007L163.33333333333334,15.814989566802998L164.5,16.87996155023577L165.66666666666666,17.412456333637245L166.83333333333334,15.814989566802998L168,15.814989566802998L169.16666666666666,15.282494783401502L170.33333333333331,15.282494783401502L171.5,15.814989566802998L172.66666666666669,16.347466766834273L173.83333333333334,15.814989566802998L175,14.750000000000007L176.16666666666666,16.347466766834273L177.33333333333331,15.282494783401502L178.5,15.282494783401502L179.66666666666669,15.282494783401502L180.83333333333334,15.282494783401502L182,18.477428317070014L183.16666666666666,15.814989566802998L184.33333333333334,16.347466766834273L185.5,16.347466766834273L186.66666666666666,14.750000000000007L187.83333333333331,15.282494783401502L189,15.282494783401502L190.16666666666669,16.347466766834273L191.33333333333334,15.814989566802998L192.5,16.87996155023577L193.66666666666666,15.282494783401502L194.83333333333331,16.87996155023577L196,14.750000000000007L197.16666666666669,16.347466766834273L198.33333333333334,16.347466766834273L199.5,16.87996155023577L200.66666666666666,16.347466766834273L201.83333333333334,16.347466766834273L203,15.282494783401502L204.16666666666666,15.282494783401502L205.33333333333331,15.814989566802998L206.5,15.814989566802998L207.66666666666669,15.814989566802998L208.83333333333334,14.750000000000007L210,15.814989566802998L211.16666666666666,17.94495111703874L212.33333333333331,14.750000000000007L213.5,15.282494783401502L214.66666666666669,15.814989566802998L215.83333333333334,14.750000000000007L217,16.347466766834273L218.16666666666666,15.814989566802998L219.33333333333334,14.750000000000007L220.5,15.814989566802998L221.66666666666666,14.750000000000007L222.83333333333331,14.750000000000007L224,15.282494783401502L225.16666666666669,16.347466766834273L226.33333333333334,15.814989566802998L227.5,15.282494783401502L228.66666666666666,16.347466766834273L229.83333333333331,16.347466766834273L231,16.87996155023577L232.16666666666669,17.412456333637245L233.33333333333334,15.814989566802998L234.5,15.282494783401502L235.66666666666666,15.282494783401502L236.83333333333334,14.750000000000007L238,15.282494783401502L239.16666666666666,15.282494783401502L240.33333333333331,16.347466766834273L241.5,15.814989566802998L242.66666666666669,15.814989566802998L243.83333333333334,15.814989566802998L245,16.347466766834273L246.16666666666666,15.282494783401502L247.33333333333331,15.282494783401502L248.5,15.282494783401502L249.66666666666669,16.347466766834273L250.83333333333334,15.282494783401502L252,14.750000000000007L253.16666666666666,15.282494783401502L254.33333333333334,16.347466766834273L255.5,15.282494783401502" style="fill: none;" fill="none"></path></g></g></g></g></g></g><g transform="translate(50, 177)" clip-path="url(#clip_1)"><clipPath id="clip_1"><rect width="280" height="23"></rect></clipPath><g><g><line x1="0" y1="0" x2="0" y2="5" style="visibility: inherit;" fill="rgb(0, 0, 0)" stroke="rgb(204, 204, 204)" stroke-width="1px"></line><line x1="23.333333333333332" y1="0" x2="23.333333333333332" y2="5" style="visibility: inherit;" fill="rgb(0, 0, 0)" stroke="rgb(204, 204, 204)" stroke-width="1px"></line><line x1="46.666666666666664" y1="0" x2="46.666666666666664" y2="5" style="visibility: inherit;" fill="rgb(0, 0, 0)" stroke="rgb(204, 204, 204)" stroke-width="1px"></line><line x1="70" y1="0" x2="70" y2="5" style="visibility: inherit;" fill="rgb(0, 0, 0)" stroke="rgb(204, 204, 204)" stroke-width="1px"></line><line x1="93.33333333333333" y1="0" x2="93.33333333333333" y2="5" style="visibility: inherit;" fill="rgb(0, 0, 0)" stroke="rgb(204, 204, 204)" stroke-width="1px"></line><line x1="116.66666666666667" y1="0" x2="116.66666666666667" y2="5" style="visibility: inherit;" fill="rgb(0, 0, 0)" stroke="rgb(204, 204, 204)" stroke-width="1px"></line><line x1="140" y1="0" x2="140" y2="5" style="visibility: inherit;" fill="rgb(0, 0, 0)" stroke="rgb(204, 204, 204)" stroke-width="1px"></line><line x1="163.33333333333334" y1="0" x2="163.33333333333334" y2="5" style="visibility: inherit;" fill="rgb(0, 0, 0)" stroke="rgb(204, 204, 204)" stroke-width="1px"></line><line x1="186.66666666666666" y1="0" x2="186.66666666666666" y2="5" style="visibility: inherit;" fill="rgb(0, 0, 0)" stroke="rgb(204, 204, 204)" stroke-width="1px"></line><line x1="210" y1="0" x2="210" y2="5" style="visibility: inherit;" fill="rgb(0, 0, 0)" stroke="rgb(204, 204, 204)" stroke-width="1px"></line><line x1="233.33333333333334" y1="0" x2="233.33333333333334" y2="5" style="visibility: inherit;" fill="rgb(0, 0, 0)" stroke="rgb(204, 204, 204)" stroke-width="1px"></line><line x1="256.66666666666663" y1="0" x2="256.66666666666663" y2="5" style="visibility: inherit;" fill="rgb(0, 0, 0)" stroke="rgb(204, 204, 204)" stroke-width="1px"></line><line x1="280" y1="0" x2="280" y2="5" style="visibility: inherit;" fill="rgb(0, 0, 0)" stroke="rgb(204, 204, 204)" stroke-width="1px"></line></g><g transform="translate(0, 8)"><text x="0" y="0" dx="0em" dy="0.95em" style="text-anchor: middle; visibility: hidden; font-family: Roboto, sans-serif; font-size: 12px; font-weight: 200;" fill="rgb(33, 33, 33)" stroke="none" stroke-width="1px">-20</text><text x="23.333333333333332" y="0" dx="0em" dy="0.95em" style="text-anchor: middle; visibility: inherit; font-family: Roboto, sans-serif; font-size: 12px; font-weight: 200;" fill="rgb(33, 33, 33)" stroke="none" stroke-width="1px">0</text><text x="46.666666666666664" y="0" dx="0em" dy="0.95em" style="text-anchor: middle; visibility: hidden; font-family: Roboto, sans-serif; font-size: 12px; font-weight: 200;" fill="rgb(33, 33, 33)" stroke="none" stroke-width="1px">20</text><text x="70" y="0" dx="0em" dy="0.95em" style="text-anchor: middle; visibility: inherit; font-family: Roboto, sans-serif; font-size: 12px; font-weight: 200;" fill="rgb(33, 33, 33)" stroke="none" stroke-width="1px">40</text><text x="93.33333333333333" y="0" dx="0em" dy="0.95em" style="text-anchor: middle; visibility: hidden; font-family: Roboto, sans-serif; font-size: 12px; font-weight: 200;" fill="rgb(33, 33, 33)" stroke="none" stroke-width="1px">60</text><text x="116.66666666666667" y="0" dx="0em" dy="0.95em" style="text-anchor: middle; visibility: inherit; font-family: Roboto, sans-serif; font-size: 12px; font-weight: 200;" fill="rgb(33, 33, 33)" stroke="none" stroke-width="1px">80</text><text x="140" y="0" dx="0em" dy="0.95em" style="text-anchor: middle; visibility: hidden; font-family: Roboto, sans-serif; font-size: 12px; font-weight: 200;" fill="rgb(33, 33, 33)" stroke="none" stroke-width="1px">100</text><text x="163.33333333333334" y="0" dx="0em" dy="0.95em" style="text-anchor: middle; visibility: inherit; font-family: Roboto, sans-serif; font-size: 12px; font-weight: 200;" fill="rgb(33, 33, 33)" stroke="none" stroke-width="1px">120</text><text x="186.66666666666666" y="0" dx="0em" dy="0.95em" style="text-anchor: middle; visibility: hidden; font-family: Roboto, sans-serif; font-size: 12px; font-weight: 200;" fill="rgb(33, 33, 33)" stroke="none" stroke-width="1px">140</text><text x="210" y="0" dx="0em" dy="0.95em" style="text-anchor: middle; visibility: inherit; font-family: Roboto, sans-serif; font-size: 12px; font-weight: 200;" fill="rgb(33, 33, 33)" stroke="none" stroke-width="1px">160</text><text x="233.33333333333334" y="0" dx="0em" dy="0.95em" style="text-anchor: middle; visibility: hidden; font-family: Roboto, sans-serif; font-size: 12px; font-weight: 200;" fill="rgb(33, 33, 33)" stroke="none" stroke-width="1px">180</text><text x="256.66666666666663" y="0" dx="0em" dy="0.95em" style="text-anchor: middle; visibility: inherit; font-family: Roboto, sans-serif; font-size: 12px; font-weight: 200;" fill="rgb(33, 33, 33)" stroke="none" stroke-width="1px">200</text><text x="280" y="0" dx="0em" dy="0.95em" style="text-anchor: middle; visibility: hidden; font-family: Roboto, sans-serif; font-size: 12px; font-weight: 200;" fill="rgb(33, 33, 33)" stroke="none" stroke-width="1px">220</text></g><line x1="0" y1="0" x2="280" y2="0" fill="rgb(0, 0, 0)" stroke="rgb(204, 204, 204)" stroke-width="1px"></line></g></g></g></g></svg>