<svg viewBox="0 0 330 200" xmlns="http://www.w3.org/2000/svg"><g><g><g><g><g><line x1="50" y1="169.56319907630743" x2="45" y2="169.56319907630743" style="visibility: inherit;" fill="rgb(0, 0, 0)" stroke="rgb(204, 204, 204)" stroke-width="1px"></line><line x1="50" y1="141.6171748812725" x2="45" y2="141.6171748812725" style="visibility: inherit;" fill="rgb(0, 0, 0)" stroke="rgb(204, 204, 204)" stroke-width="1px"></line><line x1="50" y1="113.67115068623757" x2="45" y2="113.67115068623757" style="visibility: inherit;" fill="rgb(0, 0, 0)" stroke="rgb(204, 204, 204)" stroke-width="1px"></line><line x1="50" y1="85.72512649120269" x2="45" y2="85.72512649120269" style="visibility: inherit;" fill="rgb(0, 0, 0)" stroke="rgb(204, 204, 204)" stroke-width="1px"></line><line x1="50" y1="57.77910229616775" x2="45" y2="57.77910229616775" style="visibility: inherit;" fill="rgb(0, 0, 0)" stroke="rgb(204, 204, 204)" stroke-width="1px"></line><line x1="50" y1="29.833078101132873" x2="45" y2="29.833078101132873" style="visibility: inherit;" fill="rgb(0, 0, 0)" stroke="rgb(204, 204, 204)" stroke-width="1px"></line><line x1="50" y1="1.8870539060979368" x2="45" y2="1.8870539060979368" style="visibility: inherit;" fill="rgb(0, 0, 0)" stroke="rgb(204, 204, 204)" stroke-width="1px"></line></g><g transform="translate(40, 0)"><text x="0" y="169.56319907630743" dx="0em" dy="0.3em" style="text-anchor: end; visibility: inherit; font-family: Roboto, sans-serif; font-size: 12px; font-weight: 200;" fill="rgb(33, 33, 33)" stroke="none" stroke-width="1px">0.7</text><text x="0" y="141.6171748812725" dx="0em" dy="0.3em" style="text-anchor: end; visibility: inherit; font-family: Roboto, sans-serif; font-size: 12px; font-weight: 200;" fill="rgb(33, 33, 33)" stroke="none" stroke-width="1px">0.75</text><text x="0" y="113.67115068623757" dx="0em" dy="0.3em" style="text-anchor: end; visibility: inherit; font-family: Roboto, sans-serif; font-size: 12px; font-weight: 200;" fill="rgb(33, 33, 33)" stroke="none" stroke-width="1px">0.8</text><text x="0" y="85.72512649120269" dx="0em" dy="0.3em" style="text-anchor: end; visibility: inherit; font-family: Roboto, sans-serif; font-size: 12px; font-weight: 200;" fill="rgb(33, 33, 33)" stroke="none" stroke-width="1px">0.85</text><text x="0" y="57.77910229616775" dx="0em" dy="0.3em" style="text-anchor: end; visibility: inherit; font-family: Roboto, sans-serif; font-size: 12px; font-weight: 200;" fill="rgb(33, 33, 33)" stroke="none" stroke-width="1px">0.9</text><text x="0" y="29.833078101132873" dx="0em" dy="0.3em" style="text-anchor: end; visibility: inherit; font-family: Roboto, sans-serif; font-size: 12px; font-weight: 200;" fill="rgb(33, 33, 33)" stroke="none" stroke-width="1px">0.95</text><text x="0" y="1.8870539060979368" dx="0em" dy="0.3em" style="text-anchor: end; visibility: hidden; font-family: Roboto, sans-serif; font-size: 12px; font-weight: 200;" fill="rgb(33, 33, 33)" stroke="none" stroke-width="1px">1</text></g><line x1="50" y1="0" x2="50" y2="177" fill="rgb(0, 0, 0)" stroke="rgb(204, 204, 204)" stroke-width="1px"></line></g></g><g transform="translate(50, 0)" clip-path="url(#clip_0)"><clipPath id="clip_0"><rect width="280" height="177"></rect></clipPath><g><g><g><line x1="23.533577056372796" y1="0" x2="23.533577056372796" y2="177" fill="rgb(0, 0, 0)" stroke="rgb(66, 66, 66)" stroke-width="1px" opacity="0.25"></line><line x1="47.11139031320121" y1="0" x2="47.11139031320121" y2="177" fill="rgb(0, 0, 0)" stroke="rgb(66, 66, 66)" stroke-width="1px" opacity="0.25"></line><line x1="70.68920357002963" y1="0" x2="70.68920357002963" y2="177" fill="rgb(0, 0, 0)" stroke="rgb(66, 66, 66)" stroke-width="1px" opacity="0.25"></line><line x1="94.26701682685805" y1="0" x2="94.26701682685805" y2="177" fill="rgb(0, 0, 0)" stroke="rgb(66, 66, 66)" stroke-width="1px" opacity="0.25"></line><line x1="117.84483008368646" y1="0" x2="117.84483008368646" y2="177" fill="rgb(0, 0, 0)" stroke="rgb(66, 66, 66)" stroke-width="1px" opacity="0.25"></line><line x1="141.4226433405149" y1="0" x2="141.4226433405149" y2="177" fill="rgb(0, 0, 0)" stroke="rgb(66, 66, 66)" stroke-width="1px" opacity="0.25"></line><line x1="165.00045659734332" y1="0" x2="165.00045659734332" y2="177" fill="rgb(0, 0, 0)" stroke="rgb(66, 66, 66)" stroke-width="1px" opacity="0.25"></line><line x1="188.57826985417174" y1="0" x2="188.57826985417174" y2="177" fill="rgb(0, 0, 0)" stroke="rgb(66, 66, 66)" stroke-width="1px" opacity="0.25"></line><line x1="212.15608311100013" y1="0" x2="212.15608311100013" y2="177" fill="rgb(0, 0, 0)" stroke="rgb(66, 66, 66)" stroke-width="1px" opacity="0.25"></line><line x1="235.73389636782858" y1="0" x2="235.73389636782858" y2="177" fill="rgb(0, 0, 0)" stroke="rgb(66, 66, 66)" stroke-width="1px" opacity="0.25"></line><line x1="259.311709624657" y1="0" x2="259.311709624657" y2="177" fill="rgb(0, 0, 0)" stroke="rgb(66, 66, 66)" stroke-width="1px" opacity="0.25"></line></g><g><line x1="0" y1="169.56319907630743" x2="280" y2="169.56319907630743" fill="rgb(0, 0, 0)" stroke="rgb(66, 66, 66)" stroke-width="1px" opacity="0.25"></line><line x1="0" y1="141.6171748812725" x2="280" y2="141.6171748812725" fill="rgb(0, 0, 0)" stroke="rgb(66, 66, 66)" stroke-width="1px" opacity="0.25"></line><line x1="0" y1="113.67115068623757" x2="280" y2="113.67115068623757" fill="rgb(0, 0, 0)" stroke="rgb(66, 66, 66)" stroke-width="1px" opacity="0.25"></line><line x1="0" y1="85.72512649120269" x2="280" y2="85.72512649120269" fill="rgb(0, 0, 0)" stroke="rgb(66, 66, 66)" stroke-width="1px" opacity="0.25"></line><line x1="0" y1="57.77910229616775" x2="280" y2="57.77910229616775" fill="rgb(0, 0, 0)" stroke="rgb(66, 66, 66)" stroke-width="1px" opacity="0.25"></line><line x1="0" y1="29.833078101132873" x2="280" y2="29.833078101132873" fill="rgb(0, 0, 0)" stroke="rgb(66, 66, 66)" stroke-width="1px" opacity="0.25"></line><line x1="0" y1="1.8870539060979368" x2="280" y2="1.8870539060979368" fill="rgb(0, 0, 0)" stroke="rgb(66, 66, 66)" stroke-width="1px" opacity="0.25"></line></g></g></g><g><g><line x1="0" y1="560.8075378067962" x2="280" y2="560.8075378067962" fill="rgb(0, 0, 0)" stroke="rgb(153, 153, 153)" stroke-width="1.5px"></line></g></g><g><g><line x1="23.533577056372796" y1="0" x2="23.533577056372796" y2="177" fill="rgb(0, 0, 0)" stroke="rgb(153, 153, 153)" stroke-width="1.5px"></line></g></g><g><g><g><g><g><path stroke="rgb(0, 119, 187)" stroke-width="2px" d="M23.533577056372796,205.9561996912174L28.24913970773848,170.55905245174532L32.96470235910416,145.66763314091816L37.680265010469846,126.10163613225703L42.39582766183553,109.73206203557602L47.11139031320121,98.93905658857769L51.8269529645669,87.27066477429464L56.54251561593259,78.46340976860826L61.258078267298266,71.7481520465989L65.97364091866395,63.445215687645465L70.68920357002963,56.93330375774933L75.40476622139532,50.910800644497364L80.120328872761,48.002800157753384L84.83589152412668,43.6051936615835L89.55145417549235,38.124898805802324L94.26701682685805,35.9775322760615L98.98257947822373,31.717039743520306L103.69814212958943,29.864884663346036L108.4137047809551,29.50893852873604L113.12926743232079,26.5126333225381L117.84483008368646,25.5254707675955L122.56039273505216,24.2760209554816L127.27595538641783,23.20194836240482L131.99151803778352,22.466510426327567L136.7070806891492,21.13908844403316L141.4226433405149,20.0074905663857L146.13820599188057,20.279770807943752L150.85376864324627,21.267199190118387L155.56933129461197,21.834375409149143L160.28489394597761,19.99304513077952L165.00045659734332,19.114102948137905L169.71601924870902,17.47148498695844L174.43158190007466,16.475833634083628L179.14714455144036,15.587550030396839L183.86270720280606,15.093052343370308L188.57826985417174,14.36260883876556L193.2938325055374,14.771434275154045L198.0093951569031,15.071510121389716L202.72495780826878,17.811661670927684L207.44052045963448,17.670515439149437" style="fill: none;" fill="none"></path></g><g><path stroke="rgb(0, 153, 136)" stroke-width="2px" d="M23.533577056372796,185.0361456136657L28.24913970773848,145.08631890435194L32.96470235910416,117.24835414052448L37.680265010469846,96.86857437577046L42.39582766183553,81.24089877435156L47.11139031320121,69.10140232418375L51.8269529645669,59.46031495963732L56.54251561593259,50.648049639612026L61.258078267298266,42.53037469923084L65.97364091866395,37.80443802676901L70.68920357002963,32.971671709645875L75.40476622139532,28.585716415693554L80.120328872761,25.14951322715786L84.83589152412668,22.177386947285264L89.55145417549235,19.483978926206404L94.26701682685805,17.677739927096518L98.98257947822373,16.83285291954393L103.69814212958943,16.8471328767231L108.4137047809551,15.69939800299406L113.12926743232079,14.227178420889093L117.84483008368646,12.6747724250558L122.56039273505216,11.168500718871787L127.27595538641783,11.009395483120928L131.99151803778352,10.945199550047965L136.7070806891492,11.475825561873359L141.4226433405149,11.550110777122308L146.13820599188057,11.079522454295525L150.85376864324627,10.57664640366135L155.56933129461197,9.89255021301449L160.28489394597761,9.547966761434967L165.00045659734332,8.822551420604805L169.71601924870902,8.762616851953169L174.43158190007466,8.088632374918959L179.14714455144036,8.381428320122918L183.86270720280606,7.913856608672675L188.57826985417174,7.255673363395957L193.2938325055374,7.7175373427227L198.0093951569031,7.584057114197176L202.72495780826878,7.9585682240106035L207.44052045963448,8.390947267137477" style="fill: none;" fill="none"></path></g><g><path stroke="rgb(204, 51, 17)" stroke-width="2px" d="M23.533577056372796,159.57682414786706L28.24913970773848,127.36658711955765L32.96470235910416,105.58847158039036L37.680265010469846,90.61416543135475L42.39582766183553,79.36870077799742L47.11139031320121,69.93529324428853L51.8269529645669,62.3565049809962L56.54251561593259,55.34002928153339L61.258078267298266,50.08886241230157L65.97364091866395,44.136672052642936L70.68920357002963,40.16820010305938L75.40476622139532,37.640734723214834L80.120328872761,34.74546592892681L84.83589152412668,31.101881686976785L89.55145417549235,29.45704026316449L94.26701682685805,27.46401862425563L98.98257947822373,26.693740808463335L103.69814212958943,27.394992850821986L108.4137047809551,25.592080375988612L113.12926743232079,23.481997063452745L117.84483008368646,22.5661288215526L122.56039273505216,22.52518282203799L127.27595538641783,21.601970782283033L131.99151803778352,19.874103986990175L136.7070806891492,18.553798569147336L141.4226433405149,17.32239682536317L146.13820599188057,17.83649566863606L150.85376864324627,17.42619260884102L155.56933129461197,16.4950121457348L160.28489394597761,16.44160992788135L165.00045659734332,16.297406788190507L169.71601924870902,16.349071265304868L174.43158190007466,15.127003997919502L179.14714455144036,15.43750536939704L183.86270720280606,15.56040638897826L188.57826985417174,16.228097579026976L193.2938325055374,15.51072032291676L198.0093951569031,14.879175995437688L202.72495780826878,15.413082493997747L207.44052045963448,15.332492915778419" style="fill: none;" fill="none"></path></g></g></g></g><g opacity="0.2"><g><g><g><path stroke="rgb(0, 119, 187)" stroke-width="2px" d="M23.533577056372796,205.9561996912174L28.24913970773848,144.57754637797277L32.96470235910416,113.9869298645469L37.680265010469846,93.46158310275337L42.39582766183553,77.67289070134268L47.11139031320121,75.50193383615878L51.8269529645669,60.1079487505063L56.54251561593259,56.95019028167003L61.258078267298266,54.77923341648614L65.97364091866395,41.95091251177574L70.68920357002963,39.77995564659186L75.40476622139532,34.8459809425868L80.120328872761,40.17469627660695L84.83589152412668,31.68825578800742L89.55145417549235,23.201815299407873L94.26701682685805,30.109393210717727L98.98257947822373,20.0440901448285L103.69814212958943,24.780677876697567L108.4137047809551,28.53049731917113L113.12926743232079,18.267840595402813L117.84483008368646,22.807107983649672L122.56039273505216,20.833504776344896L127.27595538641783,20.241443802707607L131.99151803778352,20.4387974605867L136.7070806891492,17.478392649629512L141.4226433405149,16.886331675992224L146.13820599188057,21.030858434223987L150.85376864324627,23.99126324518117L155.56933129461197,23.39916895728698L160.28489394597761,14.91272846868743L165.00045659734332,16.688978018113136L169.71601924870902,12.939158575639553L174.43158190007466,13.728573207155952L179.14714455144036,13.136512233518642L183.86270720280606,13.728573207155952L188.57826985417174,12.347064287745365L193.2938325055374,15.899530072339838L198.0093951569031,15.899530072339838L202.72495780826878,25.372772164591755L207.44052045963448,17.281038991750425" style="fill: none;" fill="none"></path></g><g><path stroke="rgb(0, 153, 136)" stroke-width="2px" d="M23.533577056372796,185.0361456136657L28.24913970773848,115.76314609971568L32.96470235910416,81.81741745957443L37.680265010469846,62.87096658932747L42.39582766183553,50.63470665825438L47.11139031320121,42.74036045754904L51.8269529645669,37.01693780777068L56.54251561593259,29.12259160706534L61.258078267298266,22.017660037876393L65.97364091866395,25.570125822470867L70.68920357002963,20.241443802707607L75.40476622139532,16.886331675992224L80.120328872761,15.899530072339838L84.83589152412668,14.12331383717105L89.55145417549235,12.149710629866256L94.26701682685805,12.741804917760463L98.98257947822373,14.518021152929249L103.69814212958943,16.886331675992224L108.4137047809551,12.544451259881354L113.12926743232079,10.176140736818379L117.84483008368646,8.399891187392694L122.56039273505216,7.018382267982106L127.27595538641783,10.570848052576578L131.99151803778352,10.768201710455667L136.7070806891492,12.939158575639553L141.4226433405149,11.755003314108055L146.13820599188057,9.78140010680328L150.85376864324627,9.18933913316599L155.56933129461197,8.005183871634493L160.28489394597761,8.597244845271783L165.00045659734332,6.821028610102996L169.71601924870902,8.597244845271783L174.43158190007466,6.228934322208808L179.14714455144036,9.18933913316599L183.86270720280606,6.623674952223906L188.57826985417174,5.439519690692409L193.2938325055374,8.991985475286882L198.0093951569031,7.215735925861195L202.72495780826878,8.991985475286882L207.44052045963448,9.58404644892417" style="fill: none;" fill="none"></path></g><g><path stroke="rgb(204, 51, 17)" stroke-width="2px" d="M23.533577056372796,159.57682414786706L28.24913970773848,103.72427314077858L32.96470235910416,77.87024435922176L37.680265010469846,65.63398442814866L42.39582766183553,57.34489759742823L47.11139031320121,49.45055139672289L51.8269529645669,44.71393035059692L56.54251561593259,38.20109306930216L61.258078267298266,36.81958414989157L65.97364091866395,28.727884291307138L70.68920357002963,29.714652580702626L75.40476622139532,30.898807842234124L80.120328872761,26.951634741881453L84.83589152412668,21.228245406359996L89.55145417549235,24.978064848833558L94.26701682685805,22.017660037876393L98.98257947822373,24.583324218818458L103.69814212958943,29.31994526494443L108.4137047809551,20.636151118465786L113.12926743232079,17.67577962176552L117.84483008368646,20.0440901448285L122.56039273505216,22.412367353634572L127.27595538641783,19.05728854117611L131.99151803778352,15.110115440823439L136.7070806891492,14.91272846868743L141.4226433405149,13.925960179291941L146.13820599188057,19.2546421990552L150.85376864324627,16.294270702354936L155.56933129461197,13.925960179291941L160.28489394597761,16.294270702354936L165.00045659734332,15.899530072339838L169.71601924870902,16.491624360234024L174.43158190007466,11.755003314108055L179.14714455144036,16.294270702354936L183.86270720280606,15.899530072339838L188.57826985417174,18.07048693752372L193.2938325055374,13.531219549276843L198.0093951569031,13.136512233518642L202.72495780826878,16.886331675992224L207.44052045963448,15.110115440823439" style="fill: none;" fill="none"></path></g></g></g></g></g></g><g transform="translate(50, 177)" clip-path="url(#clip_1)"><clipPath id="clip_1"><rect width="280" height="23"></rect></clipPath><g><g><line x1="23.533577056372796" y1="0" x2="23.533577056372796" y2="5" style="visibility: inherit;" fill="rgb(0, 0, 0)" stroke="rgb(204, 204, 204)" stroke-width="1px"></line><line x1="47.11139031320121" y1="0" x2="47.11139031320121" y2="5" style="visibility: inherit;" fill="rgb(0, 0, 0)" stroke="rgb(204, 204, 204)" stroke-width="1px"></line><line x1="70.68920357002963" y1="0" x2="70.68920357002963" y2="5" style="visibility: inherit;" fill="rgb(0, 0, 0)" stroke="rgb(204, 204, 204)" stroke-width="1px"></line><line x1="94.26701682685805" y1="0" x2="94.26701682685805" y2="5" style="visibility: inherit;" fill="rgb(0, 0, 0)" stroke="rgb(204, 204, 204)" stroke-width="1px"></line><line x1="117.84483008368646" y1="0" x2="117.84483008368646" y2="5" style="visibility: inherit;" fill="rgb(0, 0, 0)" stroke="rgb(204, 204, 204)" stroke-width="1px"></line><line x1="141.4226433405149" y1="0" x2="141.4226433405149" y2="5" style="visibility: inherit;" fill="rgb(0, 0, 0)" stroke="rgb(204, 204, 204)" stroke-width="1px"></line><line x1="165.00045659734332" y1="0" x2="165.00045659734332" y2="5" style="visibility: inherit;" fill="rgb(0, 0, 0)" stroke="rgb(204, 204, 204)" stroke-width="1px"></line><line x1="188.57826985417174" y1="0" x2="188.57826985417174" y2="5" style="visibility: inherit;" fill="rgb(0, 0, 0)" stroke="rgb(204, 204, 204)" stroke-width="1px"></line><line x1="212.15608311100013" y1="0" x2="212.15608311100013" y2="5" style="visibility: inherit;" fill="rgb(0, 0, 0)" stroke="rgb(204, 204, 204)" stroke-width="1px"></line><line x1="235.73389636782858" y1="0" x2="235.73389636782858" y2="5" style="visibility: inherit;" fill="rgb(0, 0, 0)" stroke="rgb(204, 204, 204)" stroke-width="1px"></line><line x1="259.311709624657" y1="0" x2="259.311709624657" y2="5" style="visibility: inherit;" fill="rgb(0, 0, 0)" stroke="rgb(204, 204, 204)" stroke-width="1px"></line></g><g transform="translate(0, 8)"><text x="23.533577056372796" y="0" dx="0em" dy="0.95em" style="text-anchor: middle; visibility: inherit; font-family: Roboto, sans-serif; font-size: 12px; font-weight: 200;" fill="rgb(33, 33, 33)" stroke="none" stroke-width="1px">0</text><text x="47.11139031320121" y="0" dx="0em" dy="0.95em" style="text-anchor: middle; visibility: inherit; font-family: Roboto, sans-serif; font-size: 12px; font-weight: 200;" fill="rgb(33, 33, 33)" stroke="none" stroke-width="1px">5</text><text x="70.68920357002963" y="0" dx="0em" dy="0.95em" style="text-anchor: middle; visibility: inherit; font-family: Roboto, sans-serif; font-size: 12px; font-weight: 200;" fill="rgb(33, 33, 33)" stroke="none" stroke-width="1px">10</text><text x="94.26701682685805" y="0" dx="0em" dy="0.95em" style="text-anchor: middle; visibility: inherit; font-family: Roboto, sans-serif; font-size: 12px; font-weight: 200;" fill="rgb(33, 33, 33)" stroke="none" stroke-width="1px">15</text><text x="117.84483008368646" y="0" dx="0em" dy="0.95em" style="text-anchor: middle; visibility: inherit; font-family: Roboto, sans-serif; font-size: 12px; font-weight: 200;" fill="rgb(33, 33, 33)" stroke="none" stroke-width="1px">20</text><text x="141.4226433405149" y="0" dx="0em" dy="0.95em" style="text-anchor: middle; visibility: inherit; font-family: Roboto, sans-serif; font-size: 12px; font-weight: 200;" fill="rgb(33, 33, 33)" stroke="none" stroke-width="1px">25</text><text x="165.00045659734332" y="0" dx="0em" dy="0.95em" style="text-anchor: middle; visibility: inherit; font-family: Roboto, sans-serif; font-size: 12px; font-weight: 200;" fill="rgb(33, 33, 33)" stroke="none" stroke-width="1px">30</text><text x="188.57826985417174" y="0" dx="0em" dy="0.95em" style="text-anchor: middle; visibility: inherit; font-family: Roboto, sans-serif; font-size: 12px; font-weight: 200;" fill="rgb(33, 33, 33)" stroke="none" stroke-width="1px">35</text><text x="212.15608311100013" y="0" dx="0em" dy="0.95em" style="text-anchor: middle; visibility: inherit; font-family: Roboto, sans-serif; font-size: 12px; font-weight: 200;" fill="rgb(33, 33, 33)" stroke="none" stroke-width="1px">40</text><text x="235.73389636782858" y="0" dx="0em" dy="0.95em" style="text-anchor: middle; visibility: inherit; font-family: Roboto, sans-serif; font-size: 12px; font-weight: 200;" fill="rgb(33, 33, 33)" stroke="none" stroke-width="1px">45</text><text x="259.311709624657" y="0" dx="0em" dy="0.95em" style="text-anchor: middle; visibility: inherit; font-family: Roboto, sans-serif; font-size: 12px; font-weight: 200;" fill="rgb(33, 33, 33)" stroke="none" stroke-width="1px">50</text></g><line x1="0" y1="0" x2="280" y2="0" fill="rgb(0, 0, 0)" stroke="rgb(204, 204, 204)" stroke-width="1px"></line></g></g></g></g></svg>