<svg viewBox="0 0 330 200" xmlns="http://www.w3.org/2000/svg"><g><g><g><g><g><line x1="50" y1="172.1697927835426" x2="45" y2="172.1697927835426" style="visibility: inherit;" fill="rgb(0, 0, 0)" stroke="rgb(204, 204, 204)" stroke-width="1px"></line><line x1="50" y1="158.161842810505" x2="45" y2="158.161842810505" style="visibility: inherit;" fill="rgb(0, 0, 0)" stroke="rgb(204, 204, 204)" stroke-width="1px"></line><line x1="50" y1="144.15389283746742" x2="45" y2="144.15389283746742" style="visibility: inherit;" fill="rgb(0, 0, 0)" stroke="rgb(204, 204, 204)" stroke-width="1px"></line><line x1="50" y1="130.14594286442986" x2="45" y2="130.14594286442986" style="visibility: inherit;" fill="rgb(0, 0, 0)" stroke="rgb(204, 204, 204)" stroke-width="1px"></line><line x1="50" y1="116.13799289139236" x2="45" y2="116.13799289139236" style="visibility: inherit;" fill="rgb(0, 0, 0)" stroke="rgb(204, 204, 204)" stroke-width="1px"></line><line x1="50" y1="102.13004291835479" x2="45" y2="102.13004291835479" style="visibility: inherit;" fill="rgb(0, 0, 0)" stroke="rgb(204, 204, 204)" stroke-width="1px"></line><line x1="50" y1="88.1220929453172" x2="45" y2="88.1220929453172" style="visibility: inherit;" fill="rgb(0, 0, 0)" stroke="rgb(204, 204, 204)" stroke-width="1px"></line><line x1="50" y1="74.11414297227962" x2="45" y2="74.11414297227962" style="visibility: inherit;" fill="rgb(0, 0, 0)" stroke="rgb(204, 204, 204)" stroke-width="1px"></line><line x1="50" y1="60.10619299924206" x2="45" y2="60.10619299924206" style="visibility: inherit;" fill="rgb(0, 0, 0)" stroke="rgb(204, 204, 204)" stroke-width="1px"></line><line x1="50" y1="46.09824302620448" x2="45" y2="46.09824302620448" style="visibility: inherit;" fill="rgb(0, 0, 0)" stroke="rgb(204, 204, 204)" stroke-width="1px"></line><line x1="50" y1="32.09029305316698" x2="45" y2="32.09029305316698" style="visibility: inherit;" fill="rgb(0, 0, 0)" stroke="rgb(204, 204, 204)" stroke-width="1px"></line><line x1="50" y1="18.0823430801294" x2="45" y2="18.0823430801294" style="visibility: inherit;" fill="rgb(0, 0, 0)" stroke="rgb(204, 204, 204)" stroke-width="1px"></line><line x1="50" y1="4.07439310709184" x2="45" y2="4.07439310709184" style="visibility: inherit;" fill="rgb(0, 0, 0)" stroke="rgb(204, 204, 204)" stroke-width="1px"></line></g><g transform="translate(40, 0)"><text x="0" y="172.1697927835426" dx="0em" dy="0.3em" style="text-anchor: end; visibility: hidden; font-family: Roboto, sans-serif; font-size: 12px; font-weight: 200;" fill="rgb(33, 33, 33)" stroke="none" stroke-width="1px">0.74</text><text x="0" y="158.161842810505" dx="0em" dy="0.3em" style="text-anchor: end; visibility: inherit; font-family: Roboto, sans-serif; font-size: 12px; font-weight: 200;" fill="rgb(33, 33, 33)" stroke="none" stroke-width="1px">0.76</text><text x="0" y="144.15389283746742" dx="0em" dy="0.3em" style="text-anchor: end; visibility: hidden; font-family: Roboto, sans-serif; font-size: 12px; font-weight: 200;" fill="rgb(33, 33, 33)" stroke="none" stroke-width="1px">0.78</text><text x="0" y="130.14594286442986" dx="0em" dy="0.3em" style="text-anchor: end; visibility: inherit; font-family: Roboto, sans-serif; font-size: 12px; font-weight: 200;" fill="rgb(33, 33, 33)" stroke="none" stroke-width="1px">0.8</text><text x="0" y="116.13799289139236" dx="0em" dy="0.3em" style="text-anchor: end; visibility: hidden; font-family: Roboto, sans-serif; font-size: 12px; font-weight: 200;" fill="rgb(33, 33, 33)" stroke="none" stroke-width="1px">0.82</text><text x="0" y="102.13004291835479" dx="0em" dy="0.3em" style="text-anchor: end; visibility: inherit; font-family: Roboto, sans-serif; font-size: 12px; font-weight: 200;" fill="rgb(33, 33, 33)" stroke="none" stroke-width="1px">0.84</text><text x="0" y="88.1220929453172" dx="0em" dy="0.3em" style="text-anchor: end; visibility: hidden; font-family: Roboto, sans-serif; font-size: 12px; font-weight: 200;" fill="rgb(33, 33, 33)" stroke="none" stroke-width="1px">0.86</text><text x="0" y="74.11414297227962" dx="0em" dy="0.3em" style="text-anchor: end; visibility: inherit; font-family: Roboto, sans-serif; font-size: 12px; font-weight: 200;" fill="rgb(33, 33, 33)" stroke="none" stroke-width="1px">0.88</text><text x="0" y="60.10619299924206" dx="0em" dy="0.3em" style="text-anchor: end; visibility: hidden; font-family: Roboto, sans-serif; font-size: 12px; font-weight: 200;" fill="rgb(33, 33, 33)" stroke="none" stroke-width="1px">0.9</text><text x="0" y="46.09824302620448" dx="0em" dy="0.3em" style="text-anchor: end; visibility: inherit; font-family: Roboto, sans-serif; font-size: 12px; font-weight: 200;" fill="rgb(33, 33, 33)" stroke="none" stroke-width="1px">0.92</text><text x="0" y="32.09029305316698" dx="0em" dy="0.3em" style="text-anchor: end; visibility: hidden; font-family: Roboto, sans-serif; font-size: 12px; font-weight: 200;" fill="rgb(33, 33, 33)" stroke="none" stroke-width="1px">0.94</text><text x="0" y="18.0823430801294" dx="0em" dy="0.3em" style="text-anchor: end; visibility: inherit; font-family: Roboto, sans-serif; font-size: 12px; font-weight: 200;" fill="rgb(33, 33, 33)" stroke="none" stroke-width="1px">0.96</text><text x="0" y="4.07439310709184" dx="0em" dy="0.3em" style="text-anchor: end; visibility: hidden; font-family: Roboto, sans-serif; font-size: 12px; font-weight: 200;" fill="rgb(33, 33, 33)" stroke="none" stroke-width="1px">0.98</text></g><line x1="50" y1="0" x2="50" y2="177" fill="rgb(0, 0, 0)" stroke="rgb(204, 204, 204)" stroke-width="1px"></line></g></g><g transform="translate(50, 0)" clip-path="url(#clip_0)"><clipPath id="clip_0"><rect width="280" height="177"></rect></clipPath><g><g><g><line x1="13.430348043401596" y1="0" x2="13.430348043401596" y2="177" fill="rgb(0, 0, 0)" stroke="rgb(66, 66, 66)" stroke-width="1px" opacity="0.25"></line><line x1="48.252370575246594" y1="0" x2="48.252370575246594" y2="177" fill="rgb(0, 0, 0)" stroke="rgb(66, 66, 66)" stroke-width="1px" opacity="0.25"></line><line x1="83.0743931070916" y1="0" x2="83.0743931070916" y2="177" fill="rgb(0, 0, 0)" stroke="rgb(66, 66, 66)" stroke-width="1px" opacity="0.25"></line><line x1="117.89641563893657" y1="0" x2="117.89641563893657" y2="177" fill="rgb(0, 0, 0)" stroke="rgb(66, 66, 66)" stroke-width="1px" opacity="0.25"></line><line x1="152.71843817078155" y1="0" x2="152.71843817078155" y2="177" fill="rgb(0, 0, 0)" stroke="rgb(66, 66, 66)" stroke-width="1px" opacity="0.25"></line><line x1="187.54046070262655" y1="0" x2="187.54046070262655" y2="177" fill="rgb(0, 0, 0)" stroke="rgb(66, 66, 66)" stroke-width="1px" opacity="0.25"></line><line x1="222.36248323447157" y1="0" x2="222.36248323447157" y2="177" fill="rgb(0, 0, 0)" stroke="rgb(66, 66, 66)" stroke-width="1px" opacity="0.25"></line><line x1="257.18450576631653" y1="0" x2="257.18450576631653" y2="177" fill="rgb(0, 0, 0)" stroke="rgb(66, 66, 66)" stroke-width="1px" opacity="0.25"></line></g><g><line x1="0" y1="172.1697927835426" x2="280" y2="172.1697927835426" fill="rgb(0, 0, 0)" stroke="rgb(66, 66, 66)" stroke-width="1px" opacity="0.25"></line><line x1="0" y1="158.161842810505" x2="280" y2="158.161842810505" fill="rgb(0, 0, 0)" stroke="rgb(66, 66, 66)" stroke-width="1px" opacity="0.25"></line><line x1="0" y1="144.15389283746742" x2="280" y2="144.15389283746742" fill="rgb(0, 0, 0)" stroke="rgb(66, 66, 66)" stroke-width="1px" opacity="0.25"></line><line x1="0" y1="130.14594286442986" x2="280" y2="130.14594286442986" fill="rgb(0, 0, 0)" stroke="rgb(66, 66, 66)" stroke-width="1px" opacity="0.25"></line><line x1="0" y1="116.13799289139236" x2="280" y2="116.13799289139236" fill="rgb(0, 0, 0)" stroke="rgb(66, 66, 66)" stroke-width="1px" opacity="0.25"></line><line x1="0" y1="102.13004291835479" x2="280" y2="102.13004291835479" fill="rgb(0, 0, 0)" stroke="rgb(66, 66, 66)" stroke-width="1px" opacity="0.25"></line><line x1="0" y1="88.1220929453172" x2="280" y2="88.1220929453172" fill="rgb(0, 0, 0)" stroke="rgb(66, 66, 66)" stroke-width="1px" opacity="0.25"></line><line x1="0" y1="74.11414297227962" x2="280" y2="74.11414297227962" fill="rgb(0, 0, 0)" stroke="rgb(66, 66, 66)" stroke-width="1px" opacity="0.25"></line><line x1="0" y1="60.10619299924206" x2="280" y2="60.10619299924206" fill="rgb(0, 0, 0)" stroke="rgb(66, 66, 66)" stroke-width="1px" opacity="0.25"></line><line x1="0" y1="46.09824302620448" x2="280" y2="46.09824302620448" fill="rgb(0, 0, 0)" stroke="rgb(66, 66, 66)" stroke-width="1px" opacity="0.25"></line><line x1="0" y1="32.09029305316698" x2="280" y2="32.09029305316698" fill="rgb(0, 0, 0)" stroke="rgb(66, 66, 66)" stroke-width="1px" opacity="0.25"></line><line x1="0" y1="18.0823430801294" x2="280" y2="18.0823430801294" fill="rgb(0, 0, 0)" stroke="rgb(66, 66, 66)" stroke-width="1px" opacity="0.25"></line><line x1="0" y1="4.07439310709184" x2="280" y2="4.07439310709184" fill="rgb(0, 0, 0)" stroke="rgb(66, 66, 66)" stroke-width="1px" opacity="0.25"></line></g></g></g><g><g><line x1="0" y1="690.4639417859323" x2="280" y2="690.4639417859323" fill="rgb(0, 0, 0)" stroke="rgb(153, 153, 153)" stroke-width="1.5px"></line></g></g><g><g><line x1="13.430348043401596" y1="0" x2="13.430348043401596" y2="177" fill="rgb(0, 0, 0)" stroke="rgb(153, 153, 153)" stroke-width="1.5px"></line></g></g><g><g><g><g><g><path stroke="rgb(187, 187, 187)" stroke-width="2px" d="M13.430348043401596,158.11054249570645L20.394752549770594,131.10855163474423L27.35915705613959,119.14271077109385L34.323561562508594,111.63203285376869L41.28796606887759,100.13419557437997L48.252370575246594,99.4044809287913L55.216775081615594,88.90628006541523L62.18117958798459,81.90068837704288L69.14558409435358,72.50237441167974L76.10998860072259,60.612539615490206L83.0743931070916,53.731302079179585L90.03879761346059,48.70142339004314L97.00320211982958,43.243123918721636L103.96760662619857,37.207876071831286L110.93201113256758,37.03579085720458L117.89641563893657,33.04409866808335L124.86082014530557,28.41229634488089L131.82522465167457,29.990401947102896L138.78962915804357,28.665130061496107L145.75403366441256,24.787756505914093L152.71843817078155,21.261982376539432L159.68284267715057,33.79225849396922L166.64724718351957,28.127911257292038L173.61165168988856,23.374920595727392L180.57605619625755,20.22891169511097L187.54046070262655,18.26170198696037L194.50486520899554,16.732736079566287L201.4692697153646,15.269368945783818L208.43367422173358,12.489055328017457L215.39807872810258,10.107222898975072" style="fill: none;" fill="none"></path></g><g><path stroke="rgb(255, 112, 67)" stroke-width="2px" d="M13.430348043401596,179.27641014660256L20.394752549770594,141.7325454816889L27.35915705613959,119.02473048096434L34.323561562508594,103.26505942983357L41.28796606887759,93.40297635230678L48.252370575246594,84.78503821050364L55.216775081615594,74.92157929916374L62.18117958798459,67.69312284665932L69.14558409435358,63.7779734463661L76.10998860072259,56.642549158527416L83.0743931070916,60.47241550122537L90.03879761346059,51.50581579979556L97.00320211982958,44.506136422389105L103.96760662619857,41.155975610664484L110.93201113256758,35.616548297071446L117.89641563893657,39.393729829153884L124.86082014530557,34.35035222205884L131.82522465167457,30.48941174104212L138.78962915804357,27.91894966456202L145.75403366441256,25.18075315369562L152.71843817078155,22.404615393250623L159.68284267715057,21.393669679367196L166.64724718351957,18.176300818011867L173.61165168988856,20.425175596028776L180.57605619625755,18.66153797946638L187.54046070262655,16.002068172000186L194.50486520899554,13.026507125935794L201.4692697153646,10.757448916901986L208.43367422173358,9.859984458563112L215.39807872810258,10.054429031777987" style="fill: none;" fill="none"></path></g><g><path stroke="rgb(238, 51, 119)" stroke-width="2px" d="M13.430348043401596,189.2179439227643L20.394752549770594,158.7019871019797L27.35915705613959,142.07368956028893L34.323561562508594,130.89669132718853L41.28796606887759,116.03070926673253L48.252370575246594,106.64849059512458L55.216775081615594,99.75548843470203L62.18117958798459,94.16299822029056L69.14558409435358,85.92522688227024L76.10998860072259,78.9631417767366L83.0743931070916,74.26849091623394L90.03879761346059,67.83605287454724L97.00320211982958,62.58047668076997L103.96760662619857,59.80430575176012L110.93201113256758,60.19548403911821L117.89641563893657,54.89639850116954L124.86082014530557,53.93986583182564L131.82522465167457,49.21536228651534L138.78962915804357,46.782478191468016L145.75403366441256,43.461237985886044L152.71843817078155,43.16246031008483L159.68284267715057,41.49157136846513L166.64724718351957,39.412248500092L173.61165168988856,36.52111357340765L180.57605619625755,32.26625999334186L187.54046070262655,32.13069420945629L194.50486520899554,32.37250350505611L201.4692697153646,29.56378511297167L208.43367422173358,28.184936215094137L215.39807872810258,27.343559422976845" style="fill: none;" fill="none"></path></g></g></g></g><g opacity="0.2"><g><g><g><path stroke="rgb(187, 187, 187)" stroke-width="2px" d="M13.430348043401596,158.11054249570645L20.394752549770594,111.2890903427981L27.35915705613959,103.9131150168376L34.323561562508594,99.10269814107832L41.28796606887759,77.61613046553903L48.252370575246594,97.81989804250563L55.216775081615594,64.46763818988974L62.18117958798459,64.7883382145329L69.14558409435358,48.753587464039235L76.10998860072259,29.83261998564528L83.0743931070916,35.605095188389946L90.03879761346059,35.28439516374678L97.00320211982958,28.54981988707261L103.96760662619857,20.853144536468932L110.93201113256758,36.56719526231945L117.89641563893657,22.135944635041604L124.86082014530557,15.7220276360665L131.82522465167457,34.32233683676139L138.78962915804357,25.022161362941894L145.75403366441256,14.118569259794763L152.71843817078155,11.553010809593536L159.68284267715057,68.31599673866363L166.64724718351957,12.515069136578928L173.61165168988856,10.270210711020885L180.57605619625755,11.553010809593536L187.54046070262655,12.83576916122211L194.50486520899554,12.515069136578928L201.4692697153646,11.232310784950373L208.43367422173358,4.81839378597527L215.39807872810258,3.5356354343467156" style="fill: none;" fill="none"></path></g><g><path stroke="rgb(255, 112, 67)" stroke-width="2px" d="M13.430348043401596,179.27641014660256L20.394752549770594,114.17534881764247L27.35915705613959,90.12322269190197L34.323561562508594,76.97473041625268L41.28796606887759,74.08847194140829L48.252370575246594,66.07109656616147L55.216775081615594,51.96054596352679L62.18117958798459,50.03638756261191L69.14558409435358,53.88470436444169L76.10998860072259,38.17065363859117L83.0743931070916,70.56085516422169L90.03879761346059,27.587719813143103L97.00320211982958,25.663561412228223L103.96760662619857,32.07747841120332L110.93201113256758,20.53244451182577L117.89641563893657,49.715687537968726L124.86082014530557,20.53244451182577L131.82522465167457,19.891044462539444L138.78962915804357,20.853144536468932L145.75403366441256,17.64618603698138L152.71843817078155,14.759927562136992L159.68284267715057,18.60828611091089L166.64724718351957,9.308152384035493L173.61165168988856,26.62566148615773L180.57605619625755,13.7978692351516L187.54046070262655,8.666752334749148L194.50486520899554,4.81839378597527L201.4692697153646,4.4976937613321075L208.43367422173358,7.383952236176496L215.39807872810258,10.590910735664048" style="fill: none;" fill="none"></path></g><g><path stroke="rgb(238, 51, 119)" stroke-width="2px" d="M13.430348043401596,189.2179439227643L20.394752549770594,136.303274795524L27.35915705613959,120.90992409431665L34.323561562508594,112.2511904167276L41.28796606887759,86.91626419241442L48.252370575246594,86.27490589007219L55.216775081615594,83.70934743987097L62.18117958798459,80.50238894038341L69.14558409435358,65.10903823917607L76.10998860072259,60.93997966575902L83.0743931070916,61.90207973968851L90.03879761346059,50.67774586495412L97.00320211982958,48.432887439396076L103.96760662619857,52.28124598816995L110.93201113256758,61.260679690402185L117.89641563893657,40.41551206414923L124.86082014530557,51.31914591424046L131.82522465167457,36.246495237676285L138.78962915804357,40.094853786450166L145.75403366441256,34.32233683676139L152.71843817078155,42.33971221200823L159.68284267715057,36.88789528696261L166.64724718351957,33.68093678747506L173.61165168988856,28.54981988707261L180.57605619625755,20.53244451182577L187.54046070262655,31.75677838656016L194.50486520899554,33.039536738188716L201.4692697153646,21.81524461039844L208.43367422173358,24.380803060599668L215.39807872810258,25.022161362941894" style="fill: none;" fill="none"></path></g></g></g></g></g></g><g transform="translate(50, 177)" clip-path="url(#clip_1)"><clipPath id="clip_1"><rect width="280" height="23"></rect></clipPath><g><g><line x1="13.430348043401596" y1="0" x2="13.430348043401596" y2="5" style="visibility: inherit;" fill="rgb(0, 0, 0)" stroke="rgb(204, 204, 204)" stroke-width="1px"></line><line x1="48.252370575246594" y1="0" x2="48.252370575246594" y2="5" style="visibility: inherit;" fill="rgb(0, 0, 0)" stroke="rgb(204, 204, 204)" stroke-width="1px"></line><line x1="83.0743931070916" y1="0" x2="83.0743931070916" y2="5" style="visibility: inherit;" fill="rgb(0, 0, 0)" stroke="rgb(204, 204, 204)" stroke-width="1px"></line><line x1="117.89641563893657" y1="0" x2="117.89641563893657" y2="5" style="visibility: inherit;" fill="rgb(0, 0, 0)" stroke="rgb(204, 204, 204)" stroke-width="1px"></line><line x1="152.71843817078155" y1="0" x2="152.71843817078155" y2="5" style="visibility: inherit;" fill="rgb(0, 0, 0)" stroke="rgb(204, 204, 204)" stroke-width="1px"></line><line x1="187.54046070262655" y1="0" x2="187.54046070262655" y2="5" style="visibility: inherit;" fill="rgb(0, 0, 0)" stroke="rgb(204, 204, 204)" stroke-width="1px"></line><line x1="222.36248323447157" y1="0" x2="222.36248323447157" y2="5" style="visibility: inherit;" fill="rgb(0, 0, 0)" stroke="rgb(204, 204, 204)" stroke-width="1px"></line><line x1="257.18450576631653" y1="0" x2="257.18450576631653" y2="5" style="visibility: inherit;" fill="rgb(0, 0, 0)" stroke="rgb(204, 204, 204)" stroke-width="1px"></line></g><g transform="translate(0, 8)"><text x="13.430348043401596" y="0" dx="0em" dy="0.95em" style="text-anchor: middle; visibility: inherit; font-family: Roboto, sans-serif; font-size: 12px; font-weight: 200;" fill="rgb(33, 33, 33)" stroke="none" stroke-width="1px">0</text><text x="48.252370575246594" y="0" dx="0em" dy="0.95em" style="text-anchor: middle; visibility: inherit; font-family: Roboto, sans-serif; font-size: 12px; font-weight: 200;" fill="rgb(33, 33, 33)" stroke="none" stroke-width="1px">5</text><text x="83.0743931070916" y="0" dx="0em" dy="0.95em" style="text-anchor: middle; visibility: inherit; font-family: Roboto, sans-serif; font-size: 12px; font-weight: 200;" fill="rgb(33, 33, 33)" stroke="none" stroke-width="1px">10</text><text x="117.89641563893657" y="0" dx="0em" dy="0.95em" style="text-anchor: middle; visibility: inherit; font-family: Roboto, sans-serif; font-size: 12px; font-weight: 200;" fill="rgb(33, 33, 33)" stroke="none" stroke-width="1px">15</text><text x="152.71843817078155" y="0" dx="0em" dy="0.95em" style="text-anchor: middle; visibility: inherit; font-family: Roboto, sans-serif; font-size: 12px; font-weight: 200;" fill="rgb(33, 33, 33)" stroke="none" stroke-width="1px">20</text><text x="187.54046070262655" y="0" dx="0em" dy="0.95em" style="text-anchor: middle; visibility: inherit; font-family: Roboto, sans-serif; font-size: 12px; font-weight: 200;" fill="rgb(33, 33, 33)" stroke="none" stroke-width="1px">25</text><text x="222.36248323447157" y="0" dx="0em" dy="0.95em" style="text-anchor: middle; visibility: inherit; font-family: Roboto, sans-serif; font-size: 12px; font-weight: 200;" fill="rgb(33, 33, 33)" stroke="none" stroke-width="1px">30</text><text x="257.18450576631653" y="0" dx="0em" dy="0.95em" style="text-anchor: middle; visibility: inherit; font-family: Roboto, sans-serif; font-size: 12px; font-weight: 200;" fill="rgb(33, 33, 33)" stroke="none" stroke-width="1px">35</text></g><line x1="0" y1="0" x2="280" y2="0" fill="rgb(0, 0, 0)" stroke="rgb(204, 204, 204)" stroke-width="1px"></line></g></g></g></g></svg>