<svg viewBox="0 0 330 200" xmlns="http://www.w3.org/2000/svg"><g><g><g><g><g><line x1="50" y1="177" x2="45" y2="177" style="visibility: inherit;" fill="rgb(0, 0, 0)" stroke="rgb(204, 204, 204)" stroke-width="1px"></line><line x1="50" y1="165.2" x2="45" y2="165.2" style="visibility: inherit;" fill="rgb(0, 0, 0)" stroke="rgb(204, 204, 204)" stroke-width="1px"></line><line x1="50" y1="153.39999999999998" x2="45" y2="153.39999999999998" style="visibility: inherit;" fill="rgb(0, 0, 0)" stroke="rgb(204, 204, 204)" stroke-width="1px"></line><line x1="50" y1="141.59999999999997" x2="45" y2="141.59999999999997" style="visibility: inherit;" fill="rgb(0, 0, 0)" stroke="rgb(204, 204, 204)" stroke-width="1px"></line><line x1="50" y1="129.79999999999998" x2="45" y2="129.79999999999998" style="visibility: inherit;" fill="rgb(0, 0, 0)" stroke="rgb(204, 204, 204)" stroke-width="1px"></line><line x1="50" y1="117.99999999999996" x2="45" y2="117.99999999999996" style="visibility: inherit;" fill="rgb(0, 0, 0)" stroke="rgb(204, 204, 204)" stroke-width="1px"></line><line x1="50" y1="106.20000000000002" x2="45" y2="106.20000000000002" style="visibility: inherit;" fill="rgb(0, 0, 0)" stroke="rgb(204, 204, 204)" stroke-width="1px"></line><line x1="50" y1="94.40000000000002" x2="45" y2="94.40000000000002" style="visibility: inherit;" fill="rgb(0, 0, 0)" stroke="rgb(204, 204, 204)" stroke-width="1px"></line><line x1="50" y1="82.6" x2="45" y2="82.6" style="visibility: inherit;" fill="rgb(0, 0, 0)" stroke="rgb(204, 204, 204)" stroke-width="1px"></line><line x1="50" y1="70.79999999999998" x2="45" y2="70.79999999999998" style="visibility: inherit;" fill="rgb(0, 0, 0)" stroke="rgb(204, 204, 204)" stroke-width="1px"></line><line x1="50" y1="58.999999999999986" x2="45" y2="58.999999999999986" style="visibility: inherit;" fill="rgb(0, 0, 0)" stroke="rgb(204, 204, 204)" stroke-width="1px"></line><line x1="50" y1="47.19999999999997" x2="45" y2="47.19999999999997" style="visibility: inherit;" fill="rgb(0, 0, 0)" stroke="rgb(204, 204, 204)" stroke-width="1px"></line><line x1="50" y1="35.400000000000034" x2="45" y2="35.400000000000034" style="visibility: inherit;" fill="rgb(0, 0, 0)" stroke="rgb(204, 204, 204)" stroke-width="1px"></line><line x1="50" y1="23.600000000000016" x2="45" y2="23.600000000000016" style="visibility: inherit;" fill="rgb(0, 0, 0)" stroke="rgb(204, 204, 204)" stroke-width="1px"></line><line x1="50" y1="11.800000000000017" x2="45" y2="11.800000000000017" style="visibility: inherit;" fill="rgb(0, 0, 0)" stroke="rgb(204, 204, 204)" stroke-width="1px"></line><line x1="50" y1="0" x2="45" y2="0" style="visibility: inherit;" fill="rgb(0, 0, 0)" stroke="rgb(204, 204, 204)" stroke-width="1px"></line></g><g transform="translate(40, 0)"><text x="0" y="177" dx="0em" dy="0.3em" style="text-anchor: end; visibility: hidden; font-family: Roboto, sans-serif; font-size: 12px; font-weight: 200;" fill="rgb(33, 33, 33)" stroke="none" stroke-width="1px">0.7</text><text x="0" y="165.2" dx="0em" dy="0.3em" style="text-anchor: end; visibility: inherit; font-family: Roboto, sans-serif; font-size: 12px; font-weight: 200;" fill="rgb(33, 33, 33)" stroke="none" stroke-width="1px">0.72</text><text x="0" y="153.39999999999998" dx="0em" dy="0.3em" style="text-anchor: end; visibility: hidden; font-family: Roboto, sans-serif; font-size: 12px; font-weight: 200;" fill="rgb(33, 33, 33)" stroke="none" stroke-width="1px">0.74</text><text x="0" y="141.59999999999997" dx="0em" dy="0.3em" style="text-anchor: end; visibility: inherit; font-family: Roboto, sans-serif; font-size: 12px; font-weight: 200;" fill="rgb(33, 33, 33)" stroke="none" stroke-width="1px">0.76</text><text x="0" y="129.79999999999998" dx="0em" dy="0.3em" style="text-anchor: end; visibility: hidden; font-family: Roboto, sans-serif; font-size: 12px; font-weight: 200;" fill="rgb(33, 33, 33)" stroke="none" stroke-width="1px">0.78</text><text x="0" y="117.99999999999996" dx="0em" dy="0.3em" style="text-anchor: end; visibility: inherit; font-family: Roboto, sans-serif; font-size: 12px; font-weight: 200;" fill="rgb(33, 33, 33)" stroke="none" stroke-width="1px">0.8</text><text x="0" y="106.20000000000002" dx="0em" dy="0.3em" style="text-anchor: end; visibility: hidden; font-family: Roboto, sans-serif; font-size: 12px; font-weight: 200;" fill="rgb(33, 33, 33)" stroke="none" stroke-width="1px">0.82</text><text x="0" y="94.40000000000002" dx="0em" dy="0.3em" style="text-anchor: end; visibility: inherit; font-family: Roboto, sans-serif; font-size: 12px; font-weight: 200;" fill="rgb(33, 33, 33)" stroke="none" stroke-width="1px">0.84</text><text x="0" y="82.6" dx="0em" dy="0.3em" style="text-anchor: end; visibility: hidden; font-family: Roboto, sans-serif; font-size: 12px; font-weight: 200;" fill="rgb(33, 33, 33)" stroke="none" stroke-width="1px">0.86</text><text x="0" y="70.79999999999998" dx="0em" dy="0.3em" style="text-anchor: end; visibility: inherit; font-family: Roboto, sans-serif; font-size: 12px; font-weight: 200;" fill="rgb(33, 33, 33)" stroke="none" stroke-width="1px">0.88</text><text x="0" y="58.999999999999986" dx="0em" dy="0.3em" style="text-anchor: end; visibility: hidden; font-family: Roboto, sans-serif; font-size: 12px; font-weight: 200;" fill="rgb(33, 33, 33)" stroke="none" stroke-width="1px">0.9</text><text x="0" y="47.19999999999997" dx="0em" dy="0.3em" style="text-anchor: end; visibility: inherit; font-family: Roboto, sans-serif; font-size: 12px; font-weight: 200;" fill="rgb(33, 33, 33)" stroke="none" stroke-width="1px">0.92</text><text x="0" y="35.400000000000034" dx="0em" dy="0.3em" style="text-anchor: end; visibility: hidden; font-family: Roboto, sans-serif; font-size: 12px; font-weight: 200;" fill="rgb(33, 33, 33)" stroke="none" stroke-width="1px">0.94</text><text x="0" y="23.600000000000016" dx="0em" dy="0.3em" style="text-anchor: end; visibility: inherit; font-family: Roboto, sans-serif; font-size: 12px; font-weight: 200;" fill="rgb(33, 33, 33)" stroke="none" stroke-width="1px">0.96</text><text x="0" y="11.800000000000017" dx="0em" dy="0.3em" style="text-anchor: end; visibility: hidden; font-family: Roboto, sans-serif; font-size: 12px; font-weight: 200;" fill="rgb(33, 33, 33)" stroke="none" stroke-width="1px">0.98</text><text x="0" y="0" dx="0em" dy="0.3em" style="text-anchor: end; visibility: hidden; font-family: Roboto, sans-serif; font-size: 12px; font-weight: 200;" fill="rgb(33, 33, 33)" stroke="none" stroke-width="1px">1</text></g><line x1="50" y1="0" x2="50" y2="177" fill="rgb(0, 0, 0)" stroke="rgb(204, 204, 204)" stroke-width="1px"></line></g></g><g transform="translate(50, 0)" clip-path="url(#clip_0)"><clipPath id="clip_0"><rect width="280" height="177"></rect></clipPath><g><g><g><line x1="0" y1="0" x2="0" y2="177" fill="rgb(0, 0, 0)" stroke="rgb(66, 66, 66)" stroke-width="1px" opacity="0.25"></line><line x1="23.333333333333332" y1="0" x2="23.333333333333332" y2="177" fill="rgb(0, 0, 0)" stroke="rgb(66, 66, 66)" stroke-width="1px" opacity="0.25"></line><line x1="46.666666666666664" y1="0" x2="46.666666666666664" y2="177" fill="rgb(0, 0, 0)" stroke="rgb(66, 66, 66)" stroke-width="1px" opacity="0.25"></line><line x1="70" y1="0" x2="70" y2="177" fill="rgb(0, 0, 0)" stroke="rgb(66, 66, 66)" stroke-width="1px" opacity="0.25"></line><line x1="93.33333333333333" y1="0" x2="93.33333333333333" y2="177" fill="rgb(0, 0, 0)" stroke="rgb(66, 66, 66)" stroke-width="1px" opacity="0.25"></line><line x1="116.66666666666667" y1="0" x2="116.66666666666667" y2="177" fill="rgb(0, 0, 0)" stroke="rgb(66, 66, 66)" stroke-width="1px" opacity="0.25"></line><line x1="140" y1="0" x2="140" y2="177" fill="rgb(0, 0, 0)" stroke="rgb(66, 66, 66)" stroke-width="1px" opacity="0.25"></line><line x1="163.33333333333334" y1="0" x2="163.33333333333334" y2="177" fill="rgb(0, 0, 0)" stroke="rgb(66, 66, 66)" stroke-width="1px" opacity="0.25"></line><line x1="186.66666666666666" y1="0" x2="186.66666666666666" y2="177" fill="rgb(0, 0, 0)" stroke="rgb(66, 66, 66)" stroke-width="1px" opacity="0.25"></line><line x1="210" y1="0" x2="210" y2="177" fill="rgb(0, 0, 0)" stroke="rgb(66, 66, 66)" stroke-width="1px" opacity="0.25"></line><line x1="233.33333333333334" y1="0" x2="233.33333333333334" y2="177" fill="rgb(0, 0, 0)" stroke="rgb(66, 66, 66)" stroke-width="1px" opacity="0.25"></line><line x1="256.66666666666663" y1="0" x2="256.66666666666663" y2="177" fill="rgb(0, 0, 0)" stroke="rgb(66, 66, 66)" stroke-width="1px" opacity="0.25"></line><line x1="280" y1="0" x2="280" y2="177" fill="rgb(0, 0, 0)" stroke="rgb(66, 66, 66)" stroke-width="1px" opacity="0.25"></line></g><g><line x1="0" y1="177" x2="280" y2="177" fill="rgb(0, 0, 0)" stroke="rgb(66, 66, 66)" stroke-width="1px" opacity="0.25"></line><line x1="0" y1="165.2" x2="280" y2="165.2" fill="rgb(0, 0, 0)" stroke="rgb(66, 66, 66)" stroke-width="1px" opacity="0.25"></line><line x1="0" y1="153.39999999999998" x2="280" y2="153.39999999999998" fill="rgb(0, 0, 0)" stroke="rgb(66, 66, 66)" stroke-width="1px" opacity="0.25"></line><line x1="0" y1="141.59999999999997" x2="280" y2="141.59999999999997" fill="rgb(0, 0, 0)" stroke="rgb(66, 66, 66)" stroke-width="1px" opacity="0.25"></line><line x1="0" y1="129.79999999999998" x2="280" y2="129.79999999999998" fill="rgb(0, 0, 0)" stroke="rgb(66, 66, 66)" stroke-width="1px" opacity="0.25"></line><line x1="0" y1="117.99999999999996" x2="280" y2="117.99999999999996" fill="rgb(0, 0, 0)" stroke="rgb(66, 66, 66)" stroke-width="1px" opacity="0.25"></line><line x1="0" y1="106.20000000000002" x2="280" y2="106.20000000000002" fill="rgb(0, 0, 0)" stroke="rgb(66, 66, 66)" stroke-width="1px" opacity="0.25"></line><line x1="0" y1="94.40000000000002" x2="280" y2="94.40000000000002" fill="rgb(0, 0, 0)" stroke="rgb(66, 66, 66)" stroke-width="1px" opacity="0.25"></line><line x1="0" y1="82.6" x2="280" y2="82.6" fill="rgb(0, 0, 0)" stroke="rgb(66, 66, 66)" stroke-width="1px" opacity="0.25"></line><line x1="0" y1="70.79999999999998" x2="280" y2="70.79999999999998" fill="rgb(0, 0, 0)" stroke="rgb(66, 66, 66)" stroke-width="1px" opacity="0.25"></line><line x1="0" y1="58.999999999999986" x2="280" y2="58.999999999999986" fill="rgb(0, 0, 0)" stroke="rgb(66, 66, 66)" stroke-width="1px" opacity="0.25"></line><line x1="0" y1="47.19999999999997" x2="280" y2="47.19999999999997" fill="rgb(0, 0, 0)" stroke="rgb(66, 66, 66)" stroke-width="1px" opacity="0.25"></line><line x1="0" y1="35.400000000000034" x2="280" y2="35.400000000000034" fill="rgb(0, 0, 0)" stroke="rgb(66, 66, 66)" stroke-width="1px" opacity="0.25"></line><line x1="0" y1="23.600000000000016" x2="280" y2="23.600000000000016" fill="rgb(0, 0, 0)" stroke="rgb(66, 66, 66)" stroke-width="1px" opacity="0.25"></line><line x1="0" y1="11.800000000000017" x2="280" y2="11.800000000000017" fill="rgb(0, 0, 0)" stroke="rgb(66, 66, 66)" stroke-width="1px" opacity="0.25"></line><line x1="0" y1="0" x2="280" y2="0" fill="rgb(0, 0, 0)" stroke="rgb(66, 66, 66)" stroke-width="1px" opacity="0.25"></line></g></g></g><g><g><line x1="0" y1="590" x2="280" y2="590" fill="rgb(0, 0, 0)" stroke="rgb(153, 153, 153)" stroke-width="1.5px"></line></g></g><g><g><line x1="23.333333333333332" y1="0" x2="23.333333333333332" y2="177" fill="rgb(0, 0, 0)" stroke="rgb(153, 153, 153)" stroke-width="1.5px"></line></g></g><g><g><g><g><g><path stroke="rgb(204, 51, 17)" stroke-width="2px" d="M23.333333333333332,158.60013544559476L28,137.43463709950439L32.666666666666664,122.8923511383484L37.333333333333336,109.21396143296181L42,98.23871147913871L46.666666666666664,88.99003103783573L51.33333333333333,82.02165123202509L56,76.513323092728L60.66666666666667,71.51965554316038L65.33333333333333,64.31593784593824L70,57.982395387003514L74.66666666666667,55.62997865000645L79.33333333333333,49.54989771431689L84,47.18727659527755L88.66666666666666,44.26507303943486L93.33333333333333,40.931833424359844L98,37.27658928265461L102.66666666666666,34.78279500744328L107.33333333333334,32.835126148591776L112,31.290302912727615L116.66666666666667,29.15933764701219L121.33333333333334,27.956046221029336L126,25.427945650439018L130.66666666666666,23.30905470389458L135.33333333333334,22.03772656165869L140,20.146105829971635L144.66666666666669,18.108066704580555L149.33333333333334,17.26152891787239L154,16.979363068519675L158.66666666666666,16.283279804230272L163.33333333333334,14.962576063830165L168,14.245396695493254L172.66666666666669,15.99749492545553L177.33333333333331,14.038551077385181L182,14.36827912011694L186.66666666666666,11.78168374063323L191.33333333333334,10.605996588117176L196,10.352125249901217L200.66666666666666,10.199802447575003L205.33333333333331,9.431111411746599L210,9.120396373318524L214.66666666666669,8.407183645409987L219.33333333333334,7.678242777520152L224,7.617148312757002L228.66666666666666,7.279478402597189L233.33333333333334,7.001619632025607L238,7.587444481263665L242.66666666666669,11.325426159590958L247.33333333333331,9.353931461719236L252,7.794750520543107" style="fill: none;" fill="none"></path></g><g><path stroke="rgb(0, 119, 187)" stroke-width="2px" d="M23.333333333333332,185.88010132312778L28,158.01219590008256L32.666666666666664,137.29065387832873L37.333333333333336,118.11939141987008L42,103.36322199793672L46.666666666666664,88.41221699221049L51.33333333333333,77.11369228201659L56,69.31580827121853L60.66666666666667,60.996715080070395L65.33333333333333,55.22640868531856L70,49.143113076811275L74.66666666666667,44.828516437586586L79.33333333333333,39.75911045426612L84,35.742629793795416L88.66666666666666,33.259464507483386L93.33333333333333,31.01754623470489L98,27.188960747698175L102.66666666666666,26.17169207635455L107.33333333333334,23.98094957800949L112,22.44081079063583L116.66666666666667,21.290988131042855L121.33333333333334,20.60111067860535L126,19.961431828906317L130.66666666666666,18.674555645889182L135.33333333333334,16.54783527997268L140,15.422320835814965L144.66666666666669,13.843958713275246L149.33333333333334,12.370144378675189L154,11.786883766043415L158.66666666666666,11.888454516089494L163.33333333333334,11.196842673686124L168,9.577794472625802L172.66666666666669,9.659947160978646L177.33333333333331,9.784495598129269L182,8.429373101573304L186.66666666666666,7.992569678200678L191.33333333333334,7.3542175689610705L196,6.67017900685425L200.66666666666666,6.5607831698601125L205.33333333333331,7.322942604961163L210,6.726670855009502L214.66666666666669,5.7668672758037065L219.33333333333334,4.739458248181163L224,5.477607539521169L228.66666666666666,5.167942935927259L233.33333333333334,5.508927878582023L238,5.26199196388002L242.66666666666669,4.135505763324708L247.33333333333331,4.061654572266898L252,3.9421010998348915" style="fill: none;" fill="none"></path></g><g><path stroke="rgb(255, 112, 67)" stroke-width="2px" d="M23.333333333333332,185.50381720066073L28,161.75143145024776L32.666666666666664,147.28114086754468L37.333333333333336,133.80743851775628L42,122.61019830195791L46.666666666666664,110.95070087892087L51.33333333333333,102.91957304936962L56,96.71643331437724L60.66666666666667,91.84557026530464L65.33333333333333,86.07757364578225L70,80.52435675081003L74.66666666666667,76.30031086554055L79.33333333333333,71.81259572537692L84,68.59650987846204L88.66666666666666,65.08737757351186L93.33333333333333,62.23018790901556L98,59.61318342295907L102.66666666666666,56.538003031099166L107.33333333333334,55.370433317917254L112,53.164787705327846L116.66666666666667,52.142471784456205L121.33333333333334,47.91680586398554L126,46.51027505684804L130.66666666666666,45.290091842900004L135.33333333333334,43.278644094625065L140,40.41615427591687L144.66666666666669,39.90275986732053L149.33333333333334,37.18654589590513L154,37.43819768603672L158.66666666666666,35.858323554864086L163.33333333333334,31.674425750723366L168,33.22787186930988L172.66666666666669,32.12804730307586L177.33333333333331,30.866112050447338L182,31.237775175424066L186.66666666666666,30.331948800669046L191.33333333333334,29.78845298179559L196,30.515922906051635L200.66666666666666,27.79170262328864L205.33333333333331,26.98496739465687L210,26.877210380936805L214.66666666666669,26.285758401052714L219.33333333333334,26.608184567244432L224,26.5006270355703L228.66666666666666,26.36083569207656L233.33333333333334,24.696609771617982L238,23.472303745920623L242.66666666666669,22.66246330603638L247.33333333333331,22.176559042117493L252,20.00363807150837" style="fill: none;" fill="none"></path></g></g></g></g><g opacity="0.2"><g><g><g><path stroke="rgb(204, 51, 17)" stroke-width="2px" d="M23.333333333333332,158.60013544559476L28,124.73533809185027L32.666666666666664,108.93175661563872L37.333333333333336,93.12817513942716L42,83.90942513942717L46.666666666666664,76.19577646255492L51.33333333333333,72.05675661563872L56,68.48212778568266L60.66666666666667,64.15496587753296L65.33333333333333,53.61925661563872L70,48.53952646255492L74.66666666666667,52.114155292510986L79.33333333333333,40.449628829956055L84,43.64797353744507L88.66666666666666,39.88520264625549L93.33333333333333,35.934324860572815L98,31.795269846916185L102.66666666666666,31.04273676872252L107.33333333333334,29.91391956806182L112,28.973209261894226L116.66666666666667,25.96300661563872L121.33333333333334,26.151148676872246L126,21.635844707489007L130.66666666666666,20.130743384361274L135.33333333333334,20.130743384361274L140,17.308682799339294L144.66666666666669,15.051013231277473L149.33333333333334,15.991723537445068L154,16.556114554405205L158.66666666666666,15.23915529251098L163.33333333333334,12.981520891189582L168,13.169627785682685L172.66666666666669,18.62564206123352L177.33333333333331,11.100135445594795L182,14.862871170043945L186.66666666666666,7.90179073810578L191.33333333333334,8.842465877532952L196,9.971318244934075L200.66666666666666,9.971318244934075L205.33333333333331,8.278074860572815L210,8.654323816299446L214.66666666666669,7.337364554405219L219.33333333333334,6.584831476211554L224,7.525506615638727L228.66666666666666,6.772973537445062L233.33333333333334,6.584831476211554L238,8.466181755065918L242.66666666666669,16.93239867687226L247.33333333333331,6.396689414978027L252,5.455979108810431" style="fill: none;" fill="none"></path></g><g><path stroke="rgb(0, 119, 187)" stroke-width="2px" d="M23.333333333333332,185.88010132312772L28,141.29145264625546L32.666666666666664,117.39797353744504L37.333333333333336,95.5739867687225L42,84.0975672006607L46.666666666666664,67.729594707489L51.33333333333333,60.95662117004394L56,57.94641852378845L60.66666666666667,48.727668523788445L65.33333333333333,46.658176183700554L70,40.073344707489L74.66666666666667,38.38010132312774L79.33333333333333,32.17155396938324L84,29.725777506828294L88.66666666666666,29.537635445594788L93.33333333333333,27.65625L98,21.4477026462555L102.66666666666666,24.646047353744493L107.33333333333334,20.695169568061836L112,20.130743384361274L116.66666666666667,19.566317200660713L121.33333333333334,19.566317200660713L126,19.001926183700554L130.66666666666666,16.744256615638733L135.33333333333334,13.357769846916192L140,13.734053969383247L144.66666666666669,11.476419568061829L149.33333333333334,10.159425139427178L154,10.911993384361267L158.66666666666666,12.040810585021966L163.33333333333334,10.159425139427178L168,7.149222493171692L172.66666666666669,9.783176183700569L177.33333333333331,9.971318244934075L182,6.396689414978027L186.66666666666666,7.337364554405219L191.33333333333334,6.396689414978027L196,5.644121170043939L200.66666666666666,6.396689414978027L205.33333333333331,8.466181755065918L210,5.832263231277466L214.66666666666669,4.327161908149713L219.33333333333334,3.1983447074890137L224,6.584831476211554L228.66666666666666,4.7034460306167665L233.33333333333334,6.0204052925109925L238,4.8915880918502745L242.66666666666669,2.445776462554925L247.33333333333331,3.9508777856826782L252,3.762770891189575" style="fill: none;" fill="none"></path></g><g><path stroke="rgb(255, 112, 67)" stroke-width="2px" d="M23.333333333333332,185.5038172006607L28,147.5L32.666666666666664,133.38966190814972L37.333333333333336,117.9623645544052L42,107.99108147621153L46.666666666666664,94.82141852378844L51.33333333333333,91.43493175506592L56,87.67219603061675L60.66666666666667,84.66199338436127L65.33333333333333,77.51277089118958L70,72.24489867687224L74.66666666666667,69.98722910881042L79.33333333333333,65.09567618370055L84,63.77868175506592L88.66666666666666,59.82780396938324L93.33333333333333,57.94641852378845L98,55.688784122467034L102.66666666666666,51.92601323127746L107.33333333333334,53.61925661563872L112,49.85652089118957L116.66666666666667,50.60905396938323L121.33333333333334,41.57844603061675L126,44.40050661563873L130.66666666666666,43.45983147621154L135.33333333333334,40.26148676872253L140,36.12243175506592L144.66666666666669,39.13266956806183L149.33333333333334,33.11222910881041L154,37.81567513942718L158.66666666666666,33.488513231277466L163.33333333333334,25.398580431938157L168,35.55804073810576L172.66666666666669,30.47831058502196L177.33333333333331,28.973209261894226L182,31.795269846916185L186.66666666666666,28.973209261894226L191.33333333333334,28.973209261894226L196,31.607127785682678L200.66666666666666,23.705372214317322L205.33333333333331,25.774864554405212L210,26.715574860572808L214.66666666666669,25.398580431938157L219.33333333333334,27.09182381629944L224,26.339290738105774L228.66666666666666,26.151148676872246L233.33333333333334,22.200270891189568L238,21.635844707489007L242.66666666666669,21.4477026462555L247.33333333333331,21.4477026462555L252,16.744256615638733" style="fill: none;" fill="none"></path></g></g></g></g></g></g><g transform="translate(50, 177)" clip-path="url(#clip_1)"><clipPath id="clip_1"><rect width="280" height="23"></rect></clipPath><g><g><line x1="0" y1="0" x2="0" y2="5" style="visibility: inherit;" fill="rgb(0, 0, 0)" stroke="rgb(204, 204, 204)" stroke-width="1px"></line><line x1="23.333333333333332" y1="0" x2="23.333333333333332" y2="5" style="visibility: inherit;" fill="rgb(0, 0, 0)" stroke="rgb(204, 204, 204)" stroke-width="1px"></line><line x1="46.666666666666664" y1="0" x2="46.666666666666664" y2="5" style="visibility: inherit;" fill="rgb(0, 0, 0)" stroke="rgb(204, 204, 204)" stroke-width="1px"></line><line x1="70" y1="0" x2="70" y2="5" style="visibility: inherit;" fill="rgb(0, 0, 0)" stroke="rgb(204, 204, 204)" stroke-width="1px"></line><line x1="93.33333333333333" y1="0" x2="93.33333333333333" y2="5" style="visibility: inherit;" fill="rgb(0, 0, 0)" stroke="rgb(204, 204, 204)" stroke-width="1px"></line><line x1="116.66666666666667" y1="0" x2="116.66666666666667" y2="5" style="visibility: inherit;" fill="rgb(0, 0, 0)" stroke="rgb(204, 204, 204)" stroke-width="1px"></line><line x1="140" y1="0" x2="140" y2="5" style="visibility: inherit;" fill="rgb(0, 0, 0)" stroke="rgb(204, 204, 204)" stroke-width="1px"></line><line x1="163.33333333333334" y1="0" x2="163.33333333333334" y2="5" style="visibility: inherit;" fill="rgb(0, 0, 0)" stroke="rgb(204, 204, 204)" stroke-width="1px"></line><line x1="186.66666666666666" y1="0" x2="186.66666666666666" y2="5" style="visibility: inherit;" fill="rgb(0, 0, 0)" stroke="rgb(204, 204, 204)" stroke-width="1px"></line><line x1="210" y1="0" x2="210" y2="5" style="visibility: inherit;" fill="rgb(0, 0, 0)" stroke="rgb(204, 204, 204)" stroke-width="1px"></line><line x1="233.33333333333334" y1="0" x2="233.33333333333334" y2="5" style="visibility: inherit;" fill="rgb(0, 0, 0)" stroke="rgb(204, 204, 204)" stroke-width="1px"></line><line x1="256.66666666666663" y1="0" x2="256.66666666666663" y2="5" style="visibility: inherit;" fill="rgb(0, 0, 0)" stroke="rgb(204, 204, 204)" stroke-width="1px"></line><line x1="280" y1="0" x2="280" y2="5" style="visibility: inherit;" fill="rgb(0, 0, 0)" stroke="rgb(204, 204, 204)" stroke-width="1px"></line></g><g transform="translate(0, 8)"><text x="0" y="0" dx="0em" dy="0.95em" style="text-anchor: middle; visibility: hidden; font-family: Roboto, sans-serif; font-size: 12px; font-weight: 200;" fill="rgb(33, 33, 33)" stroke="none" stroke-width="1px">-5</text><text x="23.333333333333332" y="0" dx="0em" dy="0.95em" style="text-anchor: middle; visibility: inherit; font-family: Roboto, sans-serif; font-size: 12px; font-weight: 200;" fill="rgb(33, 33, 33)" stroke="none" stroke-width="1px">0</text><text x="46.666666666666664" y="0" dx="0em" dy="0.95em" style="text-anchor: middle; visibility: inherit; font-family: Roboto, sans-serif; font-size: 12px; font-weight: 200;" fill="rgb(33, 33, 33)" stroke="none" stroke-width="1px">5</text><text x="70" y="0" dx="0em" dy="0.95em" style="text-anchor: middle; visibility: inherit; font-family: Roboto, sans-serif; font-size: 12px; font-weight: 200;" fill="rgb(33, 33, 33)" stroke="none" stroke-width="1px">10</text><text x="93.33333333333333" y="0" dx="0em" dy="0.95em" style="text-anchor: middle; visibility: inherit; font-family: Roboto, sans-serif; font-size: 12px; font-weight: 200;" fill="rgb(33, 33, 33)" stroke="none" stroke-width="1px">15</text><text x="116.66666666666667" y="0" dx="0em" dy="0.95em" style="text-anchor: middle; visibility: inherit; font-family: Roboto, sans-serif; font-size: 12px; font-weight: 200;" fill="rgb(33, 33, 33)" stroke="none" stroke-width="1px">20</text><text x="140" y="0" dx="0em" dy="0.95em" style="text-anchor: middle; visibility: inherit; font-family: Roboto, sans-serif; font-size: 12px; font-weight: 200;" fill="rgb(33, 33, 33)" stroke="none" stroke-width="1px">25</text><text x="163.33333333333334" y="0" dx="0em" dy="0.95em" style="text-anchor: middle; visibility: inherit; font-family: Roboto, sans-serif; font-size: 12px; font-weight: 200;" fill="rgb(33, 33, 33)" stroke="none" stroke-width="1px">30</text><text x="186.66666666666666" y="0" dx="0em" dy="0.95em" style="text-anchor: middle; visibility: inherit; font-family: Roboto, sans-serif; font-size: 12px; font-weight: 200;" fill="rgb(33, 33, 33)" stroke="none" stroke-width="1px">35</text><text x="210" y="0" dx="0em" dy="0.95em" style="text-anchor: middle; visibility: inherit; font-family: Roboto, sans-serif; font-size: 12px; font-weight: 200;" fill="rgb(33, 33, 33)" stroke="none" stroke-width="1px">40</text><text x="233.33333333333334" y="0" dx="0em" dy="0.95em" style="text-anchor: middle; visibility: inherit; font-family: Roboto, sans-serif; font-size: 12px; font-weight: 200;" fill="rgb(33, 33, 33)" stroke="none" stroke-width="1px">45</text><text x="256.66666666666663" y="0" dx="0em" dy="0.95em" style="text-anchor: middle; visibility: inherit; font-family: Roboto, sans-serif; font-size: 12px; font-weight: 200;" fill="rgb(33, 33, 33)" stroke="none" stroke-width="1px">50</text><text x="280" y="0" dx="0em" dy="0.95em" style="text-anchor: middle; visibility: hidden; font-family: Roboto, sans-serif; font-size: 12px; font-weight: 200;" fill="rgb(33, 33, 33)" stroke="none" stroke-width="1px">55</text></g><line x1="0" y1="0" x2="280" y2="0" fill="rgb(0, 0, 0)" stroke="rgb(204, 204, 204)" stroke-width="1px"></line></g></g></g></g></svg>