<?xml version="1.0" encoding="utf-8"?>
<!-- Generator: Adobe Illustrator 24.1.1, SVG Export Plug-In . SVG Version: 6.00 Build 0)  -->
<svg version="1.1" id="bold" xmlns="http://www.w3.org/2000/svg" xmlns:xlink="http://www.w3.org/1999/xlink" x="0px" y="0px"
	 viewBox="0 0 512 512" style="enable-background:new 0 0 512 512;" xml:space="preserve">
<style type="text/css">
	.st0{fill:#FFFFFF;}
</style>
<path class="st0" d="M261.3,42.7h-23.5C230.8,18.1,208.2,0,181.3,0s-49.5,18.1-56.5,42.7h-23.5c-8.7,0-16,7.3-16,16v32
	c0,20.5,16.9,37.3,37.3,37.3H240c20.5,0,37.3-16.9,37.3-37.3v-32C277.3,49.9,270.1,42.7,261.3,42.7z"/>
<path class="st0" d="M304,64h-5.3v26.7c0,32.4-26.2,58.7-58.7,58.7H122.7c-32.4,0-58.7-26.2-58.7-58.7V64h-5.3
	C26.2,64,0,90.2,0,122.7v266.7C0,421.8,26.2,448,58.7,448h157.4l4.7-26.2c2.1-11.9,7.7-22.6,16.2-31.4l17.1-17.1H80
	c-8.7,0-16-7.3-16-16c0-8.7,7.3-16,16-16h202.7c1.1,0,1.9,0,3,0.4h0.2l76.8-76.8V122.7C362.7,90.2,336.4,64,304,64L304,64z
	 M282.7,304H80c-8.7,0-16-7.3-16-16c0-8.7,7.3-16,16-16h202.7c8.7,0,16,7.3,16,16C298.7,296.7,291.4,304,282.7,304z M282.7,234.7H80
	c-8.7,0-16-7.3-16-16s7.3-16,16-16h202.7c8.7,0,16,7.3,16,16S291.4,234.7,282.7,234.7z"/>
<path class="st0" d="M267.2,512c-4.2,0-8.3-1.7-11.3-4.7c-3.7-3.7-5.4-8.9-4.4-14.1l11.3-64.1c0.6-3.2,2.1-6.2,4.4-8.5l158.4-158.4
	c19.5-19.5,38.6-14.2,49-3.8l26.4,26.4c14.6,14.5,14.6,38.2,0,52.8L342.7,496c-2.3,2.3-5.3,3.9-8.5,4.4L270,511.7
	C269.1,511.9,268.2,512,267.2,512L267.2,512z M331.3,484.7h0.2H331.3z"/>
</svg>
