<svg id="Capa_1" enable-background="new 0 0 512 512" height="512" viewBox="0 0 512 512" width="512" xmlns="http://www.w3.org/2000/svg"><g><g><path clip-rule="evenodd" d="m436.869 491.86h-413.494c-9.694 0-13.258-2.514-11.476-11.682l16.38-83.846c12.383-63.511 86.793-83.867 140.311-97.589 4.471-1.143 7.129-3.152 7.129-8.035.587 8.303 108.808 8.993 108.808.072.031 4.832 2.679 6.83 7.129 7.963 53.518 13.722 127.928 34.078 140.311 97.589l16.38 83.846c1.78 9.168-1.784 11.682-11.478 11.682z" fill="#b3e59f" fill-rule="evenodd"/></g><g><path clip-rule="evenodd" d="m230.122 345.114c29.932 0 54.403-24.472 54.403-54.404v-39.92c-8.352 5.811-17.317 10.63-26.603 14.076-10.075 3.738-18.923 5.578-27.8 5.578s-17.725-1.84-27.8-5.578c-9.286-3.446-18.251-8.264-26.603-14.076v39.92c0 29.933 24.471 54.404 54.403 54.404z" fill="#ffdfcf" fill-rule="evenodd"/></g><g><path clip-rule="evenodd" d="m372.188 87.549c0-41.438-33.932-75.371-75.369-75.371h-16.294c7.622 36.036 18.66 79.927 55.717 119.642 3.358 10.192 21.609 2.949 35.947 2.774v-47.045z" fill="#e0dfe1" fill-rule="evenodd"/></g><g><path clip-rule="evenodd" d="m375.488 155.97v-11.097c0-3.796-1.226-7.359-3.3-10.279-3.183-4.526-8.41-7.505-14.28-7.505h-16.762c-14.367 17.58-11.184 38.08-2.015 57.704-.058 1.84 36.357-.964 36.357-28.823z" fill="#ffcebf" fill-rule="evenodd"/></g><g><path clip-rule="evenodd" d="m179.72 12.177h-16.295c-41.437 0-75.369 33.933-75.369 75.371v47.045c10.921-5.987 39.072 10.922 48.124-11.126 25.406-30.662 13.93-69.91 43.54-111.29z" fill="#e0dfe1" fill-rule="evenodd"/></g><g><path clip-rule="evenodd" d="m119.097 127.089h-16.762c-5.87 0-11.097 2.979-14.28 7.505-2.073 2.949-3.3 6.512-3.3 10.279v11.097c0 18.806 17.112 28.998 36.356 29.173v-.35c13.346-17.346 24.472-46.49-2.014-57.704z" fill="#ffcebf" fill-rule="evenodd"/></g><g><path clip-rule="evenodd" d="m257.922 275.175c39.627-14.718 73.033-54.2 81.21-90.382 1.285-5.548 1.927-11.039 1.927-16.353v-38.84-18.66c0-42.898-24.675-80.336-60.535-98.763-15.156-7.797-32.297-12.177-50.402-12.177s-35.246 4.38-50.402 12.177c-35.86 18.456-60.535 55.864-60.535 98.763v57.5c0 5.315.642 10.805 1.927 16.353 8.206 36.182 41.583 75.663 81.21 90.382 10.075 3.709 18.923 5.578 27.8 5.578s17.725-1.87 27.8-5.578z" fill="#ffeee6" fill-rule="evenodd"/></g><g><path clip-rule="evenodd" d="m284.525 261.099c27.304-18.982 48.329-48.622 54.607-76.306 1.285-5.548 1.927-11.039 1.927-16.353 0-19.157 0-38.343 0-57.5 0-42.898-24.675-80.336-60.535-98.763-10.717-5.519-22.456-9.345-34.808-11.097 4.147 1.548 8.176 3.329 12.06 5.344 3.417 1.752 6.716 3.68 9.929 5.753 5.636 3.68 10.892 7.855 15.769 12.44 20.003 18.923 33.027 45.147 34.662 74.291.117 2.073.175 4.147.175 6.249v55.251 2.249c0 1.373-.029 2.774-.117 4.147-.263 4.001-.876 8.089-1.811 12.236-8.176 36.182-41.583 75.664-81.239 90.352-10.045 3.738-18.893 5.607-27.771 5.607-2.103 0-4.234-.117-6.337-.321.438.175.876.321 1.285.496 10.075 3.709 18.923 5.578 27.8 5.578s17.725-1.869 27.8-5.578c9.287-3.445 18.252-8.264 26.604-14.075z" fill="#ffdfcf" fill-rule="evenodd"/></g><g><path d="m229.844 245.161c-.255 0-.509-.003-.764-.008-10.323-.216-19.899-4.734-26.967-12.721-2.828-3.196-2.53-8.078.666-10.906 3.195-2.828 8.078-2.529 10.905.666 4.177 4.719 9.759 7.387 15.719 7.512 6.276.145 12.437-2.621 17.374-7.75 2.959-3.074 7.85-3.167 10.925-.208 3.074 2.959 3.168 7.851.208 10.925-7.771 8.073-17.711 12.49-28.066 12.49z" fill="#ffcebf"/></g><g><path d="m105.511 439.764v52.096h-15.453v-52.096c0-4.275 3.451-7.726 7.726-7.726 4.266-.001 7.727 3.45 7.727 7.726z" fill="#95d6a4"/></g><g><path d="m255.181 59.505c-.684 0-1.38-.092-2.071-.284-15.681-4.355-30.292-4.356-45.975 0-4.111 1.143-8.37-1.266-9.512-5.377-1.142-4.112 1.266-8.37 5.377-9.512 18.502-5.138 35.74-5.139 54.244 0 4.112 1.142 6.519 5.4 5.377 9.512-.949 3.42-4.056 5.661-7.44 5.661z" fill="#ffdfcf"/></g><g><path d="m281.696 90.138c-.683 0-1.378-.092-2.068-.283-33.777-9.367-65.238-9.366-99.011 0-4.112 1.141-8.37-1.269-9.51-5.38-1.14-4.112 1.269-8.37 5.381-9.51 36.592-10.148 70.677-10.148 107.269 0 4.113 1.14 6.521 5.398 5.381 9.51-.949 3.42-4.057 5.662-7.442 5.663z" fill="#ffdfcf"/></g><g><path clip-rule="evenodd" d="m284.525 290.71v-29.611c-8.352 5.811-17.317 10.63-26.603 14.076-10.075 3.709-18.923 5.578-27.8 5.578s-17.725-1.869-27.8-5.578c-9.286-3.446-18.251-8.264-26.603-14.076v29.611c21.755 13.462 57.206 20.033 83.049 8.673 9.987-4.41 9.199-2.92 9.199 8.819v10.25c0 4.351-.496 8.586-1.489 12.645 11.652-10.513 17.872-24.734 18.047-40.387z" fill="#ffcebf" fill-rule="evenodd"/></g><g><path clip-rule="evenodd" d="m488.44 359.891c-26.398-49.673-87.459-69.035-137.511-44.154-.818.409-1.664.847-2.482 1.285-50.49 26.808-69.704 89.476-42.868 139.996 7.534 14.192 17.901 25.932 30.048 34.839 31.041 22.807 73.617 27.304 109.915 8.031 50.49-26.809 69.705-89.477 42.898-139.997z" fill="#faf5dc" fill-rule="evenodd"/></g><g><path clip-rule="evenodd" d="m453.807 400.278c0-6.162-5.052-11.214-11.213-11.214h-2.103-24.121v-26.195c0-6.191-5.052-11.214-11.213-11.214h-16.324c-6.162 0-11.213 5.023-11.213 11.214v26.195h-26.223c-6.162 0-11.213 5.052-11.213 11.214v16.353c0 6.162 5.052 11.214 11.213 11.214h11.067 15.156v26.195c0 6.191 5.052 11.214 11.213 11.214h16.324c6.162 0 11.213-5.023 11.213-11.214v-26.195h26.223c2.015 0 3.913-.555 5.548-1.489 3.387-1.927 5.665-5.578 5.665-9.724v-16.354z" fill="#ff8086" fill-rule="evenodd"/></g><g><path clip-rule="evenodd" d="m488.44 359.891c-21.551-40.533-66.229-60.916-109.127-53.47 32.18 4.147 61.937 23.304 78.319 54.141 19.974 37.613 14.426 81.942-10.542 113.218-5.344 6.687-11.564 12.791-18.631 18.076-4.263 3.212-8.848 6.133-13.696 8.702-9.929 5.286-20.354 8.761-30.866 10.6 20.5 2.628 41.992-.847 61.645-11.272 50.49-26.807 69.705-89.475 42.898-139.995z" fill="#f5ebcd" fill-rule="evenodd"/></g><g><path clip-rule="evenodd" d="m305.579 457.018c-26.836-50.52-7.622-113.189 42.868-139.996.438-.234.905-.467 1.343-.701-16.733-6.425-42.722-13.608-58.14-17.58-4.409-1.11-7.067-3.125-7.125-7.914v.029.029c0 7.096-1.431 13.93-3.942 20.15-3.037 7.534-7.768 14.338-14.104 20.062 3.767.964 13.52 4.293 20.12 6.395 1.285.409 4.643.818-.467 10.279-10.425 19.274-30.019 68.275.029 124.87 3.65 6.833 7.768 13.258 12.352 19.215h37.115c-12.148-8.906-22.515-20.645-30.049-34.838z" fill="#95d6a4" fill-rule="evenodd"/></g><g><path clip-rule="evenodd" d="m208.25 157.08c0-14.105-11.447-25.552-25.581-25.552-14.104 0-25.551 11.447-25.551 25.552 0 14.134 11.447 25.552 25.551 25.552 14.134 0 25.581-11.418 25.581-25.552z" fill="#edf4ff" fill-rule="evenodd"/></g><g><path clip-rule="evenodd" d="m303.126 157.08c0-14.105-11.447-25.552-25.551-25.552-14.134 0-25.581 11.447-25.581 25.552 0 14.134 11.447 25.552 25.581 25.552 14.104 0 25.551-11.418 25.551-25.552z" fill="#edf4ff" fill-rule="evenodd"/></g><g><path clip-rule="evenodd" d="m208.25 157.08c0-14.105-11.447-25.552-25.581-25.552-2.599 0-5.139.38-7.505 1.11 9.111 3.913 15.506 12.966 15.506 23.508 0 11.506-7.592 21.23-18.047 24.442 3.095 1.314 6.483 2.044 10.045 2.044 14.135 0 25.582-11.418 25.582-25.552z" fill="#dbeaff" fill-rule="evenodd"/></g><g><path clip-rule="evenodd" d="m303.126 157.08c0-14.105-11.447-25.552-25.551-25.552-2.628 0-5.169.38-7.534 1.11 9.111 3.913 15.506 12.966 15.506 23.508 0 11.506-7.592 21.23-18.047 24.442 3.095 1.314 6.483 2.044 10.075 2.044 14.104 0 25.551-11.418 25.551-25.552z" fill="#dbeaff" fill-rule="evenodd"/></g><path d="m347.639 122.899c-2.316-3.586-7.097-4.615-10.682-2.301l-30.625 19.767c-5.774-9.895-16.498-16.564-28.757-16.564-15.703 0-28.894 10.917-32.391 25.552h-30.123c-3.497-14.635-16.688-25.552-32.392-25.552-12.259 0-22.983 6.668-28.757 16.563l-30.625-19.767c-3.586-2.314-8.368-1.284-10.682 2.301-2.314 3.586-1.284 8.368 2.302 10.682l34.515 22.278c-.015.406-.031.812-.031 1.221 0 18.366 14.929 33.308 33.278 33.308 15.706 0 28.899-10.93 32.393-25.581h30.119c3.495 14.651 16.687 25.581 32.392 25.581 18.349 0 33.278-14.942 33.278-33.308 0-.409-.016-.815-.031-1.221l34.516-22.279c3.586-2.312 4.617-7.095 2.303-10.68zm-164.97 52.036c-9.829 0-17.825-8.01-17.825-17.855 0-9.829 7.996-17.826 17.825-17.826 9.845 0 17.855 7.996 17.855 17.826 0 9.846-8.01 17.855-17.855 17.855zm94.905 0c-9.845 0-17.854-8.01-17.854-17.855 0-9.829 8.009-17.826 17.854-17.826 9.829 0 17.825 7.996 17.825 17.826 0 9.846-7.996 17.855-17.825 17.855z" fill="#6a5d6a"/></g></svg>