<svg viewBox="0 0 330 200" xmlns="http://www.w3.org/2000/svg"><g><g><g><g><g><line x1="50" y1="177" x2="45" y2="177" style="visibility: inherit;" fill="rgb(0, 0, 0)" stroke="rgb(204, 204, 204)" stroke-width="1px"></line><line x1="50" y1="162.25" x2="45" y2="162.25" style="visibility: inherit;" fill="rgb(0, 0, 0)" stroke="rgb(204, 204, 204)" stroke-width="1px"></line><line x1="50" y1="147.5" x2="45" y2="147.5" style="visibility: inherit;" fill="rgb(0, 0, 0)" stroke="rgb(204, 204, 204)" stroke-width="1px"></line><line x1="50" y1="132.75000000000003" x2="45" y2="132.75000000000003" style="visibility: inherit;" fill="rgb(0, 0, 0)" stroke="rgb(204, 204, 204)" stroke-width="1px"></line><line x1="50" y1="118.00000000000001" x2="45" y2="118.00000000000001" style="visibility: inherit;" fill="rgb(0, 0, 0)" stroke="rgb(204, 204, 204)" stroke-width="1px"></line><line x1="50" y1="103.25000000000003" x2="45" y2="103.25000000000003" style="visibility: inherit;" fill="rgb(0, 0, 0)" stroke="rgb(204, 204, 204)" stroke-width="1px"></line><line x1="50" y1="88.50000000000001" x2="45" y2="88.50000000000001" style="visibility: inherit;" fill="rgb(0, 0, 0)" stroke="rgb(204, 204, 204)" stroke-width="1px"></line><line x1="50" y1="73.75000000000001" x2="45" y2="73.75000000000001" style="visibility: inherit;" fill="rgb(0, 0, 0)" stroke="rgb(204, 204, 204)" stroke-width="1px"></line><line x1="50" y1="59.00000000000003" x2="45" y2="59.00000000000003" style="visibility: inherit;" fill="rgb(0, 0, 0)" stroke="rgb(204, 204, 204)" stroke-width="1px"></line><line x1="50" y1="44.25000000000002" x2="45" y2="44.25000000000002" style="visibility: inherit;" fill="rgb(0, 0, 0)" stroke="rgb(204, 204, 204)" stroke-width="1px"></line><line x1="50" y1="29.500000000000032" x2="45" y2="29.500000000000032" style="visibility: inherit;" fill="rgb(0, 0, 0)" stroke="rgb(204, 204, 204)" stroke-width="1px"></line><line x1="50" y1="14.750000000000007" x2="45" y2="14.750000000000007" style="visibility: inherit;" fill="rgb(0, 0, 0)" stroke="rgb(204, 204, 204)" stroke-width="1px"></line><line x1="50" y1="0" x2="45" y2="0" style="visibility: inherit;" fill="rgb(0, 0, 0)" stroke="rgb(204, 204, 204)" stroke-width="1px"></line></g><g transform="translate(40, 0)"><text x="0" y="177" dx="0em" dy="0.3em" style="text-anchor: end; visibility: hidden; font-family: Roboto, sans-serif; font-size: 12px; font-weight: 200;" fill="rgb(33, 33, 33)" stroke="none" stroke-width="1px">0.45</text><text x="0" y="162.25" dx="0em" dy="0.3em" style="text-anchor: end; visibility: inherit; font-family: Roboto, sans-serif; font-size: 12px; font-weight: 200;" fill="rgb(33, 33, 33)" stroke="none" stroke-width="1px">0.5</text><text x="0" y="147.5" dx="0em" dy="0.3em" style="text-anchor: end; visibility: hidden; font-family: Roboto, sans-serif; font-size: 12px; font-weight: 200;" fill="rgb(33, 33, 33)" stroke="none" stroke-width="1px">0.55</text><text x="0" y="132.75000000000003" dx="0em" dy="0.3em" style="text-anchor: end; visibility: inherit; font-family: Roboto, sans-serif; font-size: 12px; font-weight: 200;" fill="rgb(33, 33, 33)" stroke="none" stroke-width="1px">0.6</text><text x="0" y="118.00000000000001" dx="0em" dy="0.3em" style="text-anchor: end; visibility: hidden; font-family: Roboto, sans-serif; font-size: 12px; font-weight: 200;" fill="rgb(33, 33, 33)" stroke="none" stroke-width="1px">0.65</text><text x="0" y="103.25000000000003" dx="0em" dy="0.3em" style="text-anchor: end; visibility: inherit; font-family: Roboto, sans-serif; font-size: 12px; font-weight: 200;" fill="rgb(33, 33, 33)" stroke="none" stroke-width="1px">0.7</text><text x="0" y="88.50000000000001" dx="0em" dy="0.3em" style="text-anchor: end; visibility: hidden; font-family: Roboto, sans-serif; font-size: 12px; font-weight: 200;" fill="rgb(33, 33, 33)" stroke="none" stroke-width="1px">0.75</text><text x="0" y="73.75000000000001" dx="0em" dy="0.3em" style="text-anchor: end; visibility: inherit; font-family: Roboto, sans-serif; font-size: 12px; font-weight: 200;" fill="rgb(33, 33, 33)" stroke="none" stroke-width="1px">0.8</text><text x="0" y="59.00000000000003" dx="0em" dy="0.3em" style="text-anchor: end; visibility: hidden; font-family: Roboto, sans-serif; font-size: 12px; font-weight: 200;" fill="rgb(33, 33, 33)" stroke="none" stroke-width="1px">0.85</text><text x="0" y="44.25000000000002" dx="0em" dy="0.3em" style="text-anchor: end; visibility: inherit; font-family: Roboto, sans-serif; font-size: 12px; font-weight: 200;" fill="rgb(33, 33, 33)" stroke="none" stroke-width="1px">0.9</text><text x="0" y="29.500000000000032" dx="0em" dy="0.3em" style="text-anchor: end; visibility: hidden; font-family: Roboto, sans-serif; font-size: 12px; font-weight: 200;" fill="rgb(33, 33, 33)" stroke="none" stroke-width="1px">0.95</text><text x="0" y="14.750000000000007" dx="0em" dy="0.3em" style="text-anchor: end; visibility: inherit; font-family: Roboto, sans-serif; font-size: 12px; font-weight: 200;" fill="rgb(33, 33, 33)" stroke="none" stroke-width="1px">1</text><text x="0" y="0" dx="0em" dy="0.3em" style="text-anchor: end; visibility: hidden; font-family: Roboto, sans-serif; font-size: 12px; font-weight: 200;" fill="rgb(33, 33, 33)" stroke="none" stroke-width="1px">1.05</text></g><line x1="50" y1="0" x2="50" y2="177" fill="rgb(0, 0, 0)" stroke="rgb(204, 204, 204)" stroke-width="1px"></line></g></g><g transform="translate(50, 0)" clip-path="url(#clip_0)"><clipPath id="clip_0"><rect width="280" height="177"></rect></clipPath><g><g><g><line x1="0" y1="0" x2="0" y2="177" fill="rgb(0, 0, 0)" stroke="rgb(66, 66, 66)" stroke-width="1px" opacity="0.25"></line><line x1="31.11111111111111" y1="0" x2="31.11111111111111" y2="177" fill="rgb(0, 0, 0)" stroke="rgb(66, 66, 66)" stroke-width="1px" opacity="0.25"></line><line x1="62.22222222222222" y1="0" x2="62.22222222222222" y2="177" fill="rgb(0, 0, 0)" stroke="rgb(66, 66, 66)" stroke-width="1px" opacity="0.25"></line><line x1="93.33333333333333" y1="0" x2="93.33333333333333" y2="177" fill="rgb(0, 0, 0)" stroke="rgb(66, 66, 66)" stroke-width="1px" opacity="0.25"></line><line x1="124.44444444444444" y1="0" x2="124.44444444444444" y2="177" fill="rgb(0, 0, 0)" stroke="rgb(66, 66, 66)" stroke-width="1px" opacity="0.25"></line><line x1="155.55555555555557" y1="0" x2="155.55555555555557" y2="177" fill="rgb(0, 0, 0)" stroke="rgb(66, 66, 66)" stroke-width="1px" opacity="0.25"></line><line x1="186.66666666666666" y1="0" x2="186.66666666666666" y2="177" fill="rgb(0, 0, 0)" stroke="rgb(66, 66, 66)" stroke-width="1px" opacity="0.25"></line><line x1="217.77777777777777" y1="0" x2="217.77777777777777" y2="177" fill="rgb(0, 0, 0)" stroke="rgb(66, 66, 66)" stroke-width="1px" opacity="0.25"></line><line x1="248.88888888888889" y1="0" x2="248.88888888888889" y2="177" fill="rgb(0, 0, 0)" stroke="rgb(66, 66, 66)" stroke-width="1px" opacity="0.25"></line><line x1="280" y1="0" x2="280" y2="177" fill="rgb(0, 0, 0)" stroke="rgb(66, 66, 66)" stroke-width="1px" opacity="0.25"></line></g><g><line x1="0" y1="177" x2="280" y2="177" fill="rgb(0, 0, 0)" stroke="rgb(66, 66, 66)" stroke-width="1px" opacity="0.25"></line><line x1="0" y1="162.25" x2="280" y2="162.25" fill="rgb(0, 0, 0)" stroke="rgb(66, 66, 66)" stroke-width="1px" opacity="0.25"></line><line x1="0" y1="147.5" x2="280" y2="147.5" fill="rgb(0, 0, 0)" stroke="rgb(66, 66, 66)" stroke-width="1px" opacity="0.25"></line><line x1="0" y1="132.75000000000003" x2="280" y2="132.75000000000003" fill="rgb(0, 0, 0)" stroke="rgb(66, 66, 66)" stroke-width="1px" opacity="0.25"></line><line x1="0" y1="118.00000000000001" x2="280" y2="118.00000000000001" fill="rgb(0, 0, 0)" stroke="rgb(66, 66, 66)" stroke-width="1px" opacity="0.25"></line><line x1="0" y1="103.25000000000003" x2="280" y2="103.25000000000003" fill="rgb(0, 0, 0)" stroke="rgb(66, 66, 66)" stroke-width="1px" opacity="0.25"></line><line x1="0" y1="88.50000000000001" x2="280" y2="88.50000000000001" fill="rgb(0, 0, 0)" stroke="rgb(66, 66, 66)" stroke-width="1px" opacity="0.25"></line><line x1="0" y1="73.75000000000001" x2="280" y2="73.75000000000001" fill="rgb(0, 0, 0)" stroke="rgb(66, 66, 66)" stroke-width="1px" opacity="0.25"></line><line x1="0" y1="59.00000000000003" x2="280" y2="59.00000000000003" fill="rgb(0, 0, 0)" stroke="rgb(66, 66, 66)" stroke-width="1px" opacity="0.25"></line><line x1="0" y1="44.25000000000002" x2="280" y2="44.25000000000002" fill="rgb(0, 0, 0)" stroke="rgb(66, 66, 66)" stroke-width="1px" opacity="0.25"></line><line x1="0" y1="29.500000000000032" x2="280" y2="29.500000000000032" fill="rgb(0, 0, 0)" stroke="rgb(66, 66, 66)" stroke-width="1px" opacity="0.25"></line><line x1="0" y1="14.750000000000007" x2="280" y2="14.750000000000007" fill="rgb(0, 0, 0)" stroke="rgb(66, 66, 66)" stroke-width="1px" opacity="0.25"></line><line x1="0" y1="0" x2="280" y2="0" fill="rgb(0, 0, 0)" stroke="rgb(66, 66, 66)" stroke-width="1px" opacity="0.25"></line></g></g></g><g><g><line x1="0" y1="309.75" x2="280" y2="309.75" fill="rgb(0, 0, 0)" stroke="rgb(153, 153, 153)" stroke-width="1.5px"></line></g></g><g><g><line x1="31.11111111111111" y1="0" x2="31.11111111111111" y2="177" fill="rgb(0, 0, 0)" stroke="rgb(153, 153, 153)" stroke-width="1.5px"></line></g></g><g><g><g><g><g><path stroke="rgb(204, 51, 17)" stroke-width="2px" d="M31.11111111111111,160.6291121840477L32.666666666666664,137.93680584430695L34.22222222222222,160.6291121840477L35.77777777777777,163.8708790242672L37.333333333333336,163.8708790242672L38.88888888888889,163.8708790242672L40.44444444444444,162.79029300808907L42,162.79029300808907L43.55555555555556,162.79029300808907L45.111111111111114,161.70969820022583L46.666666666666664,156.30676811933517L48.22222222222222,144.42032194137573L49.77777777777778,142.25914990901947L51.33333333333333,135.77563381195068L52.888888888888886,129.2921177148819L54.44444444444444,122.80860161781311L56,117.40567153692248L57.55555555555555,110.9221554398537L59.111111111111114,101.19688129425052L60.66666666666667,90.3910211324692L62.22222222222222,93.6327791810036L63.77777777777778,95.79395121335986L65.33333333333333,92.55219316482547L66.88888888888889,90.3910211324692L68.44444444444444,90.3910211324692L70,88.22984910011294L71.55555555555554,84.98809105157855L73.11111111111111,80.66574698686603L74.66666666666667,76.3434029221535L76.22222222222221,79.5851609706879L77.77777777777779,81.74633300304416L79.33333333333333,75.26281690597537L80.88888888888889,75.26281690597537L82.44444444444444,76.3434029221535L84,75.26281690597537L85.55555555555556,74.18223088979724L87.11111111111111,75.26281690597537L88.66666666666666,75.26281690597537L90.22222222222223,75.26281690597537L91.77777777777777,76.3434029221535L93.33333333333333,77.42398893833163L94.8888888888889,74.18223088979724L96.44444444444444,75.26281690597537L98,72.02105885744098L99.55555555555556,70.94047284126285L101.11111111111111,66.61812877655032L102.66666666666666,66.61812877655032L104.22222222222223,67.69871479272845L105.77777777777777,69.85988682508471L107.33333333333334,65.53754276037219L108.88888888888889,68.77930080890658L110.44444444444444,68.77930080890658L112,65.53754276037219L113.55555555555556,67.69871479272845L115.1111111111111,67.69871479272845L116.66666666666667,68.77930080890658L118.22222222222223,66.61812877655032L119.77777777777777,68.77930080890658L121.33333333333334,69.85988682508471L122.88888888888889,67.69871479272845L124.44444444444444,67.69871479272845L126,65.53754276037219L127.55555555555556,63.37637072801593L129.11111111111111,66.61812877655032L130.66666666666666,63.37637072801593L132.22222222222223,63.37637072801593L133.77777777777777,63.37637072801593L135.33333333333334,66.61812877655032L136.88888888888889,67.69871479272845L138.44444444444446,63.37637072801593L140,65.53754276037219L141.55555555555554,63.37637072801593L143.1111111111111,65.53754276037219L144.66666666666669,66.61812877655032L146.22222222222223,65.53754276037219L147.77777777777777,64.45695674419406L149.33333333333334,67.69871479272845L150.88888888888889,66.61812877655032L152.44444444444443,66.61812877655032L154,64.45695674419406L155.55555555555557,66.61812877655032L157.11111111111111,63.37637072801593L158.66666666666666,64.45695674419406L160.2222222222222,63.37637072801593L161.77777777777777,66.61812877655032L163.33333333333334,68.77930080890658L164.88888888888889,69.85988682508471L166.44444444444446,67.69871479272845L168,64.45695674419406L169.55555555555554,62.2957847118378L171.11111111111111,63.37637072801593L172.66666666666669,63.37637072801593L174.22222222222223,63.37637072801593L175.77777777777777,62.2957847118378L177.33333333333331,61.215198695659666L178.88888888888889,64.45695674419406L180.44444444444446,66.61812877655032L182,64.45695674419406L183.55555555555554,70.94047284126285L185.11111111111111,69.85988682508471L186.66666666666666,69.85988682508471L188.22222222222223,65.53754276037219L189.7777777777778,66.61812877655032L191.33333333333334,66.61812877655032L192.88888888888889,67.69871479272845L194.44444444444443,72.02105885744098L196,70.94047284126285L197.55555555555557,69.85988682508471L199.11111111111111,67.69871479272845L200.66666666666666,67.69871479272845L202.22222222222223,68.77930080890658L203.77777777777777,66.61812877655032L205.33333333333331,65.53754276037219L206.8888888888889,69.85988682508471L208.44444444444446,68.77930080890658L210,72.02105885744098L211.55555555555554,73.10164487361911L213.1111111111111,73.10164487361911L214.66666666666669,72.02105885744098L216.22222222222223,68.77930080890658L217.77777777777777,70.94047284126285L219.33333333333334,68.77930080890658L220.88888888888889,63.37637072801593L222.44444444444443,63.37637072801593L224,65.53754276037219L225.55555555555557,63.37637072801593L227.11111111111111,60.134612679481535L228.66666666666666,60.134612679481535L230.2222222222222,61.215198695659666L231.77777777777777,64.45695674419406L233.33333333333334,65.53754276037219L234.88888888888889,63.37637072801593L236.44444444444446,66.61812877655032L238,67.69871479272845L239.55555555555554,61.215198695659666L241.11111111111111,62.2957847118378L242.66666666666669,63.37637072801593L244.22222222222223,64.45695674419406L245.77777777777777,65.53754276037219L247.33333333333331,67.69871479272845L248.88888888888889,61.215198695659666L250.44444444444446,59.054026663303404L252,61.215198695659666L253.55555555555554,68.77930080890658L255.11111111111111,69.85988682508471L256.66666666666663,63.37637072801593L258.22222222222223,66.61812877655032L259.77777777777777,72.02105885744098L261.3333333333333,65.53754276037219L262.8888888888889,66.61812877655032" style="fill: none;" fill="none"></path></g><g><path stroke="rgb(0, 119, 187)" stroke-width="2px" d="M31.11111111111111,146.22244155406952L32.666666666666664,108.12794691324234L34.22222222222222,96.51377922296527L35.77777777777777,79.78937423229219L37.333333333333336,70.49804008007051L38.88888888888889,64.92323255538942L40.44444444444444,57.49016171693804L42,50.986213743686704L43.55555555555556,50.986213743686704L45.111111111111114,47.73425734043123L46.666666666666664,42.62402004003527L48.22222222222222,40.30118650197986L49.77777777777778,36.58464229106906L51.33333333333333,32.86811566352848L52.888888888888886,31.00983476638797L54.44444444444444,25.43504482507707L56,29.616141676902796L57.55555555555555,28.222448587417603L59.111111111111114,26.828737914562225L60.66666666666667,25.899615049362197L62.22222222222222,23.576763927936568L63.77777777777778,24.50590437650682L65.33333333333333,27.29330813884735L66.88888888888889,22.183070838451393L68.44444444444444,24.970474600791945L70,20.78937774896624L71.55555555555554,22.183070838451393L73.11111111111111,26.3641676902771L74.66666666666667,22.183070838451393L76.22222222222221,21.718500614166267L77.77777777777779,19.860237300395987L79.33333333333333,23.576763927936568L80.88888888888889,17.53740376234056L82.44444444444444,23.112211287021644L84,18.001973986625686L85.55555555555556,17.072833538055434L87.11111111111111,18.001973986625686L88.66666666666666,18.46654421091081L90.22222222222223,19.39566707611086L91.77777777777777,16.143693089485183L93.33333333333333,15.679140448570259L94.8888888888889,18.46654421091081L96.44444444444444,20.324807524681113L98,17.072833538055434L99.55555555555556,16.60826331377031L101.11111111111111,17.53740376234056L102.66666666666666,18.001973986625686L104.22222222222223,19.39566707611086L105.77777777777777,18.931096851825735L107.33333333333334,16.143693089485183L108.88888888888889,16.143693089485183L110.44444444444444,17.072833538055434L112,18.931096851825735L113.55555555555556,17.53740376234056L115.1111111111111,17.072833538055434L116.66666666666667,15.214570224285133L118.22222222222223,17.53740376234056L119.77777777777777,16.143693089485183L121.33333333333334,16.60826331377031L122.88888888888889,17.072833538055434L124.44444444444444,16.143693089485183L126,16.143693089485183L127.55555555555556,16.143693089485183L129.11111111111111,18.46654421091081L130.66666666666666,17.53740376234056L132.22222222222223,16.143693089485183L133.77777777777777,15.679140448570259L135.33333333333334,15.679140448570259L136.88888888888889,15.214570224285133L138.44444444444446,16.143693089485183L140,17.072833538055434L141.55555555555554,15.679140448570259L143.1111111111111,16.143693089485183L144.66666666666669,16.143693089485183L146.22222222222223,15.214570224285133L147.77777777777777,15.214570224285133L149.33333333333334,15.214570224285133L150.88888888888889,15.214570224285133L152.44444444444443,15.214570224285133L154,14.750000000000007L155.55555555555557,15.214570224285133L157.11111111111111,16.143693089485183L158.66666666666666,15.214570224285133L160.2222222222222,15.679140448570259L161.77777777777777,15.679140448570259L163.33333333333334,15.679140448570259L164.88888888888889,14.750000000000007L166.44444444444446,16.143693089485183L168,15.679140448570259L169.55555555555554,16.143693089485183L171.11111111111111,17.53740376234056L172.66666666666669,14.750000000000007L174.22222222222223,14.750000000000007L175.77777777777777,15.679140448570259L177.33333333333331,16.143693089485183L178.88888888888889,15.214570224285133L180.44444444444446,16.60826331377031L182,15.214570224285133L183.55555555555554,15.679140448570259L185.11111111111111,15.214570224285133L186.66666666666666,15.214570224285133L188.22222222222223,16.143693089485183L189.7777777777778,15.679140448570259L191.33333333333334,15.679140448570259L192.88888888888889,15.679140448570259L194.44444444444443,14.750000000000007L196,16.60826331377031L197.55555555555557,15.214570224285133L199.11111111111111,15.679140448570259L200.66666666666666,15.679140448570259L202.22222222222223,15.679140448570259L203.77777777777777,15.214570224285133L205.33333333333331,15.679140448570259L206.8888888888889,14.750000000000007L208.44444444444446,15.214570224285133L210,14.750000000000007L211.55555555555554,15.214570224285133L213.1111111111111,16.143693089485183L214.66666666666669,15.214570224285133L216.22222222222223,15.679140448570259L217.77777777777777,15.214570224285133L219.33333333333334,15.679140448570259L220.88888888888889,15.214570224285133L222.44444444444443,15.214570224285133L224,15.679140448570259L225.55555555555557,14.750000000000007L227.11111111111111,14.750000000000007L228.66666666666666,14.750000000000007L230.2222222222222,15.679140448570259L231.77777777777777,15.214570224285133L233.33333333333334,15.214570224285133L234.88888888888889,14.750000000000007L236.44444444444446,15.679140448570259L238,15.679140448570259L239.55555555555554,15.214570224285133L241.11111111111111,14.750000000000007L242.66666666666669,14.750000000000007L244.22222222222223,15.214570224285133L245.77777777777777,16.143693089485183L247.33333333333331,14.750000000000007L248.88888888888889,15.214570224285133L250.44444444444446,15.679140448570259L252,15.214570224285133L253.55555555555554,16.143693089485183L255.11111111111111,16.143693089485183L256.66666666666663,15.679140448570259L258.22222222222223,16.143693089485183L259.77777777777777,14.750000000000007L261.3333333333333,16.143693089485183L262.8888888888889,16.143693089485183" style="fill: none;" fill="none"></path></g></g></g></g></g></g><g transform="translate(50, 177)" clip-path="url(#clip_1)"><clipPath id="clip_1"><rect width="280" height="23"></rect></clipPath><g><g><line x1="0" y1="0" x2="0" y2="5" style="visibility: inherit;" fill="rgb(0, 0, 0)" stroke="rgb(204, 204, 204)" stroke-width="1px"></line><line x1="31.11111111111111" y1="0" x2="31.11111111111111" y2="5" style="visibility: inherit;" fill="rgb(0, 0, 0)" stroke="rgb(204, 204, 204)" stroke-width="1px"></line><line x1="62.22222222222222" y1="0" x2="62.22222222222222" y2="5" style="visibility: inherit;" fill="rgb(0, 0, 0)" stroke="rgb(204, 204, 204)" stroke-width="1px"></line><line x1="93.33333333333333" y1="0" x2="93.33333333333333" y2="5" style="visibility: inherit;" fill="rgb(0, 0, 0)" stroke="rgb(204, 204, 204)" stroke-width="1px"></line><line x1="124.44444444444444" y1="0" x2="124.44444444444444" y2="5" style="visibility: inherit;" fill="rgb(0, 0, 0)" stroke="rgb(204, 204, 204)" stroke-width="1px"></line><line x1="155.55555555555557" y1="0" x2="155.55555555555557" y2="5" style="visibility: inherit;" fill="rgb(0, 0, 0)" stroke="rgb(204, 204, 204)" stroke-width="1px"></line><line x1="186.66666666666666" y1="0" x2="186.66666666666666" y2="5" style="visibility: inherit;" fill="rgb(0, 0, 0)" stroke="rgb(204, 204, 204)" stroke-width="1px"></line><line x1="217.77777777777777" y1="0" x2="217.77777777777777" y2="5" style="visibility: inherit;" fill="rgb(0, 0, 0)" stroke="rgb(204, 204, 204)" stroke-width="1px"></line><line x1="248.88888888888889" y1="0" x2="248.88888888888889" y2="5" style="visibility: inherit;" fill="rgb(0, 0, 0)" stroke="rgb(204, 204, 204)" stroke-width="1px"></line><line x1="280" y1="0" x2="280" y2="5" style="visibility: inherit;" fill="rgb(0, 0, 0)" stroke="rgb(204, 204, 204)" stroke-width="1px"></line></g><g transform="translate(0, 8)"><text x="0" y="0" dx="0em" dy="0.95em" style="text-anchor: middle; visibility: hidden; font-family: Roboto, sans-serif; font-size: 12px; font-weight: 200;" fill="rgb(33, 33, 33)" stroke="none" stroke-width="1px">-20</text><text x="31.11111111111111" y="0" dx="0em" dy="0.95em" style="text-anchor: middle; visibility: inherit; font-family: Roboto, sans-serif; font-size: 12px; font-weight: 200;" fill="rgb(33, 33, 33)" stroke="none" stroke-width="1px">0</text><text x="62.22222222222222" y="0" dx="0em" dy="0.95em" style="text-anchor: middle; visibility: inherit; font-family: Roboto, sans-serif; font-size: 12px; font-weight: 200;" fill="rgb(33, 33, 33)" stroke="none" stroke-width="1px">20</text><text x="93.33333333333333" y="0" dx="0em" dy="0.95em" style="text-anchor: middle; visibility: inherit; font-family: Roboto, sans-serif; font-size: 12px; font-weight: 200;" fill="rgb(33, 33, 33)" stroke="none" stroke-width="1px">40</text><text x="124.44444444444444" y="0" dx="0em" dy="0.95em" style="text-anchor: middle; visibility: inherit; font-family: Roboto, sans-serif; font-size: 12px; font-weight: 200;" fill="rgb(33, 33, 33)" stroke="none" stroke-width="1px">60</text><text x="155.55555555555557" y="0" dx="0em" dy="0.95em" style="text-anchor: middle; visibility: inherit; font-family: Roboto, sans-serif; font-size: 12px; font-weight: 200;" fill="rgb(33, 33, 33)" stroke="none" stroke-width="1px">80</text><text x="186.66666666666666" y="0" dx="0em" dy="0.95em" style="text-anchor: middle; visibility: inherit; font-family: Roboto, sans-serif; font-size: 12px; font-weight: 200;" fill="rgb(33, 33, 33)" stroke="none" stroke-width="1px">100</text><text x="217.77777777777777" y="0" dx="0em" dy="0.95em" style="text-anchor: middle; visibility: inherit; font-family: Roboto, sans-serif; font-size: 12px; font-weight: 200;" fill="rgb(33, 33, 33)" stroke="none" stroke-width="1px">120</text><text x="248.88888888888889" y="0" dx="0em" dy="0.95em" style="text-anchor: middle; visibility: inherit; font-family: Roboto, sans-serif; font-size: 12px; font-weight: 200;" fill="rgb(33, 33, 33)" stroke="none" stroke-width="1px">140</text><text x="280" y="0" dx="0em" dy="0.95em" style="text-anchor: middle; visibility: hidden; font-family: Roboto, sans-serif; font-size: 12px; font-weight: 200;" fill="rgb(33, 33, 33)" stroke="none" stroke-width="1px">160</text></g><line x1="0" y1="0" x2="280" y2="0" fill="rgb(0, 0, 0)" stroke="rgb(204, 204, 204)" stroke-width="1px"></line></g></g></g></g></svg>