<svg viewBox="0 0 330 200" xmlns="http://www.w3.org/2000/svg"><g><g><g><g><g><line x1="20" y1="177" x2="15" y2="177" style="visibility: inherit;" fill="rgb(0, 0, 0)" stroke="rgb(204, 204, 204)" stroke-width="1px"></line><line x1="20" y1="157.33333333333331" x2="15" y2="157.33333333333331" style="visibility: inherit;" fill="rgb(0, 0, 0)" stroke="rgb(204, 204, 204)" stroke-width="1px"></line><line x1="20" y1="137.66666666666666" x2="15" y2="137.66666666666666" style="visibility: inherit;" fill="rgb(0, 0, 0)" stroke="rgb(204, 204, 204)" stroke-width="1px"></line><line x1="20" y1="118.00000000000001" x2="15" y2="118.00000000000001" style="visibility: inherit;" fill="rgb(0, 0, 0)" stroke="rgb(204, 204, 204)" stroke-width="1px"></line><line x1="20" y1="98.33333333333334" x2="15" y2="98.33333333333334" style="visibility: inherit;" fill="rgb(0, 0, 0)" stroke="rgb(204, 204, 204)" stroke-width="1px"></line><line x1="20" y1="78.66666666666666" x2="15" y2="78.66666666666666" style="visibility: inherit;" fill="rgb(0, 0, 0)" stroke="rgb(204, 204, 204)" stroke-width="1px"></line><line x1="20" y1="59.00000000000001" x2="15" y2="59.00000000000001" style="visibility: inherit;" fill="rgb(0, 0, 0)" stroke="rgb(204, 204, 204)" stroke-width="1px"></line><line x1="20" y1="39.33333333333333" x2="15" y2="39.33333333333333" style="visibility: inherit;" fill="rgb(0, 0, 0)" stroke="rgb(204, 204, 204)" stroke-width="1px"></line><line x1="20" y1="19.666666666666675" x2="15" y2="19.666666666666675" style="visibility: inherit;" fill="rgb(0, 0, 0)" stroke="rgb(204, 204, 204)" stroke-width="1px"></line><line x1="20" y1="0" x2="15" y2="0" style="visibility: inherit;" fill="rgb(0, 0, 0)" stroke="rgb(204, 204, 204)" stroke-width="1px"></line></g><g transform="translate(10, 0)"><text x="0" y="177" dx="0em" dy="0.3em" style="text-anchor: end; visibility: hidden; font-family: Roboto, sans-serif; font-size: 12px; font-weight: 200;" fill="rgb(33, 33, 33)" stroke="none" stroke-width="1px">0</text><text x="0" y="157.33333333333331" dx="0em" dy="0.3em" style="text-anchor: end; visibility: inherit; font-family: Roboto, sans-serif; font-size: 12px; font-weight: 200;" fill="rgb(33, 33, 33)" stroke="none" stroke-width="1px">1</text><text x="0" y="137.66666666666666" dx="0em" dy="0.3em" style="text-anchor: end; visibility: hidden; font-family: Roboto, sans-serif; font-size: 12px; font-weight: 200;" fill="rgb(33, 33, 33)" stroke="none" stroke-width="1px">2</text><text x="0" y="118.00000000000001" dx="0em" dy="0.3em" style="text-anchor: end; visibility: inherit; font-family: Roboto, sans-serif; font-size: 12px; font-weight: 200;" fill="rgb(33, 33, 33)" stroke="none" stroke-width="1px">3</text><text x="0" y="98.33333333333334" dx="0em" dy="0.3em" style="text-anchor: end; visibility: hidden; font-family: Roboto, sans-serif; font-size: 12px; font-weight: 200;" fill="rgb(33, 33, 33)" stroke="none" stroke-width="1px">4</text><text x="0" y="78.66666666666666" dx="0em" dy="0.3em" style="text-anchor: end; visibility: inherit; font-family: Roboto, sans-serif; font-size: 12px; font-weight: 200;" fill="rgb(33, 33, 33)" stroke="none" stroke-width="1px">5</text><text x="0" y="59.00000000000001" dx="0em" dy="0.3em" style="text-anchor: end; visibility: hidden; font-family: Roboto, sans-serif; font-size: 12px; font-weight: 200;" fill="rgb(33, 33, 33)" stroke="none" stroke-width="1px">6</text><text x="0" y="39.33333333333333" dx="0em" dy="0.3em" style="text-anchor: end; visibility: inherit; font-family: Roboto, sans-serif; font-size: 12px; font-weight: 200;" fill="rgb(33, 33, 33)" stroke="none" stroke-width="1px">7</text><text x="0" y="19.666666666666675" dx="0em" dy="0.3em" style="text-anchor: end; visibility: hidden; font-family: Roboto, sans-serif; font-size: 12px; font-weight: 200;" fill="rgb(33, 33, 33)" stroke="none" stroke-width="1px">8</text><text x="0" y="0" dx="0em" dy="0.3em" style="text-anchor: end; visibility: hidden; font-family: Roboto, sans-serif; font-size: 12px; font-weight: 200;" fill="rgb(33, 33, 33)" stroke="none" stroke-width="1px">9</text></g><line x1="20" y1="0" x2="20" y2="177" fill="rgb(0, 0, 0)" stroke="rgb(204, 204, 204)" stroke-width="1px"></line></g></g><g transform="translate(20, 0)" clip-path="url(#clip_0)"><clipPath id="clip_0"><rect width="310" height="177"></rect></clipPath><g><g><g><line x1="0" y1="0" x2="0" y2="177" fill="rgb(0, 0, 0)" stroke="rgb(66, 66, 66)" stroke-width="1px" opacity="0.25"></line><line x1="34.44444444444444" y1="0" x2="34.44444444444444" y2="177" fill="rgb(0, 0, 0)" stroke="rgb(66, 66, 66)" stroke-width="1px" opacity="0.25"></line><line x1="68.88888888888889" y1="0" x2="68.88888888888889" y2="177" fill="rgb(0, 0, 0)" stroke="rgb(66, 66, 66)" stroke-width="1px" opacity="0.25"></line><line x1="103.33333333333333" y1="0" x2="103.33333333333333" y2="177" fill="rgb(0, 0, 0)" stroke="rgb(66, 66, 66)" stroke-width="1px" opacity="0.25"></line><line x1="137.77777777777777" y1="0" x2="137.77777777777777" y2="177" fill="rgb(0, 0, 0)" stroke="rgb(66, 66, 66)" stroke-width="1px" opacity="0.25"></line><line x1="172.22222222222223" y1="0" x2="172.22222222222223" y2="177" fill="rgb(0, 0, 0)" stroke="rgb(66, 66, 66)" stroke-width="1px" opacity="0.25"></line><line x1="206.66666666666666" y1="0" x2="206.66666666666666" y2="177" fill="rgb(0, 0, 0)" stroke="rgb(66, 66, 66)" stroke-width="1px" opacity="0.25"></line><line x1="241.11111111111111" y1="0" x2="241.11111111111111" y2="177" fill="rgb(0, 0, 0)" stroke="rgb(66, 66, 66)" stroke-width="1px" opacity="0.25"></line><line x1="275.55555555555554" y1="0" x2="275.55555555555554" y2="177" fill="rgb(0, 0, 0)" stroke="rgb(66, 66, 66)" stroke-width="1px" opacity="0.25"></line><line x1="310" y1="0" x2="310" y2="177" fill="rgb(0, 0, 0)" stroke="rgb(66, 66, 66)" stroke-width="1px" opacity="0.25"></line></g><g><line x1="0" y1="177" x2="310" y2="177" fill="rgb(0, 0, 0)" stroke="rgb(66, 66, 66)" stroke-width="1px" opacity="0.25"></line><line x1="0" y1="157.33333333333331" x2="310" y2="157.33333333333331" fill="rgb(0, 0, 0)" stroke="rgb(66, 66, 66)" stroke-width="1px" opacity="0.25"></line><line x1="0" y1="137.66666666666666" x2="310" y2="137.66666666666666" fill="rgb(0, 0, 0)" stroke="rgb(66, 66, 66)" stroke-width="1px" opacity="0.25"></line><line x1="0" y1="118.00000000000001" x2="310" y2="118.00000000000001" fill="rgb(0, 0, 0)" stroke="rgb(66, 66, 66)" stroke-width="1px" opacity="0.25"></line><line x1="0" y1="98.33333333333334" x2="310" y2="98.33333333333334" fill="rgb(0, 0, 0)" stroke="rgb(66, 66, 66)" stroke-width="1px" opacity="0.25"></line><line x1="0" y1="78.66666666666666" x2="310" y2="78.66666666666666" fill="rgb(0, 0, 0)" stroke="rgb(66, 66, 66)" stroke-width="1px" opacity="0.25"></line><line x1="0" y1="59.00000000000001" x2="310" y2="59.00000000000001" fill="rgb(0, 0, 0)" stroke="rgb(66, 66, 66)" stroke-width="1px" opacity="0.25"></line><line x1="0" y1="39.33333333333333" x2="310" y2="39.33333333333333" fill="rgb(0, 0, 0)" stroke="rgb(66, 66, 66)" stroke-width="1px" opacity="0.25"></line><line x1="0" y1="19.666666666666675" x2="310" y2="19.666666666666675" fill="rgb(0, 0, 0)" stroke="rgb(66, 66, 66)" stroke-width="1px" opacity="0.25"></line><line x1="0" y1="0" x2="310" y2="0" fill="rgb(0, 0, 0)" stroke="rgb(66, 66, 66)" stroke-width="1px" opacity="0.25"></line></g></g></g><g><g><line x1="0" y1="177" x2="310" y2="177" fill="rgb(0, 0, 0)" stroke="rgb(153, 153, 153)" stroke-width="1.5px"></line></g></g><g><g><line x1="34.44444444444444" y1="0" x2="34.44444444444444" y2="177" fill="rgb(0, 0, 0)" stroke="rgb(153, 153, 153)" stroke-width="1.5px"></line></g></g><g><g><g><g><g><path stroke="rgb(204, 51, 17)" stroke-width="2px" d="M34.44444444444444,20.679131189982105L36.166666666666664,77.39755058288574L37.888888888888886,55.71690813700358L39.61111111111111,52.05637868245443L41.333333333333336,54.981463750203446L43.05555555555556,69.85655419031778L44.77777777777777,86.09828042984009L46.5,93.87478144963582L48.22222222222222,99.4175755182902L49.94444444444445,108.70902220408122L51.666666666666664,115.97529602050781L53.388888888888886,123.56877994537354L55.111111111111114,128.08644477526346L56.83333333333333,132.71323903401694L58.55555555555556,134.77089190483093L60.27777777777778,136.21031347910565L62,136.6287648677826L63.72222222222222,137.5450553894043L65.44444444444444,139.01092704137167L67.16666666666667,140.22590275605518L68.88888888888889,140.73641363779703L70.61111111111111,140.8649504184723L72.33333333333333,141.13150962193808L74.05555555555556,141.55856748421988L75.77777777777777,142.26038777828217L77.5,143.08315587043762L79.22222222222221,143.64831821123758L80.94444444444444,144.0379656950633L82.66666666666667,144.30128486951193L84.38888888888889,144.3598515590032L86.11111111111111,144.65241305033365L87.83333333333333,144.7789945602417L89.55555555555554,145.4645092089971L91.27777777777779,145.95399741331738L93,146.07393944263458L94.72222222222223,146.37502300739288L96.44444444444444,146.4922548532486L98.16666666666666,146.50340270996094L99.8888888888889,146.4107430378596L101.61111111111111,146.70677196979523L103.33333333333333,146.72161702315015L105.05555555555556,146.90735367933908L106.77777777777777,147.29562497138977L108.5,147.71083867549896L110.22222222222223,148.08055365085602L111.94444444444444,148.45736527442932L113.66666666666666,148.89692608515423L115.38888888888889,149.0040721098582L117.11111111111111,149.18675863742828L118.83333333333334,149.53584949175516L120.55555555555556,149.5309824148814L122.27777777777777,149.34069283803305L124,149.4224859873454L125.72222222222223,149.5801525513331L127.44444444444444,149.8845394452413L129.16666666666669,150.24752350648245L130.88888888888889,150.2950431505839L132.61111111111111,150.36755696932477L134.33333333333334,150.42597595850626L136.05555555555554,150.56678124268848L137.77777777777777,150.89869900544485L139.5,151.15207302570343L141.22222222222223,151.34206954638162L142.94444444444446,151.28081846237183L144.66666666666666,151.29599877198535L146.38888888888889,151.2264342705409L148.11111111111111,151.25622049967447L149.83333333333334,151.3630805015564L151.55555555555554,151.4835125207901L153.27777777777777,151.63009452819824L155,151.93227763970694L156.72222222222223,152.08605007330578L158.44444444444443,152.3085664510727L160.16666666666669,152.2629692554474L161.88888888888889,152.24237326780954L163.61111111111111,152.1942253112793L165.33333333333334,152.2638554573059L167.05555555555554,152.41191681226093L168.77777777777777,152.45875187714896L170.5,152.60690701007843L172.22222222222223,152.88034013907117L173.94444444444446,153.17840639750162L175.66666666666666,153.42981576919556L177.38888888888889,153.6709775527318L179.1111111111111,153.6578369140625L180.83333333333334,153.58852326869965L182.55555555555557,153.61878542105356L184.27777777777777,153.6963421503703L186,153.9007546901703L187.7222222222222,153.97077401479086L189.44444444444446,154.1927582025528L191.16666666666669,154.4439167181651L192.88888888888889,154.47587390740713L194.61111111111111,154.57260119915009L196.33333333333331,154.6358497540156L198.05555555555554,154.69254557291666L199.7777777777778,154.63483226299286L201.5,154.68723305066428L203.22222222222223,154.76176778475445L204.94444444444443,154.83586645126343L206.66666666666666,155.0301931699117L208.3888888888889,155.01753314336142L210.11111111111111,155.148175239563L211.83333333333334,155.26177318890888L213.55555555555554,155.28797944386798L215.27777777777777,155.2921760082245L217,155.5101535320282L218.72222222222223,155.69375673929852L220.44444444444446,155.7874878247579L222.16666666666666,155.84637570381165L223.88888888888889,156.0252806345622L225.61111111111111,156.12989934285483L227.33333333333331,156.19080813725787L229.05555555555557,156.3503713607788L230.77777777777777,156.59594070911407L232.5,156.58879248301187L234.22222222222223,156.38427209854126L235.94444444444443,156.38621095816293L237.66666666666669,156.39382338523865L239.38888888888889,156.44201823075613L241.11111111111111,156.24886373678842L242.83333333333334,156.92231384913126L244.55555555555554,157.38046145439148L246.27777777777777,157.59859488407773L248,157.36015617847443L249.72222222222223,157.4331869482994L251.44444444444446,157.63412618637085L253.16666666666666,157.61482667922974L254.88888888888889,157.34060112635294L256.6111111111111,157.28666472434998L258.33333333333337,157.47872670491537L260.05555555555554,157.86686436335245L261.77777777777777,158.06055690844852L263.5,158.15343344211578L265.22222222222223,158.22367548942566L266.94444444444446,158.26401760180792L268.6666666666667,158.20778129498163L270.3888888888889,157.93080335855484L272.1111111111111,158.02058873573938L273.8333333333333,158.16927019755045L275.55555555555554,158.5653801560402L277.27777777777777,158.91473710536957L279,159.0536164244016L280.72222222222223,158.5057033697764L282.44444444444446,158.23976661761603L284.16666666666663,159.02200855811438L285.8888888888889,159.0876648624738L287.61111111111114,158.54157930612564L289.3333333333333,158.82100953658423L291.05555555555554,158.75022357702255" style="fill: none;" fill="none"></path></g><g><path stroke="rgb(0, 119, 187)" stroke-width="2px" d="M34.44444444444444,104.87462369600932L36.166666666666664,114.37204432487486L37.888888888888886,118.72607127825418L39.61111111111111,123.0787759621938L41.333333333333336,126.98366737365721L43.05555555555556,130.10279782613117L44.77777777777777,133.25170747439068L46.5,135.5492678483327L48.22222222222222,137.49876189231873L49.94444444444445,139.52298760414124L51.666666666666664,141.09702277183533L53.388888888888886,143.00030068556467L55.111111111111114,144.43956049283344L56.83333333333333,145.99400778611502L58.55555555555556,146.89195768038434L60.27777777777778,148.01303585370383L62,148.411008477211L63.72222222222222,149.2569444179535L65.44444444444444,149.56826619307202L67.16666666666667,149.9628745317459L68.88888888888889,150.72820595900217L70.61111111111111,151.01439054807028L72.33333333333333,151.18144194285074L74.05555555555556,151.51698656876883L75.77777777777777,151.906929453214L77.5,152.20042637983957L79.22222222222221,152.38269090652466L80.94444444444444,152.1581418911616L82.66666666666667,153.01617753505707L84.38888888888889,153.2703814903895L86.11111111111111,153.43376851081848L87.83333333333333,153.48419292767844L89.55555555555554,154.38276878992718L91.27777777777779,154.1092489163081L93,154.71680827935538L94.72222222222223,155.11004980405173L96.44444444444444,155.107123931249L98.16666666666666,155.41115681330362L99.8888888888889,155.6072770357132L101.61111111111111,155.8518898487091L103.33333333333333,156.02634970347086L105.05555555555556,156.15990360577902L106.77777777777777,156.16079215208688L108.5,156.50744009017944L110.22222222222223,156.837522149086L111.94444444444444,156.95091378688812L113.66666666666666,156.8911912838618L115.38888888888889,156.9518890778224L117.11111111111111,157.25282728672028L118.83333333333334,157.72544366121292L120.55555555555556,157.89363914728165L122.27777777777777,158.05707305669785L124,158.096366027991L125.72222222222223,158.3174100915591L127.44444444444444,158.51740803321204L129.16666666666669,158.71307929356894L130.88888888888889,158.74890716870627L132.61111111111111,159.07119627793628L134.33333333333334,159.27007005612055L136.05555555555554,159.20024180412292L137.77777777777777,159.5706378420194L139.5,159.6547215183576L141.22222222222223,159.85993234316507L142.94444444444446,159.87700579563776L144.66666666666666,160.12270877758664L146.38888888888889,160.39405417442322L148.11111111111111,160.44381628433862L149.83333333333334,160.65212881565094L151.55555555555554,160.85014804204306L153.27777777777777,160.8874294757843L155,160.9071884950002L156.72222222222223,161.24027144908905L158.44444444444443,161.30106536547342L160.16666666666669,161.43765298525494L161.88888888888889,161.58180262645087L163.61111111111111,161.7932227253914L165.33333333333334,161.91026349862418L167.05555555555554,162.00149422883987L168.77777777777777,162.18351024389267L170.5,162.3302551905314L172.22222222222223,162.56379634141922L173.94444444444446,162.48324926694235L175.66666666666666,162.76269825299582L177.38888888888889,162.8725732167562L179.1111111111111,162.93324053287506L180.83333333333334,162.98674203952152L182.55555555555557,163.26525090138117L184.27777777777777,163.26647118727365L186,163.44456962744394L187.7222222222222,163.4169660806656L189.44444444444446,163.3514328598976L191.16666666666669,163.76522817214328L192.88888888888889,163.90119802951813L194.61111111111111,163.998450477918L196.33333333333331,163.96893268823624L198.05555555555554,164.20556382338205L199.7777777777778,164.10615213712055L201.5,164.3469177087148L203.22222222222223,164.51892175277072L204.94444444444443,164.59930237134296L206.66666666666666,164.74795804421106L208.3888888888889,164.78162550926208L210.11111111111111,164.98039027055103L211.83333333333334,165.07562883694968L213.55555555555554,165.15149756272635L215.27777777777777,165.3455112973849L217,165.3008507092794L218.72222222222223,165.52743822336197L220.44444444444446,165.510960261027L222.16666666666666,165.58984629313153L223.88888888888889,165.62973358233768L225.61111111111111,165.82779149214429L227.33333333333331,165.87782086928686L229.05555555555557,166.0393932859103L230.77777777777777,166.19314930836362L232.5,166.2515507141749L234.22222222222223,166.43375780185065L235.94444444444443,166.44498536984125L237.66666666666669,166.53250835339227L239.38888888888889,166.55676168203354L241.11111111111111,166.71638703346252L242.83333333333334,166.67336638768515L244.55555555555554,166.8038889169693L246.27777777777777,166.90651015440625L248,167.00935528675714L249.72222222222223,167.06713541348776L251.44444444444446,167.2571225563685L253.16666666666666,167.3506836692492L254.88888888888889,167.31981606284776L256.6111111111111,167.40541483958563L258.33333333333337,167.512764831384L260.05555555555554,167.62386711438495L261.77777777777777,167.63676744699478L263.5,167.77245128154755L265.22222222222223,167.81087328990301L266.94444444444446,167.97348605593046L268.6666666666667,168.0697198410829L270.3888888888889,168.0797400176525L272.1111111111111,168.0608701308568L273.8333333333333,168.16815213362375L275.55555555555554,168.32471153140068L277.27777777777777,168.40470472971597L279,168.48155050476393L280.72222222222223,168.45414330561954L282.44444444444446,168.5187129577001L284.16666666666663,168.58266308903694L285.8888888888889,168.534653455019L287.61111111111114,168.71904791394869L289.3333333333333,168.75478845834732L291.05555555555554,168.7906520863374" style="fill: none;" fill="none"></path></g></g></g></g></g></g><g transform="translate(20, 177)" clip-path="url(#clip_1)"><clipPath id="clip_1"><rect width="310" height="23"></rect></clipPath><g><g><line x1="0" y1="0" x2="0" y2="5" style="visibility: inherit;" fill="rgb(0, 0, 0)" stroke="rgb(204, 204, 204)" stroke-width="1px"></line><line x1="34.44444444444444" y1="0" x2="34.44444444444444" y2="5" style="visibility: inherit;" fill="rgb(0, 0, 0)" stroke="rgb(204, 204, 204)" stroke-width="1px"></line><line x1="68.88888888888889" y1="0" x2="68.88888888888889" y2="5" style="visibility: inherit;" fill="rgb(0, 0, 0)" stroke="rgb(204, 204, 204)" stroke-width="1px"></line><line x1="103.33333333333333" y1="0" x2="103.33333333333333" y2="5" style="visibility: inherit;" fill="rgb(0, 0, 0)" stroke="rgb(204, 204, 204)" stroke-width="1px"></line><line x1="137.77777777777777" y1="0" x2="137.77777777777777" y2="5" style="visibility: inherit;" fill="rgb(0, 0, 0)" stroke="rgb(204, 204, 204)" stroke-width="1px"></line><line x1="172.22222222222223" y1="0" x2="172.22222222222223" y2="5" style="visibility: inherit;" fill="rgb(0, 0, 0)" stroke="rgb(204, 204, 204)" stroke-width="1px"></line><line x1="206.66666666666666" y1="0" x2="206.66666666666666" y2="5" style="visibility: inherit;" fill="rgb(0, 0, 0)" stroke="rgb(204, 204, 204)" stroke-width="1px"></line><line x1="241.11111111111111" y1="0" x2="241.11111111111111" y2="5" style="visibility: inherit;" fill="rgb(0, 0, 0)" stroke="rgb(204, 204, 204)" stroke-width="1px"></line><line x1="275.55555555555554" y1="0" x2="275.55555555555554" y2="5" style="visibility: inherit;" fill="rgb(0, 0, 0)" stroke="rgb(204, 204, 204)" stroke-width="1px"></line><line x1="310" y1="0" x2="310" y2="5" style="visibility: inherit;" fill="rgb(0, 0, 0)" stroke="rgb(204, 204, 204)" stroke-width="1px"></line></g><g transform="translate(0, 8)"><text x="0" y="0" dx="0em" dy="0.95em" style="text-anchor: middle; visibility: hidden; font-family: Roboto, sans-serif; font-size: 12px; font-weight: 200;" fill="rgb(33, 33, 33)" stroke="none" stroke-width="1px">-20</text><text x="34.44444444444444" y="0" dx="0em" dy="0.95em" style="text-anchor: middle; visibility: inherit; font-family: Roboto, sans-serif; font-size: 12px; font-weight: 200;" fill="rgb(33, 33, 33)" stroke="none" stroke-width="1px">0</text><text x="68.88888888888889" y="0" dx="0em" dy="0.95em" style="text-anchor: middle; visibility: inherit; font-family: Roboto, sans-serif; font-size: 12px; font-weight: 200;" fill="rgb(33, 33, 33)" stroke="none" stroke-width="1px">20</text><text x="103.33333333333333" y="0" dx="0em" dy="0.95em" style="text-anchor: middle; visibility: inherit; font-family: Roboto, sans-serif; font-size: 12px; font-weight: 200;" fill="rgb(33, 33, 33)" stroke="none" stroke-width="1px">40</text><text x="137.77777777777777" y="0" dx="0em" dy="0.95em" style="text-anchor: middle; visibility: inherit; font-family: Roboto, sans-serif; font-size: 12px; font-weight: 200;" fill="rgb(33, 33, 33)" stroke="none" stroke-width="1px">60</text><text x="172.22222222222223" y="0" dx="0em" dy="0.95em" style="text-anchor: middle; visibility: inherit; font-family: Roboto, sans-serif; font-size: 12px; font-weight: 200;" fill="rgb(33, 33, 33)" stroke="none" stroke-width="1px">80</text><text x="206.66666666666666" y="0" dx="0em" dy="0.95em" style="text-anchor: middle; visibility: inherit; font-family: Roboto, sans-serif; font-size: 12px; font-weight: 200;" fill="rgb(33, 33, 33)" stroke="none" stroke-width="1px">100</text><text x="241.11111111111111" y="0" dx="0em" dy="0.95em" style="text-anchor: middle; visibility: inherit; font-family: Roboto, sans-serif; font-size: 12px; font-weight: 200;" fill="rgb(33, 33, 33)" stroke="none" stroke-width="1px">120</text><text x="275.55555555555554" y="0" dx="0em" dy="0.95em" style="text-anchor: middle; visibility: inherit; font-family: Roboto, sans-serif; font-size: 12px; font-weight: 200;" fill="rgb(33, 33, 33)" stroke="none" stroke-width="1px">140</text><text x="310" y="0" dx="0em" dy="0.95em" style="text-anchor: middle; visibility: hidden; font-family: Roboto, sans-serif; font-size: 12px; font-weight: 200;" fill="rgb(33, 33, 33)" stroke="none" stroke-width="1px">160</text></g><line x1="0" y1="0" x2="310" y2="0" fill="rgb(0, 0, 0)" stroke="rgb(204, 204, 204)" stroke-width="1px"></line></g></g></g></g></svg>