<svg viewBox="0 0 330 200" xmlns="http://www.w3.org/2000/svg"><g><g><g><g><g><line x1="50" y1="177" x2="45" y2="177" style="visibility: inherit;" fill="rgb(0, 0, 0)" stroke="rgb(204, 204, 204)" stroke-width="1px"></line><line x1="50" y1="162.25" x2="45" y2="162.25" style="visibility: inherit;" fill="rgb(0, 0, 0)" stroke="rgb(204, 204, 204)" stroke-width="1px"></line><line x1="50" y1="147.5" x2="45" y2="147.5" style="visibility: inherit;" fill="rgb(0, 0, 0)" stroke="rgb(204, 204, 204)" stroke-width="1px"></line><line x1="50" y1="132.75000000000003" x2="45" y2="132.75000000000003" style="visibility: inherit;" fill="rgb(0, 0, 0)" stroke="rgb(204, 204, 204)" stroke-width="1px"></line><line x1="50" y1="118.00000000000001" x2="45" y2="118.00000000000001" style="visibility: inherit;" fill="rgb(0, 0, 0)" stroke="rgb(204, 204, 204)" stroke-width="1px"></line><line x1="50" y1="103.25000000000003" x2="45" y2="103.25000000000003" style="visibility: inherit;" fill="rgb(0, 0, 0)" stroke="rgb(204, 204, 204)" stroke-width="1px"></line><line x1="50" y1="88.50000000000001" x2="45" y2="88.50000000000001" style="visibility: inherit;" fill="rgb(0, 0, 0)" stroke="rgb(204, 204, 204)" stroke-width="1px"></line><line x1="50" y1="73.75000000000001" x2="45" y2="73.75000000000001" style="visibility: inherit;" fill="rgb(0, 0, 0)" stroke="rgb(204, 204, 204)" stroke-width="1px"></line><line x1="50" y1="59.00000000000003" x2="45" y2="59.00000000000003" style="visibility: inherit;" fill="rgb(0, 0, 0)" stroke="rgb(204, 204, 204)" stroke-width="1px"></line><line x1="50" y1="44.25000000000002" x2="45" y2="44.25000000000002" style="visibility: inherit;" fill="rgb(0, 0, 0)" stroke="rgb(204, 204, 204)" stroke-width="1px"></line><line x1="50" y1="29.500000000000032" x2="45" y2="29.500000000000032" style="visibility: inherit;" fill="rgb(0, 0, 0)" stroke="rgb(204, 204, 204)" stroke-width="1px"></line><line x1="50" y1="14.750000000000007" x2="45" y2="14.750000000000007" style="visibility: inherit;" fill="rgb(0, 0, 0)" stroke="rgb(204, 204, 204)" stroke-width="1px"></line><line x1="50" y1="0" x2="45" y2="0" style="visibility: inherit;" fill="rgb(0, 0, 0)" stroke="rgb(204, 204, 204)" stroke-width="1px"></line></g><g transform="translate(40, 0)"><text x="0" y="177" dx="0em" dy="0.3em" style="text-anchor: end; visibility: hidden; font-family: Roboto, sans-serif; font-size: 12px; font-weight: 200;" fill="rgb(33, 33, 33)" stroke="none" stroke-width="1px">0.45</text><text x="0" y="162.25" dx="0em" dy="0.3em" style="text-anchor: end; visibility: inherit; font-family: Roboto, sans-serif; font-size: 12px; font-weight: 200;" fill="rgb(33, 33, 33)" stroke="none" stroke-width="1px">0.5</text><text x="0" y="147.5" dx="0em" dy="0.3em" style="text-anchor: end; visibility: hidden; font-family: Roboto, sans-serif; font-size: 12px; font-weight: 200;" fill="rgb(33, 33, 33)" stroke="none" stroke-width="1px">0.55</text><text x="0" y="132.75000000000003" dx="0em" dy="0.3em" style="text-anchor: end; visibility: inherit; font-family: Roboto, sans-serif; font-size: 12px; font-weight: 200;" fill="rgb(33, 33, 33)" stroke="none" stroke-width="1px">0.6</text><text x="0" y="118.00000000000001" dx="0em" dy="0.3em" style="text-anchor: end; visibility: hidden; font-family: Roboto, sans-serif; font-size: 12px; font-weight: 200;" fill="rgb(33, 33, 33)" stroke="none" stroke-width="1px">0.65</text><text x="0" y="103.25000000000003" dx="0em" dy="0.3em" style="text-anchor: end; visibility: inherit; font-family: Roboto, sans-serif; font-size: 12px; font-weight: 200;" fill="rgb(33, 33, 33)" stroke="none" stroke-width="1px">0.7</text><text x="0" y="88.50000000000001" dx="0em" dy="0.3em" style="text-anchor: end; visibility: hidden; font-family: Roboto, sans-serif; font-size: 12px; font-weight: 200;" fill="rgb(33, 33, 33)" stroke="none" stroke-width="1px">0.75</text><text x="0" y="73.75000000000001" dx="0em" dy="0.3em" style="text-anchor: end; visibility: inherit; font-family: Roboto, sans-serif; font-size: 12px; font-weight: 200;" fill="rgb(33, 33, 33)" stroke="none" stroke-width="1px">0.8</text><text x="0" y="59.00000000000003" dx="0em" dy="0.3em" style="text-anchor: end; visibility: hidden; font-family: Roboto, sans-serif; font-size: 12px; font-weight: 200;" fill="rgb(33, 33, 33)" stroke="none" stroke-width="1px">0.85</text><text x="0" y="44.25000000000002" dx="0em" dy="0.3em" style="text-anchor: end; visibility: inherit; font-family: Roboto, sans-serif; font-size: 12px; font-weight: 200;" fill="rgb(33, 33, 33)" stroke="none" stroke-width="1px">0.9</text><text x="0" y="29.500000000000032" dx="0em" dy="0.3em" style="text-anchor: end; visibility: hidden; font-family: Roboto, sans-serif; font-size: 12px; font-weight: 200;" fill="rgb(33, 33, 33)" stroke="none" stroke-width="1px">0.95</text><text x="0" y="14.750000000000007" dx="0em" dy="0.3em" style="text-anchor: end; visibility: inherit; font-family: Roboto, sans-serif; font-size: 12px; font-weight: 200;" fill="rgb(33, 33, 33)" stroke="none" stroke-width="1px">1</text><text x="0" y="0" dx="0em" dy="0.3em" style="text-anchor: end; visibility: hidden; font-family: Roboto, sans-serif; font-size: 12px; font-weight: 200;" fill="rgb(33, 33, 33)" stroke="none" stroke-width="1px">1.05</text></g><line x1="50" y1="0" x2="50" y2="177" fill="rgb(0, 0, 0)" stroke="rgb(204, 204, 204)" stroke-width="1px"></line></g></g><g transform="translate(50, 0)" clip-path="url(#clip_0)"><clipPath id="clip_0"><rect width="280" height="177"></rect></clipPath><g><g><g><line x1="0" y1="0" x2="0" y2="177" fill="rgb(0, 0, 0)" stroke="rgb(66, 66, 66)" stroke-width="1px" opacity="0.25"></line><line x1="31.11111111111111" y1="0" x2="31.11111111111111" y2="177" fill="rgb(0, 0, 0)" stroke="rgb(66, 66, 66)" stroke-width="1px" opacity="0.25"></line><line x1="62.22222222222222" y1="0" x2="62.22222222222222" y2="177" fill="rgb(0, 0, 0)" stroke="rgb(66, 66, 66)" stroke-width="1px" opacity="0.25"></line><line x1="93.33333333333333" y1="0" x2="93.33333333333333" y2="177" fill="rgb(0, 0, 0)" stroke="rgb(66, 66, 66)" stroke-width="1px" opacity="0.25"></line><line x1="124.44444444444444" y1="0" x2="124.44444444444444" y2="177" fill="rgb(0, 0, 0)" stroke="rgb(66, 66, 66)" stroke-width="1px" opacity="0.25"></line><line x1="155.55555555555557" y1="0" x2="155.55555555555557" y2="177" fill="rgb(0, 0, 0)" stroke="rgb(66, 66, 66)" stroke-width="1px" opacity="0.25"></line><line x1="186.66666666666666" y1="0" x2="186.66666666666666" y2="177" fill="rgb(0, 0, 0)" stroke="rgb(66, 66, 66)" stroke-width="1px" opacity="0.25"></line><line x1="217.77777777777777" y1="0" x2="217.77777777777777" y2="177" fill="rgb(0, 0, 0)" stroke="rgb(66, 66, 66)" stroke-width="1px" opacity="0.25"></line><line x1="248.88888888888889" y1="0" x2="248.88888888888889" y2="177" fill="rgb(0, 0, 0)" stroke="rgb(66, 66, 66)" stroke-width="1px" opacity="0.25"></line><line x1="280" y1="0" x2="280" y2="177" fill="rgb(0, 0, 0)" stroke="rgb(66, 66, 66)" stroke-width="1px" opacity="0.25"></line></g><g><line x1="0" y1="177" x2="280" y2="177" fill="rgb(0, 0, 0)" stroke="rgb(66, 66, 66)" stroke-width="1px" opacity="0.25"></line><line x1="0" y1="162.25" x2="280" y2="162.25" fill="rgb(0, 0, 0)" stroke="rgb(66, 66, 66)" stroke-width="1px" opacity="0.25"></line><line x1="0" y1="147.5" x2="280" y2="147.5" fill="rgb(0, 0, 0)" stroke="rgb(66, 66, 66)" stroke-width="1px" opacity="0.25"></line><line x1="0" y1="132.75000000000003" x2="280" y2="132.75000000000003" fill="rgb(0, 0, 0)" stroke="rgb(66, 66, 66)" stroke-width="1px" opacity="0.25"></line><line x1="0" y1="118.00000000000001" x2="280" y2="118.00000000000001" fill="rgb(0, 0, 0)" stroke="rgb(66, 66, 66)" stroke-width="1px" opacity="0.25"></line><line x1="0" y1="103.25000000000003" x2="280" y2="103.25000000000003" fill="rgb(0, 0, 0)" stroke="rgb(66, 66, 66)" stroke-width="1px" opacity="0.25"></line><line x1="0" y1="88.50000000000001" x2="280" y2="88.50000000000001" fill="rgb(0, 0, 0)" stroke="rgb(66, 66, 66)" stroke-width="1px" opacity="0.25"></line><line x1="0" y1="73.75000000000001" x2="280" y2="73.75000000000001" fill="rgb(0, 0, 0)" stroke="rgb(66, 66, 66)" stroke-width="1px" opacity="0.25"></line><line x1="0" y1="59.00000000000003" x2="280" y2="59.00000000000003" fill="rgb(0, 0, 0)" stroke="rgb(66, 66, 66)" stroke-width="1px" opacity="0.25"></line><line x1="0" y1="44.25000000000002" x2="280" y2="44.25000000000002" fill="rgb(0, 0, 0)" stroke="rgb(66, 66, 66)" stroke-width="1px" opacity="0.25"></line><line x1="0" y1="29.500000000000032" x2="280" y2="29.500000000000032" fill="rgb(0, 0, 0)" stroke="rgb(66, 66, 66)" stroke-width="1px" opacity="0.25"></line><line x1="0" y1="14.750000000000007" x2="280" y2="14.750000000000007" fill="rgb(0, 0, 0)" stroke="rgb(66, 66, 66)" stroke-width="1px" opacity="0.25"></line><line x1="0" y1="0" x2="280" y2="0" fill="rgb(0, 0, 0)" stroke="rgb(66, 66, 66)" stroke-width="1px" opacity="0.25"></line></g></g></g><g><g><line x1="0" y1="309.75" x2="280" y2="309.75" fill="rgb(0, 0, 0)" stroke="rgb(153, 153, 153)" stroke-width="1.5px"></line></g></g><g><g><line x1="31.11111111111111" y1="0" x2="31.11111111111111" y2="177" fill="rgb(0, 0, 0)" stroke="rgb(153, 153, 153)" stroke-width="1.5px"></line></g></g><g><g><g><g><g><path stroke="rgb(51, 187, 238)" stroke-width="2px" d="M31.11111111111111,166.91544836759567L32.666666666666664,166.91544836759567L34.22222222222222,166.91544836759567L35.77777777777777,166.1976864039898L37.333333333333336,162.6088765859604L38.88888888888889,166.1976864039898L40.44444444444444,159.73782873153687L42,150.40693199634552L43.55555555555556,133.89841562509537L45.111111111111114,118.82542318105699L46.666666666666664,120.97871786355972L48.22222222222222,100.88138288259509L49.77777777777778,92.9860100746155L51.33333333333333,92.26825690269472L52.888888888888886,88.67943829298022L54.44444444444444,80.06629472970965L56,81.5018186569214L57.55555555555555,84.37286651134494L59.111111111111114,85.80839043855669L60.66666666666667,75.75974053144456L62.22222222222222,76.47749370336535L63.77777777777778,75.75974053144456L65.33333333333333,76.47749370336535L66.88888888888889,80.78406548500064L68.44444444444444,76.47749370336535L70,80.78406548500064L71.55555555555554,77.19524687528612L73.11111111111111,72.17092192173007L74.66666666666667,75.04196977615358L76.22222222222221,78.63077080249788L77.77777777777779,75.75974053144456L79.33333333333333,76.47749370336535L80.88888888888889,75.04196977615358L82.44444444444444,75.04196977615358L84,75.04196977615358L85.55555555555556,74.3242166042328L87.11111111111111,72.17092192173007L88.66666666666666,72.88869267702106L90.22222222222223,73.60644584894182L91.77777777777777,72.17092192173007L93.33333333333333,74.3242166042328L94.8888888888889,74.3242166042328L96.44444444444444,72.17092192173007L98,74.3242166042328L99.55555555555556,71.45316874980928L101.11111111111111,70.7353979945183L102.66666666666666,71.45316874980928L104.22222222222223,70.01764482259752L105.77777777777777,70.7353979945183L107.33333333333334,75.04196977615358L108.88888888888889,80.06629472970965L110.44444444444444,78.63077080249788L112,74.3242166042328L113.55555555555556,74.3242166042328L115.1111111111111,77.19524687528612L116.66666666666667,73.60644584894182L118.22222222222223,75.75974053144456L119.77777777777777,75.75974053144456L121.33333333333334,74.3242166042328L122.88888888888889,72.17092192173007L124.44444444444444,71.45316874980928L126,73.60644584894182L127.55555555555556,71.45316874980928L129.11111111111111,69.29987406730653L130.66666666666666,67.86435014009479L132.22222222222223,65.71107304096223L133.77777777777777,74.3242166042328L135.33333333333334,77.9130176305771L136.88888888888889,64.99330228567125L138.44444444444446,71.45316874980928L140,77.19524687528612L141.55555555555554,75.04196977615358L143.1111111111111,83.65511333942415L144.66666666666669,78.63077080249788L146.22222222222223,76.47749370336535L147.77777777777777,74.3242166042328L149.33333333333334,86.52616119384767L150.88888888888889,86.52616119384767L152.44444444444443,77.9130176305771L154,87.96168512105943L155.55555555555557,83.65511333942415L157.11111111111111,76.47749370336535L158.66666666666666,82.21958941221239L160.2222222222222,87.96168512105943L161.77777777777777,89.39720904827121L163.33333333333334,85.09063726663592L164.88888888888889,80.06629472970965L166.44444444444446,76.47749370336535L168,73.60644584894182L169.55555555555554,79.34854155778886L171.11111111111111,74.3242166042328L172.66666666666669,84.37286651134494L174.22222222222223,85.80839043855669L175.77777777777777,72.88869267702106L177.33333333333331,74.3242166042328L178.88888888888889,83.65511333942415L180.44444444444446,84.37286651134494L182,77.9130176305771L183.55555555555554,80.06629472970965L185.11111111111111,77.9130176305771L186.66666666666666,76.47749370336535L188.22222222222223,76.47749370336535L189.7777777777778,76.47749370336535L191.33333333333334,75.04196977615358L192.88888888888889,71.45316874980928L194.44444444444443,73.60644584894182L196,76.47749370336535L197.55555555555557,71.45316874980928L199.11111111111111,80.78406548500064L200.66666666666666,79.34854155778886L202.22222222222223,72.88869267702106L203.77777777777777,82.93734258413316L205.33333333333331,77.9130176305771L206.8888888888889,78.63077080249788L208.44444444444446,86.52616119384767L210,88.67943829298022L211.55555555555554,75.75974053144456L213.1111111111111,72.88869267702106L214.66666666666669,73.60644584894182L216.22222222222223,77.9130176305771L217.77777777777777,77.19524687528612L219.33333333333334,77.9130176305771L220.88888888888889,73.60644584894182L222.44444444444443,70.7353979945183L224,79.34854155778886L225.55555555555557,77.9130176305771L227.11111111111111,80.06629472970965L228.66666666666666,75.75974053144456L230.2222222222222,70.7353979945183L231.77777777777777,76.47749370336535L233.33333333333334,72.88869267702106L234.88888888888889,70.01764482259752L236.44444444444446,73.60644584894182L238,72.88869267702106L239.55555555555554,69.29987406730653L241.11111111111111,74.3242166042328L242.66666666666669,72.17092192173007L244.22222222222223,76.47749370336535L245.77777777777777,78.63077080249788L247.33333333333331,79.34854155778886L248.88888888888889,72.17092192173007L250.44444444444446,73.60644584894182L252,75.04196977615358L253.55555555555554,72.17092192173007L255.11111111111111,69.29987406730653L256.66666666666663,70.7353979945183L258.22222222222223,72.88869267702106L259.77777777777777,74.3242166042328L261.3333333333333,72.17092192173007L262.8888888888889,72.17092192173007" style="fill: none;" fill="none"></path></g><g><path stroke="rgb(204, 51, 17)" stroke-width="2px" d="M31.11111111111111,138.97675669193268L32.666666666666664,106.3017204999924L34.22222222222222,79.791800737381L35.77777777777777,72.3936856389046L37.333333333333336,53.59011745452884L38.88888888888889,46.19200235605241L40.44444444444444,47.11676454544069L42,35.40307497978214L43.55555555555556,40.64341163635256L45.111111111111114,29.546230196952852L46.666666666666664,29.854501843452486L48.22222222222222,31.087518095970175L49.77777777777778,28.313213944435127L51.33333333333333,28.313213944435127L52.888888888888886,20.60684478282929L54.44444444444444,24.614165186882026L56,23.381131350994117L57.55555555555555,24.92241925001146L59.111111111111114,20.915098845958724L60.66666666666667,22.14811509847641L62.22222222222222,20.915098845958724L63.77777777777778,20.60684478282929L65.33333333333333,19.99033665657045L66.88888888888889,19.682082593441017L68.44444444444444,19.373828530311606L70,16.599524378776557L71.55555555555554,18.1408122777939L73.11111111111111,18.75732040405274L74.66666666666667,18.44906634092333L76.22222222222221,17.524286568164833L77.77777777777779,21.223352909088156L79.33333333333333,17.524286568164833L80.88888888888889,18.1408122777939L82.44444444444444,17.21603250503542L84,18.44906634092333L85.55555555555556,19.065574467182174L87.11111111111111,16.599524378776557L88.66666666666666,15.983016252517713L90.22222222222223,15.983016252517713L91.77777777777777,17.21603250503542L93.33333333333333,16.291270315647147L94.8888888888889,18.44906634092333L96.44444444444444,17.832558214664466L98,16.599524378776557L99.55555555555556,17.524286568164833L101.11111111111111,17.524286568164833L102.66666666666666,16.599524378776557L104.22222222222223,16.90777844190599L105.77777777777777,15.674762189388282L107.33333333333334,16.599524378776557L108.88888888888889,16.291270315647147L110.44444444444444,16.291270315647147L112,16.90777844190599L113.55555555555556,18.44906634092333L115.1111111111111,17.21603250503542L116.66666666666667,16.599524378776557L118.22222222222223,16.291270315647147L119.77777777777777,17.21603250503542L121.33333333333334,16.90777844190599L122.88888888888889,18.1408122777939L124.44444444444444,18.75732040405274L126,16.90777844190599L127.55555555555556,17.832558214664466L129.11111111111111,16.599524378776557L130.66666666666666,17.524286568164833L132.22222222222223,16.599524378776557L133.77777777777777,18.75732040405274L135.33333333333334,17.524286568164833L136.88888888888889,16.599524378776557L138.44444444444446,18.1408122777939L140,19.065574467182174L141.55555555555554,18.75732040405274L143.1111111111111,18.44906634092333L144.66666666666669,17.21603250503542L146.22222222222223,19.373828530311606L147.77777777777777,17.21603250503542L149.33333333333334,19.065574467182174L150.88888888888889,19.065574467182174L152.44444444444443,18.75732040405274L154,20.29859071969988L155.55555555555557,19.373828530311606L157.11111111111111,19.682082593441017L158.66666666666666,19.065574467182174L160.2222222222222,18.44906634092333L161.77777777777777,17.832558214664466L163.33333333333334,18.1408122777939L164.88888888888889,19.682082593441017L166.44444444444446,19.373828530311606L168,19.373828530311606L169.55555555555554,18.44906634092333L171.11111111111111,19.373828530311606L172.66666666666669,19.065574467182174L174.22222222222223,19.682082593441017L175.77777777777777,19.99033665657045L177.33333333333331,20.60684478282929L178.88888888888889,18.75732040405274L180.44444444444446,17.524286568164833L182,18.44906634092333L183.55555555555554,17.524286568164833L185.11111111111111,17.21603250503542L186.66666666666666,16.90777844190599L188.22222222222223,16.599524378776557L189.7777777777778,17.21603250503542L191.33333333333334,17.524286568164833L192.88888888888889,17.21603250503542L194.44444444444443,17.21603250503542L196,18.1408122777939L197.55555555555557,17.832558214664466L199.11111111111111,17.832558214664466L200.66666666666666,17.524286568164833L202.22222222222223,18.1408122777939L203.77777777777777,17.524286568164833L205.33333333333331,19.682082593441017L206.8888888888889,18.1408122777939L208.44444444444446,17.524286568164833L210,18.1408122777939L211.55555555555554,17.524286568164833L213.1111111111111,17.832558214664466L214.66666666666669,17.832558214664466L216.22222222222223,19.065574467182174L217.77777777777777,18.75732040405274L219.33333333333334,18.75732040405274L220.88888888888889,19.99033665657045L222.44444444444443,18.75732040405274L224,18.75732040405274L225.55555555555557,18.44906634092333L227.11111111111111,17.524286568164833L228.66666666666666,18.44906634092333L230.2222222222222,19.065574467182174L231.77777777777777,17.832558214664466L233.33333333333334,20.29859071969988L234.88888888888889,19.065574467182174L236.44444444444446,16.599524378776557L238,17.832558214664466L239.55555555555554,18.1408122777939L241.11111111111111,16.90777844190599L242.66666666666669,18.75732040405274L244.22222222222223,17.21603250503542L245.77777777777777,19.373828530311606L247.33333333333331,18.44906634092333L248.88888888888889,20.29859071969988L250.44444444444446,19.682082593441017L252,16.90777844190599L253.55555555555554,18.1408122777939L255.11111111111111,19.065574467182174L256.66666666666663,19.373828530311606L258.22222222222223,18.75732040405274L259.77777777777777,20.60684478282929L261.3333333333333,18.75732040405274L262.8888888888889,17.21603250503542" style="fill: none;" fill="none"></path></g></g></g></g></g></g><g transform="translate(50, 177)" clip-path="url(#clip_1)"><clipPath id="clip_1"><rect width="280" height="23"></rect></clipPath><g><g><line x1="0" y1="0" x2="0" y2="5" style="visibility: inherit;" fill="rgb(0, 0, 0)" stroke="rgb(204, 204, 204)" stroke-width="1px"></line><line x1="31.11111111111111" y1="0" x2="31.11111111111111" y2="5" style="visibility: inherit;" fill="rgb(0, 0, 0)" stroke="rgb(204, 204, 204)" stroke-width="1px"></line><line x1="62.22222222222222" y1="0" x2="62.22222222222222" y2="5" style="visibility: inherit;" fill="rgb(0, 0, 0)" stroke="rgb(204, 204, 204)" stroke-width="1px"></line><line x1="93.33333333333333" y1="0" x2="93.33333333333333" y2="5" style="visibility: inherit;" fill="rgb(0, 0, 0)" stroke="rgb(204, 204, 204)" stroke-width="1px"></line><line x1="124.44444444444444" y1="0" x2="124.44444444444444" y2="5" style="visibility: inherit;" fill="rgb(0, 0, 0)" stroke="rgb(204, 204, 204)" stroke-width="1px"></line><line x1="155.55555555555557" y1="0" x2="155.55555555555557" y2="5" style="visibility: inherit;" fill="rgb(0, 0, 0)" stroke="rgb(204, 204, 204)" stroke-width="1px"></line><line x1="186.66666666666666" y1="0" x2="186.66666666666666" y2="5" style="visibility: inherit;" fill="rgb(0, 0, 0)" stroke="rgb(204, 204, 204)" stroke-width="1px"></line><line x1="217.77777777777777" y1="0" x2="217.77777777777777" y2="5" style="visibility: inherit;" fill="rgb(0, 0, 0)" stroke="rgb(204, 204, 204)" stroke-width="1px"></line><line x1="248.88888888888889" y1="0" x2="248.88888888888889" y2="5" style="visibility: inherit;" fill="rgb(0, 0, 0)" stroke="rgb(204, 204, 204)" stroke-width="1px"></line><line x1="280" y1="0" x2="280" y2="5" style="visibility: inherit;" fill="rgb(0, 0, 0)" stroke="rgb(204, 204, 204)" stroke-width="1px"></line></g><g transform="translate(0, 8)"><text x="0" y="0" dx="0em" dy="0.95em" style="text-anchor: middle; visibility: hidden; font-family: Roboto, sans-serif; font-size: 12px; font-weight: 200;" fill="rgb(33, 33, 33)" stroke="none" stroke-width="1px">-20</text><text x="31.11111111111111" y="0" dx="0em" dy="0.95em" style="text-anchor: middle; visibility: inherit; font-family: Roboto, sans-serif; font-size: 12px; font-weight: 200;" fill="rgb(33, 33, 33)" stroke="none" stroke-width="1px">0</text><text x="62.22222222222222" y="0" dx="0em" dy="0.95em" style="text-anchor: middle; visibility: inherit; font-family: Roboto, sans-serif; font-size: 12px; font-weight: 200;" fill="rgb(33, 33, 33)" stroke="none" stroke-width="1px">20</text><text x="93.33333333333333" y="0" dx="0em" dy="0.95em" style="text-anchor: middle; visibility: inherit; font-family: Roboto, sans-serif; font-size: 12px; font-weight: 200;" fill="rgb(33, 33, 33)" stroke="none" stroke-width="1px">40</text><text x="124.44444444444444" y="0" dx="0em" dy="0.95em" style="text-anchor: middle; visibility: inherit; font-family: Roboto, sans-serif; font-size: 12px; font-weight: 200;" fill="rgb(33, 33, 33)" stroke="none" stroke-width="1px">60</text><text x="155.55555555555557" y="0" dx="0em" dy="0.95em" style="text-anchor: middle; visibility: inherit; font-family: Roboto, sans-serif; font-size: 12px; font-weight: 200;" fill="rgb(33, 33, 33)" stroke="none" stroke-width="1px">80</text><text x="186.66666666666666" y="0" dx="0em" dy="0.95em" style="text-anchor: middle; visibility: inherit; font-family: Roboto, sans-serif; font-size: 12px; font-weight: 200;" fill="rgb(33, 33, 33)" stroke="none" stroke-width="1px">100</text><text x="217.77777777777777" y="0" dx="0em" dy="0.95em" style="text-anchor: middle; visibility: inherit; font-family: Roboto, sans-serif; font-size: 12px; font-weight: 200;" fill="rgb(33, 33, 33)" stroke="none" stroke-width="1px">120</text><text x="248.88888888888889" y="0" dx="0em" dy="0.95em" style="text-anchor: middle; visibility: inherit; font-family: Roboto, sans-serif; font-size: 12px; font-weight: 200;" fill="rgb(33, 33, 33)" stroke="none" stroke-width="1px">140</text><text x="280" y="0" dx="0em" dy="0.95em" style="text-anchor: middle; visibility: hidden; font-family: Roboto, sans-serif; font-size: 12px; font-weight: 200;" fill="rgb(33, 33, 33)" stroke="none" stroke-width="1px">160</text></g><line x1="0" y1="0" x2="280" y2="0" fill="rgb(0, 0, 0)" stroke="rgb(204, 204, 204)" stroke-width="1px"></line></g></g></g></g></svg>