<svg viewBox="0 0 330 200" xmlns="http://www.w3.org/2000/svg"><g><g><g><g><g><line x1="30" y1="177" x2="25" y2="177" style="visibility: inherit;" fill="rgb(0, 0, 0)" stroke="rgb(204, 204, 204)" stroke-width="1px"></line><line x1="30" y1="162.25" x2="25" y2="162.25" style="visibility: inherit;" fill="rgb(0, 0, 0)" stroke="rgb(204, 204, 204)" stroke-width="1px"></line><line x1="30" y1="147.5" x2="25" y2="147.5" style="visibility: inherit;" fill="rgb(0, 0, 0)" stroke="rgb(204, 204, 204)" stroke-width="1px"></line><line x1="30" y1="132.75" x2="25" y2="132.75" style="visibility: inherit;" fill="rgb(0, 0, 0)" stroke="rgb(204, 204, 204)" stroke-width="1px"></line><line x1="30" y1="118.00000000000001" x2="25" y2="118.00000000000001" style="visibility: inherit;" fill="rgb(0, 0, 0)" stroke="rgb(204, 204, 204)" stroke-width="1px"></line><line x1="30" y1="103.24999999999999" x2="25" y2="103.24999999999999" style="visibility: inherit;" fill="rgb(0, 0, 0)" stroke="rgb(204, 204, 204)" stroke-width="1px"></line><line x1="30" y1="88.5" x2="25" y2="88.5" style="visibility: inherit;" fill="rgb(0, 0, 0)" stroke="rgb(204, 204, 204)" stroke-width="1px"></line><line x1="30" y1="73.75" x2="25" y2="73.75" style="visibility: inherit;" fill="rgb(0, 0, 0)" stroke="rgb(204, 204, 204)" stroke-width="1px"></line><line x1="30" y1="59.00000000000001" x2="25" y2="59.00000000000001" style="visibility: inherit;" fill="rgb(0, 0, 0)" stroke="rgb(204, 204, 204)" stroke-width="1px"></line><line x1="30" y1="44.25" x2="25" y2="44.25" style="visibility: inherit;" fill="rgb(0, 0, 0)" stroke="rgb(204, 204, 204)" stroke-width="1px"></line><line x1="30" y1="29.499999999999993" x2="25" y2="29.499999999999993" style="visibility: inherit;" fill="rgb(0, 0, 0)" stroke="rgb(204, 204, 204)" stroke-width="1px"></line><line x1="30" y1="14.750000000000007" x2="25" y2="14.750000000000007" style="visibility: inherit;" fill="rgb(0, 0, 0)" stroke="rgb(204, 204, 204)" stroke-width="1px"></line><line x1="30" y1="0" x2="25" y2="0" style="visibility: inherit;" fill="rgb(0, 0, 0)" stroke="rgb(204, 204, 204)" stroke-width="1px"></line></g><g transform="translate(20, 0)"><text x="0" y="177" dx="0em" dy="0.3em" style="text-anchor: end; visibility: hidden; font-family: Roboto, sans-serif; font-size: 12px; font-weight: 200;" fill="rgb(33, 33, 33)" stroke="none" stroke-width="1px">-5</text><text x="0" y="162.25" dx="0em" dy="0.3em" style="text-anchor: end; visibility: inherit; font-family: Roboto, sans-serif; font-size: 12px; font-weight: 200;" fill="rgb(33, 33, 33)" stroke="none" stroke-width="1px">0</text><text x="0" y="147.5" dx="0em" dy="0.3em" style="text-anchor: end; visibility: hidden; font-family: Roboto, sans-serif; font-size: 12px; font-weight: 200;" fill="rgb(33, 33, 33)" stroke="none" stroke-width="1px">5</text><text x="0" y="132.75" dx="0em" dy="0.3em" style="text-anchor: end; visibility: inherit; font-family: Roboto, sans-serif; font-size: 12px; font-weight: 200;" fill="rgb(33, 33, 33)" stroke="none" stroke-width="1px">10</text><text x="0" y="118.00000000000001" dx="0em" dy="0.3em" style="text-anchor: end; visibility: hidden; font-family: Roboto, sans-serif; font-size: 12px; font-weight: 200;" fill="rgb(33, 33, 33)" stroke="none" stroke-width="1px">15</text><text x="0" y="103.24999999999999" dx="0em" dy="0.3em" style="text-anchor: end; visibility: inherit; font-family: Roboto, sans-serif; font-size: 12px; font-weight: 200;" fill="rgb(33, 33, 33)" stroke="none" stroke-width="1px">20</text><text x="0" y="88.5" dx="0em" dy="0.3em" style="text-anchor: end; visibility: hidden; font-family: Roboto, sans-serif; font-size: 12px; font-weight: 200;" fill="rgb(33, 33, 33)" stroke="none" stroke-width="1px">25</text><text x="0" y="73.75" dx="0em" dy="0.3em" style="text-anchor: end; visibility: inherit; font-family: Roboto, sans-serif; font-size: 12px; font-weight: 200;" fill="rgb(33, 33, 33)" stroke="none" stroke-width="1px">30</text><text x="0" y="59.00000000000001" dx="0em" dy="0.3em" style="text-anchor: end; visibility: hidden; font-family: Roboto, sans-serif; font-size: 12px; font-weight: 200;" fill="rgb(33, 33, 33)" stroke="none" stroke-width="1px">35</text><text x="0" y="44.25" dx="0em" dy="0.3em" style="text-anchor: end; visibility: inherit; font-family: Roboto, sans-serif; font-size: 12px; font-weight: 200;" fill="rgb(33, 33, 33)" stroke="none" stroke-width="1px">40</text><text x="0" y="29.499999999999993" dx="0em" dy="0.3em" style="text-anchor: end; visibility: hidden; font-family: Roboto, sans-serif; font-size: 12px; font-weight: 200;" fill="rgb(33, 33, 33)" stroke="none" stroke-width="1px">45</text><text x="0" y="14.750000000000007" dx="0em" dy="0.3em" style="text-anchor: end; visibility: inherit; font-family: Roboto, sans-serif; font-size: 12px; font-weight: 200;" fill="rgb(33, 33, 33)" stroke="none" stroke-width="1px">50</text><text x="0" y="0" dx="0em" dy="0.3em" style="text-anchor: end; visibility: hidden; font-family: Roboto, sans-serif; font-size: 12px; font-weight: 200;" fill="rgb(33, 33, 33)" stroke="none" stroke-width="1px">55</text></g><line x1="30" y1="0" x2="30" y2="177" fill="rgb(0, 0, 0)" stroke="rgb(204, 204, 204)" stroke-width="1px"></line></g></g><g transform="translate(30, 0)" clip-path="url(#clip_0)"><clipPath id="clip_0"><rect width="300" height="177"></rect></clipPath><g><g><g><line x1="0" y1="0" x2="0" y2="177" fill="rgb(0, 0, 0)" stroke="rgb(66, 66, 66)" stroke-width="1px" opacity="0.25"></line><line x1="25" y1="0" x2="25" y2="177" fill="rgb(0, 0, 0)" stroke="rgb(66, 66, 66)" stroke-width="1px" opacity="0.25"></line><line x1="50" y1="0" x2="50" y2="177" fill="rgb(0, 0, 0)" stroke="rgb(66, 66, 66)" stroke-width="1px" opacity="0.25"></line><line x1="75" y1="0" x2="75" y2="177" fill="rgb(0, 0, 0)" stroke="rgb(66, 66, 66)" stroke-width="1px" opacity="0.25"></line><line x1="100" y1="0" x2="100" y2="177" fill="rgb(0, 0, 0)" stroke="rgb(66, 66, 66)" stroke-width="1px" opacity="0.25"></line><line x1="125" y1="0" x2="125" y2="177" fill="rgb(0, 0, 0)" stroke="rgb(66, 66, 66)" stroke-width="1px" opacity="0.25"></line><line x1="150" y1="0" x2="150" y2="177" fill="rgb(0, 0, 0)" stroke="rgb(66, 66, 66)" stroke-width="1px" opacity="0.25"></line><line x1="175" y1="0" x2="175" y2="177" fill="rgb(0, 0, 0)" stroke="rgb(66, 66, 66)" stroke-width="1px" opacity="0.25"></line><line x1="200" y1="0" x2="200" y2="177" fill="rgb(0, 0, 0)" stroke="rgb(66, 66, 66)" stroke-width="1px" opacity="0.25"></line><line x1="225" y1="0" x2="225" y2="177" fill="rgb(0, 0, 0)" stroke="rgb(66, 66, 66)" stroke-width="1px" opacity="0.25"></line><line x1="250" y1="0" x2="250" y2="177" fill="rgb(0, 0, 0)" stroke="rgb(66, 66, 66)" stroke-width="1px" opacity="0.25"></line><line x1="275" y1="0" x2="275" y2="177" fill="rgb(0, 0, 0)" stroke="rgb(66, 66, 66)" stroke-width="1px" opacity="0.25"></line><line x1="300" y1="0" x2="300" y2="177" fill="rgb(0, 0, 0)" stroke="rgb(66, 66, 66)" stroke-width="1px" opacity="0.25"></line></g><g><line x1="0" y1="177" x2="300" y2="177" fill="rgb(0, 0, 0)" stroke="rgb(66, 66, 66)" stroke-width="1px" opacity="0.25"></line><line x1="0" y1="162.25" x2="300" y2="162.25" fill="rgb(0, 0, 0)" stroke="rgb(66, 66, 66)" stroke-width="1px" opacity="0.25"></line><line x1="0" y1="147.5" x2="300" y2="147.5" fill="rgb(0, 0, 0)" stroke="rgb(66, 66, 66)" stroke-width="1px" opacity="0.25"></line><line x1="0" y1="132.75" x2="300" y2="132.75" fill="rgb(0, 0, 0)" stroke="rgb(66, 66, 66)" stroke-width="1px" opacity="0.25"></line><line x1="0" y1="118.00000000000001" x2="300" y2="118.00000000000001" fill="rgb(0, 0, 0)" stroke="rgb(66, 66, 66)" stroke-width="1px" opacity="0.25"></line><line x1="0" y1="103.24999999999999" x2="300" y2="103.24999999999999" fill="rgb(0, 0, 0)" stroke="rgb(66, 66, 66)" stroke-width="1px" opacity="0.25"></line><line x1="0" y1="88.5" x2="300" y2="88.5" fill="rgb(0, 0, 0)" stroke="rgb(66, 66, 66)" stroke-width="1px" opacity="0.25"></line><line x1="0" y1="73.75" x2="300" y2="73.75" fill="rgb(0, 0, 0)" stroke="rgb(66, 66, 66)" stroke-width="1px" opacity="0.25"></line><line x1="0" y1="59.00000000000001" x2="300" y2="59.00000000000001" fill="rgb(0, 0, 0)" stroke="rgb(66, 66, 66)" stroke-width="1px" opacity="0.25"></line><line x1="0" y1="44.25" x2="300" y2="44.25" fill="rgb(0, 0, 0)" stroke="rgb(66, 66, 66)" stroke-width="1px" opacity="0.25"></line><line x1="0" y1="29.499999999999993" x2="300" y2="29.499999999999993" fill="rgb(0, 0, 0)" stroke="rgb(66, 66, 66)" stroke-width="1px" opacity="0.25"></line><line x1="0" y1="14.750000000000007" x2="300" y2="14.750000000000007" fill="rgb(0, 0, 0)" stroke="rgb(66, 66, 66)" stroke-width="1px" opacity="0.25"></line><line x1="0" y1="0" x2="300" y2="0" fill="rgb(0, 0, 0)" stroke="rgb(66, 66, 66)" stroke-width="1px" opacity="0.25"></line></g></g></g><g><g><line x1="0" y1="162.25" x2="300" y2="162.25" fill="rgb(0, 0, 0)" stroke="rgb(153, 153, 153)" stroke-width="1.5px"></line></g></g><g><g><line x1="25" y1="0" x2="25" y2="177" fill="rgb(0, 0, 0)" stroke="rgb(153, 153, 153)" stroke-width="1.5px"></line></g></g><g><g><g><g><g><path stroke="rgb(0, 119, 187)" stroke-width="2px" d="M25,16.51361484527589L26.25,48.92186489105225L27.499999999999996,81.58304538726807L28.750000000000004,112.56820716857911L30,122.69914021492005L31.25,128.74220976829528L32.5,138.5121379375458L33.75,140.97476348876953L35,142.45822179317474L36.25,144.09536437988282L37.5,145.2324246644974L38.75000000000001,147.65168681144715L40,148.5155774831772L41.25,150.20720601081848L42.5,151.1558014035225L43.75,152.41698058843613L45,153.5814252138138L46.25,154.36365660429001L47.5,154.49443467855454L48.75,154.3360021829605L50,154.8591369867325L51.25,155.45347318649291L52.5,155.83601628541948L53.75,155.9598285317421L54.99999999999999,156.06628106832505L56.25,156.0158955693245L57.50000000000001,156.2639716029167L58.75,156.75538846850395L60,156.93645920157434L61.25,156.9738741517067L62.5,156.9627709567547L63.75,157.17426549196244L65,157.19621235132217L66.25,157.30070363879204L67.5,157.3514935553074L68.75,157.46255434155464L70,157.530359685421L71.25,157.4706623852253L72.5,157.56528025865555L73.75,157.72507581710815L75,157.74893434047698L76.25,157.9173731803894L77.50000000000001,157.94946036934851L78.75,157.94450256228447L80,157.85806095600128L81.25,157.76987156271935L82.5,157.73291835188866L83.75,157.88739599585534L85,157.9151914358139L86.25,157.99954976439477L87.5,158.07606239318847L88.75,158.09084473252295L90,158.15984855890275L91.24999999999999,158.26933879852294L92.5,158.32174357175828L93.75,158.1372454881668L95,158.09115490317345L96.25000000000001,158.06252671480178L97.5,158.19865048527717L98.75,158.27184724211693L100,158.36077759861945L101.25,158.47117514014244L102.5,158.49243519306182L103.75,158.44210631251335L105,158.47985991835594L106.25,158.6476035118103L107.5,158.45526254177094L108.75,158.37386560440063L109.99999999999999,158.22455149292946L111.25,158.277093064785L112.5,158.05171786546708L113.75,158.2181697845459L115.00000000000001,158.0874873638153L116.25,158.05591642260552L117.5,158.1270355284214L118.75,158.32536926269532L120,158.31669433116912L121.25,157.49432186484336L122.5,157.80367735028267L123.75,157.76590264439582L125,157.8365575492382L126.25,157.93172121047974L127.5,158.30067658424377L128.75,158.55061223506928L130,158.50138337016105L131.25,158.45234053730965L132.5,158.57065551877022L133.75,158.55626001358033L135,158.44153485298156L136.25,158.5152703642845L137.5,158.38251627087593L138.75,158.12761788964272L140,158.61477219462395L141.25,158.49196431040764L142.5,158.5345494747162L143.75,158.44770169258118L145,158.2728551208973L146.25,158.51830033063888L147.5,158.67096794247627L148.75,158.38019210100174L150,157.91826149225236L151.25,157.51922906041145L152.5,158.1187889277935L153.75,158.62382305860518L155.00000000000003,158.25371421575545L156.25,158.63462909460068L157.5,158.66498818993568L158.75,158.78037624359132L160,158.09440571665763L161.25,158.0071000635624L162.5,158.34051698446274L163.74999999999997,158.47452266216277L165,158.93874368071556L166.25,158.87263196706772L167.5,158.46892868876458L168.75,158.30714198946953L170,158.10992761254312L171.25,157.99174204468727L172.5,158.60865036845206L173.75000000000003,158.8983740210533L175,159.07930654883384L176.25,158.88886774778365L177.5,158.8604069530964L178.75,158.560512727499L180,158.2934674024582L181.25,158.19286414980888L182.49999999999997,158.23951107263565L183.75,158.50957792401314L185,158.74245840907096L186.25,158.71946182250977L187.5,159.02467185258865L188.75,158.873886013031L190,158.69057867527007L191.25,158.99459795951844L192.50000000000003,158.65697298645972L193.75,158.96026326417922L195,159.0811313509941L196.25,158.04800249934198L197.5,158.07568716406823L198.75,158.41509368419648L200,158.29006677865982L201.24999999999997,158.87121193408967L202.5,158.7487550139427L203.75,158.62710798382759L205,158.47247173786164L206.25,158.383213275671L207.5,158.64645953774453L208.75,158.5828935444355L210,158.5213746070862L211.25000000000003,158.25433877706527L212.5,158.0033013522625L213.75,158.42776355743408L215,158.61573787331582L216.25,158.06185608506203L217.5,158.0539769768715L218.75,158.70031564235688L219.99999999999997,158.95718054771424L221.25,159.00868927240373L222.5,159.1009931743145L223.75,158.72282938957215L225,158.47421741485596L226.25,158.10874495506286L227.5,158.43976596593856L228.75,158.6131510078907L230.00000000000003,158.84172567725182L231.25,159.05264734625817L232.5,158.91626721024514L233.75,158.95982086658478L235,158.9839631855488L236.25,159.08426892757416L237.5,159.05933992862703L238.74999999999997,159.12603963017463L240,159.02831266522406L241.25,158.9562595307827L242.5,158.94616702795028L243.75,158.71757266521453L245,158.66762006878852L246.25,158.67513520121574L247.5,158.97164322137832L248.75000000000003,159.04537802934647L250,159.0684467077255L251.25,158.92813844680785L252.5,158.93722412586212L253.75,158.6258708178997L255,158.6298798263073L256.25,159.11862015128136L257.5,159.14290559887885L258.75,159.13170042037964L260,159.17671384811402L261.25,159.107672393322L262.5,159.1967012166977L263.75,159.0751315534115L265,158.70130277276039L266.25,158.89984539747238L267.5,159.00018243789674L268.75,159.1851116657257L270,159.2886028110981L271.25,158.6262485086918L272.5,158.79393196702003L273.75,159.24016379117967" style="fill: none;" fill="none"></path></g><g><path stroke="rgb(255, 112, 67)" stroke-width="2px" d="M25,150.53262917995454L26.25,152.75753811597824L27.499999999999996,153.99704333543778L28.750000000000004,155.068707549572L30,155.71714004278184L31.25,156.35654417872428L32.5,156.78349161744117L33.75,157.06884369254112L35,157.28796765208244L36.25,157.47081289887427L37.5,157.66059408187866L38.75000000000001,157.83939409852027L40,157.93726419210435L41.25,158.13000324964523L42.5,158.2263829767704L43.75,158.34303175807L45,158.4339736521244L46.25,158.5701301276684L47.5,158.64100376963614L48.75,158.75568215847017L50,158.8505349457264L51.25,158.941509193182L52.5,159.00170621275902L53.75,159.07266988158227L54.99999999999999,159.17838989496232L56.25,159.2500066101551L57.50000000000001,159.35142819285392L58.75,159.40511303544045L60,159.49096190631388L61.25,159.53114781975745L62.5,159.6016884326935L63.75,159.6853792965412L65,159.75367380976678L66.25,159.8164001971483L67.5,159.88044709563255L68.75,159.9118708640337L70,159.9912450104952L71.25,160.0241753220558L72.5,160.05777204334737L73.75,160.1301098525524L75,160.15874648094177L76.25,160.2248638212681L77.50000000000001,160.27198408842088L78.75,160.2935509711504L80,160.34345204830169L81.25,160.37388077378273L82.5,160.43219549357892L83.75,160.46062973737716L85,160.49688330590726L86.25,160.54738327264786L87.5,160.58975233733653L88.75,160.62037430405616L90,160.66404770314693L91.24999999999999,160.673395550251L92.5,160.70109410583973L93.75,160.7123122960329L95,160.7408863276243L96.25000000000001,160.75820383727552L97.5,160.81927053034306L98.75,160.85316783934832L100,160.86766049265862L101.25,160.856116746366L102.5,160.90909315496683L103.75,160.93730118870735L105,160.97699467986823L106.25,160.99265812188386L107.5,160.97378193438053L108.75,161.0045388534665L109.99999999999999,161.01391105353832L111.25,160.98881729841233L112.5,160.9719639018178L113.75,160.9455213263631L115.00000000000001,160.92875215411186L116.25,160.90762775689365L117.5,160.94178661853076L118.75,160.962752237916L120,161.00411623716354L121.25,161.00901039242746L122.5,161.01826698184013L123.75,161.04271138310432L125,161.0627120271325L126.25,161.1154092118144L127.5,161.1217940852046L128.75,161.15438494980336L130,161.16684276759625L131.25,161.1893466681242L132.5,161.17901353687049L133.75,161.20335665792226L135,161.21895389854907L136.25,161.24047286659479L137.5,161.27511043548583L138.75,161.27454873472453L140,161.30074285715818L141.25,161.30999733656645L142.5,161.32894842922687L143.75,161.30547164082526L145,161.34059424698353L146.25,161.32503964602947L147.5,161.31824481636286L148.75,161.3048233419657L150,161.33397234976292L151.25,161.33783532828093L152.5,161.33339201062918L153.75,161.35599886178971L155.00000000000003,161.37537591159344L156.25,161.36613725721836L157.5,161.34438935369252L158.75,161.30823583453895L160,161.3261578604579L161.25,161.3019363284111L162.5,161.31959513127805L163.74999999999997,161.3091135084629L165,161.33010260164738L166.25,161.36160769313574L167.5,161.35806965529918L168.75,161.35055830329657L170,161.3526050955057L171.25,161.34043415039778L172.5,161.33984589874746L173.75000000000003,161.3384262174368L175,161.3425838932395L176.25,161.36228069663048L177.5,161.38175322413446L178.75,161.39305168241262L180,161.40224971920253L181.25,161.42851443886758L182.49999999999997,161.4538116335869L183.75,161.47559452801943L185,161.49787028431894L186.25,161.51661090403795L187.5,161.51621769592165L188.75,161.51790438070893L190,161.5096227452159L191.25,161.48808839172125L192.50000000000003,161.47239778339863L193.75,161.47944273650646L195,161.48084685653447L196.25,161.48822941035033L197.5,161.48323801904917L198.75,161.4838031485677L200,161.50223816931248L201.24999999999997,161.45989143550395L202.5,161.45821398198603L203.75,161.46004089415072L205,161.43805763721465L206.25,161.44368343651294L207.5,161.42324461489915L208.75,161.41941988021136L210,161.37852131277322L211.25000000000003,161.39761825948955L212.5,161.3636636286974L213.75,161.38931934833528L215,161.41480547636746L216.25,161.4199382379651L217.5,161.44240178465844L218.75,161.4419825091958L219.99999999999997,161.42966201752424L221.25,161.44112936407328L222.5,161.45650452673436L223.75,161.46879820376634L225,161.45260831564664L226.25,161.47854580879212L227.5,161.44137306958436L228.75,161.47676364630462L230.00000000000003,161.4979873895645L231.25,161.51932784244417L232.5,161.5503740079701L233.75,161.5715836405754L235,161.57654936015606L236.25,161.5755616143346L237.5,161.58404840379953L238.74999999999997,161.59592117890716L240,161.6074559137225L241.25,161.60267657786608L242.5,161.6175549224019L243.75,161.60526634454726L245,161.60816003978252L246.25,161.5943159930408L247.5,161.6025594726205L248.75000000000003,161.59325118809937L250,161.60087037011982L251.25,161.61820436418057L252.5,161.6222706064582L253.75,161.60992176160215L255,161.6253755658865L256.25,161.6230950906873L257.5,161.65117590874434L258.75,161.64495851695537L260,161.632651784271L261.25,161.6512988165021L262.5,161.6527388945222L263.75,161.65318529233338L265,161.66616964414715L266.25,161.67442916855217L267.5,161.68631099909544L268.75,161.69248306974768L270,161.65808999761938L271.25,161.62691863849759L272.5,161.5974753290415L273.75,161.59786677882076" style="fill: none;" fill="none"></path></g></g></g></g></g></g><g transform="translate(30, 177)" clip-path="url(#clip_1)"><clipPath id="clip_1"><rect width="300" height="23"></rect></clipPath><g><g><line x1="0" y1="0" x2="0" y2="5" style="visibility: inherit;" fill="rgb(0, 0, 0)" stroke="rgb(204, 204, 204)" stroke-width="1px"></line><line x1="25" y1="0" x2="25" y2="5" style="visibility: inherit;" fill="rgb(0, 0, 0)" stroke="rgb(204, 204, 204)" stroke-width="1px"></line><line x1="50" y1="0" x2="50" y2="5" style="visibility: inherit;" fill="rgb(0, 0, 0)" stroke="rgb(204, 204, 204)" stroke-width="1px"></line><line x1="75" y1="0" x2="75" y2="5" style="visibility: inherit;" fill="rgb(0, 0, 0)" stroke="rgb(204, 204, 204)" stroke-width="1px"></line><line x1="100" y1="0" x2="100" y2="5" style="visibility: inherit;" fill="rgb(0, 0, 0)" stroke="rgb(204, 204, 204)" stroke-width="1px"></line><line x1="125" y1="0" x2="125" y2="5" style="visibility: inherit;" fill="rgb(0, 0, 0)" stroke="rgb(204, 204, 204)" stroke-width="1px"></line><line x1="150" y1="0" x2="150" y2="5" style="visibility: inherit;" fill="rgb(0, 0, 0)" stroke="rgb(204, 204, 204)" stroke-width="1px"></line><line x1="175" y1="0" x2="175" y2="5" style="visibility: inherit;" fill="rgb(0, 0, 0)" stroke="rgb(204, 204, 204)" stroke-width="1px"></line><line x1="200" y1="0" x2="200" y2="5" style="visibility: inherit;" fill="rgb(0, 0, 0)" stroke="rgb(204, 204, 204)" stroke-width="1px"></line><line x1="225" y1="0" x2="225" y2="5" style="visibility: inherit;" fill="rgb(0, 0, 0)" stroke="rgb(204, 204, 204)" stroke-width="1px"></line><line x1="250" y1="0" x2="250" y2="5" style="visibility: inherit;" fill="rgb(0, 0, 0)" stroke="rgb(204, 204, 204)" stroke-width="1px"></line><line x1="275" y1="0" x2="275" y2="5" style="visibility: inherit;" fill="rgb(0, 0, 0)" stroke="rgb(204, 204, 204)" stroke-width="1px"></line><line x1="300" y1="0" x2="300" y2="5" style="visibility: inherit;" fill="rgb(0, 0, 0)" stroke="rgb(204, 204, 204)" stroke-width="1px"></line></g><g transform="translate(0, 8)"><text x="0" y="0" dx="0em" dy="0.95em" style="text-anchor: middle; visibility: hidden; font-family: Roboto, sans-serif; font-size: 12px; font-weight: 200;" fill="rgb(33, 33, 33)" stroke="none" stroke-width="1px">-20</text><text x="25" y="0" dx="0em" dy="0.95em" style="text-anchor: middle; visibility: inherit; font-family: Roboto, sans-serif; font-size: 12px; font-weight: 200;" fill="rgb(33, 33, 33)" stroke="none" stroke-width="1px">0</text><text x="50" y="0" dx="0em" dy="0.95em" style="text-anchor: middle; visibility: inherit; font-family: Roboto, sans-serif; font-size: 12px; font-weight: 200;" fill="rgb(33, 33, 33)" stroke="none" stroke-width="1px">20</text><text x="75" y="0" dx="0em" dy="0.95em" style="text-anchor: middle; visibility: inherit; font-family: Roboto, sans-serif; font-size: 12px; font-weight: 200;" fill="rgb(33, 33, 33)" stroke="none" stroke-width="1px">40</text><text x="100" y="0" dx="0em" dy="0.95em" style="text-anchor: middle; visibility: inherit; font-family: Roboto, sans-serif; font-size: 12px; font-weight: 200;" fill="rgb(33, 33, 33)" stroke="none" stroke-width="1px">60</text><text x="125" y="0" dx="0em" dy="0.95em" style="text-anchor: middle; visibility: inherit; font-family: Roboto, sans-serif; font-size: 12px; font-weight: 200;" fill="rgb(33, 33, 33)" stroke="none" stroke-width="1px">80</text><text x="150" y="0" dx="0em" dy="0.95em" style="text-anchor: middle; visibility: inherit; font-family: Roboto, sans-serif; font-size: 12px; font-weight: 200;" fill="rgb(33, 33, 33)" stroke="none" stroke-width="1px">100</text><text x="175" y="0" dx="0em" dy="0.95em" style="text-anchor: middle; visibility: inherit; font-family: Roboto, sans-serif; font-size: 12px; font-weight: 200;" fill="rgb(33, 33, 33)" stroke="none" stroke-width="1px">120</text><text x="200" y="0" dx="0em" dy="0.95em" style="text-anchor: middle; visibility: inherit; font-family: Roboto, sans-serif; font-size: 12px; font-weight: 200;" fill="rgb(33, 33, 33)" stroke="none" stroke-width="1px">140</text><text x="225" y="0" dx="0em" dy="0.95em" style="text-anchor: middle; visibility: inherit; font-family: Roboto, sans-serif; font-size: 12px; font-weight: 200;" fill="rgb(33, 33, 33)" stroke="none" stroke-width="1px">160</text><text x="250" y="0" dx="0em" dy="0.95em" style="text-anchor: middle; visibility: inherit; font-family: Roboto, sans-serif; font-size: 12px; font-weight: 200;" fill="rgb(33, 33, 33)" stroke="none" stroke-width="1px">180</text><text x="275" y="0" dx="0em" dy="0.95em" style="text-anchor: middle; visibility: inherit; font-family: Roboto, sans-serif; font-size: 12px; font-weight: 200;" fill="rgb(33, 33, 33)" stroke="none" stroke-width="1px">200</text><text x="300" y="0" dx="0em" dy="0.95em" style="text-anchor: middle; visibility: hidden; font-family: Roboto, sans-serif; font-size: 12px; font-weight: 200;" fill="rgb(33, 33, 33)" stroke="none" stroke-width="1px">220</text></g><line x1="0" y1="0" x2="300" y2="0" fill="rgb(0, 0, 0)" stroke="rgb(204, 204, 204)" stroke-width="1px"></line></g></g></g></g></svg>