<svg viewBox="0 0 330 200" xmlns="http://www.w3.org/2000/svg"><g><g><g><g><g><line x1="50" y1="177" x2="45" y2="177" style="visibility: inherit;" fill="rgb(0, 0, 0)" stroke="rgb(204, 204, 204)" stroke-width="1px"></line><line x1="50" y1="160.9090909090909" x2="45" y2="160.9090909090909" style="visibility: inherit;" fill="rgb(0, 0, 0)" stroke="rgb(204, 204, 204)" stroke-width="1px"></line><line x1="50" y1="144.8181818181818" x2="45" y2="144.8181818181818" style="visibility: inherit;" fill="rgb(0, 0, 0)" stroke="rgb(204, 204, 204)" stroke-width="1px"></line><line x1="50" y1="128.72727272727272" x2="45" y2="128.72727272727272" style="visibility: inherit;" fill="rgb(0, 0, 0)" stroke="rgb(204, 204, 204)" stroke-width="1px"></line><line x1="50" y1="112.63636363636365" x2="45" y2="112.63636363636365" style="visibility: inherit;" fill="rgb(0, 0, 0)" stroke="rgb(204, 204, 204)" stroke-width="1px"></line><line x1="50" y1="96.54545454545453" x2="45" y2="96.54545454545453" style="visibility: inherit;" fill="rgb(0, 0, 0)" stroke="rgb(204, 204, 204)" stroke-width="1px"></line><line x1="50" y1="80.45454545454544" x2="45" y2="80.45454545454544" style="visibility: inherit;" fill="rgb(0, 0, 0)" stroke="rgb(204, 204, 204)" stroke-width="1px"></line><line x1="50" y1="64.36363636363639" x2="45" y2="64.36363636363639" style="visibility: inherit;" fill="rgb(0, 0, 0)" stroke="rgb(204, 204, 204)" stroke-width="1px"></line><line x1="50" y1="48.272727272727266" x2="45" y2="48.272727272727266" style="visibility: inherit;" fill="rgb(0, 0, 0)" stroke="rgb(204, 204, 204)" stroke-width="1px"></line><line x1="50" y1="32.181818181818215" x2="45" y2="32.181818181818215" style="visibility: inherit;" fill="rgb(0, 0, 0)" stroke="rgb(204, 204, 204)" stroke-width="1px"></line><line x1="50" y1="16.090909090909097" x2="45" y2="16.090909090909097" style="visibility: inherit;" fill="rgb(0, 0, 0)" stroke="rgb(204, 204, 204)" stroke-width="1px"></line><line x1="50" y1="0" x2="45" y2="0" style="visibility: inherit;" fill="rgb(0, 0, 0)" stroke="rgb(204, 204, 204)" stroke-width="1px"></line></g><g transform="translate(40, 0)"><text x="0" y="177" dx="0em" dy="0.3em" style="text-anchor: end; visibility: hidden; font-family: Roboto, sans-serif; font-size: 12px; font-weight: 200;" fill="rgb(33, 33, 33)" stroke="none" stroke-width="1px">0.5</text><text x="0" y="160.9090909090909" dx="0em" dy="0.3em" style="text-anchor: end; visibility: inherit; font-family: Roboto, sans-serif; font-size: 12px; font-weight: 200;" fill="rgb(33, 33, 33)" stroke="none" stroke-width="1px">0.55</text><text x="0" y="144.8181818181818" dx="0em" dy="0.3em" style="text-anchor: end; visibility: hidden; font-family: Roboto, sans-serif; font-size: 12px; font-weight: 200;" fill="rgb(33, 33, 33)" stroke="none" stroke-width="1px">0.6</text><text x="0" y="128.72727272727272" dx="0em" dy="0.3em" style="text-anchor: end; visibility: inherit; font-family: Roboto, sans-serif; font-size: 12px; font-weight: 200;" fill="rgb(33, 33, 33)" stroke="none" stroke-width="1px">0.65</text><text x="0" y="112.63636363636365" dx="0em" dy="0.3em" style="text-anchor: end; visibility: hidden; font-family: Roboto, sans-serif; font-size: 12px; font-weight: 200;" fill="rgb(33, 33, 33)" stroke="none" stroke-width="1px">0.7</text><text x="0" y="96.54545454545453" dx="0em" dy="0.3em" style="text-anchor: end; visibility: inherit; font-family: Roboto, sans-serif; font-size: 12px; font-weight: 200;" fill="rgb(33, 33, 33)" stroke="none" stroke-width="1px">0.75</text><text x="0" y="80.45454545454544" dx="0em" dy="0.3em" style="text-anchor: end; visibility: hidden; font-family: Roboto, sans-serif; font-size: 12px; font-weight: 200;" fill="rgb(33, 33, 33)" stroke="none" stroke-width="1px">0.8</text><text x="0" y="64.36363636363639" dx="0em" dy="0.3em" style="text-anchor: end; visibility: inherit; font-family: Roboto, sans-serif; font-size: 12px; font-weight: 200;" fill="rgb(33, 33, 33)" stroke="none" stroke-width="1px">0.85</text><text x="0" y="48.272727272727266" dx="0em" dy="0.3em" style="text-anchor: end; visibility: hidden; font-family: Roboto, sans-serif; font-size: 12px; font-weight: 200;" fill="rgb(33, 33, 33)" stroke="none" stroke-width="1px">0.9</text><text x="0" y="32.181818181818215" dx="0em" dy="0.3em" style="text-anchor: end; visibility: inherit; font-family: Roboto, sans-serif; font-size: 12px; font-weight: 200;" fill="rgb(33, 33, 33)" stroke="none" stroke-width="1px">0.95</text><text x="0" y="16.090909090909097" dx="0em" dy="0.3em" style="text-anchor: end; visibility: hidden; font-family: Roboto, sans-serif; font-size: 12px; font-weight: 200;" fill="rgb(33, 33, 33)" stroke="none" stroke-width="1px">1</text><text x="0" y="0" dx="0em" dy="0.3em" style="text-anchor: end; visibility: hidden; font-family: Roboto, sans-serif; font-size: 12px; font-weight: 200;" fill="rgb(33, 33, 33)" stroke="none" stroke-width="1px">1.05</text></g><line x1="50" y1="0" x2="50" y2="177" fill="rgb(0, 0, 0)" stroke="rgb(204, 204, 204)" stroke-width="1px"></line></g></g><g transform="translate(50, 0)" clip-path="url(#clip_0)"><clipPath id="clip_0"><rect width="280" height="177"></rect></clipPath><g><g><g><line x1="0" y1="0" x2="0" y2="177" fill="rgb(0, 0, 0)" stroke="rgb(66, 66, 66)" stroke-width="1px" opacity="0.25"></line><line x1="31.11111111111111" y1="0" x2="31.11111111111111" y2="177" fill="rgb(0, 0, 0)" stroke="rgb(66, 66, 66)" stroke-width="1px" opacity="0.25"></line><line x1="62.22222222222222" y1="0" x2="62.22222222222222" y2="177" fill="rgb(0, 0, 0)" stroke="rgb(66, 66, 66)" stroke-width="1px" opacity="0.25"></line><line x1="93.33333333333333" y1="0" x2="93.33333333333333" y2="177" fill="rgb(0, 0, 0)" stroke="rgb(66, 66, 66)" stroke-width="1px" opacity="0.25"></line><line x1="124.44444444444444" y1="0" x2="124.44444444444444" y2="177" fill="rgb(0, 0, 0)" stroke="rgb(66, 66, 66)" stroke-width="1px" opacity="0.25"></line><line x1="155.55555555555557" y1="0" x2="155.55555555555557" y2="177" fill="rgb(0, 0, 0)" stroke="rgb(66, 66, 66)" stroke-width="1px" opacity="0.25"></line><line x1="186.66666666666666" y1="0" x2="186.66666666666666" y2="177" fill="rgb(0, 0, 0)" stroke="rgb(66, 66, 66)" stroke-width="1px" opacity="0.25"></line><line x1="217.77777777777777" y1="0" x2="217.77777777777777" y2="177" fill="rgb(0, 0, 0)" stroke="rgb(66, 66, 66)" stroke-width="1px" opacity="0.25"></line><line x1="248.88888888888889" y1="0" x2="248.88888888888889" y2="177" fill="rgb(0, 0, 0)" stroke="rgb(66, 66, 66)" stroke-width="1px" opacity="0.25"></line><line x1="280" y1="0" x2="280" y2="177" fill="rgb(0, 0, 0)" stroke="rgb(66, 66, 66)" stroke-width="1px" opacity="0.25"></line></g><g><line x1="0" y1="177" x2="280" y2="177" fill="rgb(0, 0, 0)" stroke="rgb(66, 66, 66)" stroke-width="1px" opacity="0.25"></line><line x1="0" y1="160.9090909090909" x2="280" y2="160.9090909090909" fill="rgb(0, 0, 0)" stroke="rgb(66, 66, 66)" stroke-width="1px" opacity="0.25"></line><line x1="0" y1="144.8181818181818" x2="280" y2="144.8181818181818" fill="rgb(0, 0, 0)" stroke="rgb(66, 66, 66)" stroke-width="1px" opacity="0.25"></line><line x1="0" y1="128.72727272727272" x2="280" y2="128.72727272727272" fill="rgb(0, 0, 0)" stroke="rgb(66, 66, 66)" stroke-width="1px" opacity="0.25"></line><line x1="0" y1="112.63636363636365" x2="280" y2="112.63636363636365" fill="rgb(0, 0, 0)" stroke="rgb(66, 66, 66)" stroke-width="1px" opacity="0.25"></line><line x1="0" y1="96.54545454545453" x2="280" y2="96.54545454545453" fill="rgb(0, 0, 0)" stroke="rgb(66, 66, 66)" stroke-width="1px" opacity="0.25"></line><line x1="0" y1="80.45454545454544" x2="280" y2="80.45454545454544" fill="rgb(0, 0, 0)" stroke="rgb(66, 66, 66)" stroke-width="1px" opacity="0.25"></line><line x1="0" y1="64.36363636363639" x2="280" y2="64.36363636363639" fill="rgb(0, 0, 0)" stroke="rgb(66, 66, 66)" stroke-width="1px" opacity="0.25"></line><line x1="0" y1="48.272727272727266" x2="280" y2="48.272727272727266" fill="rgb(0, 0, 0)" stroke="rgb(66, 66, 66)" stroke-width="1px" opacity="0.25"></line><line x1="0" y1="32.181818181818215" x2="280" y2="32.181818181818215" fill="rgb(0, 0, 0)" stroke="rgb(66, 66, 66)" stroke-width="1px" opacity="0.25"></line><line x1="0" y1="16.090909090909097" x2="280" y2="16.090909090909097" fill="rgb(0, 0, 0)" stroke="rgb(66, 66, 66)" stroke-width="1px" opacity="0.25"></line><line x1="0" y1="0" x2="280" y2="0" fill="rgb(0, 0, 0)" stroke="rgb(66, 66, 66)" stroke-width="1px" opacity="0.25"></line></g></g></g><g><g><line x1="0" y1="337.90909090909093" x2="280" y2="337.90909090909093" fill="rgb(0, 0, 0)" stroke="rgb(153, 153, 153)" stroke-width="1.5px"></line></g></g><g><g><line x1="31.11111111111111" y1="0" x2="31.11111111111111" y2="177" fill="rgb(0, 0, 0)" stroke="rgb(153, 153, 153)" stroke-width="1.5px"></line></g></g><g><g><g><g><g><path stroke="rgb(0, 153, 136)" stroke-width="2px" d="M31.11111111111111,114.7504959973422L32.666666666666664,114.7504959973422L34.22222222222222,114.7504959973422L35.77777777777777,114.7504959973422L37.333333333333336,110.05241769010371L38.88888888888889,107.70338812741367L40.44444444444444,110.05241769010371L42,112.40146643465216L43.55555555555556,114.7504959973422L45.111111111111114,114.7504959973422L46.666666666666664,114.7504959973422L48.22222222222222,114.7504959973422L49.77777777777778,114.7504959973422L51.33333333333333,114.7504959973422L52.888888888888886,114.7504959973422L54.44444444444444,114.7504959973422L56,114.7504959973422L57.55555555555555,114.7504959973422L59.111111111111114,114.7504959973422L60.66666666666667,114.7504959973422L62.22222222222222,114.7504959973422L63.77777777777778,114.7504959973422L65.33333333333333,114.7504959973422L66.88888888888889,114.7504959973422L68.44444444444444,114.7504959973422L70,114.7504959973422L71.55555555555554,114.7504959973422L73.11111111111111,114.7504959973422L74.66666666666667,114.7504959973422L76.22222222222221,114.7504959973422L77.77777777777779,114.7504959973422L79.33333333333333,114.7504959973422L80.88888888888889,114.7504959973422L82.44444444444444,114.7504959973422L84,114.7504959973422L85.55555555555556,114.7504959973422L87.11111111111111,114.7504959973422L88.66666666666666,114.7504959973422L90.22222222222223,114.7504959973422L91.77777777777777,112.40146643465216L93.33333333333333,112.40146643465216L94.8888888888889,112.40146643465216L96.44444444444444,112.40146643465216L98,112.40146643465216L99.55555555555556,112.40146643465216L101.11111111111111,112.40146643465216L102.66666666666666,110.05241769010371L104.22222222222223,110.05241769010371L105.77777777777777,107.70338812741367L107.33333333333334,103.00530982017517L108.88888888888889,100.65628025748514L110.44444444444444,93.60915320569819L112,95.95820195024665L113.55555555555556,98.30723151293668L115.1111111111111,95.95820195024665L116.66666666666667,93.60915320569819L118.22222222222223,98.30723151293668L119.77777777777777,98.30723151293668L121.33333333333334,95.95820195024665L122.88888888888889,93.60915320569819L124.44444444444444,93.60915320569819L126,93.60915320569819L127.55555555555556,93.60915320569819L129.11111111111111,91.26012364300816L130.66666666666666,93.60915320569819L132.22222222222223,93.60915320569819L133.77777777777777,93.60915320569819L135.33333333333334,93.60915320569819L136.88888888888889,93.60915320569819L138.44444444444446,98.30723151293668L140,95.95820195024665L141.55555555555554,98.30723151293668L143.1111111111111,95.95820195024665L144.66666666666669,105.3543393828652L146.22222222222223,105.3543393828652L147.77777777777777,105.3543393828652L149.33333333333334,98.30723151293668L150.88888888888889,98.30723151293668L152.44444444444443,95.95820195024665L154,100.65628025748514L155.55555555555557,100.65628025748514L157.11111111111111,100.65628025748514L158.66666666666666,98.30723151293668L160.2222222222222,98.30723151293668L161.77777777777777,95.95820195024665L163.33333333333334,91.26012364300816L164.88888888888889,88.91107489845969L166.44444444444446,93.60915320569819L168,95.95820195024665L169.55555555555554,100.65628025748514L171.11111111111111,100.65628025748514L172.66666666666669,103.00530982017517L174.22222222222223,98.30723151293668L175.77777777777777,95.95820195024665L177.33333333333331,98.30723151293668L178.88888888888889,95.95820195024665L180.44444444444446,95.95820195024665L182,98.30723151293668L183.55555555555554,95.95820195024665L185.11111111111111,93.60915320569819L186.66666666666666,95.95820195024665L188.22222222222223,98.30723151293668L189.7777777777778,98.30723151293668L191.33333333333334,100.65628025748514L192.88888888888889,100.65628025748514L194.44444444444443,100.65628025748514L196,95.95820195024665L197.55555555555557,95.95820195024665L199.11111111111111,88.91107489845969L200.66666666666666,88.91107489845969L202.22222222222223,88.91107489845969L203.77777777777777,98.30723151293668L205.33333333333331,98.30723151293668L206.8888888888889,100.65628025748514L208.44444444444446,93.60915320569819L210,91.26012364300816L211.55555555555554,93.60915320569819L213.1111111111111,93.60915320569819L214.66666666666669,95.95820195024665L216.22222222222223,98.30723151293668L217.77777777777777,100.65628025748514L219.33333333333334,98.30723151293668L220.88888888888889,95.95820195024665L222.44444444444443,95.95820195024665L224,95.95820195024665L225.55555555555557,100.65628025748514L227.11111111111111,98.30723151293668L228.66666666666666,100.65628025748514L230.2222222222222,98.30723151293668L231.77777777777777,98.30723151293668L233.33333333333334,100.65628025748514L234.88888888888889,98.30723151293668L236.44444444444446,100.65628025748514L238,98.30723151293668L239.55555555555554,100.65628025748514L241.11111111111111,103.00530982017517L242.66666666666669,103.00530982017517L244.22222222222223,98.30723151293668L245.77777777777777,98.30723151293668L247.33333333333331,95.95820195024665L248.88888888888889,98.30723151293668L250.44444444444446,98.30723151293668L252,95.95820195024665L253.55555555555554,98.30723151293668L255.11111111111111,103.00530982017517L256.66666666666663,95.95820195024665L258.22222222222223,98.30723151293668L259.77777777777777,95.95820195024665L261.3333333333333,98.30723151293668L262.8888888888889,100.65628025748514" style="fill: none;" fill="none"></path></g><g><path stroke="rgb(238, 51, 119)" stroke-width="2px" d="M31.11111111111111,164.31001138687134L32.666666666666664,112.53483789617366L34.22222222222222,92.23085995153949L35.77777777777777,82.07886138829319L37.333333333333336,61.774883443659014L38.88888888888889,53.65328459306198L40.44444444444444,57.71408401836049L42,52.63808473673734L43.55555555555556,39.44048660451717L45.111111111111114,36.39488703554328L46.666666666666664,38.42528674819253L48.22222222222222,38.42528674819253L49.77777777777778,31.318906935778546L51.33333333333333,34.36448732289402L52.888888888888886,25.227707797830767L54.44444444444444,29.288507223129294L56,28.273307366804655L57.55555555555555,25.227707797830767L59.111111111111114,23.19730808518151L60.66666666666667,29.288507223129294L62.22222222222222,22.182108228856876L63.77777777777778,28.273307366804655L65.33333333333333,23.19730808518151L66.88888888888889,28.273307366804655L68.44444444444444,23.19730808518151L70,25.227707797830767L71.55555555555554,21.16690837253226L73.11111111111111,20.151708516207623L74.66666666666667,21.16690837253226L76.22222222222221,19.136508659882985L77.77777777777779,24.21250794150613L79.33333333333333,21.16690837253226L80.88888888888889,24.21250794150613L82.44444444444444,20.151708516207623L84,17.106108947233732L85.55555555555556,19.136508659882985L87.11111111111111,24.21250794150613L88.66666666666666,17.106108947233732L90.22222222222223,20.151708516207623L91.77777777777777,17.106108947233732L93.33333333333333,20.151708516207623L94.8888888888889,19.136508659882985L96.44444444444444,18.12130880355837L98,20.151708516207623L99.55555555555556,21.16690837253226L101.11111111111111,18.12130880355837L102.66666666666666,19.136508659882985L104.22222222222223,18.12130880355837L105.77777777777777,19.136508659882985L107.33333333333334,17.106108947233732L108.88888888888889,18.12130880355837L110.44444444444444,17.106108947233732L112,17.106108947233732L113.55555555555556,18.12130880355837L115.1111111111111,22.182108228856876L116.66666666666667,17.106108947233732L118.22222222222223,17.106108947233732L119.77777777777777,18.12130880355837L121.33333333333334,18.12130880355837L122.88888888888889,18.12130880355837L124.44444444444444,19.136508659882985L126,16.090909090909097L127.55555555555556,17.106108947233732L129.11111111111111,17.106108947233732L130.66666666666666,16.090909090909097L132.22222222222223,19.136508659882985L133.77777777777777,16.090909090909097L135.33333333333334,16.090909090909097L136.88888888888889,16.090909090909097L138.44444444444446,17.106108947233732L140,16.090909090909097L141.55555555555554,16.090909090909097L143.1111111111111,18.12130880355837L144.66666666666669,18.12130880355837L146.22222222222223,17.106108947233732L147.77777777777777,18.12130880355837L149.33333333333334,18.12130880355837L150.88888888888889,16.090909090909097L152.44444444444443,16.090909090909097L154,16.090909090909097L155.55555555555557,17.106108947233732L157.11111111111111,17.106108947233732L158.66666666666666,16.090909090909097L160.2222222222222,16.090909090909097L161.77777777777777,17.106108947233732L163.33333333333334,17.106108947233732L164.88888888888889,17.106108947233732L166.44444444444446,16.090909090909097L168,18.12130880355837L169.55555555555554,18.12130880355837L171.11111111111111,18.12130880355837L172.66666666666669,16.090909090909097L174.22222222222223,17.106108947233732L175.77777777777777,16.090909090909097L177.33333333333331,17.106108947233732L178.88888888888889,16.090909090909097L180.44444444444446,17.106108947233732L182,18.12130880355837L183.55555555555554,16.090909090909097L185.11111111111111,17.106108947233732L186.66666666666666,18.12130880355837L188.22222222222223,17.106108947233732L189.7777777777778,17.106108947233732L191.33333333333334,17.106108947233732L192.88888888888889,16.090909090909097L194.44444444444443,17.106108947233732L196,17.106108947233732L197.55555555555557,16.090909090909097L199.11111111111111,16.090909090909097L200.66666666666666,18.12130880355837L202.22222222222223,16.090909090909097L203.77777777777777,17.106108947233732L205.33333333333331,17.106108947233732L206.8888888888889,17.106108947233732L208.44444444444446,17.106108947233732L210,16.090909090909097L211.55555555555554,17.106108947233732L213.1111111111111,16.090909090909097L214.66666666666669,19.136508659882985L216.22222222222223,16.090909090909097L217.77777777777777,16.090909090909097L219.33333333333334,17.106108947233732L220.88888888888889,16.090909090909097L222.44444444444443,16.090909090909097L224,16.090909090909097L225.55555555555557,16.090909090909097L227.11111111111111,17.106108947233732L228.66666666666666,17.106108947233732L230.2222222222222,16.090909090909097L231.77777777777777,17.106108947233732L233.33333333333334,16.090909090909097L234.88888888888889,16.090909090909097L236.44444444444446,19.136508659882985L238,16.090909090909097L239.55555555555554,17.106108947233732L241.11111111111111,16.090909090909097L242.66666666666669,16.090909090909097L244.22222222222223,17.106108947233732L245.77777777777777,16.090909090909097L247.33333333333331,16.090909090909097L248.88888888888889,16.090909090909097L250.44444444444446,16.090909090909097L252,17.106108947233732L253.55555555555554,16.090909090909097L255.11111111111111,17.106108947233732L256.66666666666663,17.106108947233732L258.22222222222223,16.090909090909097L259.77777777777777,16.090909090909097L261.3333333333333,16.090909090909097L262.8888888888889,17.106108947233732" style="fill: none;" fill="none"></path></g></g></g></g></g></g><g transform="translate(50, 177)" clip-path="url(#clip_1)"><clipPath id="clip_1"><rect width="280" height="23"></rect></clipPath><g><g><line x1="0" y1="0" x2="0" y2="5" style="visibility: inherit;" fill="rgb(0, 0, 0)" stroke="rgb(204, 204, 204)" stroke-width="1px"></line><line x1="31.11111111111111" y1="0" x2="31.11111111111111" y2="5" style="visibility: inherit;" fill="rgb(0, 0, 0)" stroke="rgb(204, 204, 204)" stroke-width="1px"></line><line x1="62.22222222222222" y1="0" x2="62.22222222222222" y2="5" style="visibility: inherit;" fill="rgb(0, 0, 0)" stroke="rgb(204, 204, 204)" stroke-width="1px"></line><line x1="93.33333333333333" y1="0" x2="93.33333333333333" y2="5" style="visibility: inherit;" fill="rgb(0, 0, 0)" stroke="rgb(204, 204, 204)" stroke-width="1px"></line><line x1="124.44444444444444" y1="0" x2="124.44444444444444" y2="5" style="visibility: inherit;" fill="rgb(0, 0, 0)" stroke="rgb(204, 204, 204)" stroke-width="1px"></line><line x1="155.55555555555557" y1="0" x2="155.55555555555557" y2="5" style="visibility: inherit;" fill="rgb(0, 0, 0)" stroke="rgb(204, 204, 204)" stroke-width="1px"></line><line x1="186.66666666666666" y1="0" x2="186.66666666666666" y2="5" style="visibility: inherit;" fill="rgb(0, 0, 0)" stroke="rgb(204, 204, 204)" stroke-width="1px"></line><line x1="217.77777777777777" y1="0" x2="217.77777777777777" y2="5" style="visibility: inherit;" fill="rgb(0, 0, 0)" stroke="rgb(204, 204, 204)" stroke-width="1px"></line><line x1="248.88888888888889" y1="0" x2="248.88888888888889" y2="5" style="visibility: inherit;" fill="rgb(0, 0, 0)" stroke="rgb(204, 204, 204)" stroke-width="1px"></line><line x1="280" y1="0" x2="280" y2="5" style="visibility: inherit;" fill="rgb(0, 0, 0)" stroke="rgb(204, 204, 204)" stroke-width="1px"></line></g><g transform="translate(0, 8)"><text x="0" y="0" dx="0em" dy="0.95em" style="text-anchor: middle; visibility: hidden; font-family: Roboto, sans-serif; font-size: 12px; font-weight: 200;" fill="rgb(33, 33, 33)" stroke="none" stroke-width="1px">-20</text><text x="31.11111111111111" y="0" dx="0em" dy="0.95em" style="text-anchor: middle; visibility: inherit; font-family: Roboto, sans-serif; font-size: 12px; font-weight: 200;" fill="rgb(33, 33, 33)" stroke="none" stroke-width="1px">0</text><text x="62.22222222222222" y="0" dx="0em" dy="0.95em" style="text-anchor: middle; visibility: inherit; font-family: Roboto, sans-serif; font-size: 12px; font-weight: 200;" fill="rgb(33, 33, 33)" stroke="none" stroke-width="1px">20</text><text x="93.33333333333333" y="0" dx="0em" dy="0.95em" style="text-anchor: middle; visibility: inherit; font-family: Roboto, sans-serif; font-size: 12px; font-weight: 200;" fill="rgb(33, 33, 33)" stroke="none" stroke-width="1px">40</text><text x="124.44444444444444" y="0" dx="0em" dy="0.95em" style="text-anchor: middle; visibility: inherit; font-family: Roboto, sans-serif; font-size: 12px; font-weight: 200;" fill="rgb(33, 33, 33)" stroke="none" stroke-width="1px">60</text><text x="155.55555555555557" y="0" dx="0em" dy="0.95em" style="text-anchor: middle; visibility: inherit; font-family: Roboto, sans-serif; font-size: 12px; font-weight: 200;" fill="rgb(33, 33, 33)" stroke="none" stroke-width="1px">80</text><text x="186.66666666666666" y="0" dx="0em" dy="0.95em" style="text-anchor: middle; visibility: inherit; font-family: Roboto, sans-serif; font-size: 12px; font-weight: 200;" fill="rgb(33, 33, 33)" stroke="none" stroke-width="1px">100</text><text x="217.77777777777777" y="0" dx="0em" dy="0.95em" style="text-anchor: middle; visibility: inherit; font-family: Roboto, sans-serif; font-size: 12px; font-weight: 200;" fill="rgb(33, 33, 33)" stroke="none" stroke-width="1px">120</text><text x="248.88888888888889" y="0" dx="0em" dy="0.95em" style="text-anchor: middle; visibility: inherit; font-family: Roboto, sans-serif; font-size: 12px; font-weight: 200;" fill="rgb(33, 33, 33)" stroke="none" stroke-width="1px">140</text><text x="280" y="0" dx="0em" dy="0.95em" style="text-anchor: middle; visibility: hidden; font-family: Roboto, sans-serif; font-size: 12px; font-weight: 200;" fill="rgb(33, 33, 33)" stroke="none" stroke-width="1px">160</text></g><line x1="0" y1="0" x2="280" y2="0" fill="rgb(0, 0, 0)" stroke="rgb(204, 204, 204)" stroke-width="1px"></line></g></g></g></g></svg>