<svg viewBox="0 0 330 200" xmlns="http://www.w3.org/2000/svg"><g><g><g><g><g><line x1="50" y1="177" x2="45" y2="177" style="visibility: inherit;" fill="rgb(0, 0, 0)" stroke="rgb(204, 204, 204)" stroke-width="1px"></line><line x1="50" y1="160.9090909090909" x2="45" y2="160.9090909090909" style="visibility: inherit;" fill="rgb(0, 0, 0)" stroke="rgb(204, 204, 204)" stroke-width="1px"></line><line x1="50" y1="144.8181818181818" x2="45" y2="144.8181818181818" style="visibility: inherit;" fill="rgb(0, 0, 0)" stroke="rgb(204, 204, 204)" stroke-width="1px"></line><line x1="50" y1="128.72727272727272" x2="45" y2="128.72727272727272" style="visibility: inherit;" fill="rgb(0, 0, 0)" stroke="rgb(204, 204, 204)" stroke-width="1px"></line><line x1="50" y1="112.63636363636364" x2="45" y2="112.63636363636364" style="visibility: inherit;" fill="rgb(0, 0, 0)" stroke="rgb(204, 204, 204)" stroke-width="1px"></line><line x1="50" y1="96.54545454545453" x2="45" y2="96.54545454545453" style="visibility: inherit;" fill="rgb(0, 0, 0)" stroke="rgb(204, 204, 204)" stroke-width="1px"></line><line x1="50" y1="80.45454545454547" x2="45" y2="80.45454545454547" style="visibility: inherit;" fill="rgb(0, 0, 0)" stroke="rgb(204, 204, 204)" stroke-width="1px"></line><line x1="50" y1="64.36363636363636" x2="45" y2="64.36363636363636" style="visibility: inherit;" fill="rgb(0, 0, 0)" stroke="rgb(204, 204, 204)" stroke-width="1px"></line><line x1="50" y1="48.272727272727266" x2="45" y2="48.272727272727266" style="visibility: inherit;" fill="rgb(0, 0, 0)" stroke="rgb(204, 204, 204)" stroke-width="1px"></line><line x1="50" y1="32.18181818181817" x2="45" y2="32.18181818181817" style="visibility: inherit;" fill="rgb(0, 0, 0)" stroke="rgb(204, 204, 204)" stroke-width="1px"></line><line x1="50" y1="16.090909090909097" x2="45" y2="16.090909090909097" style="visibility: inherit;" fill="rgb(0, 0, 0)" stroke="rgb(204, 204, 204)" stroke-width="1px"></line><line x1="50" y1="0" x2="45" y2="0" style="visibility: inherit;" fill="rgb(0, 0, 0)" stroke="rgb(204, 204, 204)" stroke-width="1px"></line></g><g transform="translate(40, 0)"><text x="0" y="177" dx="0em" dy="0.3em" style="text-anchor: end; visibility: hidden; font-family: Roboto, sans-serif; font-size: 12px; font-weight: 200;" fill="rgb(33, 33, 33)" stroke="none" stroke-width="1px">-0.5</text><text x="0" y="160.9090909090909" dx="0em" dy="0.3em" style="text-anchor: end; visibility: inherit; font-family: Roboto, sans-serif; font-size: 12px; font-weight: 200;" fill="rgb(33, 33, 33)" stroke="none" stroke-width="1px">0</text><text x="0" y="144.8181818181818" dx="0em" dy="0.3em" style="text-anchor: end; visibility: hidden; font-family: Roboto, sans-serif; font-size: 12px; font-weight: 200;" fill="rgb(33, 33, 33)" stroke="none" stroke-width="1px">0.5</text><text x="0" y="128.72727272727272" dx="0em" dy="0.3em" style="text-anchor: end; visibility: inherit; font-family: Roboto, sans-serif; font-size: 12px; font-weight: 200;" fill="rgb(33, 33, 33)" stroke="none" stroke-width="1px">1</text><text x="0" y="112.63636363636364" dx="0em" dy="0.3em" style="text-anchor: end; visibility: hidden; font-family: Roboto, sans-serif; font-size: 12px; font-weight: 200;" fill="rgb(33, 33, 33)" stroke="none" stroke-width="1px">1.5</text><text x="0" y="96.54545454545453" dx="0em" dy="0.3em" style="text-anchor: end; visibility: inherit; font-family: Roboto, sans-serif; font-size: 12px; font-weight: 200;" fill="rgb(33, 33, 33)" stroke="none" stroke-width="1px">2</text><text x="0" y="80.45454545454547" dx="0em" dy="0.3em" style="text-anchor: end; visibility: hidden; font-family: Roboto, sans-serif; font-size: 12px; font-weight: 200;" fill="rgb(33, 33, 33)" stroke="none" stroke-width="1px">2.5</text><text x="0" y="64.36363636363636" dx="0em" dy="0.3em" style="text-anchor: end; visibility: inherit; font-family: Roboto, sans-serif; font-size: 12px; font-weight: 200;" fill="rgb(33, 33, 33)" stroke="none" stroke-width="1px">3</text><text x="0" y="48.272727272727266" dx="0em" dy="0.3em" style="text-anchor: end; visibility: hidden; font-family: Roboto, sans-serif; font-size: 12px; font-weight: 200;" fill="rgb(33, 33, 33)" stroke="none" stroke-width="1px">3.5</text><text x="0" y="32.18181818181817" dx="0em" dy="0.3em" style="text-anchor: end; visibility: inherit; font-family: Roboto, sans-serif; font-size: 12px; font-weight: 200;" fill="rgb(33, 33, 33)" stroke="none" stroke-width="1px">4</text><text x="0" y="16.090909090909097" dx="0em" dy="0.3em" style="text-anchor: end; visibility: hidden; font-family: Roboto, sans-serif; font-size: 12px; font-weight: 200;" fill="rgb(33, 33, 33)" stroke="none" stroke-width="1px">4.5</text><text x="0" y="0" dx="0em" dy="0.3em" style="text-anchor: end; visibility: hidden; font-family: Roboto, sans-serif; font-size: 12px; font-weight: 200;" fill="rgb(33, 33, 33)" stroke="none" stroke-width="1px">5</text></g><line x1="50" y1="0" x2="50" y2="177" fill="rgb(0, 0, 0)" stroke="rgb(204, 204, 204)" stroke-width="1px"></line></g></g><g transform="translate(50, 0)" clip-path="url(#clip_0)"><clipPath id="clip_0"><rect width="280" height="177"></rect></clipPath><g><g><g><line x1="0" y1="0" x2="0" y2="177" fill="rgb(0, 0, 0)" stroke="rgb(66, 66, 66)" stroke-width="1px" opacity="0.25"></line><line x1="23.333333333333332" y1="0" x2="23.333333333333332" y2="177" fill="rgb(0, 0, 0)" stroke="rgb(66, 66, 66)" stroke-width="1px" opacity="0.25"></line><line x1="46.666666666666664" y1="0" x2="46.666666666666664" y2="177" fill="rgb(0, 0, 0)" stroke="rgb(66, 66, 66)" stroke-width="1px" opacity="0.25"></line><line x1="70" y1="0" x2="70" y2="177" fill="rgb(0, 0, 0)" stroke="rgb(66, 66, 66)" stroke-width="1px" opacity="0.25"></line><line x1="93.33333333333333" y1="0" x2="93.33333333333333" y2="177" fill="rgb(0, 0, 0)" stroke="rgb(66, 66, 66)" stroke-width="1px" opacity="0.25"></line><line x1="116.66666666666667" y1="0" x2="116.66666666666667" y2="177" fill="rgb(0, 0, 0)" stroke="rgb(66, 66, 66)" stroke-width="1px" opacity="0.25"></line><line x1="140" y1="0" x2="140" y2="177" fill="rgb(0, 0, 0)" stroke="rgb(66, 66, 66)" stroke-width="1px" opacity="0.25"></line><line x1="163.33333333333334" y1="0" x2="163.33333333333334" y2="177" fill="rgb(0, 0, 0)" stroke="rgb(66, 66, 66)" stroke-width="1px" opacity="0.25"></line><line x1="186.66666666666666" y1="0" x2="186.66666666666666" y2="177" fill="rgb(0, 0, 0)" stroke="rgb(66, 66, 66)" stroke-width="1px" opacity="0.25"></line><line x1="210" y1="0" x2="210" y2="177" fill="rgb(0, 0, 0)" stroke="rgb(66, 66, 66)" stroke-width="1px" opacity="0.25"></line><line x1="233.33333333333334" y1="0" x2="233.33333333333334" y2="177" fill="rgb(0, 0, 0)" stroke="rgb(66, 66, 66)" stroke-width="1px" opacity="0.25"></line><line x1="256.66666666666663" y1="0" x2="256.66666666666663" y2="177" fill="rgb(0, 0, 0)" stroke="rgb(66, 66, 66)" stroke-width="1px" opacity="0.25"></line><line x1="280" y1="0" x2="280" y2="177" fill="rgb(0, 0, 0)" stroke="rgb(66, 66, 66)" stroke-width="1px" opacity="0.25"></line></g><g><line x1="0" y1="177" x2="280" y2="177" fill="rgb(0, 0, 0)" stroke="rgb(66, 66, 66)" stroke-width="1px" opacity="0.25"></line><line x1="0" y1="160.9090909090909" x2="280" y2="160.9090909090909" fill="rgb(0, 0, 0)" stroke="rgb(66, 66, 66)" stroke-width="1px" opacity="0.25"></line><line x1="0" y1="144.8181818181818" x2="280" y2="144.8181818181818" fill="rgb(0, 0, 0)" stroke="rgb(66, 66, 66)" stroke-width="1px" opacity="0.25"></line><line x1="0" y1="128.72727272727272" x2="280" y2="128.72727272727272" fill="rgb(0, 0, 0)" stroke="rgb(66, 66, 66)" stroke-width="1px" opacity="0.25"></line><line x1="0" y1="112.63636363636364" x2="280" y2="112.63636363636364" fill="rgb(0, 0, 0)" stroke="rgb(66, 66, 66)" stroke-width="1px" opacity="0.25"></line><line x1="0" y1="96.54545454545453" x2="280" y2="96.54545454545453" fill="rgb(0, 0, 0)" stroke="rgb(66, 66, 66)" stroke-width="1px" opacity="0.25"></line><line x1="0" y1="80.45454545454547" x2="280" y2="80.45454545454547" fill="rgb(0, 0, 0)" stroke="rgb(66, 66, 66)" stroke-width="1px" opacity="0.25"></line><line x1="0" y1="64.36363636363636" x2="280" y2="64.36363636363636" fill="rgb(0, 0, 0)" stroke="rgb(66, 66, 66)" stroke-width="1px" opacity="0.25"></line><line x1="0" y1="48.272727272727266" x2="280" y2="48.272727272727266" fill="rgb(0, 0, 0)" stroke="rgb(66, 66, 66)" stroke-width="1px" opacity="0.25"></line><line x1="0" y1="32.18181818181817" x2="280" y2="32.18181818181817" fill="rgb(0, 0, 0)" stroke="rgb(66, 66, 66)" stroke-width="1px" opacity="0.25"></line><line x1="0" y1="16.090909090909097" x2="280" y2="16.090909090909097" fill="rgb(0, 0, 0)" stroke="rgb(66, 66, 66)" stroke-width="1px" opacity="0.25"></line><line x1="0" y1="0" x2="280" y2="0" fill="rgb(0, 0, 0)" stroke="rgb(66, 66, 66)" stroke-width="1px" opacity="0.25"></line></g></g></g><g><g><line x1="0" y1="160.9090909090909" x2="280" y2="160.9090909090909" fill="rgb(0, 0, 0)" stroke="rgb(153, 153, 153)" stroke-width="1.5px"></line></g></g><g><g><line x1="23.333333333333332" y1="0" x2="23.333333333333332" y2="177" fill="rgb(0, 0, 0)" stroke="rgb(153, 153, 153)" stroke-width="1.5px"></line></g></g><g><g><g><g><g><path stroke="rgb(0, 119, 187)" stroke-width="2px" d="M23.333333333333332,30.619386759671304L24.5,46.41343740983442L25.666666666666664,76.98992586135864L26.833333333333336,92.5754543651234L28,97.76648725162853L29.166666666666668,86.2581241347573L30.333333333333336,56.34110797535289L31.5,22.314194505864933L32.666666666666664,30.009526426141903L33.833333333333336,40.8597829992121L35,51.219375306909726L36.16666666666667,69.29489317807284L37.333333333333336,83.05684076655994L38.5,87.4555324641141L39.666666666666664,93.66013474897906L40.833333333333336,101.42547277970746L42,103.93364654887806L43.16666666666667,107.37570444020359L44.33333333333333,105.29498304020275L45.5,104.74108002402566L46.666666666666664,105.70389038866216L47.833333333333336,108.79691518436779L49,112.14912141453136L50.166666666666664,117.5801308588548L51.33333333333333,119.99306286465038L52.5,121.39854448491877L53.66666666666667,122.42848751761697L54.833333333333336,123.78629454699428L56,126.96160951527683L57.166666666666664,130.1305234974081L58.333333333333336,132.12027301571587L59.5,133.48979632420972L60.66666666666667,133.65827250480652L61.83333333333333,133.59836372462186L63,134.25872030041435L64.16666666666666,135.4802805076946L65.33333333333333,136.29818535934794L66.5,137.125115275383L67.66666666666667,137.44358016144145L68.83333333333333,137.92531527172434L70,138.19529417428103L71.16666666666666,138.39086664806712L72.33333333333334,138.554541609504L73.5,138.91847517273644L74.66666666666667,138.94508616490796L75.83333333333333,138.78147833997554L77,138.9662111455744L78.16666666666667,139.3504909060218L79.33333333333333,139.4775112542239L80.5,139.46060436422175L81.66666666666667,139.38600611686707L82.83333333333333,139.49353194236755L84,139.72029028155586L85.16666666666666,139.7255518653176L86.33333333333334,139.7076686187224L87.5,139.7765218994834L88.66666666666666,139.8909225030379L89.83333333333334,139.93391863866285L91,139.8621228608218L92.16666666666667,139.64300081946632L93.33333333333333,139.63950588486412L94.5,139.82221692258662L95.66666666666667,140.18198610435832L96.83333333333333,140.51170690493151L98,140.72428985075518L99.16666666666667,140.6031295602972L100.33333333333333,140.81647594408557L101.5,140.6778697534041L102.66666666666666,140.59501179781827L103.83333333333334,140.4551069953225L105,140.64891281994906L106.16666666666666,140.7384594895623L107.33333333333334,140.7280859405344L108.5,140.91630025343463L109.66666666666667,141.22684686834162L110.83333333333333,141.14754139293325L112,140.98895346034658L113.16666666666667,140.60887836326253L114.33333333333333,140.27042598074132L115.5,139.98700826818293L116.66666666666667,140.04899060726166L117.83333333333333,140.20484320683912L119,140.28389931808817L120.16666666666666,140.7210826440291L121.33333333333334,140.89661966670644L122.5,140.88825637643987L123.66666666666666,141.00535394928673L124.83333333333334,141.16546875780278L126,141.11415153199977L127.16666666666667,141.2843732617118L128.33333333333331,141.39719903469086L129.5,141.49394465576518L130.66666666666666,141.5916819789193L131.83333333333334,141.67026429826564L133,141.76048041473734L134.16666666666669,141.7796622731469L135.33333333333334,141.60371284051374L136.5,141.35002892667598L137.66666666666666,141.16023402864283L138.83333333333334,141.43410684845665L140,141.64729210463437L141.16666666666666,141.5597767938267L142.33333333333331,141.4710184985941L143.5,141.51672503081235L144.66666666666669,141.47229025580666L145.83333333333334,141.2747247869318L147,141.20091299577192L148.16666666666666,141.17322781952944L149.33333333333334,141.18989877267316L150.5,141.04480335929176L151.66666666666666,141.22101366519928L152.83333333333331,141.3709620887583L154,141.37563095309517L155.16666666666669,141.2693231756037L156.33333333333334,141.38189958442342L157.5,141.5481410785155L158.66666666666666,141.82868534868413L159.83333333333331,141.70632619207555L161,141.4183067516847L162.16666666666669,141.41961495442823L163.33333333333334,141.63973637060687L164.5,141.66700721870768L165.66666666666666,141.6123561859131L166.83333333333334,141.82139432430267L168,141.8368242112073L169.16666666666666,141.66928218711507L170.33333333333331,141.27689041874626L171.5,141.00799145481804L172.66666666666669,141.00675230676478L173.83333333333334,141.50759254802358L175,141.93073283542287L176.16666666666666,142.28778394785795L177.33333333333331,142.40679395198822L178.5,142.30076622962952L179.66666666666669,142.02843371304598L180.83333333333334,141.52187344160947L182,141.5933834097602L183.16666666666666,142.18491931395099L184.33333333333334,142.61291069334203L185.5,142.51355058496648L186.66666666666666,142.454061887481L187.83333333333331,142.23027289997447L189,142.2452155676755L190.16666666666669,142.40428496490824L191.33333333333334,142.4832988760688L192.5,142.47113182327965L193.66666666666666,142.55750197714025L194.83333333333331,142.18719620054418L196,141.86376129497182L197.16666666666669,141.23020752993497L198.33333333333334,140.51672487909144L199.5,140.4920071363449L200.66666666666666,141.26592798666522L201.83333333333334,141.65811450914904L203,142.200658028776L204.16666666666666,142.42933263561943L205.33333333333331,142.45265969363126L206.5,142.51623796332967L207.66666666666669,142.4583624601364L208.83333333333334,142.53255405209282L210,142.67736173759806L211.16666666666666,142.9382944757288L212.33333333333331,143.33599770069122L213.5,143.4958132722161L214.66666666666669,143.552511009303L215.83333333333334,143.26662842793897L217,142.876457918774L218.16666666666666,142.69062023813075L219.33333333333334,142.73979101397774L220.5,142.72634644941851L221.66666666666666,143.02848757397044L222.83333333333331,143.09546678716487L224,143.1797959912907L225.16666666666669,143.27711706811732L226.33333333333334,143.1867474967783L227.5,143.08349347114563L228.66666666666666,143.244521336122L229.83333333333331,143.5086651173505L231,143.74519469521263L232.16666666666669,143.48196588863027L233.33333333333334,142.60021997581828L234.5,141.9498724937439L235.66666666666666,141.86282713846728L236.83333333333334,141.86020306023684L238,141.87284582311457L239.16666666666666,141.78389954566956L240.33333333333331,141.98684552582827L241.5,142.4233402230523L242.66666666666669,142.28941056945106L243.83333333333334,142.36874289946124L245,142.73763689127836L246.16666666666666,142.7143558697267L247.33333333333331,142.63784710927442L248.5,142.76222227920186L249.66666666666669,143.14889785376462L250.83333333333334,143.159651203589L252,142.79781038110906L253.16666666666666,142.3997810645537L254.33333333333334,142.37712345340034L255.5,142.68836253339595" style="fill: none;" fill="none"></path></g><g><path stroke="rgb(255, 112, 67)" stroke-width="2px" d="M23.333333333333332,109.0046854019165L24.5,115.81432953747837L25.666666666666664,120.12804560227826L26.833333333333336,122.41186451911926L28,125.60427819598804L29.166666666666668,127.92668717557734L30.333333333333336,129.67672292752698L31.5,131.35292195190084L32.666666666666664,133.63624597679484L33.833333333333336,133.69255432215604L35,134.54452231797305L36.16666666666667,136.5421996983615L37.333333333333336,137.77847239104184L38.5,137.73662141236392L39.666666666666664,139.74023365974426L40.833333333333336,139.90862160379237L42,140.71789845553312L43.16666666666667,141.34556530822408L44.33333333333333,142.26282259550962L45.5,141.515330509706L46.666666666666664,141.44122331792659L47.833333333333336,142.92943053895777L49,143.97371009263125L50.166666666666664,143.3313499363986L51.33333333333333,143.78378475796092L52.5,144.36746377294713L53.66666666666667,144.82860524004155L54.833333333333336,144.9611461270939L56,145.863538433205L57.166666666666664,145.88146963444623L58.333333333333336,146.1067078113556L59.5,146.39322147586128L60.66666666666667,146.07852486588737L61.83333333333333,146.7820310321721L63,146.54898967526177L64.16666666666666,146.91426213221118L65.33333333333333,147.33344424312764L66.5,147.1007778915492L67.66666666666667,147.53498802943662L68.83333333333333,148.335091157393L70,147.6373462622816L71.16666666666666,148.22604996507818L72.33333333333334,148.4410766796632L73.5,148.1269785436717L74.66666666666667,148.85293611613187L75.83333333333333,149.1066305799918L77,148.72923902489921L78.16666666666667,148.82949876243418L79.33333333333333,149.01613824475896L80.5,149.29528319835663L81.66666666666667,149.3533524383198L82.83333333333333,149.39071678031576L84,149.51608461141586L85.16666666666666,150.14509611238134L86.33333333333334,150.25422170487317L87.5,150.23218846321106L88.66666666666666,150.18084821917793L89.83333333333334,150.20021422342822L91,150.49593422087756L92.16666666666667,150.6169343428178L93.33333333333333,150.5300290151076L94.5,150.8136529326439L95.66666666666667,150.56068258393896L96.83333333333333,150.4255425550721L98,151.14109109206632L99.16666666666667,151.1177323839881L100.33333333333333,150.93847887624395L101.5,151.37463597275993L102.66666666666666,151.08040928298777L103.83333333333334,151.30512283606961L105,151.25462179834193L106.16666666666666,151.52457096901807L107.33333333333334,151.63585164330223L108.5,151.55799056183207L109.66666666666667,151.7864829410206L110.83333333333333,151.7826647921042L112,151.70620398629796L113.16666666666667,152.02192778478968L114.33333333333333,152.10551369190216L115.5,152.28234644911507L116.66666666666667,152.27293103391474L117.83333333333333,152.13357003710487L119,152.37176939574155L120.16666666666666,152.56647197224876L121.33333333333334,152.82036113197154L122.5,152.58208792317998L123.66666666666666,152.6928430145437L124.83333333333334,152.96149645068428L126,152.51381201635706L127.16666666666667,152.4304601279172L128.33333333333331,152.6483315121044L129.5,152.9145411794836L130.66666666666666,152.8973863639615L131.83333333333334,153.00990522720596L133,152.71373397653753L134.16666666666669,153.19188927249476L135.33333333333334,152.87414082884789L136.5,152.96057092601603L137.66666666666666,153.3015951162035L138.83333333333334,152.96244835040787L140,153.58832313797691L141.16666666666666,153.2271186736497L142.33333333333331,153.56435444680127L143.5,153.5178365219723L144.66666666666669,153.68075619773433L145.83333333333334,153.63999762589282L147,153.7375143576752L148.16666666666666,153.66977122696963L149.33333333333334,153.42598275433886L150.5,153.9382875128226L151.66666666666666,153.83459038626063L152.83333333333331,154.03441020304507L154,153.88997800241816L155.16666666666669,154.05080301924184L156.33333333333334,154.03450755097649L157.5,154.13086665760386L158.66666666666666,154.15240021185443L159.83333333333331,154.38883483951741L161,154.1984812698581L162.16666666666669,154.34821725433522L163.33333333333334,154.2974754842845L164.5,154.21553825790232L165.66666666666666,154.16457973285154L166.83333333333334,154.5427865169265L168,154.52409283681348L169.16666666666666,154.50014524568212L170.33333333333331,154.4383940479972L171.5,154.6009449525313L172.66666666666669,154.47658368945122L173.83333333333334,154.73398504744875L175,154.61812518401578L176.16666666666666,154.62676613168284L177.33333333333331,154.95305194096133L178.5,154.922162914818L179.66666666666669,154.90150645104322L180.83333333333334,154.85418384725398L182,154.37959973378614L183.16666666666666,154.99247305772522L184.33333333333334,154.9925502647053L185.5,154.98589943484828L186.66666666666666,155.0962876731699L187.83333333333331,155.1848699748516L189,154.99926199696282L190.16666666666669,154.85630536079407L191.33333333333334,155.13737377524376L192.5,154.9267373085022L193.66666666666666,155.19105996056035L194.83333333333331,154.85727404464376L196,155.33977211334488L197.16666666666669,155.11506958983162L198.33333333333334,155.21398611773145L199.5,155.04281728376043L200.66666666666666,154.97453466328707L201.83333333333334,155.19919546625832L203,155.3098968484185L204.16666666666666,155.32597891850904L205.33333333333331,155.1521486016837L206.5,155.39192231134936L207.66666666666669,155.32010926983574L208.83333333333334,155.5807605141943L210,155.3703355274417L211.16666666666666,155.21761340715668L212.33333333333331,155.59953811493787L213.5,155.6718599552458L214.66666666666669,155.48825935883954L215.83333333333334,155.57097153230146L217,155.58800214529037L218.16666666666666,155.7554938170043L219.33333333333334,155.7885647795417L220.5,155.63830800760877L221.66666666666666,155.88941915468737L222.83333333333331,155.88049191778356L224,155.90637495842847L225.16666666666669,155.6486158587716L226.33333333333334,155.9603843580593L227.5,155.86679127541456L228.66666666666666,155.63534201275218L229.83333333333331,155.815727729689L231,155.58769523555583L232.16666666666669,155.54988587444478L233.33333333333334,155.90963539481163L234.5,156.00010087544268L235.66666666666666,156.06329023296183L236.83333333333334,156.04757645455274L238,156.05264046517286L239.16666666666666,156.18665116212586L240.33333333333331,155.95700307596815L241.5,155.92673362385142L242.66666666666669,156.15527875315058L243.83333333333334,156.06651278517464L245,155.9853816763921L246.16666666666666,156.20877839489415L247.33333333333331,156.22736753387883L248.5,156.23119335553864L249.66666666666669,156.05086470463058L250.83333333333334,156.19136078791186L252,156.30832408774984L253.16666666666666,156.28465846993706L254.33333333333334,156.3064538565549L255.5,156.4131256098097" style="fill: none;" fill="none"></path></g></g></g></g></g></g><g transform="translate(50, 177)" clip-path="url(#clip_1)"><clipPath id="clip_1"><rect width="280" height="23"></rect></clipPath><g><g><line x1="0" y1="0" x2="0" y2="5" style="visibility: inherit;" fill="rgb(0, 0, 0)" stroke="rgb(204, 204, 204)" stroke-width="1px"></line><line x1="23.333333333333332" y1="0" x2="23.333333333333332" y2="5" style="visibility: inherit;" fill="rgb(0, 0, 0)" stroke="rgb(204, 204, 204)" stroke-width="1px"></line><line x1="46.666666666666664" y1="0" x2="46.666666666666664" y2="5" style="visibility: inherit;" fill="rgb(0, 0, 0)" stroke="rgb(204, 204, 204)" stroke-width="1px"></line><line x1="70" y1="0" x2="70" y2="5" style="visibility: inherit;" fill="rgb(0, 0, 0)" stroke="rgb(204, 204, 204)" stroke-width="1px"></line><line x1="93.33333333333333" y1="0" x2="93.33333333333333" y2="5" style="visibility: inherit;" fill="rgb(0, 0, 0)" stroke="rgb(204, 204, 204)" stroke-width="1px"></line><line x1="116.66666666666667" y1="0" x2="116.66666666666667" y2="5" style="visibility: inherit;" fill="rgb(0, 0, 0)" stroke="rgb(204, 204, 204)" stroke-width="1px"></line><line x1="140" y1="0" x2="140" y2="5" style="visibility: inherit;" fill="rgb(0, 0, 0)" stroke="rgb(204, 204, 204)" stroke-width="1px"></line><line x1="163.33333333333334" y1="0" x2="163.33333333333334" y2="5" style="visibility: inherit;" fill="rgb(0, 0, 0)" stroke="rgb(204, 204, 204)" stroke-width="1px"></line><line x1="186.66666666666666" y1="0" x2="186.66666666666666" y2="5" style="visibility: inherit;" fill="rgb(0, 0, 0)" stroke="rgb(204, 204, 204)" stroke-width="1px"></line><line x1="210" y1="0" x2="210" y2="5" style="visibility: inherit;" fill="rgb(0, 0, 0)" stroke="rgb(204, 204, 204)" stroke-width="1px"></line><line x1="233.33333333333334" y1="0" x2="233.33333333333334" y2="5" style="visibility: inherit;" fill="rgb(0, 0, 0)" stroke="rgb(204, 204, 204)" stroke-width="1px"></line><line x1="256.66666666666663" y1="0" x2="256.66666666666663" y2="5" style="visibility: inherit;" fill="rgb(0, 0, 0)" stroke="rgb(204, 204, 204)" stroke-width="1px"></line><line x1="280" y1="0" x2="280" y2="5" style="visibility: inherit;" fill="rgb(0, 0, 0)" stroke="rgb(204, 204, 204)" stroke-width="1px"></line></g><g transform="translate(0, 8)"><text x="0" y="0" dx="0em" dy="0.95em" style="text-anchor: middle; visibility: hidden; font-family: Roboto, sans-serif; font-size: 12px; font-weight: 200;" fill="rgb(33, 33, 33)" stroke="none" stroke-width="1px">-20</text><text x="23.333333333333332" y="0" dx="0em" dy="0.95em" style="text-anchor: middle; visibility: inherit; font-family: Roboto, sans-serif; font-size: 12px; font-weight: 200;" fill="rgb(33, 33, 33)" stroke="none" stroke-width="1px">0</text><text x="46.666666666666664" y="0" dx="0em" dy="0.95em" style="text-anchor: middle; visibility: hidden; font-family: Roboto, sans-serif; font-size: 12px; font-weight: 200;" fill="rgb(33, 33, 33)" stroke="none" stroke-width="1px">20</text><text x="70" y="0" dx="0em" dy="0.95em" style="text-anchor: middle; visibility: inherit; font-family: Roboto, sans-serif; font-size: 12px; font-weight: 200;" fill="rgb(33, 33, 33)" stroke="none" stroke-width="1px">40</text><text x="93.33333333333333" y="0" dx="0em" dy="0.95em" style="text-anchor: middle; visibility: hidden; font-family: Roboto, sans-serif; font-size: 12px; font-weight: 200;" fill="rgb(33, 33, 33)" stroke="none" stroke-width="1px">60</text><text x="116.66666666666667" y="0" dx="0em" dy="0.95em" style="text-anchor: middle; visibility: inherit; font-family: Roboto, sans-serif; font-size: 12px; font-weight: 200;" fill="rgb(33, 33, 33)" stroke="none" stroke-width="1px">80</text><text x="140" y="0" dx="0em" dy="0.95em" style="text-anchor: middle; visibility: hidden; font-family: Roboto, sans-serif; font-size: 12px; font-weight: 200;" fill="rgb(33, 33, 33)" stroke="none" stroke-width="1px">100</text><text x="163.33333333333334" y="0" dx="0em" dy="0.95em" style="text-anchor: middle; visibility: inherit; font-family: Roboto, sans-serif; font-size: 12px; font-weight: 200;" fill="rgb(33, 33, 33)" stroke="none" stroke-width="1px">120</text><text x="186.66666666666666" y="0" dx="0em" dy="0.95em" style="text-anchor: middle; visibility: hidden; font-family: Roboto, sans-serif; font-size: 12px; font-weight: 200;" fill="rgb(33, 33, 33)" stroke="none" stroke-width="1px">140</text><text x="210" y="0" dx="0em" dy="0.95em" style="text-anchor: middle; visibility: inherit; font-family: Roboto, sans-serif; font-size: 12px; font-weight: 200;" fill="rgb(33, 33, 33)" stroke="none" stroke-width="1px">160</text><text x="233.33333333333334" y="0" dx="0em" dy="0.95em" style="text-anchor: middle; visibility: hidden; font-family: Roboto, sans-serif; font-size: 12px; font-weight: 200;" fill="rgb(33, 33, 33)" stroke="none" stroke-width="1px">180</text><text x="256.66666666666663" y="0" dx="0em" dy="0.95em" style="text-anchor: middle; visibility: inherit; font-family: Roboto, sans-serif; font-size: 12px; font-weight: 200;" fill="rgb(33, 33, 33)" stroke="none" stroke-width="1px">200</text><text x="280" y="0" dx="0em" dy="0.95em" style="text-anchor: middle; visibility: hidden; font-family: Roboto, sans-serif; font-size: 12px; font-weight: 200;" fill="rgb(33, 33, 33)" stroke="none" stroke-width="1px">220</text></g><line x1="0" y1="0" x2="280" y2="0" fill="rgb(0, 0, 0)" stroke="rgb(204, 204, 204)" stroke-width="1px"></line></g></g></g></g></svg>