<svg viewBox="0 0 330 200" xmlns="http://www.w3.org/2000/svg"><g><g><g><g><g><line x1="30" y1="177" x2="25" y2="177" style="visibility: inherit;" fill="rgb(0, 0, 0)" stroke="rgb(204, 204, 204)" stroke-width="1px"></line><line x1="30" y1="163.3846153846154" x2="25" y2="163.3846153846154" style="visibility: inherit;" fill="rgb(0, 0, 0)" stroke="rgb(204, 204, 204)" stroke-width="1px"></line><line x1="30" y1="149.76923076923077" x2="25" y2="149.76923076923077" style="visibility: inherit;" fill="rgb(0, 0, 0)" stroke="rgb(204, 204, 204)" stroke-width="1px"></line><line x1="30" y1="136.15384615384613" x2="25" y2="136.15384615384613" style="visibility: inherit;" fill="rgb(0, 0, 0)" stroke="rgb(204, 204, 204)" stroke-width="1px"></line><line x1="30" y1="122.53846153846153" x2="25" y2="122.53846153846153" style="visibility: inherit;" fill="rgb(0, 0, 0)" stroke="rgb(204, 204, 204)" stroke-width="1px"></line><line x1="30" y1="108.92307692307693" x2="25" y2="108.92307692307693" style="visibility: inherit;" fill="rgb(0, 0, 0)" stroke="rgb(204, 204, 204)" stroke-width="1px"></line><line x1="30" y1="95.3076923076923" x2="25" y2="95.3076923076923" style="visibility: inherit;" fill="rgb(0, 0, 0)" stroke="rgb(204, 204, 204)" stroke-width="1px"></line><line x1="30" y1="81.6923076923077" x2="25" y2="81.6923076923077" style="visibility: inherit;" fill="rgb(0, 0, 0)" stroke="rgb(204, 204, 204)" stroke-width="1px"></line><line x1="30" y1="68.07692307692307" x2="25" y2="68.07692307692307" style="visibility: inherit;" fill="rgb(0, 0, 0)" stroke="rgb(204, 204, 204)" stroke-width="1px"></line><line x1="30" y1="54.46153846153847" x2="25" y2="54.46153846153847" style="visibility: inherit;" fill="rgb(0, 0, 0)" stroke="rgb(204, 204, 204)" stroke-width="1px"></line><line x1="30" y1="40.84615384615384" x2="25" y2="40.84615384615384" style="visibility: inherit;" fill="rgb(0, 0, 0)" stroke="rgb(204, 204, 204)" stroke-width="1px"></line><line x1="30" y1="27.230769230769234" x2="25" y2="27.230769230769234" style="visibility: inherit;" fill="rgb(0, 0, 0)" stroke="rgb(204, 204, 204)" stroke-width="1px"></line><line x1="30" y1="13.615384615384606" x2="25" y2="13.615384615384606" style="visibility: inherit;" fill="rgb(0, 0, 0)" stroke="rgb(204, 204, 204)" stroke-width="1px"></line><line x1="30" y1="0" x2="25" y2="0" style="visibility: inherit;" fill="rgb(0, 0, 0)" stroke="rgb(204, 204, 204)" stroke-width="1px"></line></g><g transform="translate(20, 0)"><text x="0" y="177" dx="0em" dy="0.3em" style="text-anchor: end; visibility: hidden; font-family: Roboto, sans-serif; font-size: 12px; font-weight: 200;" fill="rgb(33, 33, 33)" stroke="none" stroke-width="1px">-2</text><text x="0" y="163.3846153846154" dx="0em" dy="0.3em" style="text-anchor: end; visibility: inherit; font-family: Roboto, sans-serif; font-size: 12px; font-weight: 200;" fill="rgb(33, 33, 33)" stroke="none" stroke-width="1px">0</text><text x="0" y="149.76923076923077" dx="0em" dy="0.3em" style="text-anchor: end; visibility: hidden; font-family: Roboto, sans-serif; font-size: 12px; font-weight: 200;" fill="rgb(33, 33, 33)" stroke="none" stroke-width="1px">2</text><text x="0" y="136.15384615384613" dx="0em" dy="0.3em" style="text-anchor: end; visibility: inherit; font-family: Roboto, sans-serif; font-size: 12px; font-weight: 200;" fill="rgb(33, 33, 33)" stroke="none" stroke-width="1px">4</text><text x="0" y="122.53846153846153" dx="0em" dy="0.3em" style="text-anchor: end; visibility: hidden; font-family: Roboto, sans-serif; font-size: 12px; font-weight: 200;" fill="rgb(33, 33, 33)" stroke="none" stroke-width="1px">6</text><text x="0" y="108.92307692307693" dx="0em" dy="0.3em" style="text-anchor: end; visibility: inherit; font-family: Roboto, sans-serif; font-size: 12px; font-weight: 200;" fill="rgb(33, 33, 33)" stroke="none" stroke-width="1px">8</text><text x="0" y="95.3076923076923" dx="0em" dy="0.3em" style="text-anchor: end; visibility: hidden; font-family: Roboto, sans-serif; font-size: 12px; font-weight: 200;" fill="rgb(33, 33, 33)" stroke="none" stroke-width="1px">10</text><text x="0" y="81.6923076923077" dx="0em" dy="0.3em" style="text-anchor: end; visibility: inherit; font-family: Roboto, sans-serif; font-size: 12px; font-weight: 200;" fill="rgb(33, 33, 33)" stroke="none" stroke-width="1px">12</text><text x="0" y="68.07692307692307" dx="0em" dy="0.3em" style="text-anchor: end; visibility: hidden; font-family: Roboto, sans-serif; font-size: 12px; font-weight: 200;" fill="rgb(33, 33, 33)" stroke="none" stroke-width="1px">14</text><text x="0" y="54.46153846153847" dx="0em" dy="0.3em" style="text-anchor: end; visibility: inherit; font-family: Roboto, sans-serif; font-size: 12px; font-weight: 200;" fill="rgb(33, 33, 33)" stroke="none" stroke-width="1px">16</text><text x="0" y="40.84615384615384" dx="0em" dy="0.3em" style="text-anchor: end; visibility: hidden; font-family: Roboto, sans-serif; font-size: 12px; font-weight: 200;" fill="rgb(33, 33, 33)" stroke="none" stroke-width="1px">18</text><text x="0" y="27.230769230769234" dx="0em" dy="0.3em" style="text-anchor: end; visibility: inherit; font-family: Roboto, sans-serif; font-size: 12px; font-weight: 200;" fill="rgb(33, 33, 33)" stroke="none" stroke-width="1px">20</text><text x="0" y="13.615384615384606" dx="0em" dy="0.3em" style="text-anchor: end; visibility: hidden; font-family: Roboto, sans-serif; font-size: 12px; font-weight: 200;" fill="rgb(33, 33, 33)" stroke="none" stroke-width="1px">22</text><text x="0" y="0" dx="0em" dy="0.3em" style="text-anchor: end; visibility: hidden; font-family: Roboto, sans-serif; font-size: 12px; font-weight: 200;" fill="rgb(33, 33, 33)" stroke="none" stroke-width="1px">24</text></g><line x1="30" y1="0" x2="30" y2="177" fill="rgb(0, 0, 0)" stroke="rgb(204, 204, 204)" stroke-width="1px"></line></g></g><g transform="translate(30, 0)" clip-path="url(#clip_0)"><clipPath id="clip_0"><rect width="300" height="177"></rect></clipPath><g><g><g><line x1="0" y1="0" x2="0" y2="177" fill="rgb(0, 0, 0)" stroke="rgb(66, 66, 66)" stroke-width="1px" opacity="0.25"></line><line x1="25" y1="0" x2="25" y2="177" fill="rgb(0, 0, 0)" stroke="rgb(66, 66, 66)" stroke-width="1px" opacity="0.25"></line><line x1="50" y1="0" x2="50" y2="177" fill="rgb(0, 0, 0)" stroke="rgb(66, 66, 66)" stroke-width="1px" opacity="0.25"></line><line x1="75" y1="0" x2="75" y2="177" fill="rgb(0, 0, 0)" stroke="rgb(66, 66, 66)" stroke-width="1px" opacity="0.25"></line><line x1="100" y1="0" x2="100" y2="177" fill="rgb(0, 0, 0)" stroke="rgb(66, 66, 66)" stroke-width="1px" opacity="0.25"></line><line x1="125" y1="0" x2="125" y2="177" fill="rgb(0, 0, 0)" stroke="rgb(66, 66, 66)" stroke-width="1px" opacity="0.25"></line><line x1="150" y1="0" x2="150" y2="177" fill="rgb(0, 0, 0)" stroke="rgb(66, 66, 66)" stroke-width="1px" opacity="0.25"></line><line x1="175" y1="0" x2="175" y2="177" fill="rgb(0, 0, 0)" stroke="rgb(66, 66, 66)" stroke-width="1px" opacity="0.25"></line><line x1="200" y1="0" x2="200" y2="177" fill="rgb(0, 0, 0)" stroke="rgb(66, 66, 66)" stroke-width="1px" opacity="0.25"></line><line x1="225" y1="0" x2="225" y2="177" fill="rgb(0, 0, 0)" stroke="rgb(66, 66, 66)" stroke-width="1px" opacity="0.25"></line><line x1="250" y1="0" x2="250" y2="177" fill="rgb(0, 0, 0)" stroke="rgb(66, 66, 66)" stroke-width="1px" opacity="0.25"></line><line x1="275" y1="0" x2="275" y2="177" fill="rgb(0, 0, 0)" stroke="rgb(66, 66, 66)" stroke-width="1px" opacity="0.25"></line><line x1="300" y1="0" x2="300" y2="177" fill="rgb(0, 0, 0)" stroke="rgb(66, 66, 66)" stroke-width="1px" opacity="0.25"></line></g><g><line x1="0" y1="177" x2="300" y2="177" fill="rgb(0, 0, 0)" stroke="rgb(66, 66, 66)" stroke-width="1px" opacity="0.25"></line><line x1="0" y1="163.3846153846154" x2="300" y2="163.3846153846154" fill="rgb(0, 0, 0)" stroke="rgb(66, 66, 66)" stroke-width="1px" opacity="0.25"></line><line x1="0" y1="149.76923076923077" x2="300" y2="149.76923076923077" fill="rgb(0, 0, 0)" stroke="rgb(66, 66, 66)" stroke-width="1px" opacity="0.25"></line><line x1="0" y1="136.15384615384613" x2="300" y2="136.15384615384613" fill="rgb(0, 0, 0)" stroke="rgb(66, 66, 66)" stroke-width="1px" opacity="0.25"></line><line x1="0" y1="122.53846153846153" x2="300" y2="122.53846153846153" fill="rgb(0, 0, 0)" stroke="rgb(66, 66, 66)" stroke-width="1px" opacity="0.25"></line><line x1="0" y1="108.92307692307693" x2="300" y2="108.92307692307693" fill="rgb(0, 0, 0)" stroke="rgb(66, 66, 66)" stroke-width="1px" opacity="0.25"></line><line x1="0" y1="95.3076923076923" x2="300" y2="95.3076923076923" fill="rgb(0, 0, 0)" stroke="rgb(66, 66, 66)" stroke-width="1px" opacity="0.25"></line><line x1="0" y1="81.6923076923077" x2="300" y2="81.6923076923077" fill="rgb(0, 0, 0)" stroke="rgb(66, 66, 66)" stroke-width="1px" opacity="0.25"></line><line x1="0" y1="68.07692307692307" x2="300" y2="68.07692307692307" fill="rgb(0, 0, 0)" stroke="rgb(66, 66, 66)" stroke-width="1px" opacity="0.25"></line><line x1="0" y1="54.46153846153847" x2="300" y2="54.46153846153847" fill="rgb(0, 0, 0)" stroke="rgb(66, 66, 66)" stroke-width="1px" opacity="0.25"></line><line x1="0" y1="40.84615384615384" x2="300" y2="40.84615384615384" fill="rgb(0, 0, 0)" stroke="rgb(66, 66, 66)" stroke-width="1px" opacity="0.25"></line><line x1="0" y1="27.230769230769234" x2="300" y2="27.230769230769234" fill="rgb(0, 0, 0)" stroke="rgb(66, 66, 66)" stroke-width="1px" opacity="0.25"></line><line x1="0" y1="13.615384615384606" x2="300" y2="13.615384615384606" fill="rgb(0, 0, 0)" stroke="rgb(66, 66, 66)" stroke-width="1px" opacity="0.25"></line><line x1="0" y1="0" x2="300" y2="0" fill="rgb(0, 0, 0)" stroke="rgb(66, 66, 66)" stroke-width="1px" opacity="0.25"></line></g></g></g><g><g><line x1="0" y1="163.3846153846154" x2="300" y2="163.3846153846154" fill="rgb(0, 0, 0)" stroke="rgb(153, 153, 153)" stroke-width="1.5px"></line></g></g><g><g><line x1="25" y1="0" x2="25" y2="177" fill="rgb(0, 0, 0)" stroke="rgb(153, 153, 153)" stroke-width="1.5px"></line></g></g><g><g><g><g><g><path stroke="rgb(51, 187, 238)" stroke-width="2px" d="M25,12.833033928504365L26.25,22.482960627629204L27.499999999999996,41.46450849679801L28.750000000000004,81.46038899054894L30,106.40134895764864L31.25,119.4460585300739L32.5,131.2192469743582L33.75,134.39811796408432L35,143.92035368772653L36.25,147.44695989902203L37.5,148.21058997741113L38.75000000000001,147.642914386896L40,147.87264679945434L41.25,149.56204943473523L42.5,151.9750561760022L43.75,153.66401571035385L45,153.91335899096268L46.25,153.84416951124484L47.5,154.54962270993454L48.75,155.22749815078882L50,155.34092306173764L51.25,155.55821375204968L52.5,156.12933433055878L53.75,156.17627056745383L54.99999999999999,156.26235144413434L56.25,156.46516506947003L57.50000000000001,156.6201469233403L58.75,156.81044659935512L60,157.14694848198158L61.25,157.31387458397793L62.5,157.4869756950782L63.75,157.57363601143544L65,157.65378412375082L66.25,157.7903565947826L67.5,157.83034361325778L68.75,157.86976093053818L70,157.86090621581445L71.25,157.96308926664867L72.5,158.05613599832242L73.75,158.12409193699176L75,158.20118460059166L76.25,158.28203104321773L77.50000000000001,158.33101966518623L78.75,158.31473448872566L80,158.43791857591043L81.25,158.51680920674252L82.5,158.56622551037717L83.75,158.60292254502957L85,158.63886241270947L86.25,158.694011841829L87.5,158.71883685542988L88.75,158.63509970674147L90,158.66340825649408L91.24999999999999,158.61998030772577L92.5,158.62450302105682L93.75,158.79743857796376L95,158.85113778481116L96.25000000000001,158.844936806422L97.5,158.79449268717033L98.75,158.79664570322404L100,158.89766703431422L101.25,158.9670780644967L102.5,159.04290634852188L103.75,159.07285664402522L105,159.00776706521327L106.25,158.80963034583974L107.5,158.97499098686072L108.75,159.10574714954083L109.99999999999999,159.22445072348302L111.25,159.23281891987872L112.5,159.32229406329301L113.75,159.38652543838208L115.00000000000001,159.36799716490967L116.25,159.18155920276274L117.5,159.25121166614386L118.75,159.194209085061L120,159.17640348810417L121.25,159.29007429572252L122.5,159.3149991287635L123.75,159.30219545960426L125,159.23905276564452L126.25,159.3125807390763L127.5,159.26757799662076L128.75,159.07465420548732L130,159.22655464135684L131.25,159.22523385974077L132.5,159.34120497795251L133.75,159.2985053864809L135,159.32912439107895L136.25,159.35265053464818L137.5,159.435615502871L138.75,159.4041159771956L140,159.54442072143922L141.25,159.55097390825932L142.5,159.45006254086127L143.75,159.50570173446948L145,159.45320157821362L146.25,159.21473861657657L147.5,159.45481410851846L148.75,159.47854557174904L150,159.525605568519L151.25,159.6337579030257L152.5,159.57377980993343L153.75,159.11725276020857L155.00000000000003,158.8718413916918L156.25,158.85422772398363L157.5,159.20235857138266L158.75,159.6228800186744L160,159.59338134527206L161.25,159.5166417016433L162.5,159.51121533834018L163.74999999999997,159.3285766014686L165,159.52369601451434L166.25,159.67589225677344L167.5,159.76511582273704L168.75,159.74683141708374L170,159.75118614160098L171.25,159.70391595592866L172.5,159.6677691455071L173.75000000000003,159.65847132985408L175,159.59783101998843L176.25,159.69485673308372L177.5,159.63949468044135L178.75,159.65276498519458L180,159.47105383872986L181.25,159.049077299925L182.49999999999997,159.23770073973216L183.75,159.78131294708984L185,159.70293196348044L186.25,159.74021777052147L187.5,159.78121353341984L188.75,159.84101268190605L190,159.91658046153876L191.25,159.7786941069823L192.50000000000003,159.49216483877254L193.75,159.5751091127212L195,159.86526353084125L196.25,159.8285092826073L197.5,160.00849367448916L198.75,160.00382001468768L200,159.88319856845416L201.24999999999997,159.78523228030937L202.5,159.92828692839694L203.75,159.8511910186364L205,159.78197841002392L206.25,159.54547937558246L207.5,159.67453820201067L208.75,159.76059797864693L210,159.8257204248355L211.25000000000003,159.40997448563576L212.5,159.42810794481863L213.75,159.23143078042912L215,159.145183132245L216.25,158.75347298383713L217.5,159.09522187939058L218.75,159.24438255566818L219.99999999999997,159.22591149577727L221.25,158.47754932825382L222.5,158.63881818377055L223.75,158.61598428396078L225,159.0622283082742L226.25,159.4476376588528L227.5,159.4805220778172L228.75,159.51320320597063L230.00000000000003,159.567949705399L231.25,159.42127315356183L232.5,159.30518639087677L233.75,159.97249152110172L235,159.8759819475504L236.25,159.4999122069432L237.5,159.58916214796213L238.74999999999997,159.781983685035L240,160.13072075293613L241.25,160.1111042041045L242.5,160.05450861041362L243.75,159.87357694827594L245,159.97107376043613L246.25,160.02993882619418L247.5,160.05610369260495L248.75000000000003,159.95157082722736L250,159.93221843471895L251.25,159.92179338977886L252.5,159.78145090891766L253.75,159.6709686426016L255,159.52306909973805L256.25,159.2254225428288L257.5,159.33483479343928L258.75,159.6982660133105L260,159.7806478899259L261.25,159.5072505588715L262.5,159.9153619339833L263.75,159.80868011025282L265,160.01110825401085L266.25,159.69144542400653L267.5,158.75900200697092L268.75,158.68550040859444L270,159.40647309560043L271.25,159.26060727238655L272.5,159.38761046758066L273.75,159.0219467007197" style="fill: none;" fill="none"></path></g><g><path stroke="rgb(204, 51, 17)" stroke-width="2px" d="M25,146.23080041775336L26.25,149.86243778008682L27.499999999999996,152.08043466623013L28.750000000000004,153.03831012890888L30,154.06656316610483L31.25,155.06782762362408L32.5,155.8393458724022L33.75,156.36851875140118L35,156.7834563965981L36.25,157.19086010868733L37.5,157.43125981092453L38.75000000000001,157.5688260128865L40,157.91942110199196L41.25,158.11573429061818L42.5,158.23622812216098L43.75,158.3709446008389L45,158.5158718778537L46.25,158.6699610375441L47.5,158.83456045389175L48.75,158.95788209713422L50,159.05294996958511L51.25,159.17206945786108L52.5,159.2332685131293L53.75,159.30572038430435L54.99999999999999,159.42850316487826L56.25,159.536154373334L57.50000000000001,159.6163426568875L58.75,159.7300369991706L60,159.79681336421234L61.25,159.83683162698378L62.5,159.92056634105168L63.75,160.01328358741907L65,160.06584481207224L66.25,160.10814837194405L67.5,160.16998732663117L68.75,160.23512762670333L70,160.31352139207033L71.25,160.37562896655155L72.5,160.42545205469315L73.75,160.5033954152694L75,160.54757261849366L76.25,160.59740361915183L77.50000000000001,160.66949597803446L78.75,160.69561620973624L80,160.76233292657597L81.25,160.80253419165427L82.5,160.83962847521673L83.75,160.9052242522056L85,160.94264761530437L86.25,160.9853052095725L87.5,161.0074513290937L88.75,161.07448069178142L90,161.11114709079266L91.24999999999999,161.131050113302L92.5,161.182711948569L93.75,161.2096528502611L95,161.24837204011587L96.25000000000001,161.28196696249339L97.5,161.30385359204732L98.75,161.3522980763362L100,161.3222286873139L101.25,161.381987664562L102.5,161.39954066964296L103.75,161.4251772234073L105,161.47866563269724L106.25,161.4834340398128L107.5,161.54374303840675L108.75,161.57884417932766L109.99999999999999,161.60867314957656L111.25,161.6427675749247L112.5,161.6635480752358L113.75,161.69624999910593L115.00000000000001,161.72864059588085L116.25,161.75329122978908L117.5,161.76488986324804L118.75,161.7916821516477L120,161.83579017107303L121.25,161.83178410449852L122.5,161.87114339665723L123.75,161.8737155732054L125,161.87451666478927L126.25,161.90026876158439L127.5,161.88593026709097L128.75,161.88923739469968L130,161.8528974377192L131.25,161.84573640731665L132.5,161.86647075128096L133.75,161.86384957799544L135,161.90938185040767L136.25,161.96123794810129L137.5,161.98298671726997L138.75,162.01197726508747L140,162.05886856294595L141.25,162.05789714937026L142.5,162.09212152258706L143.75,162.10265642977677L145,162.10863656779895L146.25,162.11976420363555L147.5,162.1051783922773L148.75,162.15996993218477L150,162.1396469376408L151.25,162.12295122330005L152.5,162.10575844060915L153.75,162.07675095189077L155.00000000000003,162.10877747145983L156.25,162.12856748700142L157.5,162.18620195354407L158.75,162.2037250330815L160,162.22810826450586L161.25,162.20908556018884L162.5,162.23598091418927L163.74999999999997,162.24747658349L165,162.26187482762796L166.25,162.28788844324075L167.5,162.27499063542257L168.75,162.25924381441794L170,162.2752112729045L171.25,162.27501447441486L172.5,162.29147098729243L173.75000000000003,162.2992883508022L175,162.31764549074265L176.25,162.34114414338882L177.5,162.35736774423947L178.75,162.36023988632056L180,162.3315989094285L181.25,162.37531099869656L182.49999999999997,162.3487586218577L183.75,162.36836502643732L185,162.37961794378666L186.25,162.40043425330748L187.5,162.44079508747046L188.75,162.4225306659937L190,162.4172284683356L191.25,162.3849064467045L192.50000000000003,162.40665024518967L193.75,162.38339414160984L195,162.4084260979524L196.25,162.42707660966195L197.5,162.43319318787408L198.75,162.46825009985614L200,162.48393047600985L201.24999999999997,162.50973917773138L202.5,162.5290311104976L203.75,162.54674069210887L205,162.56239489609231L206.25,162.57804833925687L207.5,162.56973253792296L208.75,162.5554549089418L210,162.49562436399552L211.25000000000003,162.45940177601116L212.5,162.41170086539708L213.75,162.38871916383505L215,162.37273364857984L216.25,162.3796862146029L217.5,162.3679847184282L218.75,162.40003700439746L219.99999999999997,162.3880502518553L221.25,162.42099492767682L222.5,162.43525886191773L223.75,162.4660319577043L225,162.48450890126136L226.25,162.46827748933663L227.5,162.4802637346662L228.75,162.51056157224454L230.00000000000003,162.5025636410484L231.25,162.52825284348083L232.5,162.54707895219326L233.75,162.57639649997537L235,162.5638783407899L236.25,162.59678015714655L237.5,162.60940817858165L238.74999999999997,162.61659644630092L240,162.619040348782L241.25,162.6205742611335L242.5,162.63417384830805L243.75,162.6265097137254L245,162.63292453294764L246.25,162.63881362630772L247.5,162.65851264790845L248.75000000000003,162.66347521600815L250,162.66103471185153L251.25,162.64260504050898L252.5,162.6342789427592L253.75,162.64078343716952L255,162.64005893468857L256.25,162.6334942341424L257.5,162.64999264278092L258.75,162.6377624281897L260,162.6488747462057L261.25,162.6478345546012L262.5,162.63271043850827L263.75,162.62501987814903L265,162.6146774074206L266.25,162.59885800429262L267.5,162.59008089309702L268.75,162.56789084896445L270,162.541298199445L271.25,162.5403414950348L272.5,162.50673242142568L273.75,162.5343066794941" style="fill: none;" fill="none"></path></g></g></g></g></g></g><g transform="translate(30, 177)" clip-path="url(#clip_1)"><clipPath id="clip_1"><rect width="300" height="23"></rect></clipPath><g><g><line x1="0" y1="0" x2="0" y2="5" style="visibility: inherit;" fill="rgb(0, 0, 0)" stroke="rgb(204, 204, 204)" stroke-width="1px"></line><line x1="25" y1="0" x2="25" y2="5" style="visibility: inherit;" fill="rgb(0, 0, 0)" stroke="rgb(204, 204, 204)" stroke-width="1px"></line><line x1="50" y1="0" x2="50" y2="5" style="visibility: inherit;" fill="rgb(0, 0, 0)" stroke="rgb(204, 204, 204)" stroke-width="1px"></line><line x1="75" y1="0" x2="75" y2="5" style="visibility: inherit;" fill="rgb(0, 0, 0)" stroke="rgb(204, 204, 204)" stroke-width="1px"></line><line x1="100" y1="0" x2="100" y2="5" style="visibility: inherit;" fill="rgb(0, 0, 0)" stroke="rgb(204, 204, 204)" stroke-width="1px"></line><line x1="125" y1="0" x2="125" y2="5" style="visibility: inherit;" fill="rgb(0, 0, 0)" stroke="rgb(204, 204, 204)" stroke-width="1px"></line><line x1="150" y1="0" x2="150" y2="5" style="visibility: inherit;" fill="rgb(0, 0, 0)" stroke="rgb(204, 204, 204)" stroke-width="1px"></line><line x1="175" y1="0" x2="175" y2="5" style="visibility: inherit;" fill="rgb(0, 0, 0)" stroke="rgb(204, 204, 204)" stroke-width="1px"></line><line x1="200" y1="0" x2="200" y2="5" style="visibility: inherit;" fill="rgb(0, 0, 0)" stroke="rgb(204, 204, 204)" stroke-width="1px"></line><line x1="225" y1="0" x2="225" y2="5" style="visibility: inherit;" fill="rgb(0, 0, 0)" stroke="rgb(204, 204, 204)" stroke-width="1px"></line><line x1="250" y1="0" x2="250" y2="5" style="visibility: inherit;" fill="rgb(0, 0, 0)" stroke="rgb(204, 204, 204)" stroke-width="1px"></line><line x1="275" y1="0" x2="275" y2="5" style="visibility: inherit;" fill="rgb(0, 0, 0)" stroke="rgb(204, 204, 204)" stroke-width="1px"></line><line x1="300" y1="0" x2="300" y2="5" style="visibility: inherit;" fill="rgb(0, 0, 0)" stroke="rgb(204, 204, 204)" stroke-width="1px"></line></g><g transform="translate(0, 8)"><text x="0" y="0" dx="0em" dy="0.95em" style="text-anchor: middle; visibility: hidden; font-family: Roboto, sans-serif; font-size: 12px; font-weight: 200;" fill="rgb(33, 33, 33)" stroke="none" stroke-width="1px">-20</text><text x="25" y="0" dx="0em" dy="0.95em" style="text-anchor: middle; visibility: inherit; font-family: Roboto, sans-serif; font-size: 12px; font-weight: 200;" fill="rgb(33, 33, 33)" stroke="none" stroke-width="1px">0</text><text x="50" y="0" dx="0em" dy="0.95em" style="text-anchor: middle; visibility: hidden; font-family: Roboto, sans-serif; font-size: 12px; font-weight: 200;" fill="rgb(33, 33, 33)" stroke="none" stroke-width="1px">20</text><text x="75" y="0" dx="0em" dy="0.95em" style="text-anchor: middle; visibility: inherit; font-family: Roboto, sans-serif; font-size: 12px; font-weight: 200;" fill="rgb(33, 33, 33)" stroke="none" stroke-width="1px">40</text><text x="100" y="0" dx="0em" dy="0.95em" style="text-anchor: middle; visibility: hidden; font-family: Roboto, sans-serif; font-size: 12px; font-weight: 200;" fill="rgb(33, 33, 33)" stroke="none" stroke-width="1px">60</text><text x="125" y="0" dx="0em" dy="0.95em" style="text-anchor: middle; visibility: inherit; font-family: Roboto, sans-serif; font-size: 12px; font-weight: 200;" fill="rgb(33, 33, 33)" stroke="none" stroke-width="1px">80</text><text x="150" y="0" dx="0em" dy="0.95em" style="text-anchor: middle; visibility: hidden; font-family: Roboto, sans-serif; font-size: 12px; font-weight: 200;" fill="rgb(33, 33, 33)" stroke="none" stroke-width="1px">100</text><text x="175" y="0" dx="0em" dy="0.95em" style="text-anchor: middle; visibility: inherit; font-family: Roboto, sans-serif; font-size: 12px; font-weight: 200;" fill="rgb(33, 33, 33)" stroke="none" stroke-width="1px">120</text><text x="200" y="0" dx="0em" dy="0.95em" style="text-anchor: middle; visibility: hidden; font-family: Roboto, sans-serif; font-size: 12px; font-weight: 200;" fill="rgb(33, 33, 33)" stroke="none" stroke-width="1px">140</text><text x="225" y="0" dx="0em" dy="0.95em" style="text-anchor: middle; visibility: inherit; font-family: Roboto, sans-serif; font-size: 12px; font-weight: 200;" fill="rgb(33, 33, 33)" stroke="none" stroke-width="1px">160</text><text x="250" y="0" dx="0em" dy="0.95em" style="text-anchor: middle; visibility: hidden; font-family: Roboto, sans-serif; font-size: 12px; font-weight: 200;" fill="rgb(33, 33, 33)" stroke="none" stroke-width="1px">180</text><text x="275" y="0" dx="0em" dy="0.95em" style="text-anchor: middle; visibility: inherit; font-family: Roboto, sans-serif; font-size: 12px; font-weight: 200;" fill="rgb(33, 33, 33)" stroke="none" stroke-width="1px">200</text><text x="300" y="0" dx="0em" dy="0.95em" style="text-anchor: middle; visibility: hidden; font-family: Roboto, sans-serif; font-size: 12px; font-weight: 200;" fill="rgb(33, 33, 33)" stroke="none" stroke-width="1px">220</text></g><line x1="0" y1="0" x2="300" y2="0" fill="rgb(0, 0, 0)" stroke="rgb(204, 204, 204)" stroke-width="1px"></line></g></g></g></g></svg>