<svg viewBox="0 0 330 200" xmlns="http://www.w3.org/2000/svg"><g><g><g><g><g><line x1="50" y1="177" x2="45" y2="177" style="visibility: inherit;" fill="rgb(0, 0, 0)" stroke="rgb(204, 204, 204)" stroke-width="1px"></line><line x1="50" y1="162.25" x2="45" y2="162.25" style="visibility: inherit;" fill="rgb(0, 0, 0)" stroke="rgb(204, 204, 204)" stroke-width="1px"></line><line x1="50" y1="147.5" x2="45" y2="147.5" style="visibility: inherit;" fill="rgb(0, 0, 0)" stroke="rgb(204, 204, 204)" stroke-width="1px"></line><line x1="50" y1="132.75000000000003" x2="45" y2="132.75000000000003" style="visibility: inherit;" fill="rgb(0, 0, 0)" stroke="rgb(204, 204, 204)" stroke-width="1px"></line><line x1="50" y1="118.00000000000001" x2="45" y2="118.00000000000001" style="visibility: inherit;" fill="rgb(0, 0, 0)" stroke="rgb(204, 204, 204)" stroke-width="1px"></line><line x1="50" y1="103.25000000000003" x2="45" y2="103.25000000000003" style="visibility: inherit;" fill="rgb(0, 0, 0)" stroke="rgb(204, 204, 204)" stroke-width="1px"></line><line x1="50" y1="88.50000000000001" x2="45" y2="88.50000000000001" style="visibility: inherit;" fill="rgb(0, 0, 0)" stroke="rgb(204, 204, 204)" stroke-width="1px"></line><line x1="50" y1="73.75000000000001" x2="45" y2="73.75000000000001" style="visibility: inherit;" fill="rgb(0, 0, 0)" stroke="rgb(204, 204, 204)" stroke-width="1px"></line><line x1="50" y1="59.00000000000003" x2="45" y2="59.00000000000003" style="visibility: inherit;" fill="rgb(0, 0, 0)" stroke="rgb(204, 204, 204)" stroke-width="1px"></line><line x1="50" y1="44.25000000000002" x2="45" y2="44.25000000000002" style="visibility: inherit;" fill="rgb(0, 0, 0)" stroke="rgb(204, 204, 204)" stroke-width="1px"></line><line x1="50" y1="29.500000000000032" x2="45" y2="29.500000000000032" style="visibility: inherit;" fill="rgb(0, 0, 0)" stroke="rgb(204, 204, 204)" stroke-width="1px"></line><line x1="50" y1="14.750000000000007" x2="45" y2="14.750000000000007" style="visibility: inherit;" fill="rgb(0, 0, 0)" stroke="rgb(204, 204, 204)" stroke-width="1px"></line><line x1="50" y1="0" x2="45" y2="0" style="visibility: inherit;" fill="rgb(0, 0, 0)" stroke="rgb(204, 204, 204)" stroke-width="1px"></line></g><g transform="translate(40, 0)"><text x="0" y="177" dx="0em" dy="0.3em" style="text-anchor: end; visibility: hidden; font-family: Roboto, sans-serif; font-size: 12px; font-weight: 200;" fill="rgb(33, 33, 33)" stroke="none" stroke-width="1px">0.45</text><text x="0" y="162.25" dx="0em" dy="0.3em" style="text-anchor: end; visibility: inherit; font-family: Roboto, sans-serif; font-size: 12px; font-weight: 200;" fill="rgb(33, 33, 33)" stroke="none" stroke-width="1px">0.5</text><text x="0" y="147.5" dx="0em" dy="0.3em" style="text-anchor: end; visibility: hidden; font-family: Roboto, sans-serif; font-size: 12px; font-weight: 200;" fill="rgb(33, 33, 33)" stroke="none" stroke-width="1px">0.55</text><text x="0" y="132.75000000000003" dx="0em" dy="0.3em" style="text-anchor: end; visibility: inherit; font-family: Roboto, sans-serif; font-size: 12px; font-weight: 200;" fill="rgb(33, 33, 33)" stroke="none" stroke-width="1px">0.6</text><text x="0" y="118.00000000000001" dx="0em" dy="0.3em" style="text-anchor: end; visibility: hidden; font-family: Roboto, sans-serif; font-size: 12px; font-weight: 200;" fill="rgb(33, 33, 33)" stroke="none" stroke-width="1px">0.65</text><text x="0" y="103.25000000000003" dx="0em" dy="0.3em" style="text-anchor: end; visibility: inherit; font-family: Roboto, sans-serif; font-size: 12px; font-weight: 200;" fill="rgb(33, 33, 33)" stroke="none" stroke-width="1px">0.7</text><text x="0" y="88.50000000000001" dx="0em" dy="0.3em" style="text-anchor: end; visibility: hidden; font-family: Roboto, sans-serif; font-size: 12px; font-weight: 200;" fill="rgb(33, 33, 33)" stroke="none" stroke-width="1px">0.75</text><text x="0" y="73.75000000000001" dx="0em" dy="0.3em" style="text-anchor: end; visibility: inherit; font-family: Roboto, sans-serif; font-size: 12px; font-weight: 200;" fill="rgb(33, 33, 33)" stroke="none" stroke-width="1px">0.8</text><text x="0" y="59.00000000000003" dx="0em" dy="0.3em" style="text-anchor: end; visibility: hidden; font-family: Roboto, sans-serif; font-size: 12px; font-weight: 200;" fill="rgb(33, 33, 33)" stroke="none" stroke-width="1px">0.85</text><text x="0" y="44.25000000000002" dx="0em" dy="0.3em" style="text-anchor: end; visibility: inherit; font-family: Roboto, sans-serif; font-size: 12px; font-weight: 200;" fill="rgb(33, 33, 33)" stroke="none" stroke-width="1px">0.9</text><text x="0" y="29.500000000000032" dx="0em" dy="0.3em" style="text-anchor: end; visibility: hidden; font-family: Roboto, sans-serif; font-size: 12px; font-weight: 200;" fill="rgb(33, 33, 33)" stroke="none" stroke-width="1px">0.95</text><text x="0" y="14.750000000000007" dx="0em" dy="0.3em" style="text-anchor: end; visibility: inherit; font-family: Roboto, sans-serif; font-size: 12px; font-weight: 200;" fill="rgb(33, 33, 33)" stroke="none" stroke-width="1px">1</text><text x="0" y="0" dx="0em" dy="0.3em" style="text-anchor: end; visibility: hidden; font-family: Roboto, sans-serif; font-size: 12px; font-weight: 200;" fill="rgb(33, 33, 33)" stroke="none" stroke-width="1px">1.05</text></g><line x1="50" y1="0" x2="50" y2="177" fill="rgb(0, 0, 0)" stroke="rgb(204, 204, 204)" stroke-width="1px"></line></g></g><g transform="translate(50, 0)" clip-path="url(#clip_0)"><clipPath id="clip_0"><rect width="280" height="177"></rect></clipPath><g><g><g><line x1="0" y1="0" x2="0" y2="177" fill="rgb(0, 0, 0)" stroke="rgb(66, 66, 66)" stroke-width="1px" opacity="0.25"></line><line x1="23.333333333333332" y1="0" x2="23.333333333333332" y2="177" fill="rgb(0, 0, 0)" stroke="rgb(66, 66, 66)" stroke-width="1px" opacity="0.25"></line><line x1="46.666666666666664" y1="0" x2="46.666666666666664" y2="177" fill="rgb(0, 0, 0)" stroke="rgb(66, 66, 66)" stroke-width="1px" opacity="0.25"></line><line x1="70" y1="0" x2="70" y2="177" fill="rgb(0, 0, 0)" stroke="rgb(66, 66, 66)" stroke-width="1px" opacity="0.25"></line><line x1="93.33333333333333" y1="0" x2="93.33333333333333" y2="177" fill="rgb(0, 0, 0)" stroke="rgb(66, 66, 66)" stroke-width="1px" opacity="0.25"></line><line x1="116.66666666666667" y1="0" x2="116.66666666666667" y2="177" fill="rgb(0, 0, 0)" stroke="rgb(66, 66, 66)" stroke-width="1px" opacity="0.25"></line><line x1="140" y1="0" x2="140" y2="177" fill="rgb(0, 0, 0)" stroke="rgb(66, 66, 66)" stroke-width="1px" opacity="0.25"></line><line x1="163.33333333333334" y1="0" x2="163.33333333333334" y2="177" fill="rgb(0, 0, 0)" stroke="rgb(66, 66, 66)" stroke-width="1px" opacity="0.25"></line><line x1="186.66666666666666" y1="0" x2="186.66666666666666" y2="177" fill="rgb(0, 0, 0)" stroke="rgb(66, 66, 66)" stroke-width="1px" opacity="0.25"></line><line x1="210" y1="0" x2="210" y2="177" fill="rgb(0, 0, 0)" stroke="rgb(66, 66, 66)" stroke-width="1px" opacity="0.25"></line><line x1="233.33333333333334" y1="0" x2="233.33333333333334" y2="177" fill="rgb(0, 0, 0)" stroke="rgb(66, 66, 66)" stroke-width="1px" opacity="0.25"></line><line x1="256.66666666666663" y1="0" x2="256.66666666666663" y2="177" fill="rgb(0, 0, 0)" stroke="rgb(66, 66, 66)" stroke-width="1px" opacity="0.25"></line><line x1="280" y1="0" x2="280" y2="177" fill="rgb(0, 0, 0)" stroke="rgb(66, 66, 66)" stroke-width="1px" opacity="0.25"></line></g><g><line x1="0" y1="177" x2="280" y2="177" fill="rgb(0, 0, 0)" stroke="rgb(66, 66, 66)" stroke-width="1px" opacity="0.25"></line><line x1="0" y1="162.25" x2="280" y2="162.25" fill="rgb(0, 0, 0)" stroke="rgb(66, 66, 66)" stroke-width="1px" opacity="0.25"></line><line x1="0" y1="147.5" x2="280" y2="147.5" fill="rgb(0, 0, 0)" stroke="rgb(66, 66, 66)" stroke-width="1px" opacity="0.25"></line><line x1="0" y1="132.75000000000003" x2="280" y2="132.75000000000003" fill="rgb(0, 0, 0)" stroke="rgb(66, 66, 66)" stroke-width="1px" opacity="0.25"></line><line x1="0" y1="118.00000000000001" x2="280" y2="118.00000000000001" fill="rgb(0, 0, 0)" stroke="rgb(66, 66, 66)" stroke-width="1px" opacity="0.25"></line><line x1="0" y1="103.25000000000003" x2="280" y2="103.25000000000003" fill="rgb(0, 0, 0)" stroke="rgb(66, 66, 66)" stroke-width="1px" opacity="0.25"></line><line x1="0" y1="88.50000000000001" x2="280" y2="88.50000000000001" fill="rgb(0, 0, 0)" stroke="rgb(66, 66, 66)" stroke-width="1px" opacity="0.25"></line><line x1="0" y1="73.75000000000001" x2="280" y2="73.75000000000001" fill="rgb(0, 0, 0)" stroke="rgb(66, 66, 66)" stroke-width="1px" opacity="0.25"></line><line x1="0" y1="59.00000000000003" x2="280" y2="59.00000000000003" fill="rgb(0, 0, 0)" stroke="rgb(66, 66, 66)" stroke-width="1px" opacity="0.25"></line><line x1="0" y1="44.25000000000002" x2="280" y2="44.25000000000002" fill="rgb(0, 0, 0)" stroke="rgb(66, 66, 66)" stroke-width="1px" opacity="0.25"></line><line x1="0" y1="29.500000000000032" x2="280" y2="29.500000000000032" fill="rgb(0, 0, 0)" stroke="rgb(66, 66, 66)" stroke-width="1px" opacity="0.25"></line><line x1="0" y1="14.750000000000007" x2="280" y2="14.750000000000007" fill="rgb(0, 0, 0)" stroke="rgb(66, 66, 66)" stroke-width="1px" opacity="0.25"></line><line x1="0" y1="0" x2="280" y2="0" fill="rgb(0, 0, 0)" stroke="rgb(66, 66, 66)" stroke-width="1px" opacity="0.25"></line></g></g></g><g><g><line x1="0" y1="309.75" x2="280" y2="309.75" fill="rgb(0, 0, 0)" stroke="rgb(153, 153, 153)" stroke-width="1.5px"></line></g></g><g><g><line x1="23.333333333333332" y1="0" x2="23.333333333333332" y2="177" fill="rgb(0, 0, 0)" stroke="rgb(153, 153, 153)" stroke-width="1.5px"></line></g></g><g><g><g><g><g><path stroke="rgb(51, 187, 238)" stroke-width="2px" d="M23.333333333333332,164.31582620739937L24.5,164.31582620739937L25.666666666666664,164.31582620739937L26.833333333333336,164.31582620739937L28,164.31582620739937L29.166666666666668,164.31582620739937L30.333333333333336,164.31582620739937L31.5,164.31582620739937L32.666666666666664,161.01049548387527L33.833333333333336,161.01049548387527L35,162.66316524147987L36.16666666666667,162.66316524147987L37.333333333333336,162.66316524147987L38.5,160.18416500091553L39.666666666666664,140.3522334098816L40.833333333333336,123.82562375068665L42,117.2149798870087L43.16666666666667,110.60433602333072L44.33333333333333,103.99369215965274L45.5,89.11974346637729L46.666666666666664,84.98809105157855L47.833333333333336,84.98809105157855L49,76.72478622198108L50.166666666666664,75.89845573902133L51.33333333333333,72.59313380718234L52.5,69.28781187534335L53.66666666666667,67.63515090942386L54.833333333333336,67.63515090942386L56,65.15615946054461L57.166666666666664,65.98248994350436L58.333333333333336,60.19817656278613L59.5,63.50349849462512L60.66666666666667,61.850837528705625L61.83333333333333,61.850837528705625L63,56.89285463094714L64.16666666666666,59.37184607982638L65.33333333333333,63.50349849462512L66.5,61.02450704574588L67.66666666666667,58.545515596866636L68.83333333333333,59.37184607982638L70,59.37184607982638L71.16666666666666,56.89285463094714L72.33333333333334,58.545515596866636L73.5,59.37184607982638L74.66666666666667,56.066524147987394L75.83333333333333,53.58753269910815L77,53.58753269910815L78.16666666666667,56.89285463094714L79.33333333333333,53.58753269910815L80.5,54.4138631820679L81.66666666666667,56.89285463094714L82.83333333333333,57.71918511390689L84,56.89285463094714L85.16666666666666,60.19817656278613L86.33333333333334,59.37184607982638L87.5,52.761202216148405L88.66666666666666,56.89285463094714L89.83333333333334,53.58753269910815L91,56.066524147987394L92.16666666666667,56.89285463094714L93.33333333333333,56.89285463094714L94.5,55.24019366502765L95.66666666666667,57.71918511390689L96.83333333333333,55.24019366502765L98,56.89285463094714L99.16666666666667,59.37184607982638L100.33333333333333,54.4138631820679L101.5,54.4138631820679L102.66666666666666,56.066524147987394L103.83333333333334,54.4138631820679L105,53.58753269910815L106.16666666666666,56.066524147987394L107.33333333333334,56.066524147987394L108.5,57.71918511390689L109.66666666666667,57.71918511390689L110.83333333333333,57.71918511390689L112,58.545515596866636L113.16666666666667,56.066524147987394L114.33333333333333,57.71918511390689L115.5,55.24019366502765L116.66666666666667,56.89285463094714L117.83333333333333,55.24019366502765L119,57.71918511390689L120.16666666666666,63.50349849462512L121.33333333333334,54.4138631820679L122.5,56.066524147987394L123.66666666666666,48.62954980134967L124.83333333333334,59.37184607982638L126,60.19817656278613L127.16666666666667,55.24019366502765L128.33333333333331,52.761202216148405L129.5,58.545515596866636L130.66666666666666,53.58753269910815L131.83333333333334,54.4138631820679L133,56.89285463094714L134.16666666666669,57.71918511390689L135.33333333333334,58.545515596866636L136.5,61.02450704574588L137.66666666666666,56.066524147987394L138.83333333333334,59.37184607982638L140,55.24019366502765L141.16666666666666,55.24019366502765L142.33333333333331,56.89285463094714L143.5,64.32982897758487L144.66666666666669,62.67716801166537L145.83333333333334,65.15615946054461L147,57.71918511390689L148.16666666666666,51.10854125022891L149.33333333333334,52.761202216148405L150.5,56.066524147987394L151.66666666666666,57.71918511390689L152.83333333333331,54.4138631820679L154,51.93487173318866L155.16666666666669,58.545515596866636L156.33333333333334,54.4138631820679L157.5,56.89285463094714L158.66666666666666,54.4138631820679L159.83333333333331,57.71918511390689L161,51.93487173318866L162.16666666666669,56.066524147987394L163.33333333333334,58.545515596866636L164.5,56.89285463094714L165.66666666666666,58.545515596866636L166.83333333333334,54.4138631820679L168,62.67716801166537L169.16666666666666,64.32982897758487L170.33333333333331,62.67716801166537L171.5,55.24019366502765L172.66666666666669,57.71918511390689L173.83333333333334,56.066524147987394L175,55.24019366502765L176.16666666666666,52.761202216148405L177.33333333333331,55.24019366502765L178.5,62.67716801166537L179.66666666666669,63.50349849462512L180.83333333333334,62.67716801166537L182,60.19817656278613L183.16666666666666,54.4138631820679L184.33333333333334,53.58753269910815L185.5,57.71918511390689L186.66666666666666,60.19817656278613L187.83333333333331,56.066524147987394L189,51.93487173318866L190.16666666666669,60.19817656278613L191.33333333333334,56.89285463094714L192.5,61.850837528705625L193.66666666666666,60.19817656278613L194.83333333333331,55.24019366502765L196,61.02450704574588L197.16666666666669,65.15615946054461L198.33333333333334,58.545515596866636L199.5,60.19817656278613L200.66666666666666,60.19817656278613L201.83333333333334,63.50349849462512L203,53.58753269910815L204.16666666666666,56.89285463094714L205.33333333333331,60.19817656278613L206.5,66.80882042646411L207.66666666666669,66.80882042646411L208.83333333333334,66.80882042646411L210,65.98248994350436L211.16666666666666,62.67716801166537L212.33333333333331,56.066524147987394L213.5,58.545515596866636L214.66666666666669,58.545515596866636L215.83333333333334,54.4138631820679L217,60.19817656278613L218.16666666666666,52.761202216148405L219.33333333333334,53.58753269910815L220.5,61.02450704574588L221.66666666666666,61.02450704574588L222.83333333333331,61.850837528705625L224,60.19817656278613L225.16666666666669,61.02450704574588L226.33333333333334,57.71918511390689L227.5,55.24019366502765L228.66666666666666,56.066524147987394L229.83333333333331,56.89285463094714L231,57.71918511390689L232.16666666666669,56.066524147987394L233.33333333333334,64.32982897758487L234.5,61.02450704574588L235.66666666666666,61.02450704574588L236.83333333333334,61.02450704574588L238,64.32982897758487L239.16666666666666,70.1141423583031L240.33333333333331,69.28781187534335L241.5,64.32982897758487L242.66666666666669,64.32982897758487L243.83333333333334,64.32982897758487L245,64.32982897758487L246.16666666666666,64.32982897758487L247.33333333333331,61.850837528705625L248.5,65.15615946054461L249.66666666666669,67.63515090942386L250.83333333333334,69.28781187534335L252,63.50349849462512L253.16666666666666,64.32982897758487L254.33333333333334,63.50349849462512L255.5,65.15615946054461" style="fill: none;" fill="none"></path></g><g><path stroke="rgb(204, 51, 17)" stroke-width="2px" d="M23.333333333333332,140.41787213087082L24.5,87.16878062486651L25.666666666666664,60.54421728849414L26.833333333333336,50.604390859603896L28,45.98947709798815L29.166666666666668,33.919671535491965L30.333333333333336,24.68982642889023L31.5,24.68982642889023L32.666666666666664,23.979845106601722L33.833333333333336,22.91485553979875L35,21.139884650707252L36.16666666666667,21.494892895221717L37.333333333333336,17.589960455894477L38.5,16.87996155023577L39.666666666666664,17.94495111703874L40.833333333333336,17.94495111703874L42,15.814989566802998L43.16666666666667,17.234952211380012L44.33333333333333,15.814989566802998L45.5,15.104990661144269L46.666666666666664,15.459981322288533L47.833333333333336,15.459981322288533L49,15.814989566802998L50.166666666666664,16.524970889091506L51.33333333333333,15.459981322288533L52.5,14.750000000000007L53.66666666666667,15.814989566802998L54.833333333333336,14.750000000000007L56,15.104990661144269L57.166666666666664,15.459981322288533L58.333333333333336,15.104990661144269L59.5,15.459981322288533L60.66666666666667,15.104990661144269L61.83333333333333,16.169980227947242L63,15.459981322288533L64.16666666666666,14.750000000000007L65.33333333333333,14.750000000000007L66.5,15.104990661144269L67.66666666666667,15.459981322288533L68.83333333333333,14.750000000000007L70,14.750000000000007L71.16666666666666,15.459981322288533L72.33333333333334,14.750000000000007L73.5,15.104990661144269L74.66666666666667,15.104990661144269L75.83333333333333,15.104990661144269L77,15.104990661144269L78.16666666666667,14.750000000000007L79.33333333333333,14.750000000000007L80.5,14.750000000000007L81.66666666666667,15.104990661144269L82.83333333333333,14.750000000000007L84,14.750000000000007L85.16666666666666,15.459981322288533L86.33333333333334,15.104990661144269L87.5,14.750000000000007L88.66666666666666,14.750000000000007L89.83333333333334,15.104990661144269L91,15.459981322288533L92.16666666666667,14.750000000000007L93.33333333333333,15.814989566802998L94.5,14.750000000000007L95.66666666666667,14.750000000000007L96.83333333333333,14.750000000000007L98,14.750000000000007L99.16666666666667,15.459981322288533L100.33333333333333,14.750000000000007L101.5,14.750000000000007L102.66666666666666,15.104990661144269L103.83333333333334,14.750000000000007L105,15.104990661144269L106.16666666666666,14.750000000000007L107.33333333333334,14.750000000000007L108.5,15.104990661144269L109.66666666666667,14.750000000000007L110.83333333333333,14.750000000000007L112,14.750000000000007L113.16666666666667,15.104990661144269L114.33333333333333,14.750000000000007L115.5,14.750000000000007L116.66666666666667,15.459981322288533L117.83333333333333,14.750000000000007L119,15.459981322288533L120.16666666666666,14.750000000000007L121.33333333333334,15.459981322288533L122.5,14.750000000000007L123.66666666666666,14.750000000000007L124.83333333333334,15.104990661144269L126,15.459981322288533L127.16666666666667,14.750000000000007L128.33333333333331,15.104990661144269L129.5,14.750000000000007L130.66666666666666,14.750000000000007L131.83333333333334,15.104990661144269L133,15.104990661144269L134.16666666666669,14.750000000000007L135.33333333333334,15.104990661144269L136.5,14.750000000000007L137.66666666666666,15.459981322288533L138.83333333333334,15.104990661144269L140,15.459981322288533L141.16666666666666,15.104990661144269L142.33333333333331,15.104990661144269L143.5,15.814989566802998L144.66666666666669,15.104990661144269L145.83333333333334,15.104990661144269L147,14.750000000000007L148.16666666666666,15.459981322288533L149.33333333333334,14.750000000000007L150.5,15.104990661144269L151.66666666666666,15.104990661144269L152.83333333333331,15.459981322288533L154,14.750000000000007L155.16666666666669,14.750000000000007L156.33333333333334,15.459981322288533L157.5,16.169980227947242L158.66666666666666,14.750000000000007L159.83333333333331,15.104990661144269L161,14.750000000000007L162.16666666666669,15.104990661144269L163.33333333333334,15.104990661144269L164.5,14.750000000000007L165.66666666666666,14.750000000000007L166.83333333333334,15.104990661144269L168,15.459981322288533L169.16666666666666,14.750000000000007L170.33333333333331,15.459981322288533L171.5,14.750000000000007L172.66666666666669,15.104990661144269L173.83333333333334,14.750000000000007L175,14.750000000000007L176.16666666666666,15.814989566802998L177.33333333333331,15.104990661144269L178.5,15.459981322288533L179.66666666666669,15.104990661144269L180.83333333333334,15.814989566802998L182,14.750000000000007L183.16666666666666,14.750000000000007L184.33333333333334,14.750000000000007L185.5,14.750000000000007L186.66666666666666,14.750000000000007L187.83333333333331,14.750000000000007L189,15.104990661144269L190.16666666666669,14.750000000000007L191.33333333333334,14.750000000000007L192.5,15.104990661144269L193.66666666666666,15.104990661144269L194.83333333333331,15.459981322288533L196,15.459981322288533L197.16666666666669,15.459981322288533L198.33333333333334,15.459981322288533L199.5,15.814989566802998L200.66666666666666,15.459981322288533L201.83333333333334,15.459981322288533L203,16.169980227947242L204.16666666666666,15.104990661144269L205.33333333333331,15.104990661144269L206.5,15.459981322288533L207.66666666666669,15.104990661144269L208.83333333333334,15.104990661144269L210,15.104990661144269L211.16666666666666,15.814989566802998L212.33333333333331,15.459981322288533L213.5,14.750000000000007L214.66666666666669,14.750000000000007L215.83333333333334,14.750000000000007L217,14.750000000000007L218.16666666666666,14.750000000000007L219.33333333333334,15.104990661144269L220.5,15.104990661144269L221.66666666666666,14.750000000000007L222.83333333333331,14.750000000000007L224,15.104990661144269L225.16666666666669,14.750000000000007L226.33333333333334,14.750000000000007L227.5,15.459981322288533L228.66666666666666,15.459981322288533L229.83333333333331,15.104990661144269L231,14.750000000000007L232.16666666666669,15.104990661144269L233.33333333333334,15.104990661144269L234.5,15.104990661144269L235.66666666666666,15.104990661144269L236.83333333333334,14.750000000000007L238,15.104990661144269L239.16666666666666,14.750000000000007L240.33333333333331,14.750000000000007L241.5,15.459981322288533L242.66666666666669,15.104990661144269L243.83333333333334,15.459981322288533L245,15.104990661144269L246.16666666666666,15.104990661144269L247.33333333333331,15.104990661144269L248.5,15.104990661144269L249.66666666666669,15.459981322288533L250.83333333333334,15.459981322288533L252,15.814989566802998L253.16666666666666,15.104990661144269L254.33333333333334,16.169980227947242L255.5,15.104990661144269" style="fill: none;" fill="none"></path></g></g></g></g></g></g><g transform="translate(50, 177)" clip-path="url(#clip_1)"><clipPath id="clip_1"><rect width="280" height="23"></rect></clipPath><g><g><line x1="0" y1="0" x2="0" y2="5" style="visibility: inherit;" fill="rgb(0, 0, 0)" stroke="rgb(204, 204, 204)" stroke-width="1px"></line><line x1="23.333333333333332" y1="0" x2="23.333333333333332" y2="5" style="visibility: inherit;" fill="rgb(0, 0, 0)" stroke="rgb(204, 204, 204)" stroke-width="1px"></line><line x1="46.666666666666664" y1="0" x2="46.666666666666664" y2="5" style="visibility: inherit;" fill="rgb(0, 0, 0)" stroke="rgb(204, 204, 204)" stroke-width="1px"></line><line x1="70" y1="0" x2="70" y2="5" style="visibility: inherit;" fill="rgb(0, 0, 0)" stroke="rgb(204, 204, 204)" stroke-width="1px"></line><line x1="93.33333333333333" y1="0" x2="93.33333333333333" y2="5" style="visibility: inherit;" fill="rgb(0, 0, 0)" stroke="rgb(204, 204, 204)" stroke-width="1px"></line><line x1="116.66666666666667" y1="0" x2="116.66666666666667" y2="5" style="visibility: inherit;" fill="rgb(0, 0, 0)" stroke="rgb(204, 204, 204)" stroke-width="1px"></line><line x1="140" y1="0" x2="140" y2="5" style="visibility: inherit;" fill="rgb(0, 0, 0)" stroke="rgb(204, 204, 204)" stroke-width="1px"></line><line x1="163.33333333333334" y1="0" x2="163.33333333333334" y2="5" style="visibility: inherit;" fill="rgb(0, 0, 0)" stroke="rgb(204, 204, 204)" stroke-width="1px"></line><line x1="186.66666666666666" y1="0" x2="186.66666666666666" y2="5" style="visibility: inherit;" fill="rgb(0, 0, 0)" stroke="rgb(204, 204, 204)" stroke-width="1px"></line><line x1="210" y1="0" x2="210" y2="5" style="visibility: inherit;" fill="rgb(0, 0, 0)" stroke="rgb(204, 204, 204)" stroke-width="1px"></line><line x1="233.33333333333334" y1="0" x2="233.33333333333334" y2="5" style="visibility: inherit;" fill="rgb(0, 0, 0)" stroke="rgb(204, 204, 204)" stroke-width="1px"></line><line x1="256.66666666666663" y1="0" x2="256.66666666666663" y2="5" style="visibility: inherit;" fill="rgb(0, 0, 0)" stroke="rgb(204, 204, 204)" stroke-width="1px"></line><line x1="280" y1="0" x2="280" y2="5" style="visibility: inherit;" fill="rgb(0, 0, 0)" stroke="rgb(204, 204, 204)" stroke-width="1px"></line></g><g transform="translate(0, 8)"><text x="0" y="0" dx="0em" dy="0.95em" style="text-anchor: middle; visibility: hidden; font-family: Roboto, sans-serif; font-size: 12px; font-weight: 200;" fill="rgb(33, 33, 33)" stroke="none" stroke-width="1px">-20</text><text x="23.333333333333332" y="0" dx="0em" dy="0.95em" style="text-anchor: middle; visibility: inherit; font-family: Roboto, sans-serif; font-size: 12px; font-weight: 200;" fill="rgb(33, 33, 33)" stroke="none" stroke-width="1px">0</text><text x="46.666666666666664" y="0" dx="0em" dy="0.95em" style="text-anchor: middle; visibility: hidden; font-family: Roboto, sans-serif; font-size: 12px; font-weight: 200;" fill="rgb(33, 33, 33)" stroke="none" stroke-width="1px">20</text><text x="70" y="0" dx="0em" dy="0.95em" style="text-anchor: middle; visibility: inherit; font-family: Roboto, sans-serif; font-size: 12px; font-weight: 200;" fill="rgb(33, 33, 33)" stroke="none" stroke-width="1px">40</text><text x="93.33333333333333" y="0" dx="0em" dy="0.95em" style="text-anchor: middle; visibility: hidden; font-family: Roboto, sans-serif; font-size: 12px; font-weight: 200;" fill="rgb(33, 33, 33)" stroke="none" stroke-width="1px">60</text><text x="116.66666666666667" y="0" dx="0em" dy="0.95em" style="text-anchor: middle; visibility: inherit; font-family: Roboto, sans-serif; font-size: 12px; font-weight: 200;" fill="rgb(33, 33, 33)" stroke="none" stroke-width="1px">80</text><text x="140" y="0" dx="0em" dy="0.95em" style="text-anchor: middle; visibility: hidden; font-family: Roboto, sans-serif; font-size: 12px; font-weight: 200;" fill="rgb(33, 33, 33)" stroke="none" stroke-width="1px">100</text><text x="163.33333333333334" y="0" dx="0em" dy="0.95em" style="text-anchor: middle; visibility: inherit; font-family: Roboto, sans-serif; font-size: 12px; font-weight: 200;" fill="rgb(33, 33, 33)" stroke="none" stroke-width="1px">120</text><text x="186.66666666666666" y="0" dx="0em" dy="0.95em" style="text-anchor: middle; visibility: hidden; font-family: Roboto, sans-serif; font-size: 12px; font-weight: 200;" fill="rgb(33, 33, 33)" stroke="none" stroke-width="1px">140</text><text x="210" y="0" dx="0em" dy="0.95em" style="text-anchor: middle; visibility: inherit; font-family: Roboto, sans-serif; font-size: 12px; font-weight: 200;" fill="rgb(33, 33, 33)" stroke="none" stroke-width="1px">160</text><text x="233.33333333333334" y="0" dx="0em" dy="0.95em" style="text-anchor: middle; visibility: hidden; font-family: Roboto, sans-serif; font-size: 12px; font-weight: 200;" fill="rgb(33, 33, 33)" stroke="none" stroke-width="1px">180</text><text x="256.66666666666663" y="0" dx="0em" dy="0.95em" style="text-anchor: middle; visibility: inherit; font-family: Roboto, sans-serif; font-size: 12px; font-weight: 200;" fill="rgb(33, 33, 33)" stroke="none" stroke-width="1px">200</text><text x="280" y="0" dx="0em" dy="0.95em" style="text-anchor: middle; visibility: hidden; font-family: Roboto, sans-serif; font-size: 12px; font-weight: 200;" fill="rgb(33, 33, 33)" stroke="none" stroke-width="1px">220</text></g><line x1="0" y1="0" x2="280" y2="0" fill="rgb(0, 0, 0)" stroke="rgb(204, 204, 204)" stroke-width="1px"></line></g></g></g></g></svg>