<svg viewBox="0 0 330 200" xmlns="http://www.w3.org/2000/svg"><g><g><g><g><g><line x1="30" y1="177" x2="25" y2="177" style="visibility: inherit;" fill="rgb(0, 0, 0)" stroke="rgb(204, 204, 204)" stroke-width="1px"></line><line x1="30" y1="164.35714285714286" x2="25" y2="164.35714285714286" style="visibility: inherit;" fill="rgb(0, 0, 0)" stroke="rgb(204, 204, 204)" stroke-width="1px"></line><line x1="30" y1="151.71428571428572" x2="25" y2="151.71428571428572" style="visibility: inherit;" fill="rgb(0, 0, 0)" stroke="rgb(204, 204, 204)" stroke-width="1px"></line><line x1="30" y1="139.07142857142856" x2="25" y2="139.07142857142856" style="visibility: inherit;" fill="rgb(0, 0, 0)" stroke="rgb(204, 204, 204)" stroke-width="1px"></line><line x1="30" y1="126.42857142857143" x2="25" y2="126.42857142857143" style="visibility: inherit;" fill="rgb(0, 0, 0)" stroke="rgb(204, 204, 204)" stroke-width="1px"></line><line x1="30" y1="113.78571428571428" x2="25" y2="113.78571428571428" style="visibility: inherit;" fill="rgb(0, 0, 0)" stroke="rgb(204, 204, 204)" stroke-width="1px"></line><line x1="30" y1="101.14285714285714" x2="25" y2="101.14285714285714" style="visibility: inherit;" fill="rgb(0, 0, 0)" stroke="rgb(204, 204, 204)" stroke-width="1px"></line><line x1="30" y1="88.5" x2="25" y2="88.5" style="visibility: inherit;" fill="rgb(0, 0, 0)" stroke="rgb(204, 204, 204)" stroke-width="1px"></line><line x1="30" y1="75.85714285714286" x2="25" y2="75.85714285714286" style="visibility: inherit;" fill="rgb(0, 0, 0)" stroke="rgb(204, 204, 204)" stroke-width="1px"></line><line x1="30" y1="63.21428571428571" x2="25" y2="63.21428571428571" style="visibility: inherit;" fill="rgb(0, 0, 0)" stroke="rgb(204, 204, 204)" stroke-width="1px"></line><line x1="30" y1="50.57142857142857" x2="25" y2="50.57142857142857" style="visibility: inherit;" fill="rgb(0, 0, 0)" stroke="rgb(204, 204, 204)" stroke-width="1px"></line><line x1="30" y1="37.92857142857143" x2="25" y2="37.92857142857143" style="visibility: inherit;" fill="rgb(0, 0, 0)" stroke="rgb(204, 204, 204)" stroke-width="1px"></line><line x1="30" y1="25.285714285714295" x2="25" y2="25.285714285714295" style="visibility: inherit;" fill="rgb(0, 0, 0)" stroke="rgb(204, 204, 204)" stroke-width="1px"></line><line x1="30" y1="12.642857142857137" x2="25" y2="12.642857142857137" style="visibility: inherit;" fill="rgb(0, 0, 0)" stroke="rgb(204, 204, 204)" stroke-width="1px"></line><line x1="30" y1="0" x2="25" y2="0" style="visibility: inherit;" fill="rgb(0, 0, 0)" stroke="rgb(204, 204, 204)" stroke-width="1px"></line></g><g transform="translate(20, 0)"><text x="0" y="177" dx="0em" dy="0.3em" style="text-anchor: end; visibility: hidden; font-family: Roboto, sans-serif; font-size: 12px; font-weight: 200;" fill="rgb(33, 33, 33)" stroke="none" stroke-width="1px">-1</text><text x="0" y="164.35714285714286" dx="0em" dy="0.3em" style="text-anchor: end; visibility: inherit; font-family: Roboto, sans-serif; font-size: 12px; font-weight: 200;" fill="rgb(33, 33, 33)" stroke="none" stroke-width="1px">0</text><text x="0" y="151.71428571428572" dx="0em" dy="0.3em" style="text-anchor: end; visibility: hidden; font-family: Roboto, sans-serif; font-size: 12px; font-weight: 200;" fill="rgb(33, 33, 33)" stroke="none" stroke-width="1px">1</text><text x="0" y="139.07142857142856" dx="0em" dy="0.3em" style="text-anchor: end; visibility: inherit; font-family: Roboto, sans-serif; font-size: 12px; font-weight: 200;" fill="rgb(33, 33, 33)" stroke="none" stroke-width="1px">2</text><text x="0" y="126.42857142857143" dx="0em" dy="0.3em" style="text-anchor: end; visibility: hidden; font-family: Roboto, sans-serif; font-size: 12px; font-weight: 200;" fill="rgb(33, 33, 33)" stroke="none" stroke-width="1px">3</text><text x="0" y="113.78571428571428" dx="0em" dy="0.3em" style="text-anchor: end; visibility: inherit; font-family: Roboto, sans-serif; font-size: 12px; font-weight: 200;" fill="rgb(33, 33, 33)" stroke="none" stroke-width="1px">4</text><text x="0" y="101.14285714285714" dx="0em" dy="0.3em" style="text-anchor: end; visibility: hidden; font-family: Roboto, sans-serif; font-size: 12px; font-weight: 200;" fill="rgb(33, 33, 33)" stroke="none" stroke-width="1px">5</text><text x="0" y="88.5" dx="0em" dy="0.3em" style="text-anchor: end; visibility: inherit; font-family: Roboto, sans-serif; font-size: 12px; font-weight: 200;" fill="rgb(33, 33, 33)" stroke="none" stroke-width="1px">6</text><text x="0" y="75.85714285714286" dx="0em" dy="0.3em" style="text-anchor: end; visibility: hidden; font-family: Roboto, sans-serif; font-size: 12px; font-weight: 200;" fill="rgb(33, 33, 33)" stroke="none" stroke-width="1px">7</text><text x="0" y="63.21428571428571" dx="0em" dy="0.3em" style="text-anchor: end; visibility: inherit; font-family: Roboto, sans-serif; font-size: 12px; font-weight: 200;" fill="rgb(33, 33, 33)" stroke="none" stroke-width="1px">8</text><text x="0" y="50.57142857142857" dx="0em" dy="0.3em" style="text-anchor: end; visibility: hidden; font-family: Roboto, sans-serif; font-size: 12px; font-weight: 200;" fill="rgb(33, 33, 33)" stroke="none" stroke-width="1px">9</text><text x="0" y="37.92857142857143" dx="0em" dy="0.3em" style="text-anchor: end; visibility: inherit; font-family: Roboto, sans-serif; font-size: 12px; font-weight: 200;" fill="rgb(33, 33, 33)" stroke="none" stroke-width="1px">10</text><text x="0" y="25.285714285714295" dx="0em" dy="0.3em" style="text-anchor: end; visibility: hidden; font-family: Roboto, sans-serif; font-size: 12px; font-weight: 200;" fill="rgb(33, 33, 33)" stroke="none" stroke-width="1px">11</text><text x="0" y="12.642857142857137" dx="0em" dy="0.3em" style="text-anchor: end; visibility: inherit; font-family: Roboto, sans-serif; font-size: 12px; font-weight: 200;" fill="rgb(33, 33, 33)" stroke="none" stroke-width="1px">12</text><text x="0" y="0" dx="0em" dy="0.3em" style="text-anchor: end; visibility: hidden; font-family: Roboto, sans-serif; font-size: 12px; font-weight: 200;" fill="rgb(33, 33, 33)" stroke="none" stroke-width="1px">13</text></g><line x1="30" y1="0" x2="30" y2="177" fill="rgb(0, 0, 0)" stroke="rgb(204, 204, 204)" stroke-width="1px"></line></g></g><g transform="translate(30, 0)" clip-path="url(#clip_0)"><clipPath id="clip_0"><rect width="300" height="177"></rect></clipPath><g><g><g><line x1="0" y1="0" x2="0" y2="177" fill="rgb(0, 0, 0)" stroke="rgb(66, 66, 66)" stroke-width="1px" opacity="0.25"></line><line x1="25" y1="0" x2="25" y2="177" fill="rgb(0, 0, 0)" stroke="rgb(66, 66, 66)" stroke-width="1px" opacity="0.25"></line><line x1="50" y1="0" x2="50" y2="177" fill="rgb(0, 0, 0)" stroke="rgb(66, 66, 66)" stroke-width="1px" opacity="0.25"></line><line x1="75" y1="0" x2="75" y2="177" fill="rgb(0, 0, 0)" stroke="rgb(66, 66, 66)" stroke-width="1px" opacity="0.25"></line><line x1="100" y1="0" x2="100" y2="177" fill="rgb(0, 0, 0)" stroke="rgb(66, 66, 66)" stroke-width="1px" opacity="0.25"></line><line x1="125" y1="0" x2="125" y2="177" fill="rgb(0, 0, 0)" stroke="rgb(66, 66, 66)" stroke-width="1px" opacity="0.25"></line><line x1="150" y1="0" x2="150" y2="177" fill="rgb(0, 0, 0)" stroke="rgb(66, 66, 66)" stroke-width="1px" opacity="0.25"></line><line x1="175" y1="0" x2="175" y2="177" fill="rgb(0, 0, 0)" stroke="rgb(66, 66, 66)" stroke-width="1px" opacity="0.25"></line><line x1="200" y1="0" x2="200" y2="177" fill="rgb(0, 0, 0)" stroke="rgb(66, 66, 66)" stroke-width="1px" opacity="0.25"></line><line x1="225" y1="0" x2="225" y2="177" fill="rgb(0, 0, 0)" stroke="rgb(66, 66, 66)" stroke-width="1px" opacity="0.25"></line><line x1="250" y1="0" x2="250" y2="177" fill="rgb(0, 0, 0)" stroke="rgb(66, 66, 66)" stroke-width="1px" opacity="0.25"></line><line x1="275" y1="0" x2="275" y2="177" fill="rgb(0, 0, 0)" stroke="rgb(66, 66, 66)" stroke-width="1px" opacity="0.25"></line><line x1="300" y1="0" x2="300" y2="177" fill="rgb(0, 0, 0)" stroke="rgb(66, 66, 66)" stroke-width="1px" opacity="0.25"></line></g><g><line x1="0" y1="177" x2="300" y2="177" fill="rgb(0, 0, 0)" stroke="rgb(66, 66, 66)" stroke-width="1px" opacity="0.25"></line><line x1="0" y1="164.35714285714286" x2="300" y2="164.35714285714286" fill="rgb(0, 0, 0)" stroke="rgb(66, 66, 66)" stroke-width="1px" opacity="0.25"></line><line x1="0" y1="151.71428571428572" x2="300" y2="151.71428571428572" fill="rgb(0, 0, 0)" stroke="rgb(66, 66, 66)" stroke-width="1px" opacity="0.25"></line><line x1="0" y1="139.07142857142856" x2="300" y2="139.07142857142856" fill="rgb(0, 0, 0)" stroke="rgb(66, 66, 66)" stroke-width="1px" opacity="0.25"></line><line x1="0" y1="126.42857142857143" x2="300" y2="126.42857142857143" fill="rgb(0, 0, 0)" stroke="rgb(66, 66, 66)" stroke-width="1px" opacity="0.25"></line><line x1="0" y1="113.78571428571428" x2="300" y2="113.78571428571428" fill="rgb(0, 0, 0)" stroke="rgb(66, 66, 66)" stroke-width="1px" opacity="0.25"></line><line x1="0" y1="101.14285714285714" x2="300" y2="101.14285714285714" fill="rgb(0, 0, 0)" stroke="rgb(66, 66, 66)" stroke-width="1px" opacity="0.25"></line><line x1="0" y1="88.5" x2="300" y2="88.5" fill="rgb(0, 0, 0)" stroke="rgb(66, 66, 66)" stroke-width="1px" opacity="0.25"></line><line x1="0" y1="75.85714285714286" x2="300" y2="75.85714285714286" fill="rgb(0, 0, 0)" stroke="rgb(66, 66, 66)" stroke-width="1px" opacity="0.25"></line><line x1="0" y1="63.21428571428571" x2="300" y2="63.21428571428571" fill="rgb(0, 0, 0)" stroke="rgb(66, 66, 66)" stroke-width="1px" opacity="0.25"></line><line x1="0" y1="50.57142857142857" x2="300" y2="50.57142857142857" fill="rgb(0, 0, 0)" stroke="rgb(66, 66, 66)" stroke-width="1px" opacity="0.25"></line><line x1="0" y1="37.92857142857143" x2="300" y2="37.92857142857143" fill="rgb(0, 0, 0)" stroke="rgb(66, 66, 66)" stroke-width="1px" opacity="0.25"></line><line x1="0" y1="25.285714285714295" x2="300" y2="25.285714285714295" fill="rgb(0, 0, 0)" stroke="rgb(66, 66, 66)" stroke-width="1px" opacity="0.25"></line><line x1="0" y1="12.642857142857137" x2="300" y2="12.642857142857137" fill="rgb(0, 0, 0)" stroke="rgb(66, 66, 66)" stroke-width="1px" opacity="0.25"></line><line x1="0" y1="0" x2="300" y2="0" fill="rgb(0, 0, 0)" stroke="rgb(66, 66, 66)" stroke-width="1px" opacity="0.25"></line></g></g></g><g><g><line x1="0" y1="164.35714285714286" x2="300" y2="164.35714285714286" fill="rgb(0, 0, 0)" stroke="rgb(153, 153, 153)" stroke-width="1.5px"></line></g></g><g><g><line x1="25" y1="0" x2="25" y2="177" fill="rgb(0, 0, 0)" stroke="rgb(153, 153, 153)" stroke-width="1.5px"></line></g></g><g><g><g><g><g><path stroke="rgb(187, 187, 187)" stroke-width="2px" d="M25,46.84469052723476L26.25,16.86588028499058L27.499999999999996,63.628328868321006L28.750000000000004,113.3371273449489L30,133.1157662527902L31.25,142.48512786626816L32.5,140.8991415330342L33.75,139.8338997704642L35,139.98433102880205L36.25,139.02042072159904L37.5,140.8061204808099L38.75000000000001,144.433736545699L40,145.3119972518512L41.25,145.271543945585L42.5,145.57019698619843L43.75,146.80235064881188L45,147.59183593307222L46.25,148.04224350622724L47.5,148.48284106595176L48.75,148.88551431042808L50,149.00647483553206L51.25,149.1623574410166L52.5,149.6031554511615L53.75,149.7132328748703L54.99999999999999,149.20596972533633L56.25,148.35806444713046L57.50000000000001,147.7632270710809L58.75,147.02146104403903L60,147.0550945145743L61.25,146.78713299546922L62.5,146.34746534483773L63.75,145.94262783867973L65,145.60214245319366L66.25,145.32196702275957L67.5,145.6740740111896L68.75,146.3527011701039L70,147.1127609355109L71.25,147.93758276530673L72.5,148.4114972949028L73.75,149.0035132936069L75,149.58164094175612L76.25,150.0947277035032L77.50000000000001,150.4501021845L78.75,150.69405185324806L80,150.81138618503297L81.25,151.24351509128297L82.5,151.45109581947327L83.75,151.5780834215028L85,151.99903985432218L86.25,152.3858956013407L87.5,152.65924366031373L88.75,152.95052148188864L90,153.21860884768623L91.24999999999999,153.38917783754212L92.5,153.45245084166527L93.75,153.5902122770037L95,153.6700751909188L96.25000000000001,153.7454076239041L97.5,153.8184228198869L98.75,153.9689686213221L100,154.04758587905337L101.25,154.05915925332476L102.5,154.14810422914368L103.75,154.23199046935355L105,154.34054341486524L106.25,154.41666107092584L107.5,154.4381476981299L108.75,154.46596358503615L109.99999999999999,154.4650999903679L111.25,154.34671367066247L112.5,154.28889954941613L113.75,154.26213866472244L115.00000000000001,154.18955752679278L116.25,154.19497873101915L117.5,154.2193018070289L118.75,154.31400257349014L120,154.3885038154466L121.25,154.52577919619424L122.5,154.6337405868939L123.75,154.74665521298135L125,154.8298858446734L126.25,154.88344453913825L127.5,154.893449727978L128.75,154.869272091559L130,154.8060262160642L131.25,154.71141211049897L132.5,154.59459246907915L133.75,154.51784407241004L135,154.43419972913605L136.25,154.32917350530624L137.5,154.27930882573128L138.75,154.39090319190706L140,154.5142435005733L141.25,154.63945568459374L142.5,154.70468797854016L143.75,154.7855501302651L145,154.77563084874834L146.25,154.7320012322494L147.5,154.7045334960733L148.75,154.6908689567021L150,154.68306646176745L151.25,154.63434344530106L152.5,154.56488511392047L153.75,154.56164022854398L155.00000000000003,154.57786088756154L156.25,154.56493560331208L157.5,154.60664210149218L158.75,154.64090254477094L160,154.69655692577362L161.25,154.72778800555636L162.5,154.75227309976304L163.74999999999997,154.7731417970998L165,154.72865762880872L166.25,154.66277123349053L167.5,154.56666731408666L168.75,154.49152026006152L170,154.4626229958875L171.25,154.47589643086707L172.5,154.47644201772553L173.75000000000003,154.47925812005997L175,154.48049397979463L176.25,154.54174137966973L177.5,154.59203559585978L178.75,154.60583427122663L180,154.61882737704684L181.25,154.69505731548583L182.49999999999997,154.72229445832116L183.75,154.70133759294237L185,154.66408471124512L186.25,154.62723348396165L187.5,154.59228201423372L188.75,154.56996871743883L190,154.55044740864207L191.25,154.48339975731713L192.50000000000003,154.47997552156448L193.75,154.49808915598052L195,154.56672835350037L196.25,154.61704140901566L197.5,154.621029317379L198.75,154.5729460843972L200,154.5630509172167L201.24999999999997,154.55753702351024L202.5,154.5653003326484L203.75,154.55676461117608L205,154.5716092458793L206.25,154.58264682974135L207.5,154.60915149961198L208.75,154.59007630603654L210,154.58579601134574L211.25000000000003,154.64916170494897L212.5,154.73001858166288L213.75,154.73462818775857L215,154.76558270624707L216.25,154.8065921493939L217.5,154.8170351641519L218.75,154.83263111114502L219.99999999999997,154.85098664249693L221.25,154.85684944050652L222.5,154.98174512386322L223.75,155.18874635440963L225,155.26359047208516L226.25,155.26402905157636L227.5,155.30565642459052L228.75,155.37801525848252L230.00000000000003,155.45858954531806L231.25,155.50633517759186L232.5,155.5110525446279L233.75,155.49269098469188L235,155.51343835677417L236.25,155.56193680848392L237.5,155.5565773972443L238.74999999999997,155.54416152834892L240,155.55663466879298L241.25,155.53905230334829L242.5,155.51604195152012L243.75,155.44782324773925L245,155.36296113048283L246.25,155.2906791610377L247.5,155.24636982168468L248.75000000000003,155.23214914543289L250,155.20921716519763L251.25,155.15705634866444L252.5,155.18083082352368L253.75,155.17914658784866L255,155.15627715417315L256.25,155.1330550483295L257.5,155.12981468439102L258.75,155.1505002634866L260,155.11422024454387L261.25,155.0388976080077L262.5,154.8932048167501L263.75,154.65880517874444L265,154.51081549695562L266.25,154.5451512975352L267.5,154.63233969467026L268.75,154.69162102256502L270,154.67581332155635L271.25,154.62957634244646L272.5,154.51102197596003L273.75,154.37705402714866" style="fill: none;" fill="none"></path></g><g><path stroke="rgb(0, 153, 136)" stroke-width="2px" d="M25,142.41432666778564L26.25,145.5114258272307L27.499999999999996,147.55214524269104L28.750000000000004,148.97387526716506L30,148.7687994156565L31.25,150.34381824731827L32.5,150.46964836120605L33.75,151.64955228567123L35,151.09241013867515L36.25,152.3349668766771L37.5,153.42330113053322L38.75000000000001,153.33637422323227L40,153.55157282097L41.25,154.4941547513008L42.5,154.14943051763942L43.75,155.09357159052578L45,155.36342081001828L46.25,156.08256382175853L47.5,155.62676141943248L48.75,156.47326580541474L50,156.5991682623114L51.25,156.56398619924275L52.5,156.93427615080563L53.75,157.16187554597855L54.99999999999999,157.06540388294627L56.25,157.30382458652767L57.50000000000001,157.4074340931007L58.75,157.16056583608898L60,158.0433453427894L61.25,157.68978207451957L62.5,158.3809731794255L63.75,157.98062734518734L65,158.31035660633017L66.25,158.91068941354752L67.5,158.72971245007855L68.75,158.4521236589977L70,158.82330018920558L71.25,158.3217133283615L72.5,158.78224138702663L73.75,158.7753533529384L75,159.18897601323468L76.25,159.19127591805798L77.50000000000001,158.7021132154124L78.75,158.99053687921594L80,159.14336374614922L81.25,158.76678372068065L82.5,159.4566383638552L83.75,159.5833154938051L85,158.95930617621968L86.25,159.36808637636048L87.5,159.4240956902504L88.75,159.62794811597894L90,159.58725404313634L91.24999999999999,159.82369586399625L92.5,159.54628152506692L93.75,159.57510230158059L95,159.36080610752106L96.25000000000001,159.9946842172316L97.5,159.665230010237L98.75,160.06606152227948L100,160.05078546702862L101.25,159.8774429517133L102.5,160.10536676006657L103.75,160.18141018918584L105,160.15116440611226L106.25,160.15364629881722L107.5,160.36554160927025L108.75,160.2515456059149L109.99999999999999,160.19380081338542L111.25,160.27879028448035L112.5,160.30797654390335L113.75,160.32044252540382L115.00000000000001,160.33142359129022L116.25,160.5629272482225L117.5,160.06707846905502L118.75,160.53834682703018L120,160.41313501979621L121.25,160.63920240104198L122.5,160.26786460621017L123.75,160.608962269766L125,160.4923027626106L126.25,160.42519068079335L127.5,160.60048608056138L128.75,160.54760296429905L130,160.72139573948724L131.25,160.84667084685395L132.5,160.8299456707069L133.75,160.5602400068726L135,160.90088590340955L136.25,160.97198589359013L137.5,160.70494976214002L138.75,160.95944643872124L140,160.94466359700473L141.25,160.92999416802613L142.5,160.88801299248425L143.75,160.7678139529058L145,160.55730559357573L146.25,160.9513300806284L147.5,160.5817273876497L148.75,160.86142392243656L150,161.03953730847152L151.25,160.86505953541825L152.5,160.8435284474066L153.75,160.89488670868533L155.00000000000003,161.17353502341678L156.25,161.02997672770707L157.5,161.18059713287013L158.75,160.85721031895707L160,160.8324392437935L161.25,161.06795982164996L162.5,161.00301162472795L163.74999999999997,161.0278335660696L165,160.91195852841648L166.25,161.2737061647432L167.5,160.98237917252948L168.75,161.13463144004345L170,161.15406382722514L171.25,161.06898279700962L172.5,161.11753625954898L173.75000000000003,161.2038697281054L175,161.09424256426948L176.25,161.1547932858978L177.5,161.2247828862497L178.75,161.23407331109047L180,161.249911531806L181.25,161.23174966871738L182.49999999999997,161.2303355889661L183.75,160.89938026453765L185,161.45351414808204L186.25,161.3484297107373L187.5,161.30008253880908L188.75,161.38960795423816L190,161.1778224770512L191.25,161.38386648148298L192.50000000000003,161.4070652265634L193.75,161.46200898821863L195,161.39180104008744L196.25,161.39023436180184L197.5,161.42592489825827L198.75,161.4380144700408L200,161.24332869478633L201.24999999999997,161.4852292101298L202.5,161.47356974014212L203.75,161.49851018083947L205,161.38467468853506L206.25,161.48823351732324L207.5,161.55382470041513L208.75,161.54857210814953L210,161.38200515615088L211.25000000000003,161.20337915207656L212.5,161.5167338369148L213.75,161.46450312648503L215,161.55330511182547L216.25,161.45198194576162L217.5,161.63218423617738L218.75,161.57286767874447L219.99999999999997,161.656959079206L221.25,161.599934702473L222.5,161.49591883165496L223.75,161.6455075953688L225,161.43018691880363L226.25,161.710366305496L227.5,161.52477201180798L228.75,161.43255238447873L230.00000000000003,161.47411419664112L231.25,161.6548228881189L232.5,161.66469036149127L233.75,161.59675010293722L235,161.54909000119994L236.25,161.5489622705749L237.5,161.76326298607248L238.74999999999997,161.5755858165877L240,161.69875883204597L241.25,161.61410809201854L242.5,161.77611686927932L243.75,161.7238281337278L245,161.80439224732774L246.25,161.7490208329899L247.5,161.60912753960918L248.75000000000003,161.7652914162193L250,161.69090019592215L251.25,161.6331478676626L252.5,161.73061142116785L253.75,161.74872920023543L255,161.69328186341693L256.25,161.799948427294L257.5,161.7777033288564L258.75,161.75311499514748L260,161.73914751942667L261.25,161.88100047941717L262.5,161.71309989158598L263.75,161.686547935009L265,161.69866162112783L266.25,161.73601717714754L267.5,161.7632204091975L268.75,161.67446213109153L270,161.65169216905323L271.25,161.72803928809506L272.5,161.82179055256503L273.75,161.7663961542504" style="fill: none;" fill="none"></path></g></g></g></g></g></g><g transform="translate(30, 177)" clip-path="url(#clip_1)"><clipPath id="clip_1"><rect width="300" height="23"></rect></clipPath><g><g><line x1="0" y1="0" x2="0" y2="5" style="visibility: inherit;" fill="rgb(0, 0, 0)" stroke="rgb(204, 204, 204)" stroke-width="1px"></line><line x1="25" y1="0" x2="25" y2="5" style="visibility: inherit;" fill="rgb(0, 0, 0)" stroke="rgb(204, 204, 204)" stroke-width="1px"></line><line x1="50" y1="0" x2="50" y2="5" style="visibility: inherit;" fill="rgb(0, 0, 0)" stroke="rgb(204, 204, 204)" stroke-width="1px"></line><line x1="75" y1="0" x2="75" y2="5" style="visibility: inherit;" fill="rgb(0, 0, 0)" stroke="rgb(204, 204, 204)" stroke-width="1px"></line><line x1="100" y1="0" x2="100" y2="5" style="visibility: inherit;" fill="rgb(0, 0, 0)" stroke="rgb(204, 204, 204)" stroke-width="1px"></line><line x1="125" y1="0" x2="125" y2="5" style="visibility: inherit;" fill="rgb(0, 0, 0)" stroke="rgb(204, 204, 204)" stroke-width="1px"></line><line x1="150" y1="0" x2="150" y2="5" style="visibility: inherit;" fill="rgb(0, 0, 0)" stroke="rgb(204, 204, 204)" stroke-width="1px"></line><line x1="175" y1="0" x2="175" y2="5" style="visibility: inherit;" fill="rgb(0, 0, 0)" stroke="rgb(204, 204, 204)" stroke-width="1px"></line><line x1="200" y1="0" x2="200" y2="5" style="visibility: inherit;" fill="rgb(0, 0, 0)" stroke="rgb(204, 204, 204)" stroke-width="1px"></line><line x1="225" y1="0" x2="225" y2="5" style="visibility: inherit;" fill="rgb(0, 0, 0)" stroke="rgb(204, 204, 204)" stroke-width="1px"></line><line x1="250" y1="0" x2="250" y2="5" style="visibility: inherit;" fill="rgb(0, 0, 0)" stroke="rgb(204, 204, 204)" stroke-width="1px"></line><line x1="275" y1="0" x2="275" y2="5" style="visibility: inherit;" fill="rgb(0, 0, 0)" stroke="rgb(204, 204, 204)" stroke-width="1px"></line><line x1="300" y1="0" x2="300" y2="5" style="visibility: inherit;" fill="rgb(0, 0, 0)" stroke="rgb(204, 204, 204)" stroke-width="1px"></line></g><g transform="translate(0, 8)"><text x="0" y="0" dx="0em" dy="0.95em" style="text-anchor: middle; visibility: hidden; font-family: Roboto, sans-serif; font-size: 12px; font-weight: 200;" fill="rgb(33, 33, 33)" stroke="none" stroke-width="1px">-20</text><text x="25" y="0" dx="0em" dy="0.95em" style="text-anchor: middle; visibility: inherit; font-family: Roboto, sans-serif; font-size: 12px; font-weight: 200;" fill="rgb(33, 33, 33)" stroke="none" stroke-width="1px">0</text><text x="50" y="0" dx="0em" dy="0.95em" style="text-anchor: middle; visibility: inherit; font-family: Roboto, sans-serif; font-size: 12px; font-weight: 200;" fill="rgb(33, 33, 33)" stroke="none" stroke-width="1px">20</text><text x="75" y="0" dx="0em" dy="0.95em" style="text-anchor: middle; visibility: inherit; font-family: Roboto, sans-serif; font-size: 12px; font-weight: 200;" fill="rgb(33, 33, 33)" stroke="none" stroke-width="1px">40</text><text x="100" y="0" dx="0em" dy="0.95em" style="text-anchor: middle; visibility: inherit; font-family: Roboto, sans-serif; font-size: 12px; font-weight: 200;" fill="rgb(33, 33, 33)" stroke="none" stroke-width="1px">60</text><text x="125" y="0" dx="0em" dy="0.95em" style="text-anchor: middle; visibility: inherit; font-family: Roboto, sans-serif; font-size: 12px; font-weight: 200;" fill="rgb(33, 33, 33)" stroke="none" stroke-width="1px">80</text><text x="150" y="0" dx="0em" dy="0.95em" style="text-anchor: middle; visibility: inherit; font-family: Roboto, sans-serif; font-size: 12px; font-weight: 200;" fill="rgb(33, 33, 33)" stroke="none" stroke-width="1px">100</text><text x="175" y="0" dx="0em" dy="0.95em" style="text-anchor: middle; visibility: inherit; font-family: Roboto, sans-serif; font-size: 12px; font-weight: 200;" fill="rgb(33, 33, 33)" stroke="none" stroke-width="1px">120</text><text x="200" y="0" dx="0em" dy="0.95em" style="text-anchor: middle; visibility: inherit; font-family: Roboto, sans-serif; font-size: 12px; font-weight: 200;" fill="rgb(33, 33, 33)" stroke="none" stroke-width="1px">140</text><text x="225" y="0" dx="0em" dy="0.95em" style="text-anchor: middle; visibility: inherit; font-family: Roboto, sans-serif; font-size: 12px; font-weight: 200;" fill="rgb(33, 33, 33)" stroke="none" stroke-width="1px">160</text><text x="250" y="0" dx="0em" dy="0.95em" style="text-anchor: middle; visibility: inherit; font-family: Roboto, sans-serif; font-size: 12px; font-weight: 200;" fill="rgb(33, 33, 33)" stroke="none" stroke-width="1px">180</text><text x="275" y="0" dx="0em" dy="0.95em" style="text-anchor: middle; visibility: inherit; font-family: Roboto, sans-serif; font-size: 12px; font-weight: 200;" fill="rgb(33, 33, 33)" stroke="none" stroke-width="1px">200</text><text x="300" y="0" dx="0em" dy="0.95em" style="text-anchor: middle; visibility: hidden; font-family: Roboto, sans-serif; font-size: 12px; font-weight: 200;" fill="rgb(33, 33, 33)" stroke="none" stroke-width="1px">220</text></g><line x1="0" y1="0" x2="300" y2="0" fill="rgb(0, 0, 0)" stroke="rgb(204, 204, 204)" stroke-width="1px"></line></g></g></g></g></svg>